<?xml version="1.0" encoding="utf-8" standalone="no"?>
<!DOCTYPE svg PUBLIC "-//W3C//DTD SVG 1.1//EN"
  "http://www.w3.org/Graphics/SVG/1.1/DTD/svg11.dtd">
<svg xmlns:xlink="http://www.w3.org/1999/xlink" width="210.878438pt" height="354.623594pt" viewBox="0 0 210.878438 354.623594" xmlns="http://www.w3.org/2000/svg" version="1.1">
 <metadata>
  <rdf:RDF xmlns:dc="http://purl.org/dc/elements/1.1/" xmlns:cc="http://creativecommons.org/ns#" xmlns:rdf="http://www.w3.org/1999/02/22-rdf-syntax-ns#">
   <cc:Work>
    <dc:type rdf:resource="http://purl.org/dc/dcmitype/StillImage"/>
    <dc:date>2026-06-08T12:08:41.837819</dc:date>
    <dc:format>image/svg+xml</dc:format>
    <dc:creator>
     <cc:Agent>
      <dc:title>Matplotlib v3.9.4, https://matplotlib.org/</dc:title>
     </cc:Agent>
    </dc:creator>
   </cc:Work>
  </rdf:RDF>
 </metadata>
 <defs>
  <style type="text/css">*{stroke-linejoin: round; stroke-linecap: butt}</style>
 </defs>
 <g id="figure_1">
  <g id="patch_1">
   <path d="M 0 354.623594 
L 210.878438 354.623594 
L 210.878438 0 
L 0 0 
z
" style="fill: #ffffff"/>
  </g>
  <g id="axes_1">
   <g id="patch_2">
    <path d="M 37.198437 317.692969 
L 203.678438 317.692969 
L 203.678438 24.832969 
L 37.198437 24.832969 
z
" style="fill: #ffffff"/>
   </g>
   <g id="line2d_1">
    <path d="M 100.858666 317.692969 
L 100.858666 24.832969 
" clip-path="url(#p3ad78e8f60)" style="fill: none; stroke-dasharray: 1.85,0.8; stroke-dashoffset: 0; stroke: #666666; stroke-width: 0.5"/>
   </g>
   <g id="matplotlib.axis_1">
    <g id="xtick_1">
     <g id="line2d_2">
      <defs>
       <path id="mee8b8f5070" d="M 0 0 
L 0 3 
" style="stroke: #000000; stroke-width: 0.5"/>
      </defs>
      <g>
       <use xlink:href="#mee8b8f5070" x="46.671533" y="317.692969" style="stroke: #000000; stroke-width: 0.5"/>
      </g>
     </g>
     <g id="text_1">
      <!-- −0.5 -->
      <g transform="translate(38.508955 330.438125) scale(0.09 -0.09)">
       <defs>
        <path id="LiberationSerif-2212" d="M 3297 2284 
L 3297 1966 
L 319 1966 
L 319 2284 
L 3297 2284 
z
" transform="scale(0.015625)"/>
        <path id="LiberationSerif-30" d="M 2956 2113 
Q 2956 -63 1581 -63 
Q 919 -63 581 493 
Q 244 1050 244 2113 
Q 244 3153 581 3704 
Q 919 4256 1606 4256 
Q 2269 4256 2612 3711 
Q 2956 3166 2956 2113 
z
M 2381 2113 
Q 2381 3119 2190 3562 
Q 2000 4006 1581 4006 
Q 1175 4006 997 3587 
Q 819 3169 819 2113 
Q 819 1050 1000 617 
Q 1181 184 1581 184 
Q 1994 184 2187 639 
Q 2381 1094 2381 2113 
z
" transform="scale(0.015625)"/>
        <path id="LiberationSerif-2e" d="M 1178 288 
Q 1178 134 1070 21 
Q 963 -91 800 -91 
Q 638 -91 530 21 
Q 422 134 422 288 
Q 422 447 531 556 
Q 641 666 800 666 
Q 959 666 1068 556 
Q 1178 447 1178 288 
z
" transform="scale(0.015625)"/>
        <path id="LiberationSerif-35" d="M 1516 2450 
Q 2241 2450 2595 2153 
Q 2950 1856 2950 1247 
Q 2950 616 2565 276 
Q 2181 -63 1466 -63 
Q 872 -63 406 72 
L 372 953 
L 578 953 
L 719 366 
Q 856 291 1048 244 
Q 1241 197 1416 197 
Q 1909 197 2142 430 
Q 2375 663 2375 1216 
Q 2375 1603 2275 1801 
Q 2175 2000 1956 2094 
Q 1738 2188 1369 2188 
Q 1084 2188 813 2113 
L 513 2113 
L 513 4191 
L 2638 4191 
L 2638 3713 
L 794 3713 
L 794 2375 
Q 1131 2450 1516 2450 
z
" transform="scale(0.015625)"/>
       </defs>
       <use xlink:href="#LiberationSerif-2212"/>
       <use xlink:href="#LiberationSerif-30" x="56.396484"/>
       <use xlink:href="#LiberationSerif-2e" x="106.396484"/>
       <use xlink:href="#LiberationSerif-35" x="131.396484"/>
      </g>
     </g>
    </g>
    <g id="xtick_2">
     <g id="line2d_3">
      <g>
       <use xlink:href="#mee8b8f5070" x="100.858666" y="317.692969" style="stroke: #000000; stroke-width: 0.5"/>
      </g>
     </g>
     <g id="text_2">
      <!-- 0.0 -->
      <g transform="translate(95.233666 330.438125) scale(0.09 -0.09)">
       <use xlink:href="#LiberationSerif-30"/>
       <use xlink:href="#LiberationSerif-2e" x="50"/>
       <use xlink:href="#LiberationSerif-30" x="75"/>
      </g>
     </g>
    </g>
    <g id="xtick_3">
     <g id="line2d_4">
      <g>
       <use xlink:href="#mee8b8f5070" x="155.045799" y="317.692969" style="stroke: #000000; stroke-width: 0.5"/>
      </g>
     </g>
     <g id="text_3">
      <!-- 0.5 -->
      <g transform="translate(149.420799 330.438125) scale(0.09 -0.09)">
       <use xlink:href="#LiberationSerif-30"/>
       <use xlink:href="#LiberationSerif-2e" x="50"/>
       <use xlink:href="#LiberationSerif-35" x="75"/>
      </g>
     </g>
    </g>
    <g id="text_4">
     <!-- Fisher's Z -->
     <g transform="translate(100.787656 345.293906) scale(0.1 -0.1)">
      <defs>
       <path id="LiberationSerif-46" d="M 1325 1881 
L 1325 250 
L 2022 166 
L 2022 0 
L 225 0 
L 225 166 
L 722 250 
L 722 3944 
L 184 4025 
L 184 4191 
L 3328 4191 
L 3328 3188 
L 3122 3188 
L 3022 3866 
Q 2672 3909 2009 3909 
L 1325 3909 
L 1325 2163 
L 2559 2163 
L 2656 2663 
L 2847 2663 
L 2847 1375 
L 2656 1375 
L 2559 1881 
L 1325 1881 
z
" transform="scale(0.015625)"/>
       <path id="LiberationSerif-69" d="M 1184 3897 
Q 1184 3759 1084 3659 
Q 984 3559 844 3559 
Q 706 3559 606 3659 
Q 506 3759 506 3897 
Q 506 4038 606 4138 
Q 706 4238 844 4238 
Q 984 4238 1084 4138 
Q 1184 4038 1184 3897 
z
M 1153 219 
L 1656 141 
L 1656 0 
L 134 0 
L 134 141 
L 634 219 
L 634 2719 
L 219 2797 
L 219 2938 
L 1153 2938 
L 1153 219 
z
" transform="scale(0.015625)"/>
       <path id="LiberationSerif-73" d="M 2259 825 
Q 2259 388 1982 162 
Q 1706 -63 1166 -63 
Q 947 -63 683 -17 
Q 419 28 269 84 
L 269 806 
L 409 806 
L 563 397 
Q 797 184 1172 184 
Q 1778 184 1778 703 
Q 1778 1084 1300 1247 
L 1022 1338 
Q 706 1441 562 1547 
Q 419 1653 341 1808 
Q 263 1963 263 2181 
Q 263 2569 527 2792 
Q 791 3016 1241 3016 
Q 1563 3016 2047 2919 
L 2047 2278 
L 1900 2278 
L 1769 2619 
Q 1603 2766 1247 2766 
Q 994 2766 861 2641 
Q 728 2516 728 2303 
Q 728 2125 848 2003 
Q 969 1881 1213 1800 
Q 1672 1644 1812 1572 
Q 1953 1500 2051 1395 
Q 2150 1291 2204 1156 
Q 2259 1022 2259 825 
z
" transform="scale(0.015625)"/>
       <path id="LiberationSerif-68" d="M 1019 3169 
Q 1019 2844 997 2700 
Q 1222 2828 1508 2922 
Q 1794 3016 1991 3016 
Q 2372 3016 2565 2794 
Q 2759 2572 2759 2150 
L 2759 219 
L 3116 141 
L 3116 0 
L 1850 0 
L 1850 141 
L 2241 219 
L 2241 2113 
Q 2241 2650 1722 2650 
Q 1428 2650 1019 2559 
L 1019 219 
L 1416 141 
L 1416 0 
L 128 0 
L 128 141 
L 500 219 
L 500 4225 
L 63 4300 
L 63 4441 
L 1019 4441 
L 1019 3169 
z
" transform="scale(0.015625)"/>
       <path id="LiberationSerif-65" d="M 813 1478 
L 813 1422 
Q 813 991 908 752 
Q 1003 513 1201 388 
Q 1400 263 1722 263 
Q 1891 263 2122 291 
Q 2353 319 2503 353 
L 2503 178 
Q 2353 81 2095 9 
Q 1838 -63 1569 -63 
Q 884 -63 567 306 
Q 250 675 250 1491 
Q 250 2259 572 2637 
Q 894 3016 1491 3016 
Q 2619 3016 2619 1734 
L 2619 1478 
L 813 1478 
z
M 1491 2766 
Q 1166 2766 992 2503 
Q 819 2241 819 1728 
L 2075 1728 
Q 2075 2288 1931 2527 
Q 1788 2766 1491 2766 
z
" transform="scale(0.015625)"/>
       <path id="LiberationSerif-72" d="M 2075 3016 
L 2075 2222 
L 1941 2222 
L 1759 2566 
Q 1603 2566 1389 2523 
Q 1175 2481 1019 2413 
L 1019 219 
L 1522 141 
L 1522 0 
L 128 0 
L 128 141 
L 500 219 
L 500 2719 
L 128 2797 
L 128 2938 
L 984 2938 
L 1013 2572 
Q 1200 2728 1520 2872 
Q 1841 3016 2028 3016 
L 2075 3016 
z
" transform="scale(0.015625)"/>
       <path id="LiberationSerif-27" d="M 269 4191 
L 884 4191 
L 691 2688 
L 459 2688 
L 269 4191 
z
" transform="scale(0.015625)"/>
       <path id="LiberationSerif-20" transform="scale(0.015625)"/>
       <path id="LiberationSerif-5a" d="M 306 294 
L 2656 3922 
L 1875 3922 
Q 1103 3922 813 3859 
L 716 3200 
L 500 3200 
L 500 4191 
L 3353 4191 
L 3353 3922 
L 988 263 
L 1894 263 
Q 2256 263 2629 297 
Q 3003 331 3156 366 
L 3341 1166 
L 3559 1166 
L 3475 0 
L 306 0 
L 306 294 
z
" transform="scale(0.015625)"/>
      </defs>
      <use xlink:href="#LiberationSerif-46"/>
      <use xlink:href="#LiberationSerif-69" x="55.615234"/>
      <use xlink:href="#LiberationSerif-73" x="83.398438"/>
      <use xlink:href="#LiberationSerif-68" x="122.314453"/>
      <use xlink:href="#LiberationSerif-65" x="172.314453"/>
      <use xlink:href="#LiberationSerif-72" x="216.699219"/>
      <use xlink:href="#LiberationSerif-27" x="250"/>
      <use xlink:href="#LiberationSerif-73" x="268.017578"/>
      <use xlink:href="#LiberationSerif-20" x="306.933594"/>
      <use xlink:href="#LiberationSerif-5a" x="331.933594"/>
     </g>
    </g>
   </g>
   <g id="matplotlib.axis_2">
    <g id="ytick_1">
     <g id="line2d_5">
      <defs>
       <path id="mbe8389a732" d="M 0 0 
L -3 0 
" style="stroke: #000000; stroke-width: 0.5"/>
      </defs>
      <g>
       <use xlink:href="#mbe8389a732" x="37.198437" y="38.144787" style="stroke: #000000; stroke-width: 0.5"/>
      </g>
     </g>
     <g id="text_5">
      <!-- Mic13 -->
      <g transform="translate(7.2 41.267365) scale(0.09 -0.09)">
       <defs>
        <path id="LiberationSerif-4d" d="M 2694 0 
L 2584 0 
L 1050 3603 
L 1050 250 
L 1613 166 
L 1613 0 
L 184 0 
L 184 166 
L 722 250 
L 722 3944 
L 184 4025 
L 184 4191 
L 1453 4191 
L 2816 1003 
L 4303 4191 
L 5503 4191 
L 5503 4025 
L 4966 3944 
L 4966 250 
L 5503 166 
L 5503 0 
L 3803 0 
L 3803 166 
L 4366 250 
L 4366 3603 
L 2694 0 
z
" transform="scale(0.015625)"/>
        <path id="LiberationSerif-63" d="M 2644 178 
Q 2491 66 2222 1 
Q 1953 -63 1672 -63 
Q 244 -63 244 1491 
Q 244 2225 608 2620 
Q 972 3016 1650 3016 
Q 2072 3016 2572 2919 
L 2572 2100 
L 2400 2100 
L 2266 2619 
Q 2006 2766 1644 2766 
Q 806 2766 806 1491 
Q 806 828 1061 545 
Q 1316 263 1850 263 
Q 2306 263 2644 366 
L 2644 178 
z
" transform="scale(0.015625)"/>
        <path id="LiberationSerif-31" d="M 1959 250 
L 2816 166 
L 2816 0 
L 563 0 
L 563 166 
L 1422 250 
L 1422 3669 
L 575 3366 
L 575 3531 
L 1797 4225 
L 1959 4225 
L 1959 250 
z
" transform="scale(0.015625)"/>
        <path id="LiberationSerif-33" d="M 2950 1141 
Q 2950 575 2562 256 
Q 2175 -63 1466 -63 
Q 872 -63 341 72 
L 306 953 
L 513 953 
L 653 366 
Q 775 297 998 247 
Q 1222 197 1416 197 
Q 1906 197 2140 422 
Q 2375 647 2375 1172 
Q 2375 1584 2159 1798 
Q 1944 2013 1491 2034 
L 1044 2059 
L 1044 2316 
L 1491 2344 
Q 1844 2363 2012 2563 
Q 2181 2763 2181 3169 
Q 2181 3591 1998 3783 
Q 1816 3975 1416 3975 
Q 1250 3975 1069 3929 
Q 888 3884 750 3809 
L 641 3297 
L 434 3297 
L 434 4103 
Q 744 4184 969 4211 
Q 1194 4238 1416 4238 
Q 2759 4238 2759 3206 
Q 2759 2772 2520 2514 
Q 2281 2256 1844 2194 
Q 2413 2128 2681 1867 
Q 2950 1606 2950 1141 
z
" transform="scale(0.015625)"/>
       </defs>
       <use xlink:href="#LiberationSerif-4d"/>
       <use xlink:href="#LiberationSerif-69" x="88.916016"/>
       <use xlink:href="#LiberationSerif-63" x="116.699219"/>
       <use xlink:href="#LiberationSerif-31" x="161.083984"/>
       <use xlink:href="#LiberationSerif-33" x="211.083984"/>
      </g>
     </g>
    </g>
    <g id="ytick_2">
     <g id="line2d_6">
      <g>
       <use xlink:href="#mbe8389a732" x="37.198437" y="52.157227" style="stroke: #000000; stroke-width: 0.5"/>
      </g>
     </g>
     <g id="text_6">
      <!-- Mic9 -->
      <g transform="translate(11.7 55.279805) scale(0.09 -0.09)">
       <defs>
        <path id="LiberationSerif-39" d="M 206 2913 
Q 206 3544 559 3891 
Q 913 4238 1556 4238 
Q 2272 4238 2605 3722 
Q 2938 3206 2938 2106 
Q 2938 1053 2509 495 
Q 2081 -63 1306 -63 
Q 797 -63 372 44 
L 372 769 
L 575 769 
L 684 319 
Q 784 272 953 234 
Q 1122 197 1294 197 
Q 1794 197 2062 636 
Q 2331 1075 2359 1928 
Q 1884 1663 1394 1663 
Q 841 1663 523 1992 
Q 206 2322 206 2913 
z
M 1563 3988 
Q 781 3988 781 2900 
Q 781 2422 968 2194 
Q 1156 1966 1550 1966 
Q 1953 1966 2363 2131 
Q 2363 3091 2173 3539 
Q 1984 3988 1563 3988 
z
" transform="scale(0.015625)"/>
       </defs>
       <use xlink:href="#LiberationSerif-4d"/>
       <use xlink:href="#LiberationSerif-69" x="88.916016"/>
       <use xlink:href="#LiberationSerif-63" x="116.699219"/>
       <use xlink:href="#LiberationSerif-39" x="161.083984"/>
      </g>
     </g>
    </g>
    <g id="ytick_3">
     <g id="line2d_7">
      <g>
       <use xlink:href="#mbe8389a732" x="37.198437" y="66.169667" style="stroke: #000000; stroke-width: 0.5"/>
      </g>
     </g>
     <g id="text_7">
      <!-- Mic3 -->
      <g transform="translate(11.7 69.292245) scale(0.09 -0.09)">
       <use xlink:href="#LiberationSerif-4d"/>
       <use xlink:href="#LiberationSerif-69" x="88.916016"/>
       <use xlink:href="#LiberationSerif-63" x="116.699219"/>
       <use xlink:href="#LiberationSerif-33" x="161.083984"/>
      </g>
     </g>
    </g>
    <g id="ytick_4">
     <g id="line2d_8">
      <g>
       <use xlink:href="#mbe8389a732" x="37.198437" y="80.182108" style="stroke: #000000; stroke-width: 0.5"/>
      </g>
     </g>
     <g id="text_8">
      <!-- Mic20 -->
      <g transform="translate(7.2 83.304686) scale(0.09 -0.09)">
       <defs>
        <path id="LiberationSerif-32" d="M 2847 0 
L 281 0 
L 281 459 
L 863 988 
Q 1422 1478 1684 1781 
Q 1947 2084 2061 2406 
Q 2175 2728 2175 3144 
Q 2175 3550 1990 3762 
Q 1806 3975 1388 3975 
Q 1222 3975 1047 3929 
Q 872 3884 738 3809 
L 628 3297 
L 422 3297 
L 422 4103 
Q 991 4238 1388 4238 
Q 2075 4238 2420 3952 
Q 2766 3666 2766 3144 
Q 2766 2794 2630 2483 
Q 2494 2172 2212 1864 
Q 1931 1556 1281 1003 
Q 1003 766 691 481 
L 2847 481 
L 2847 0 
z
" transform="scale(0.015625)"/>
       </defs>
       <use xlink:href="#LiberationSerif-4d"/>
       <use xlink:href="#LiberationSerif-69" x="88.916016"/>
       <use xlink:href="#LiberationSerif-63" x="116.699219"/>
       <use xlink:href="#LiberationSerif-32" x="161.083984"/>
       <use xlink:href="#LiberationSerif-30" x="211.083984"/>
      </g>
     </g>
    </g>
    <g id="ytick_5">
     <g id="line2d_9">
      <g>
       <use xlink:href="#mbe8389a732" x="37.198437" y="94.194548" style="stroke: #000000; stroke-width: 0.5"/>
      </g>
     </g>
     <g id="text_9">
      <!-- Mic18 -->
      <g transform="translate(7.2 97.317126) scale(0.09 -0.09)">
       <defs>
        <path id="LiberationSerif-38" d="M 2828 3169 
Q 2828 2825 2661 2586 
Q 2494 2347 2209 2222 
Q 2566 2091 2761 1811 
Q 2956 1531 2956 1131 
Q 2956 538 2622 237 
Q 2288 -63 1581 -63 
Q 244 -63 244 1131 
Q 244 1547 444 1820 
Q 644 2094 984 2222 
Q 713 2347 542 2584 
Q 372 2822 372 3169 
Q 372 3688 689 3972 
Q 1006 4256 1606 4256 
Q 2188 4256 2508 3973 
Q 2828 3691 2828 3169 
z
M 2394 1131 
Q 2394 1631 2198 1856 
Q 2003 2081 1581 2081 
Q 1169 2081 987 1867 
Q 806 1653 806 1131 
Q 806 603 990 393 
Q 1175 184 1581 184 
Q 1997 184 2195 401 
Q 2394 619 2394 1131 
z
M 2266 3169 
Q 2266 3600 2097 3803 
Q 1928 4006 1588 4006 
Q 1256 4006 1095 3809 
Q 934 3613 934 3169 
Q 934 2734 1090 2545 
Q 1247 2356 1588 2356 
Q 1938 2356 2102 2548 
Q 2266 2741 2266 3169 
z
" transform="scale(0.015625)"/>
       </defs>
       <use xlink:href="#LiberationSerif-4d"/>
       <use xlink:href="#LiberationSerif-69" x="88.916016"/>
       <use xlink:href="#LiberationSerif-63" x="116.699219"/>
       <use xlink:href="#LiberationSerif-31" x="161.083984"/>
       <use xlink:href="#LiberationSerif-38" x="211.083984"/>
      </g>
     </g>
    </g>
    <g id="ytick_6">
     <g id="line2d_10">
      <g>
       <use xlink:href="#mbe8389a732" x="37.198437" y="108.206988" style="stroke: #000000; stroke-width: 0.5"/>
      </g>
     </g>
     <g id="text_10">
      <!-- Mic2 -->
      <g transform="translate(11.7 111.329566) scale(0.09 -0.09)">
       <use xlink:href="#LiberationSerif-4d"/>
       <use xlink:href="#LiberationSerif-69" x="88.916016"/>
       <use xlink:href="#LiberationSerif-63" x="116.699219"/>
       <use xlink:href="#LiberationSerif-32" x="161.083984"/>
      </g>
     </g>
    </g>
    <g id="ytick_7">
     <g id="line2d_11">
      <g>
       <use xlink:href="#mbe8389a732" x="37.198437" y="122.219428" style="stroke: #000000; stroke-width: 0.5"/>
      </g>
     </g>
     <g id="text_11">
      <!-- Mic10 -->
      <g transform="translate(7.2 125.342006) scale(0.09 -0.09)">
       <use xlink:href="#LiberationSerif-4d"/>
       <use xlink:href="#LiberationSerif-69" x="88.916016"/>
       <use xlink:href="#LiberationSerif-63" x="116.699219"/>
       <use xlink:href="#LiberationSerif-31" x="161.083984"/>
       <use xlink:href="#LiberationSerif-30" x="211.083984"/>
      </g>
     </g>
    </g>
    <g id="ytick_8">
     <g id="line2d_12">
      <g>
       <use xlink:href="#mbe8389a732" x="37.198437" y="136.231868" style="stroke: #000000; stroke-width: 0.5"/>
      </g>
     </g>
     <g id="text_12">
      <!-- Mic14 -->
      <g transform="translate(7.2 139.354446) scale(0.09 -0.09)">
       <defs>
        <path id="LiberationSerif-34" d="M 2531 922 
L 2531 0 
L 1994 0 
L 1994 922 
L 125 922 
L 125 1338 
L 2172 4213 
L 2531 4213 
L 2531 1369 
L 3100 1369 
L 3100 922 
L 2531 922 
z
M 1994 3478 
L 1978 3478 
L 478 1369 
L 1994 1369 
L 1994 3478 
z
" transform="scale(0.015625)"/>
       </defs>
       <use xlink:href="#LiberationSerif-4d"/>
       <use xlink:href="#LiberationSerif-69" x="88.916016"/>
       <use xlink:href="#LiberationSerif-63" x="116.699219"/>
       <use xlink:href="#LiberationSerif-31" x="161.083984"/>
       <use xlink:href="#LiberationSerif-34" x="211.083984"/>
      </g>
     </g>
    </g>
    <g id="ytick_9">
     <g id="line2d_13">
      <g>
       <use xlink:href="#mbe8389a732" x="37.198437" y="150.244308" style="stroke: #000000; stroke-width: 0.5"/>
      </g>
     </g>
     <g id="text_13">
      <!-- Mic21 -->
      <g transform="translate(7.2 153.366887) scale(0.09 -0.09)">
       <use xlink:href="#LiberationSerif-4d"/>
       <use xlink:href="#LiberationSerif-69" x="88.916016"/>
       <use xlink:href="#LiberationSerif-63" x="116.699219"/>
       <use xlink:href="#LiberationSerif-32" x="161.083984"/>
       <use xlink:href="#LiberationSerif-31" x="211.083984"/>
      </g>
     </g>
    </g>
    <g id="ytick_10">
     <g id="line2d_14">
      <g>
       <use xlink:href="#mbe8389a732" x="37.198437" y="164.256749" style="stroke: #000000; stroke-width: 0.5"/>
      </g>
     </g>
     <g id="text_14">
      <!-- Mic19 -->
      <g transform="translate(7.2 167.379327) scale(0.09 -0.09)">
       <use xlink:href="#LiberationSerif-4d"/>
       <use xlink:href="#LiberationSerif-69" x="88.916016"/>
       <use xlink:href="#LiberationSerif-63" x="116.699219"/>
       <use xlink:href="#LiberationSerif-31" x="161.083984"/>
       <use xlink:href="#LiberationSerif-39" x="211.083984"/>
      </g>
     </g>
    </g>
    <g id="ytick_11">
     <g id="line2d_15">
      <g>
       <use xlink:href="#mbe8389a732" x="37.198437" y="178.269189" style="stroke: #000000; stroke-width: 0.5"/>
      </g>
     </g>
     <g id="text_15">
      <!-- Mic16 -->
      <g transform="translate(7.2 181.391767) scale(0.09 -0.09)">
       <defs>
        <path id="LiberationSerif-36" d="M 3009 1300 
Q 3009 647 2679 292 
Q 2350 -63 1728 -63 
Q 1022 -63 648 487 
Q 275 1038 275 2069 
Q 275 2744 472 3234 
Q 669 3725 1023 3981 
Q 1378 4238 1844 4238 
Q 2300 4238 2753 4128 
L 2753 3406 
L 2547 3406 
L 2438 3834 
Q 2334 3891 2159 3933 
Q 1984 3975 1844 3975 
Q 1388 3975 1133 3533 
Q 878 3091 853 2241 
Q 1363 2509 1875 2509 
Q 2428 2509 2718 2198 
Q 3009 1888 3009 1300 
z
M 1716 184 
Q 2094 184 2262 429 
Q 2431 675 2431 1241 
Q 2431 1753 2270 1981 
Q 2109 2209 1759 2209 
Q 1331 2209 850 2053 
Q 850 1100 1065 642 
Q 1281 184 1716 184 
z
" transform="scale(0.015625)"/>
       </defs>
       <use xlink:href="#LiberationSerif-4d"/>
       <use xlink:href="#LiberationSerif-69" x="88.916016"/>
       <use xlink:href="#LiberationSerif-63" x="116.699219"/>
       <use xlink:href="#LiberationSerif-31" x="161.083984"/>
       <use xlink:href="#LiberationSerif-36" x="211.083984"/>
      </g>
     </g>
    </g>
    <g id="ytick_12">
     <g id="line2d_16">
      <g>
       <use xlink:href="#mbe8389a732" x="37.198437" y="192.281629" style="stroke: #000000; stroke-width: 0.5"/>
      </g>
     </g>
     <g id="text_16">
      <!-- Mic6 -->
      <g transform="translate(11.7 195.404207) scale(0.09 -0.09)">
       <use xlink:href="#LiberationSerif-4d"/>
       <use xlink:href="#LiberationSerif-69" x="88.916016"/>
       <use xlink:href="#LiberationSerif-63" x="116.699219"/>
       <use xlink:href="#LiberationSerif-36" x="161.083984"/>
      </g>
     </g>
    </g>
    <g id="ytick_13">
     <g id="line2d_17">
      <g>
       <use xlink:href="#mbe8389a732" x="37.198437" y="206.294069" style="stroke: #000000; stroke-width: 0.5"/>
      </g>
     </g>
     <g id="text_17">
      <!-- Mic1 -->
      <g transform="translate(11.7 209.416647) scale(0.09 -0.09)">
       <use xlink:href="#LiberationSerif-4d"/>
       <use xlink:href="#LiberationSerif-69" x="88.916016"/>
       <use xlink:href="#LiberationSerif-63" x="116.699219"/>
       <use xlink:href="#LiberationSerif-31" x="161.083984"/>
      </g>
     </g>
    </g>
    <g id="ytick_14">
     <g id="line2d_18">
      <g>
       <use xlink:href="#mbe8389a732" x="37.198437" y="220.306509" style="stroke: #000000; stroke-width: 0.5"/>
      </g>
     </g>
     <g id="text_18">
      <!-- Mic15 -->
      <g transform="translate(7.2 223.429088) scale(0.09 -0.09)">
       <use xlink:href="#LiberationSerif-4d"/>
       <use xlink:href="#LiberationSerif-69" x="88.916016"/>
       <use xlink:href="#LiberationSerif-63" x="116.699219"/>
       <use xlink:href="#LiberationSerif-31" x="161.083984"/>
       <use xlink:href="#LiberationSerif-35" x="211.083984"/>
      </g>
     </g>
    </g>
    <g id="ytick_15">
     <g id="line2d_19">
      <g>
       <use xlink:href="#mbe8389a732" x="37.198437" y="234.31895" style="stroke: #000000; stroke-width: 0.5"/>
      </g>
     </g>
     <g id="text_19">
      <!-- Mic12 -->
      <g transform="translate(7.2 237.441528) scale(0.09 -0.09)">
       <use xlink:href="#LiberationSerif-4d"/>
       <use xlink:href="#LiberationSerif-69" x="88.916016"/>
       <use xlink:href="#LiberationSerif-63" x="116.699219"/>
       <use xlink:href="#LiberationSerif-31" x="161.083984"/>
       <use xlink:href="#LiberationSerif-32" x="211.083984"/>
      </g>
     </g>
    </g>
    <g id="ytick_16">
     <g id="line2d_20">
      <g>
       <use xlink:href="#mbe8389a732" x="37.198437" y="248.33139" style="stroke: #000000; stroke-width: 0.5"/>
      </g>
     </g>
     <g id="text_20">
      <!-- Mic4 -->
      <g transform="translate(11.7 251.453968) scale(0.09 -0.09)">
       <use xlink:href="#LiberationSerif-4d"/>
       <use xlink:href="#LiberationSerif-69" x="88.916016"/>
       <use xlink:href="#LiberationSerif-63" x="116.699219"/>
       <use xlink:href="#LiberationSerif-34" x="161.083984"/>
      </g>
     </g>
    </g>
    <g id="ytick_17">
     <g id="line2d_21">
      <g>
       <use xlink:href="#mbe8389a732" x="37.198437" y="262.34383" style="stroke: #000000; stroke-width: 0.5"/>
      </g>
     </g>
     <g id="text_21">
      <!-- Mic8 -->
      <g transform="translate(11.7 265.466408) scale(0.09 -0.09)">
       <use xlink:href="#LiberationSerif-4d"/>
       <use xlink:href="#LiberationSerif-69" x="88.916016"/>
       <use xlink:href="#LiberationSerif-63" x="116.699219"/>
       <use xlink:href="#LiberationSerif-38" x="161.083984"/>
      </g>
     </g>
    </g>
    <g id="ytick_18">
     <g id="line2d_22">
      <g>
       <use xlink:href="#mbe8389a732" x="37.198437" y="276.35627" style="stroke: #000000; stroke-width: 0.5"/>
      </g>
     </g>
     <g id="text_22">
      <!-- Mic5 -->
      <g transform="translate(11.7 279.478848) scale(0.09 -0.09)">
       <use xlink:href="#LiberationSerif-4d"/>
       <use xlink:href="#LiberationSerif-69" x="88.916016"/>
       <use xlink:href="#LiberationSerif-63" x="116.699219"/>
       <use xlink:href="#LiberationSerif-35" x="161.083984"/>
      </g>
     </g>
    </g>
    <g id="ytick_19">
     <g id="line2d_23">
      <g>
       <use xlink:href="#mbe8389a732" x="37.198437" y="290.36871" style="stroke: #000000; stroke-width: 0.5"/>
      </g>
     </g>
     <g id="text_23">
      <!-- Mic11 -->
      <g transform="translate(7.5375 293.491289) scale(0.09 -0.09)">
       <use xlink:href="#LiberationSerif-4d"/>
       <use xlink:href="#LiberationSerif-69" x="88.916016"/>
       <use xlink:href="#LiberationSerif-63" x="116.699219"/>
       <use xlink:href="#LiberationSerif-31" x="161.083984"/>
       <use xlink:href="#LiberationSerif-31" x="207.333984"/>
      </g>
     </g>
    </g>
    <g id="ytick_20">
     <g id="line2d_24">
      <g>
       <use xlink:href="#mbe8389a732" x="37.198437" y="304.381151" style="stroke: #000000; stroke-width: 0.5"/>
      </g>
     </g>
     <g id="text_24">
      <!-- Mic17 -->
      <g transform="translate(7.2 307.503729) scale(0.09 -0.09)">
       <defs>
        <path id="LiberationSerif-37" d="M 628 3200 
L 422 3200 
L 422 4191 
L 3016 4191 
L 3016 3950 
L 1147 0 
L 744 0 
L 2578 3713 
L 738 3713 
L 628 3200 
z
" transform="scale(0.015625)"/>
       </defs>
       <use xlink:href="#LiberationSerif-4d"/>
       <use xlink:href="#LiberationSerif-69" x="88.916016"/>
       <use xlink:href="#LiberationSerif-63" x="116.699219"/>
       <use xlink:href="#LiberationSerif-31" x="161.083984"/>
       <use xlink:href="#LiberationSerif-37" x="211.083984"/>
      </g>
     </g>
    </g>
   </g>
   <g id="patch_3">
    <path d="M 37.198437 317.692969 
L 37.198437 24.832969 
" style="fill: none; stroke: #000000; stroke-width: 0.5; stroke-linejoin: miter; stroke-linecap: square"/>
   </g>
   <g id="patch_4">
    <path d="M 37.198437 317.692969 
L 203.678438 317.692969 
" style="fill: none; stroke: #000000; stroke-width: 0.5; stroke-linejoin: miter; stroke-linecap: square"/>
   </g>
   <g id="patch_5">
    <path d="M 187.56747 38.144787 
Q 156.745803 38.144787 127.936597 38.144787 
" style="fill: none; stroke: #0a549e; stroke-width: 1.8; stroke-linecap: round"/>
    <path d="M 131.936597 40.144787 
L 127.936597 38.144787 
L 131.936597 36.144787 
z
" style="fill: #0a549e; stroke: #0a549e; stroke-width: 1.8; stroke-linecap: round"/>
   </g>
   <g id="line2d_25">
    <defs>
     <path id="m65911e9f38" d="M 0 2.5 
C 0.663008 2.5 1.29895 2.236584 1.767767 1.767767 
C 2.236584 1.29895 2.5 0.663008 2.5 0 
C 2.5 -0.663008 2.236584 -1.29895 1.767767 -1.767767 
C 1.29895 -2.236584 0.663008 -2.5 0 -2.5 
C -0.663008 -2.5 -1.29895 -2.236584 -1.767767 -1.767767 
C -2.236584 -1.29895 -2.5 -0.663008 -2.5 0 
C -2.5 0.663008 -2.236584 1.29895 -1.767767 1.767767 
C -1.29895 2.236584 -0.663008 2.5 0 2.5 
z
" style="stroke: #ffffff; stroke-width: 0.4"/>
    </defs>
    <g clip-path="url(#p3ad78e8f60)">
     <use xlink:href="#m65911e9f38" x="187.56747" y="38.144787" style="fill: #0a549e; stroke: #ffffff; stroke-width: 0.4"/>
    </g>
   </g>
   <g id="patch_6">
    <path d="M 168.91768 52.157227 
Q 152.454358 52.157227 138.003496 52.157227 
" style="fill: none; stroke: #4a98c9; stroke-width: 1.8; stroke-linecap: round"/>
    <path d="M 142.003496 54.157227 
L 138.003496 52.157227 
L 142.003496 50.157227 
z
" style="fill: #4a98c9; stroke: #4a98c9; stroke-width: 1.8; stroke-linecap: round"/>
   </g>
   <g id="line2d_26">
    <defs>
     <path id="md443c16388" d="M 0 2.5 
C 0.663008 2.5 1.29895 2.236584 1.767767 1.767767 
C 2.236584 1.29895 2.5 0.663008 2.5 0 
C 2.5 -0.663008 2.236584 -1.29895 1.767767 -1.767767 
C 1.29895 -2.236584 0.663008 -2.5 0 -2.5 
C -0.663008 -2.5 -1.29895 -2.236584 -1.767767 -1.767767 
C -2.236584 -1.29895 -2.5 -0.663008 -2.5 0 
C -2.5 0.663008 -2.236584 1.29895 -1.767767 1.767767 
C -1.29895 2.236584 -0.663008 2.5 0 2.5 
z
" style="stroke: #ffffff; stroke-width: 0.4"/>
    </defs>
    <g clip-path="url(#p3ad78e8f60)">
     <use xlink:href="#md443c16388" x="168.91768" y="52.157227" style="fill: #4a98c9; stroke: #ffffff; stroke-width: 0.4"/>
    </g>
   </g>
   <g id="patch_7">
    <path d="M 163.527866 66.169667 
Q 130.593928 66.169667 99.672451 66.169667 
" style="fill: none; stroke: #084a91; stroke-width: 1.8; stroke-linecap: round"/>
    <path d="M 103.672451 68.169667 
L 99.672451 66.169667 
L 103.672451 64.169667 
z
" style="fill: #084a91; stroke: #084a91; stroke-width: 1.8; stroke-linecap: round"/>
   </g>
   <g id="line2d_27">
    <defs>
     <path id="m025adc13cf" d="M 0 2.5 
C 0.663008 2.5 1.29895 2.236584 1.767767 1.767767 
C 2.236584 1.29895 2.5 0.663008 2.5 0 
C 2.5 -0.663008 2.236584 -1.29895 1.767767 -1.767767 
C 1.29895 -2.236584 0.663008 -2.5 0 -2.5 
C -0.663008 -2.5 -1.29895 -2.236584 -1.767767 -1.767767 
C -2.236584 -1.29895 -2.5 -0.663008 -2.5 0 
C -2.5 0.663008 -2.236584 1.29895 -1.767767 1.767767 
C -1.29895 2.236584 -0.663008 2.5 0 2.5 
z
" style="stroke: #ffffff; stroke-width: 0.4"/>
    </defs>
    <g clip-path="url(#p3ad78e8f60)">
     <use xlink:href="#m025adc13cf" x="163.527866" y="66.169667" style="fill: #084a91; stroke: #ffffff; stroke-width: 0.4"/>
    </g>
   </g>
   <g id="patch_8">
    <path d="M 133.951177 80.182108 
Q 108.34002 80.182108 84.741324 80.182108 
" style="fill: none; stroke: #1d6cb1; stroke-width: 1.8; stroke-linecap: round"/>
    <path d="M 88.741324 82.182108 
L 84.741324 80.182108 
L 88.741324 78.182108 
z
" style="fill: #1d6cb1; stroke: #1d6cb1; stroke-width: 1.8; stroke-linecap: round"/>
   </g>
   <g id="line2d_28">
    <defs>
     <path id="maf3a9a034d" d="M 0 2.5 
C 0.663008 2.5 1.29895 2.236584 1.767767 1.767767 
C 2.236584 1.29895 2.5 0.663008 2.5 0 
C 2.5 -0.663008 2.236584 -1.29895 1.767767 -1.767767 
C 1.29895 -2.236584 0.663008 -2.5 0 -2.5 
C -0.663008 -2.5 -1.29895 -2.236584 -1.767767 -1.767767 
C -2.236584 -1.29895 -2.5 -0.663008 -2.5 0 
C -2.5 0.663008 -2.236584 1.29895 -1.767767 1.767767 
C -1.29895 2.236584 -0.663008 2.5 0 2.5 
z
" style="stroke: #ffffff; stroke-width: 0.4"/>
    </defs>
    <g clip-path="url(#p3ad78e8f60)">
     <use xlink:href="#maf3a9a034d" x="133.951177" y="80.182108" style="fill: #1d6cb1; stroke: #ffffff; stroke-width: 0.4"/>
    </g>
   </g>
   <g id="patch_9">
    <path d="M 133.735178 94.194548 
Q 107.15865 94.194548 82.594584 94.194548 
" style="fill: none; stroke: #1a68ae; stroke-width: 1.8; stroke-linecap: round"/>
    <path d="M 86.594584 96.194548 
L 82.594584 94.194548 
L 86.594584 92.194548 
z
" style="fill: #1a68ae; stroke: #1a68ae; stroke-width: 1.8; stroke-linecap: round"/>
   </g>
   <g id="line2d_29">
    <defs>
     <path id="m2af51fa392" d="M 0 2.5 
C 0.663008 2.5 1.29895 2.236584 1.767767 1.767767 
C 2.236584 1.29895 2.5 0.663008 2.5 0 
C 2.5 -0.663008 2.236584 -1.29895 1.767767 -1.767767 
C 1.29895 -2.236584 0.663008 -2.5 0 -2.5 
C -0.663008 -2.5 -1.29895 -2.236584 -1.767767 -1.767767 
C -2.236584 -1.29895 -2.5 -0.663008 -2.5 0 
C -2.5 0.663008 -2.236584 1.29895 -1.767767 1.767767 
C -1.29895 2.236584 -0.663008 2.5 0 2.5 
z
" style="stroke: #ffffff; stroke-width: 0.4"/>
    </defs>
    <g clip-path="url(#p3ad78e8f60)">
     <use xlink:href="#m2af51fa392" x="133.735178" y="94.194548" style="fill: #1a68ae; stroke: #ffffff; stroke-width: 0.4"/>
    </g>
   </g>
   <g id="patch_10">
    <path d="M 132.487936 108.206988 
Q 112.242397 108.206988 94.00932 108.206988 
" style="fill: none; stroke: #3686c0; stroke-width: 1.8; stroke-linecap: round"/>
    <path d="M 98.00932 110.206988 
L 94.00932 108.206988 
L 98.00932 106.206988 
z
" style="fill: #3686c0; stroke: #3686c0; stroke-width: 1.8; stroke-linecap: round"/>
   </g>
   <g id="line2d_30">
    <defs>
     <path id="me2e1b59852" d="M 0 2.5 
C 0.663008 2.5 1.29895 2.236584 1.767767 1.767767 
C 2.236584 1.29895 2.5 0.663008 2.5 0 
C 2.5 -0.663008 2.236584 -1.29895 1.767767 -1.767767 
C 1.29895 -2.236584 0.663008 -2.5 0 -2.5 
C -0.663008 -2.5 -1.29895 -2.236584 -1.767767 -1.767767 
C -2.236584 -1.29895 -2.5 -0.663008 -2.5 0 
C -2.5 0.663008 -2.236584 1.29895 -1.767767 1.767767 
C -1.29895 2.236584 -0.663008 2.5 0 2.5 
z
" style="stroke: #ffffff; stroke-width: 0.4"/>
    </defs>
    <g clip-path="url(#p3ad78e8f60)">
     <use xlink:href="#me2e1b59852" x="132.487936" y="108.206988" style="fill: #3686c0; stroke: #ffffff; stroke-width: 0.4"/>
    </g>
   </g>
   <g id="patch_11">
    <path d="M 130.039099 122.219428 
Q 108.216607 122.219428 88.406575 122.219428 
" style="fill: none; stroke: #2f7fbc; stroke-width: 1.8; stroke-linecap: round"/>
    <path d="M 92.406575 124.219428 
L 88.406575 122.219428 
L 92.406575 120.219428 
z
" style="fill: #2f7fbc; stroke: #2f7fbc; stroke-width: 1.8; stroke-linecap: round"/>
   </g>
   <g id="line2d_31">
    <defs>
     <path id="mfafd06bb37" d="M 0 2.5 
C 0.663008 2.5 1.29895 2.236584 1.767767 1.767767 
C 2.236584 1.29895 2.5 0.663008 2.5 0 
C 2.5 -0.663008 2.236584 -1.29895 1.767767 -1.767767 
C 1.29895 -2.236584 0.663008 -2.5 0 -2.5 
C -0.663008 -2.5 -1.29895 -2.236584 -1.767767 -1.767767 
C -2.236584 -1.29895 -2.5 -0.663008 -2.5 0 
C -2.5 0.663008 -2.236584 1.29895 -1.767767 1.767767 
C -1.29895 2.236584 -0.663008 2.5 0 2.5 
z
" style="stroke: #ffffff; stroke-width: 0.4"/>
    </defs>
    <g clip-path="url(#p3ad78e8f60)">
     <use xlink:href="#mfafd06bb37" x="130.039099" y="122.219428" style="fill: #2f7fbc; stroke: #ffffff; stroke-width: 0.4"/>
    </g>
   </g>
   <g id="patch_12">
    <path d="M 118.551729 136.231868 
Q 97.269819 136.231868 78.000371 136.231868 
" style="fill: none; stroke: #3181bd; stroke-width: 1.8; stroke-linecap: round"/>
    <path d="M 82.000371 138.231868 
L 78.000371 136.231868 
L 82.000371 134.231868 
z
" style="fill: #3181bd; stroke: #3181bd; stroke-width: 1.8; stroke-linecap: round"/>
   </g>
   <g id="line2d_32">
    <defs>
     <path id="ma9a80f8009" d="M 0 2.5 
C 0.663008 2.5 1.29895 2.236584 1.767767 1.767767 
C 2.236584 1.29895 2.5 0.663008 2.5 0 
C 2.5 -0.663008 2.236584 -1.29895 1.767767 -1.767767 
C 1.29895 -2.236584 0.663008 -2.5 0 -2.5 
C -0.663008 -2.5 -1.29895 -2.236584 -1.767767 -1.767767 
C -2.236584 -1.29895 -2.5 -0.663008 -2.5 0 
C -2.5 0.663008 -2.236584 1.29895 -1.767767 1.767767 
C -1.29895 2.236584 -0.663008 2.5 0 2.5 
z
" style="stroke: #ffffff; stroke-width: 0.4"/>
    </defs>
    <g clip-path="url(#p3ad78e8f60)">
     <use xlink:href="#ma9a80f8009" x="118.551729" y="136.231868" style="fill: #3181bd; stroke: #ffffff; stroke-width: 0.4"/>
    </g>
   </g>
   <g id="patch_13">
    <path d="M 115.124832 150.244308 
Q 100.374684 150.244308 87.636998 150.244308 
" style="fill: none; stroke: #549fcd; stroke-width: 1.8; stroke-linecap: round"/>
    <path d="M 91.636998 152.244308 
L 87.636998 150.244308 
L 91.636998 148.244308 
z
" style="fill: #549fcd; stroke: #549fcd; stroke-width: 1.8; stroke-linecap: round"/>
   </g>
   <g id="line2d_33">
    <defs>
     <path id="m855b82e4e6" d="M 0 2.5 
C 0.663008 2.5 1.29895 2.236584 1.767767 1.767767 
C 2.236584 1.29895 2.5 0.663008 2.5 0 
C 2.5 -0.663008 2.236584 -1.29895 1.767767 -1.767767 
C 1.29895 -2.236584 0.663008 -2.5 0 -2.5 
C -0.663008 -2.5 -1.29895 -2.236584 -1.767767 -1.767767 
C -2.236584 -1.29895 -2.5 -0.663008 -2.5 0 
C -2.5 0.663008 -2.236584 1.29895 -1.767767 1.767767 
C -1.29895 2.236584 -0.663008 2.5 0 2.5 
z
" style="stroke: #ffffff; stroke-width: 0.4"/>
    </defs>
    <g clip-path="url(#p3ad78e8f60)">
     <use xlink:href="#m855b82e4e6" x="115.124832" y="150.244308" style="fill: #549fcd; stroke: #ffffff; stroke-width: 0.4"/>
    </g>
   </g>
   <g id="patch_14">
    <path d="M 113.701262 164.256749 
Q 98.089313 164.256749 84.489824 164.256749 
" style="fill: none; stroke: #4f9bcb; stroke-width: 1.8; stroke-linecap: round"/>
    <path d="M 88.489824 166.256749 
L 84.489824 164.256749 
L 88.489824 162.256749 
z
" style="fill: #4f9bcb; stroke: #4f9bcb; stroke-width: 1.8; stroke-linecap: round"/>
   </g>
   <g id="line2d_34">
    <defs>
     <path id="m3616a8f3cb" d="M 0 2.5 
C 0.663008 2.5 1.29895 2.236584 1.767767 1.767767 
C 2.236584 1.29895 2.5 0.663008 2.5 0 
C 2.5 -0.663008 2.236584 -1.29895 1.767767 -1.767767 
C 1.29895 -2.236584 0.663008 -2.5 0 -2.5 
C -0.663008 -2.5 -1.29895 -2.236584 -1.767767 -1.767767 
C -2.236584 -1.29895 -2.5 -0.663008 -2.5 0 
C -2.5 0.663008 -2.236584 1.29895 -1.767767 1.767767 
C -1.29895 2.236584 -0.663008 2.5 0 2.5 
z
" style="stroke: #ffffff; stroke-width: 0.4"/>
    </defs>
    <g clip-path="url(#p3ad78e8f60)">
     <use xlink:href="#m3616a8f3cb" x="113.701262" y="164.256749" style="fill: #4f9bcb; stroke: #ffffff; stroke-width: 0.4"/>
    </g>
   </g>
   <g id="patch_15">
    <path d="M 113.696306 178.269189 
Q 99.8822 178.269189 88.080555 178.269189 
" style="fill: none; stroke: #5aa2cf; stroke-width: 1.8; stroke-linecap: round"/>
    <path d="M 92.080555 180.269189 
L 88.080555 178.269189 
L 92.080555 176.269189 
z
" style="fill: #5aa2cf; stroke: #5aa2cf; stroke-width: 1.8; stroke-linecap: round"/>
   </g>
   <g id="line2d_35">
    <defs>
     <path id="m4c3ee8d91b" d="M 0 2.5 
C 0.663008 2.5 1.29895 2.236584 1.767767 1.767767 
C 2.236584 1.29895 2.5 0.663008 2.5 0 
C 2.5 -0.663008 2.236584 -1.29895 1.767767 -1.767767 
C 1.29895 -2.236584 0.663008 -2.5 0 -2.5 
C -0.663008 -2.5 -1.29895 -2.236584 -1.767767 -1.767767 
C -2.236584 -1.29895 -2.5 -0.663008 -2.5 0 
C -2.5 0.663008 -2.236584 1.29895 -1.767767 1.767767 
C -1.29895 2.236584 -0.663008 2.5 0 2.5 
z
" style="stroke: #ffffff; stroke-width: 0.4"/>
    </defs>
    <g clip-path="url(#p3ad78e8f60)">
     <use xlink:href="#m4c3ee8d91b" x="113.696306" y="178.269189" style="fill: #5aa2cf; stroke: #ffffff; stroke-width: 0.4"/>
    </g>
   </g>
   <g id="patch_16">
    <path d="M 106.607312 192.281629 
Q 89.291894 192.281629 73.988936 192.281629 
" style="fill: none; stroke: #4594c7; stroke-width: 1.8; stroke-linecap: round"/>
    <path d="M 77.988936 194.281629 
L 73.988936 192.281629 
L 77.988936 190.281629 
z
" style="fill: #4594c7; stroke: #4594c7; stroke-width: 1.8; stroke-linecap: round"/>
   </g>
   <g id="line2d_36">
    <defs>
     <path id="m8e43f313e4" d="M 0 2.5 
C 0.663008 2.5 1.29895 2.236584 1.767767 1.767767 
C 2.236584 1.29895 2.5 0.663008 2.5 0 
C 2.5 -0.663008 2.236584 -1.29895 1.767767 -1.767767 
C 1.29895 -2.236584 0.663008 -2.5 0 -2.5 
C -0.663008 -2.5 -1.29895 -2.236584 -1.767767 -1.767767 
C -2.236584 -1.29895 -2.5 -0.663008 -2.5 0 
C -2.5 0.663008 -2.236584 1.29895 -1.767767 1.767767 
C -1.29895 2.236584 -0.663008 2.5 0 2.5 
z
" style="stroke: #ffffff; stroke-width: 0.4"/>
    </defs>
    <g clip-path="url(#p3ad78e8f60)">
     <use xlink:href="#m8e43f313e4" x="106.607312" y="192.281629" style="fill: #4594c7; stroke: #ffffff; stroke-width: 0.4"/>
    </g>
   </g>
   <g id="patch_17">
    <path d="M 102.235955 206.294069 
Q 91.046143 206.294069 81.868793 206.294069 
" style="fill: none; stroke: #6aaed6; stroke-width: 1.8; stroke-linecap: round"/>
    <path d="M 85.868793 208.294069 
L 81.868793 206.294069 
L 85.868793 204.294069 
z
" style="fill: #6aaed6; stroke: #6aaed6; stroke-width: 1.8; stroke-linecap: round"/>
   </g>
   <g id="line2d_37">
    <defs>
     <path id="ma2e35fd948" d="M 0 2.5 
C 0.663008 2.5 1.29895 2.236584 1.767767 1.767767 
C 2.236584 1.29895 2.5 0.663008 2.5 0 
C 2.5 -0.663008 2.236584 -1.29895 1.767767 -1.767767 
C 1.29895 -2.236584 0.663008 -2.5 0 -2.5 
C -0.663008 -2.5 -1.29895 -2.236584 -1.767767 -1.767767 
C -2.236584 -1.29895 -2.5 -0.663008 -2.5 0 
C -2.5 0.663008 -2.236584 1.29895 -1.767767 1.767767 
C -1.29895 2.236584 -0.663008 2.5 0 2.5 
z
" style="stroke: #ffffff; stroke-width: 0.4"/>
    </defs>
    <g clip-path="url(#p3ad78e8f60)">
     <use xlink:href="#ma2e35fd948" x="102.235955" y="206.294069" style="fill: #6aaed6; stroke: #ffffff; stroke-width: 0.4"/>
    </g>
   </g>
   <g id="patch_18">
    <path d="M 102.128898 220.306509 
Q 85.907789 220.306509 71.699141 220.306509 
" style="fill: none; stroke: #4b98ca; stroke-width: 1.8; stroke-linecap: round"/>
    <path d="M 75.699141 222.306509 
L 71.699141 220.306509 
L 75.699141 218.306509 
z
" style="fill: #4b98ca; stroke: #4b98ca; stroke-width: 1.8; stroke-linecap: round"/>
   </g>
   <g id="line2d_38">
    <defs>
     <path id="m0c1d2b8870" d="M 0 2.5 
C 0.663008 2.5 1.29895 2.236584 1.767767 1.767767 
C 2.236584 1.29895 2.5 0.663008 2.5 0 
C 2.5 -0.663008 2.236584 -1.29895 1.767767 -1.767767 
C 1.29895 -2.236584 0.663008 -2.5 0 -2.5 
C -0.663008 -2.5 -1.29895 -2.236584 -1.767767 -1.767767 
C -2.236584 -1.29895 -2.5 -0.663008 -2.5 0 
C -2.5 0.663008 -2.236584 1.29895 -1.767767 1.767767 
C -1.29895 2.236584 -0.663008 2.5 0 2.5 
z
" style="stroke: #ffffff; stroke-width: 0.4"/>
    </defs>
    <g clip-path="url(#p3ad78e8f60)">
     <use xlink:href="#m0c1d2b8870" x="102.128898" y="220.306509" style="fill: #4b98ca; stroke: #ffffff; stroke-width: 0.4"/>
    </g>
   </g>
   <g id="patch_19">
    <path d="M 101.950959 234.31895 
Q 87.628577 234.31895 75.318657 234.31895 
" style="fill: none; stroke: #57a0ce; stroke-width: 1.8; stroke-linecap: round"/>
    <path d="M 79.318657 236.31895 
L 75.318657 234.31895 
L 79.318657 232.31895 
z
" style="fill: #57a0ce; stroke: #57a0ce; stroke-width: 1.8; stroke-linecap: round"/>
   </g>
   <g id="line2d_39">
    <defs>
     <path id="mb05aa64242" d="M 0 2.5 
C 0.663008 2.5 1.29895 2.236584 1.767767 1.767767 
C 2.236584 1.29895 2.5 0.663008 2.5 0 
C 2.5 -0.663008 2.236584 -1.29895 1.767767 -1.767767 
C 1.29895 -2.236584 0.663008 -2.5 0 -2.5 
C -0.663008 -2.5 -1.29895 -2.236584 -1.767767 -1.767767 
C -2.236584 -1.29895 -2.5 -0.663008 -2.5 0 
C -2.5 0.663008 -2.236584 1.29895 -1.767767 1.767767 
C -1.29895 2.236584 -0.663008 2.5 0 2.5 
z
" style="stroke: #ffffff; stroke-width: 0.4"/>
    </defs>
    <g clip-path="url(#p3ad78e8f60)">
     <use xlink:href="#mb05aa64242" x="101.950959" y="234.31895" style="fill: #57a0ce; stroke: #ffffff; stroke-width: 0.4"/>
    </g>
   </g>
   <g id="patch_20">
    <path d="M 89.529967 248.33139 
Q 71.419686 248.33139 55.321866 248.33139 
" style="fill: none; stroke: #4090c5; stroke-width: 1.8; stroke-linecap: round"/>
    <path d="M 59.321866 250.33139 
L 55.321866 248.33139 
L 59.321866 246.33139 
z
" style="fill: #4090c5; stroke: #4090c5; stroke-width: 1.8; stroke-linecap: round"/>
   </g>
   <g id="line2d_40">
    <defs>
     <path id="m5e0bb67e1a" d="M 0 2.5 
C 0.663008 2.5 1.29895 2.236584 1.767767 1.767767 
C 2.236584 1.29895 2.5 0.663008 2.5 0 
C 2.5 -0.663008 2.236584 -1.29895 1.767767 -1.767767 
C 1.29895 -2.236584 0.663008 -2.5 0 -2.5 
C -0.663008 -2.5 -1.29895 -2.236584 -1.767767 -1.767767 
C -2.236584 -1.29895 -2.5 -0.663008 -2.5 0 
C -2.5 0.663008 -2.236584 1.29895 -1.767767 1.767767 
C -1.29895 2.236584 -0.663008 2.5 0 2.5 
z
" style="stroke: #ffffff; stroke-width: 0.4"/>
    </defs>
    <g clip-path="url(#p3ad78e8f60)">
     <use xlink:href="#m5e0bb67e1a" x="89.529967" y="248.33139" style="fill: #4090c5; stroke: #ffffff; stroke-width: 0.4"/>
    </g>
   </g>
   <g id="patch_21">
    <path d="M 85.13081 262.34383 
Q 80.284376 262.34383 77.450403 262.34383 
" style="fill: none; stroke: #99c7e0; stroke-width: 1.8; stroke-linecap: round"/>
    <path d="M 81.450403 264.34383 
L 77.450403 262.34383 
L 81.450403 260.34383 
z
" style="fill: #99c7e0; stroke: #99c7e0; stroke-width: 1.8; stroke-linecap: round"/>
   </g>
   <g id="line2d_41">
    <defs>
     <path id="mbe7a684951" d="M 0 2.5 
C 0.663008 2.5 1.29895 2.236584 1.767767 1.767767 
C 2.236584 1.29895 2.5 0.663008 2.5 0 
C 2.5 -0.663008 2.236584 -1.29895 1.767767 -1.767767 
C 1.29895 -2.236584 0.663008 -2.5 0 -2.5 
C -0.663008 -2.5 -1.29895 -2.236584 -1.767767 -1.767767 
C -2.236584 -1.29895 -2.5 -0.663008 -2.5 0 
C -2.5 0.663008 -2.236584 1.29895 -1.767767 1.767767 
C -1.29895 2.236584 -0.663008 2.5 0 2.5 
z
" style="stroke: #ffffff; stroke-width: 0.4"/>
    </defs>
    <g clip-path="url(#p3ad78e8f60)">
     <use xlink:href="#mbe7a684951" x="85.13081" y="262.34383" style="fill: #99c7e0; stroke: #ffffff; stroke-width: 0.4"/>
    </g>
   </g>
   <g id="patch_22">
    <path d="M 82.678466 276.35627 
Q 74.496581 276.35627 68.327157 276.35627 
" style="fill: none; stroke: #81badb; stroke-width: 1.8; stroke-linecap: round"/>
    <path d="M 72.327157 278.35627 
L 68.327157 276.35627 
L 72.327157 274.35627 
z
" style="fill: #81badb; stroke: #81badb; stroke-width: 1.8; stroke-linecap: round"/>
   </g>
   <g id="line2d_42">
    <defs>
     <path id="m79b5078f41" d="M 0 2.5 
C 0.663008 2.5 1.29895 2.236584 1.767767 1.767767 
C 2.236584 1.29895 2.5 0.663008 2.5 0 
C 2.5 -0.663008 2.236584 -1.29895 1.767767 -1.767767 
C 1.29895 -2.236584 0.663008 -2.5 0 -2.5 
C -0.663008 -2.5 -1.29895 -2.236584 -1.767767 -1.767767 
C -2.236584 -1.29895 -2.5 -0.663008 -2.5 0 
C -2.5 0.663008 -2.236584 1.29895 -1.767767 1.767767 
C -1.29895 2.236584 -0.663008 2.5 0 2.5 
z
" style="stroke: #ffffff; stroke-width: 0.4"/>
    </defs>
    <g clip-path="url(#p3ad78e8f60)">
     <use xlink:href="#m79b5078f41" x="82.678466" y="276.35627" style="fill: #81badb; stroke: #ffffff; stroke-width: 0.4"/>
    </g>
   </g>
   <g id="patch_23">
    <path d="M 78.602683 290.36871 
Q 73.653436 290.36871 70.716651 290.36871 
" style="fill: none; stroke: #99c7e0; stroke-width: 1.8; stroke-linecap: round"/>
    <path d="M 74.716651 292.36871 
L 70.716651 290.36871 
L 74.716651 288.36871 
z
" style="fill: #99c7e0; stroke: #99c7e0; stroke-width: 1.8; stroke-linecap: round"/>
   </g>
   <g id="line2d_43">
    <g clip-path="url(#p3ad78e8f60)">
     <use xlink:href="#mbe7a684951" x="78.602683" y="290.36871" style="fill: #99c7e0; stroke: #ffffff; stroke-width: 0.4"/>
    </g>
   </g>
   <g id="patch_24">
    <path d="M 75.411865 304.381151 
Q 68.703773 304.381151 64.008141 304.381151 
" style="fill: none; stroke: #8abfdd; stroke-width: 1.8; stroke-linecap: round"/>
    <path d="M 68.008141 306.381151 
L 64.008141 304.381151 
L 68.008141 302.381151 
z
" style="fill: #8abfdd; stroke: #8abfdd; stroke-width: 1.8; stroke-linecap: round"/>
   </g>
   <g id="line2d_44">
    <defs>
     <path id="m8df6c0d7c6" d="M 0 2.5 
C 0.663008 2.5 1.29895 2.236584 1.767767 1.767767 
C 2.236584 1.29895 2.5 0.663008 2.5 0 
C 2.5 -0.663008 2.236584 -1.29895 1.767767 -1.767767 
C 1.29895 -2.236584 0.663008 -2.5 0 -2.5 
C -0.663008 -2.5 -1.29895 -2.236584 -1.767767 -1.767767 
C -2.236584 -1.29895 -2.5 -0.663008 -2.5 0 
C -2.5 0.663008 -2.236584 1.29895 -1.767767 1.767767 
C -1.29895 2.236584 -0.663008 2.5 0 2.5 
z
" style="stroke: #ffffff; stroke-width: 0.4"/>
    </defs>
    <g clip-path="url(#p3ad78e8f60)">
     <use xlink:href="#m8df6c0d7c6" x="75.411865" y="304.381151" style="fill: #8abfdd; stroke: #ffffff; stroke-width: 0.4"/>
    </g>
   </g>
   <g id="text_25">
    <g id="patch_25">
     <path d="M 132.906494 314.535769 
L 200.348838 314.535769 
Q 203.048837 314.535769 203.048837 311.835769 
L 203.048837 303.673894 
Q 203.048837 300.973894 200.348838 300.973894 
L 132.906494 300.973894 
Q 130.206494 300.973894 130.206494 303.673894 
L 130.206494 311.835769 
Q 130.206494 314.535769 132.906494 314.535769 
z
" style="fill: #ffffff; opacity: 0.9; stroke: #cccccc; stroke-linejoin: miter"/>
    </g>
    <!-- ● Control  → SCZ -->
    <g style="fill: #222222" transform="translate(132.906494 309.91905) scale(0.09 -0.09)">
     <defs>
      <path id="LiberationSerif-25cf" d="M 1931 3181 
Q 2275 3181 2614 3000 
Q 2953 2819 3131 2478 
Q 3309 2138 3309 1806 
Q 3309 1234 2906 831 
Q 2503 428 1931 428 
Q 1363 428 959 833 
Q 556 1238 556 1806 
Q 556 2144 729 2476 
Q 903 2809 1239 2995 
Q 1575 3181 1931 3181 
z
" transform="scale(0.015625)"/>
      <path id="LiberationSerif-43" d="M 2419 -63 
Q 1400 -63 831 492 
Q 263 1047 263 2047 
Q 263 3128 809 3683 
Q 1356 4238 2431 4238 
Q 3084 4238 3834 4078 
L 3853 3163 
L 3647 3163 
L 3553 3706 
Q 3334 3841 3045 3914 
Q 2756 3988 2456 3988 
Q 1653 3988 1284 3516 
Q 916 3044 916 2053 
Q 916 1141 1302 659 
Q 1688 178 2425 178 
Q 2781 178 3097 264 
Q 3413 350 3597 494 
L 3713 1119 
L 3916 1119 
L 3897 134 
Q 3209 -63 2419 -63 
z
" transform="scale(0.015625)"/>
      <path id="LiberationSerif-6f" d="M 2956 1484 
Q 2956 -63 1581 -63 
Q 919 -63 581 334 
Q 244 731 244 1484 
Q 244 2228 581 2622 
Q 919 3016 1606 3016 
Q 2275 3016 2615 2630 
Q 2956 2244 2956 1484 
z
M 2394 1484 
Q 2394 2159 2197 2462 
Q 2000 2766 1581 2766 
Q 1172 2766 989 2475 
Q 806 2184 806 1484 
Q 806 775 992 479 
Q 1178 184 1581 184 
Q 1994 184 2194 490 
Q 2394 797 2394 1484 
z
" transform="scale(0.015625)"/>
      <path id="LiberationSerif-6e" d="M 1013 2700 
Q 1253 2838 1525 2927 
Q 1797 3016 1978 3016 
Q 2359 3016 2553 2794 
Q 2747 2572 2747 2150 
L 2747 219 
L 3103 141 
L 3103 0 
L 1838 0 
L 1838 141 
L 2228 219 
L 2228 2094 
Q 2228 2353 2101 2501 
Q 1975 2650 1709 2650 
Q 1428 2650 1019 2559 
L 1019 219 
L 1416 141 
L 1416 0 
L 147 0 
L 147 141 
L 500 219 
L 500 2719 
L 147 2797 
L 147 2938 
L 984 2938 
L 1013 2700 
z
" transform="scale(0.015625)"/>
      <path id="LiberationSerif-74" d="M 1044 -63 
Q 744 -63 595 115 
Q 447 294 447 616 
L 447 2675 
L 63 2675 
L 63 2816 
L 453 2938 
L 769 3603 
L 966 3603 
L 966 2938 
L 1638 2938 
L 1638 2675 
L 966 2675 
L 966 672 
Q 966 469 1058 366 
Q 1150 263 1300 263 
Q 1481 263 1741 313 
L 1741 109 
Q 1631 34 1425 -14 
Q 1219 -63 1044 -63 
z
" transform="scale(0.015625)"/>
      <path id="LiberationSerif-6c" d="M 1147 219 
L 1650 141 
L 1650 0 
L 128 0 
L 128 141 
L 628 219 
L 628 4225 
L 128 4300 
L 128 4441 
L 1147 4441 
L 1147 219 
z
" transform="scale(0.015625)"/>
      <path id="LiberationSerif-2192" d="M 4397 1197 
Q 4219 1406 4025 1813 
L 4250 1813 
Q 4647 1347 5094 1119 
L 5094 1006 
Q 4647 778 4250 313 
L 4025 313 
Q 4219 719 4397 928 
L 1306 928 
L 1306 1197 
L 4397 1197 
z
" transform="scale(0.015625)"/>
      <path id="LiberationSerif-53" d="M 434 1128 
L 638 1128 
L 747 563 
Q 863 416 1145 303 
Q 1428 191 1703 191 
Q 2141 191 2386 414 
Q 2631 638 2631 1031 
Q 2631 1256 2536 1403 
Q 2441 1550 2286 1651 
Q 2131 1753 1934 1823 
Q 1738 1894 1530 1966 
Q 1322 2038 1125 2125 
Q 928 2213 773 2347 
Q 619 2481 523 2679 
Q 428 2878 428 3169 
Q 428 3669 803 3953 
Q 1178 4238 1844 4238 
Q 2350 4238 2944 4103 
L 2944 3231 
L 2741 3231 
L 2631 3744 
Q 2313 3975 1844 3975 
Q 1425 3975 1189 3804 
Q 953 3634 953 3334 
Q 953 3131 1048 2997 
Q 1144 2863 1298 2767 
Q 1453 2672 1651 2603 
Q 1850 2534 2058 2461 
Q 2266 2388 2464 2295 
Q 2663 2203 2817 2061 
Q 2972 1919 3067 1714 
Q 3163 1509 3163 1209 
Q 3163 603 2791 270 
Q 2419 -63 1719 -63 
Q 1381 -63 1040 -3 
Q 700 56 434 159 
L 434 1128 
z
" transform="scale(0.015625)"/>
     </defs>
     <use xlink:href="#LiberationSerif-25cf"/>
     <use xlink:href="#LiberationSerif-20" x="60.400391"/>
     <use xlink:href="#LiberationSerif-43" x="85.400391"/>
     <use xlink:href="#LiberationSerif-6f" x="152.099609"/>
     <use xlink:href="#LiberationSerif-6e" x="202.099609"/>
     <use xlink:href="#LiberationSerif-74" x="252.099609"/>
     <use xlink:href="#LiberationSerif-72" x="279.882812"/>
     <use xlink:href="#LiberationSerif-6f" x="313.183594"/>
     <use xlink:href="#LiberationSerif-6c" x="363.183594"/>
     <use xlink:href="#LiberationSerif-20" x="390.966797"/>
     <use xlink:href="#LiberationSerif-20" x="415.966797"/>
     <use xlink:href="#LiberationSerif-2192" x="440.966797"/>
     <use xlink:href="#LiberationSerif-20" x="540.966797"/>
     <use xlink:href="#LiberationSerif-53" x="565.966797"/>
     <use xlink:href="#LiberationSerif-43" x="621.582031"/>
     <use xlink:href="#LiberationSerif-5a" x="688.28125"/>
    </g>
   </g>
   <g id="text_26">
    <!-- SNAP-a – Microglia modules -->
    <g transform="translate(52.249609 14.832969) scale(0.11 -0.11)">
     <defs>
      <path id="LiberationSerif-Bold-53" d="M 341 1284 
L 616 1284 
L 756 613 
Q 888 459 1153 356 
Q 1419 253 1703 253 
Q 2600 253 2600 991 
Q 2600 1222 2429 1381 
Q 2259 1541 1894 1666 
Q 1356 1844 1120 1955 
Q 884 2066 721 2216 
Q 559 2366 462 2580 
Q 366 2794 366 3106 
Q 366 3659 742 3948 
Q 1119 4238 1844 4238 
Q 2369 4238 3006 4103 
L 3006 3106 
L 2728 3106 
L 2588 3681 
Q 2269 3913 1844 3913 
Q 1459 3913 1253 3770 
Q 1047 3628 1047 3334 
Q 1047 3125 1219 2976 
Q 1391 2828 1756 2713 
Q 2472 2478 2739 2304 
Q 3006 2131 3147 1875 
Q 3288 1619 3288 1272 
Q 3288 -63 1716 -63 
Q 1356 -63 982 -2 
Q 609 59 341 159 
L 341 1284 
z
" transform="scale(0.015625)"/>
      <path id="LiberationSerif-Bold-4e" d="M 3609 3881 
L 3047 3963 
L 3047 4191 
L 4538 4191 
L 4538 3963 
L 4000 3881 
L 4000 0 
L 3634 0 
L 1050 3369 
L 1050 313 
L 1613 228 
L 1613 0 
L 122 0 
L 122 228 
L 659 313 
L 659 3881 
L 122 3963 
L 122 4191 
L 1556 4191 
L 3609 1513 
L 3609 3881 
z
" transform="scale(0.015625)"/>
      <path id="LiberationSerif-Bold-41" d="M 1338 228 
L 1338 0 
L 63 0 
L 63 228 
L 375 313 
L 1866 4225 
L 2772 4225 
L 4256 313 
L 4575 228 
L 4575 0 
L 2709 0 
L 2709 228 
L 3194 313 
L 2794 1397 
L 1184 1397 
L 800 313 
L 1338 228 
z
M 2003 3594 
L 1313 1741 
L 2675 1741 
L 2003 3594 
z
" transform="scale(0.015625)"/>
      <path id="LiberationSerif-Bold-50" d="M 2722 2950 
Q 2722 3450 2536 3648 
Q 2350 3847 1881 3847 
L 1634 3847 
L 1634 1988 
L 1894 1988 
Q 2328 1988 2525 2206 
Q 2722 2425 2722 2950 
z
M 1634 1644 
L 1634 313 
L 2331 228 
L 2331 0 
L 150 0 
L 150 228 
L 647 313 
L 647 3881 
L 109 3963 
L 109 4191 
L 1956 4191 
Q 2847 4191 3287 3892 
Q 3728 3594 3728 2956 
Q 3728 1644 2197 1644 
L 1634 1644 
z
" transform="scale(0.015625)"/>
      <path id="LiberationSerif-Bold-2d" d="M 234 1234 
L 234 1778 
L 1897 1778 
L 1897 1234 
L 234 1234 
z
" transform="scale(0.015625)"/>
      <path id="LiberationSerif-Bold-61" d="M 1706 3003 
Q 2809 3003 2809 2191 
L 2809 281 
L 3103 206 
L 3103 0 
L 2022 0 
L 1953 225 
Q 1709 59 1512 -2 
Q 1316 -63 1116 -63 
Q 206 -63 206 813 
Q 206 1144 340 1342 
Q 475 1541 728 1636 
Q 981 1731 1525 1744 
L 1906 1753 
L 1906 2181 
Q 1906 2713 1472 2713 
Q 1209 2713 884 2550 
L 766 2184 
L 559 2184 
L 559 2894 
Q 1031 2966 1253 2984 
Q 1475 3003 1706 3003 
z
M 1906 1475 
L 1644 1466 
Q 1341 1453 1223 1306 
Q 1106 1159 1106 831 
Q 1106 566 1200 441 
Q 1294 316 1444 316 
Q 1656 316 1906 425 
L 1906 1475 
z
" transform="scale(0.015625)"/>
      <path id="LiberationSerif-Bold-20" transform="scale(0.015625)"/>
      <path id="LiberationSerif-Bold-2013" d="M 3244 1716 
L 3244 1269 
L -44 1269 
L -44 1716 
L 3244 1716 
z
" transform="scale(0.015625)"/>
      <path id="LiberationSerif-Bold-4d" d="M 2756 0 
L 2584 0 
L 1038 3541 
L 1038 313 
L 1600 228 
L 1600 0 
L 109 0 
L 109 228 
L 647 313 
L 647 3881 
L 109 3963 
L 109 4191 
L 1756 4191 
L 2953 1434 
L 4175 4191 
L 5856 4191 
L 5856 3963 
L 5319 3881 
L 5319 313 
L 5856 228 
L 5856 0 
L 3772 0 
L 3772 228 
L 4334 313 
L 4334 3541 
L 2756 0 
z
" transform="scale(0.015625)"/>
      <path id="LiberationSerif-Bold-69" d="M 1363 281 
L 1684 206 
L 1684 0 
L 141 0 
L 141 206 
L 459 281 
L 459 2656 
L 159 2731 
L 159 2938 
L 1363 2938 
L 1363 281 
z
M 428 3963 
Q 428 4166 570 4303 
Q 713 4441 909 4441 
Q 1109 4441 1248 4302 
Q 1388 4163 1388 3963 
Q 1388 3766 1250 3623 
Q 1113 3481 909 3481 
Q 709 3481 568 3620 
Q 428 3759 428 3963 
z
" transform="scale(0.015625)"/>
      <path id="LiberationSerif-Bold-63" d="M 2681 178 
Q 2541 66 2292 3 
Q 2044 -59 1781 -59 
Q 997 -59 608 319 
Q 219 697 219 1475 
Q 219 1959 395 2304 
Q 572 2650 900 2833 
Q 1228 3016 1663 3016 
Q 2100 3016 2616 2906 
L 2616 2038 
L 2391 2038 
L 2259 2553 
Q 2153 2631 2050 2662 
Q 1947 2694 1778 2694 
Q 1594 2694 1444 2547 
Q 1294 2400 1211 2133 
Q 1128 1866 1128 1494 
Q 1128 866 1323 597 
Q 1519 328 1944 328 
Q 2375 328 2681 419 
L 2681 178 
z
" transform="scale(0.015625)"/>
      <path id="LiberationSerif-Bold-72" d="M 1441 2328 
Q 1778 2703 2045 2867 
Q 2313 3031 2534 3031 
L 2703 3031 
L 2703 1959 
L 2528 1959 
L 2344 2353 
Q 2147 2353 1897 2267 
Q 1647 2181 1456 2066 
L 1456 281 
L 1928 206 
L 1928 0 
L 172 0 
L 172 206 
L 553 281 
L 553 2656 
L 172 2731 
L 172 2938 
L 1406 2938 
L 1441 2328 
z
" transform="scale(0.015625)"/>
      <path id="LiberationSerif-Bold-6f" d="M 2956 1484 
Q 2956 694 2617 315 
Q 2278 -63 1581 -63 
Q 906 -63 575 320 
Q 244 703 244 1484 
Q 244 2263 580 2639 
Q 916 3016 1606 3016 
Q 2303 3016 2629 2627 
Q 2956 2238 2956 1484 
z
M 2041 1484 
Q 2041 2172 1939 2436 
Q 1838 2700 1588 2700 
Q 1347 2700 1253 2447 
Q 1159 2194 1159 1484 
Q 1159 763 1254 506 
Q 1350 250 1588 250 
Q 1834 250 1937 520 
Q 2041 791 2041 1484 
z
" transform="scale(0.015625)"/>
      <path id="LiberationSerif-Bold-67" d="M 803 1084 
Q 247 1319 247 2000 
Q 247 2488 587 2752 
Q 928 3016 1563 3016 
Q 1697 3016 1908 2992 
Q 2119 2969 2216 2938 
L 2919 3284 
L 3028 3150 
L 2672 2644 
Q 2866 2406 2866 2000 
Q 2866 1503 2530 1236 
Q 2194 969 1550 969 
Q 1303 969 1072 1006 
L 997 769 
Q 1003 678 1112 598 
Q 1222 519 1381 519 
L 2066 519 
Q 3138 519 3138 -306 
Q 3138 -647 2952 -892 
Q 2766 -1138 2405 -1275 
Q 2044 -1413 1506 -1413 
Q 869 -1413 519 -1230 
Q 169 -1047 169 -728 
Q 169 -588 283 -456 
Q 397 -325 725 -134 
Q 541 -63 411 115 
Q 281 294 281 491 
L 803 1084 
z
M 2453 -519 
Q 2453 -222 2056 -222 
L 1066 -222 
Q 791 -422 791 -675 
Q 791 -875 983 -975 
Q 1175 -1075 1509 -1075 
Q 1963 -1075 2208 -928 
Q 2453 -781 2453 -519 
z
M 1544 1281 
Q 1775 1281 1878 1461 
Q 1981 1641 1981 2000 
Q 1981 2359 1879 2529 
Q 1778 2700 1544 2700 
Q 1328 2700 1229 2529 
Q 1131 2359 1131 2000 
Q 1131 1641 1228 1461 
Q 1325 1281 1544 1281 
z
" transform="scale(0.015625)"/>
      <path id="LiberationSerif-Bold-6c" d="M 1347 281 
L 1669 206 
L 1669 0 
L 125 0 
L 125 206 
L 444 281 
L 444 4159 
L 144 4234 
L 144 4441 
L 1347 4441 
L 1347 281 
z
" transform="scale(0.015625)"/>
      <path id="LiberationSerif-Bold-6d" d="M 1356 2681 
L 1569 2791 
Q 2006 3016 2353 3016 
Q 2878 3016 3053 2634 
Q 3694 3016 4134 3016 
Q 4928 3016 4928 2150 
L 4928 281 
L 5222 206 
L 5222 0 
L 3763 0 
L 3763 206 
L 4025 281 
L 4025 2028 
Q 4025 2291 3923 2437 
Q 3822 2584 3616 2584 
Q 3384 2584 3116 2453 
Q 3147 2322 3147 2150 
L 3147 281 
L 3441 206 
L 3441 0 
L 1981 0 
L 1981 206 
L 2244 281 
L 2244 2028 
Q 2244 2291 2142 2437 
Q 2041 2584 1834 2584 
Q 1628 2584 1363 2463 
L 1363 281 
L 1631 206 
L 1631 0 
L 172 0 
L 172 206 
L 459 281 
L 459 2656 
L 172 2731 
L 172 2938 
L 1313 2938 
L 1356 2681 
z
" transform="scale(0.015625)"/>
      <path id="LiberationSerif-Bold-64" d="M 2291 166 
Q 2116 53 2022 17 
Q 1928 -19 1809 -41 
Q 1691 -63 1547 -63 
Q 897 -63 578 310 
Q 259 684 259 1459 
Q 259 2222 601 2619 
Q 944 3016 1594 3016 
Q 1934 3016 2281 2931 
Q 2263 3034 2263 3416 
L 2263 4159 
L 1963 4234 
L 1963 4441 
L 3166 4441 
L 3166 281 
L 3488 206 
L 3488 0 
L 2356 0 
L 2291 166 
z
M 1175 1484 
Q 1175 900 1322 592 
Q 1469 284 1744 284 
Q 1994 284 2263 419 
L 2263 2631 
Q 2019 2697 1769 2697 
Q 1488 2697 1331 2389 
Q 1175 2081 1175 1484 
z
" transform="scale(0.015625)"/>
      <path id="LiberationSerif-Bold-75" d="M 2203 256 
L 1991 147 
Q 1553 -78 1203 -78 
Q 391 -78 391 788 
L 391 2656 
L 97 2731 
L 97 2938 
L 1294 2938 
L 1294 909 
Q 1294 647 1405 500 
Q 1516 353 1722 353 
Q 1959 353 2197 459 
L 2197 2656 
L 1928 2731 
L 1928 2938 
L 3100 2938 
L 3100 281 
L 3388 206 
L 3388 0 
L 2247 0 
L 2203 256 
z
" transform="scale(0.015625)"/>
      <path id="LiberationSerif-Bold-65" d="M 1544 3009 
Q 2141 3009 2408 2690 
Q 2675 2372 2675 1700 
L 2675 1444 
L 1134 1444 
L 1134 1394 
Q 1134 928 1209 731 
Q 1284 534 1453 431 
Q 1622 328 1916 328 
Q 2191 328 2609 419 
L 2609 178 
Q 2438 75 2164 8 
Q 1891 -59 1631 -59 
Q 909 -59 564 317 
Q 219 694 219 1484 
Q 219 2253 548 2631 
Q 878 3009 1544 3009 
z
M 1509 2694 
Q 1322 2694 1230 2491 
Q 1138 2288 1138 1772 
L 1819 1772 
Q 1819 2191 1791 2361 
Q 1763 2531 1695 2612 
Q 1628 2694 1509 2694 
z
" transform="scale(0.015625)"/>
      <path id="LiberationSerif-Bold-73" d="M 2334 931 
Q 2334 441 2032 189 
Q 1731 -63 1156 -63 
Q 919 -63 633 -11 
Q 347 41 200 97 
L 200 897 
L 406 897 
L 525 484 
Q 634 375 812 301 
Q 991 228 1175 228 
Q 1447 228 1580 345 
Q 1713 463 1713 644 
Q 1713 816 1584 919 
Q 1456 1022 1025 1156 
Q 572 1297 383 1540 
Q 194 1784 194 2141 
Q 194 2541 491 2778 
Q 788 3016 1256 3016 
Q 1578 3016 2122 2925 
L 2122 2172 
L 1916 2172 
L 1816 2516 
Q 1725 2606 1561 2664 
Q 1397 2722 1250 2722 
Q 1025 2722 917 2630 
Q 809 2538 809 2378 
Q 809 2213 943 2106 
Q 1078 2000 1497 1875 
Q 1953 1734 2143 1504 
Q 2334 1275 2334 931 
z
" transform="scale(0.015625)"/>
     </defs>
     <use xlink:href="#LiberationSerif-Bold-53"/>
     <use xlink:href="#LiberationSerif-Bold-4e" x="55.615234"/>
     <use xlink:href="#LiberationSerif-Bold-41" x="127.832031"/>
     <use xlink:href="#LiberationSerif-Bold-50" x="200.048828"/>
     <use xlink:href="#LiberationSerif-Bold-2d" x="261.132812"/>
     <use xlink:href="#LiberationSerif-Bold-61" x="294.433594"/>
     <use xlink:href="#LiberationSerif-Bold-20" x="344.433594"/>
     <use xlink:href="#LiberationSerif-Bold-2013" x="369.433594"/>
     <use xlink:href="#LiberationSerif-Bold-20" x="419.433594"/>
     <use xlink:href="#LiberationSerif-Bold-4d" x="444.433594"/>
     <use xlink:href="#LiberationSerif-Bold-69" x="538.818359"/>
     <use xlink:href="#LiberationSerif-Bold-63" x="566.601562"/>
     <use xlink:href="#LiberationSerif-Bold-72" x="610.986328"/>
     <use xlink:href="#LiberationSerif-Bold-6f" x="653.621094"/>
     <use xlink:href="#LiberationSerif-Bold-67" x="703.621094"/>
     <use xlink:href="#LiberationSerif-Bold-6c" x="753.621094"/>
     <use xlink:href="#LiberationSerif-Bold-69" x="781.404297"/>
     <use xlink:href="#LiberationSerif-Bold-61" x="809.1875"/>
     <use xlink:href="#LiberationSerif-Bold-20" x="859.1875"/>
     <use xlink:href="#LiberationSerif-Bold-6d" x="884.1875"/>
     <use xlink:href="#LiberationSerif-Bold-6f" x="967.488281"/>
     <use xlink:href="#LiberationSerif-Bold-64" x="1017.488281"/>
     <use xlink:href="#LiberationSerif-Bold-75" x="1073.103516"/>
     <use xlink:href="#LiberationSerif-Bold-6c" x="1128.71875"/>
     <use xlink:href="#LiberationSerif-Bold-65" x="1156.501953"/>
     <use xlink:href="#LiberationSerif-Bold-73" x="1200.886719"/>
    </g>
   </g>
  </g>
 </g>
 <defs>
  <clipPath id="p3ad78e8f60">
   <rect x="37.198437" y="24.832969" width="166.48" height="292.86"/>
  </clipPath>
 </defs>
</svg>
