<?xml version="1.0" encoding="utf-8" standalone="no"?>
<!DOCTYPE svg PUBLIC "-//W3C//DTD SVG 1.1//EN"
  "http://www.w3.org/Graphics/SVG/1.1/DTD/svg11.dtd">
<svg xmlns:xlink="http://www.w3.org/1999/xlink" width="214.315pt" height="354.398594pt" viewBox="0 0 214.315 354.398594" xmlns="http://www.w3.org/2000/svg" version="1.1">
 <metadata>
  <rdf:RDF xmlns:dc="http://purl.org/dc/elements/1.1/" xmlns:cc="http://creativecommons.org/ns#" xmlns:rdf="http://www.w3.org/1999/02/22-rdf-syntax-ns#">
   <cc:Work>
    <dc:type rdf:resource="http://purl.org/dc/dcmitype/StillImage"/>
    <dc:date>2026-06-08T12:08:40.843787</dc:date>
    <dc:format>image/svg+xml</dc:format>
    <dc:creator>
     <cc:Agent>
      <dc:title>Matplotlib v3.9.4, https://matplotlib.org/</dc:title>
     </cc:Agent>
    </dc:creator>
   </cc:Work>
  </rdf:RDF>
 </metadata>
 <defs>
  <style type="text/css">*{stroke-linejoin: round; stroke-linecap: butt}</style>
 </defs>
 <g id="figure_1">
  <g id="patch_1">
   <path d="M 0 354.398594 
L 214.315 354.398594 
L 214.315 0 
L 0 0 
z
" style="fill: #ffffff"/>
  </g>
  <g id="axes_1">
   <g id="patch_2">
    <path d="M 37.198437 317.467969 
L 203.678438 317.467969 
L 203.678438 24.832969 
L 37.198437 24.832969 
z
" style="fill: #ffffff"/>
   </g>
   <g id="line2d_1">
    <path d="M 64.549375 317.467969 
L 64.549375 24.832969 
" clip-path="url(#paa0fdf3bc1)" style="fill: none; stroke-dasharray: 1.85,0.8; stroke-dashoffset: 0; stroke: #666666; stroke-width: 0.5"/>
   </g>
   <g id="matplotlib.axis_1">
    <g id="xtick_1">
     <g id="line2d_2">
      <defs>
       <path id="m80645dac8a" d="M 0 0 
L 0 3 
" style="stroke: #000000; stroke-width: 0.5"/>
      </defs>
      <g>
       <use xlink:href="#m80645dac8a" x="64.549375" y="317.467969" style="stroke: #000000; stroke-width: 0.5"/>
      </g>
     </g>
     <g id="text_1">
      <!-- 0.0 -->
      <g transform="translate(58.924375 330.213125) scale(0.09 -0.09)">
       <defs>
        <path id="LiberationSerif-30" d="M 2956 2113 
Q 2956 -63 1581 -63 
Q 919 -63 581 493 
Q 244 1050 244 2113 
Q 244 3153 581 3704 
Q 919 4256 1606 4256 
Q 2269 4256 2612 3711 
Q 2956 3166 2956 2113 
z
M 2381 2113 
Q 2381 3119 2190 3562 
Q 2000 4006 1581 4006 
Q 1175 4006 997 3587 
Q 819 3169 819 2113 
Q 819 1050 1000 617 
Q 1181 184 1581 184 
Q 1994 184 2187 639 
Q 2381 1094 2381 2113 
z
" transform="scale(0.015625)"/>
        <path id="LiberationSerif-2e" d="M 1178 288 
Q 1178 134 1070 21 
Q 963 -91 800 -91 
Q 638 -91 530 21 
Q 422 134 422 288 
Q 422 447 531 556 
Q 641 666 800 666 
Q 959 666 1068 556 
Q 1178 447 1178 288 
z
" transform="scale(0.015625)"/>
       </defs>
       <use xlink:href="#LiberationSerif-30"/>
       <use xlink:href="#LiberationSerif-2e" x="50"/>
       <use xlink:href="#LiberationSerif-30" x="75"/>
      </g>
     </g>
    </g>
    <g id="xtick_2">
     <g id="line2d_3">
      <g>
       <use xlink:href="#m80645dac8a" x="111.74105" y="317.467969" style="stroke: #000000; stroke-width: 0.5"/>
      </g>
     </g>
     <g id="text_2">
      <!-- 0.5 -->
      <g transform="translate(106.11605 330.213125) scale(0.09 -0.09)">
       <defs>
        <path id="LiberationSerif-35" d="M 1516 2450 
Q 2241 2450 2595 2153 
Q 2950 1856 2950 1247 
Q 2950 616 2565 276 
Q 2181 -63 1466 -63 
Q 872 -63 406 72 
L 372 953 
L 578 953 
L 719 366 
Q 856 291 1048 244 
Q 1241 197 1416 197 
Q 1909 197 2142 430 
Q 2375 663 2375 1216 
Q 2375 1603 2275 1801 
Q 2175 2000 1956 2094 
Q 1738 2188 1369 2188 
Q 1084 2188 813 2113 
L 513 2113 
L 513 4191 
L 2638 4191 
L 2638 3713 
L 794 3713 
L 794 2375 
Q 1131 2450 1516 2450 
z
" transform="scale(0.015625)"/>
       </defs>
       <use xlink:href="#LiberationSerif-30"/>
       <use xlink:href="#LiberationSerif-2e" x="50"/>
       <use xlink:href="#LiberationSerif-35" x="75"/>
      </g>
     </g>
    </g>
    <g id="xtick_3">
     <g id="line2d_4">
      <g>
       <use xlink:href="#m80645dac8a" x="158.932725" y="317.467969" style="stroke: #000000; stroke-width: 0.5"/>
      </g>
     </g>
     <g id="text_3">
      <!-- 1.0 -->
      <g transform="translate(153.307725 330.213125) scale(0.09 -0.09)">
       <defs>
        <path id="LiberationSerif-31" d="M 1959 250 
L 2816 166 
L 2816 0 
L 563 0 
L 563 166 
L 1422 250 
L 1422 3669 
L 575 3366 
L 575 3531 
L 1797 4225 
L 1959 4225 
L 1959 250 
z
" transform="scale(0.015625)"/>
       </defs>
       <use xlink:href="#LiberationSerif-31"/>
       <use xlink:href="#LiberationSerif-2e" x="50"/>
       <use xlink:href="#LiberationSerif-30" x="75"/>
      </g>
     </g>
    </g>
    <g id="text_4">
     <!-- Fisher's Z -->
     <g transform="translate(100.787656 345.068906) scale(0.1 -0.1)">
      <defs>
       <path id="LiberationSerif-46" d="M 1325 1881 
L 1325 250 
L 2022 166 
L 2022 0 
L 225 0 
L 225 166 
L 722 250 
L 722 3944 
L 184 4025 
L 184 4191 
L 3328 4191 
L 3328 3188 
L 3122 3188 
L 3022 3866 
Q 2672 3909 2009 3909 
L 1325 3909 
L 1325 2163 
L 2559 2163 
L 2656 2663 
L 2847 2663 
L 2847 1375 
L 2656 1375 
L 2559 1881 
L 1325 1881 
z
" transform="scale(0.015625)"/>
       <path id="LiberationSerif-69" d="M 1184 3897 
Q 1184 3759 1084 3659 
Q 984 3559 844 3559 
Q 706 3559 606 3659 
Q 506 3759 506 3897 
Q 506 4038 606 4138 
Q 706 4238 844 4238 
Q 984 4238 1084 4138 
Q 1184 4038 1184 3897 
z
M 1153 219 
L 1656 141 
L 1656 0 
L 134 0 
L 134 141 
L 634 219 
L 634 2719 
L 219 2797 
L 219 2938 
L 1153 2938 
L 1153 219 
z
" transform="scale(0.015625)"/>
       <path id="LiberationSerif-73" d="M 2259 825 
Q 2259 388 1982 162 
Q 1706 -63 1166 -63 
Q 947 -63 683 -17 
Q 419 28 269 84 
L 269 806 
L 409 806 
L 563 397 
Q 797 184 1172 184 
Q 1778 184 1778 703 
Q 1778 1084 1300 1247 
L 1022 1338 
Q 706 1441 562 1547 
Q 419 1653 341 1808 
Q 263 1963 263 2181 
Q 263 2569 527 2792 
Q 791 3016 1241 3016 
Q 1563 3016 2047 2919 
L 2047 2278 
L 1900 2278 
L 1769 2619 
Q 1603 2766 1247 2766 
Q 994 2766 861 2641 
Q 728 2516 728 2303 
Q 728 2125 848 2003 
Q 969 1881 1213 1800 
Q 1672 1644 1812 1572 
Q 1953 1500 2051 1395 
Q 2150 1291 2204 1156 
Q 2259 1022 2259 825 
z
" transform="scale(0.015625)"/>
       <path id="LiberationSerif-68" d="M 1019 3169 
Q 1019 2844 997 2700 
Q 1222 2828 1508 2922 
Q 1794 3016 1991 3016 
Q 2372 3016 2565 2794 
Q 2759 2572 2759 2150 
L 2759 219 
L 3116 141 
L 3116 0 
L 1850 0 
L 1850 141 
L 2241 219 
L 2241 2113 
Q 2241 2650 1722 2650 
Q 1428 2650 1019 2559 
L 1019 219 
L 1416 141 
L 1416 0 
L 128 0 
L 128 141 
L 500 219 
L 500 4225 
L 63 4300 
L 63 4441 
L 1019 4441 
L 1019 3169 
z
" transform="scale(0.015625)"/>
       <path id="LiberationSerif-65" d="M 813 1478 
L 813 1422 
Q 813 991 908 752 
Q 1003 513 1201 388 
Q 1400 263 1722 263 
Q 1891 263 2122 291 
Q 2353 319 2503 353 
L 2503 178 
Q 2353 81 2095 9 
Q 1838 -63 1569 -63 
Q 884 -63 567 306 
Q 250 675 250 1491 
Q 250 2259 572 2637 
Q 894 3016 1491 3016 
Q 2619 3016 2619 1734 
L 2619 1478 
L 813 1478 
z
M 1491 2766 
Q 1166 2766 992 2503 
Q 819 2241 819 1728 
L 2075 1728 
Q 2075 2288 1931 2527 
Q 1788 2766 1491 2766 
z
" transform="scale(0.015625)"/>
       <path id="LiberationSerif-72" d="M 2075 3016 
L 2075 2222 
L 1941 2222 
L 1759 2566 
Q 1603 2566 1389 2523 
Q 1175 2481 1019 2413 
L 1019 219 
L 1522 141 
L 1522 0 
L 128 0 
L 128 141 
L 500 219 
L 500 2719 
L 128 2797 
L 128 2938 
L 984 2938 
L 1013 2572 
Q 1200 2728 1520 2872 
Q 1841 3016 2028 3016 
L 2075 3016 
z
" transform="scale(0.015625)"/>
       <path id="LiberationSerif-27" d="M 269 4191 
L 884 4191 
L 691 2688 
L 459 2688 
L 269 4191 
z
" transform="scale(0.015625)"/>
       <path id="LiberationSerif-20" transform="scale(0.015625)"/>
       <path id="LiberationSerif-5a" d="M 306 294 
L 2656 3922 
L 1875 3922 
Q 1103 3922 813 3859 
L 716 3200 
L 500 3200 
L 500 4191 
L 3353 4191 
L 3353 3922 
L 988 263 
L 1894 263 
Q 2256 263 2629 297 
Q 3003 331 3156 366 
L 3341 1166 
L 3559 1166 
L 3475 0 
L 306 0 
L 306 294 
z
" transform="scale(0.015625)"/>
      </defs>
      <use xlink:href="#LiberationSerif-46"/>
      <use xlink:href="#LiberationSerif-69" x="55.615234"/>
      <use xlink:href="#LiberationSerif-73" x="83.398438"/>
      <use xlink:href="#LiberationSerif-68" x="122.314453"/>
      <use xlink:href="#LiberationSerif-65" x="172.314453"/>
      <use xlink:href="#LiberationSerif-72" x="216.699219"/>
      <use xlink:href="#LiberationSerif-27" x="250"/>
      <use xlink:href="#LiberationSerif-73" x="268.017578"/>
      <use xlink:href="#LiberationSerif-20" x="306.933594"/>
      <use xlink:href="#LiberationSerif-5a" x="331.933594"/>
     </g>
    </g>
   </g>
   <g id="matplotlib.axis_2">
    <g id="ytick_1">
     <g id="line2d_5">
      <defs>
       <path id="m86913359e4" d="M 0 0 
L -3 0 
" style="stroke: #000000; stroke-width: 0.5"/>
      </defs>
      <g>
       <use xlink:href="#m86913359e4" x="37.198437" y="38.13456" style="stroke: #000000; stroke-width: 0.5"/>
      </g>
     </g>
     <g id="text_5">
      <!-- Mic11 -->
      <g transform="translate(7.5375 41.257138) scale(0.09 -0.09)">
       <defs>
        <path id="LiberationSerif-4d" d="M 2694 0 
L 2584 0 
L 1050 3603 
L 1050 250 
L 1613 166 
L 1613 0 
L 184 0 
L 184 166 
L 722 250 
L 722 3944 
L 184 4025 
L 184 4191 
L 1453 4191 
L 2816 1003 
L 4303 4191 
L 5503 4191 
L 5503 4025 
L 4966 3944 
L 4966 250 
L 5503 166 
L 5503 0 
L 3803 0 
L 3803 166 
L 4366 250 
L 4366 3603 
L 2694 0 
z
" transform="scale(0.015625)"/>
        <path id="LiberationSerif-63" d="M 2644 178 
Q 2491 66 2222 1 
Q 1953 -63 1672 -63 
Q 244 -63 244 1491 
Q 244 2225 608 2620 
Q 972 3016 1650 3016 
Q 2072 3016 2572 2919 
L 2572 2100 
L 2400 2100 
L 2266 2619 
Q 2006 2766 1644 2766 
Q 806 2766 806 1491 
Q 806 828 1061 545 
Q 1316 263 1850 263 
Q 2306 263 2644 366 
L 2644 178 
z
" transform="scale(0.015625)"/>
       </defs>
       <use xlink:href="#LiberationSerif-4d"/>
       <use xlink:href="#LiberationSerif-69" x="88.916016"/>
       <use xlink:href="#LiberationSerif-63" x="116.699219"/>
       <use xlink:href="#LiberationSerif-31" x="161.083984"/>
       <use xlink:href="#LiberationSerif-31" x="207.333984"/>
      </g>
     </g>
    </g>
    <g id="ytick_2">
     <g id="line2d_6">
      <g>
       <use xlink:href="#m86913359e4" x="37.198437" y="52.136234" style="stroke: #000000; stroke-width: 0.5"/>
      </g>
     </g>
     <g id="text_6">
      <!-- Mic17 -->
      <g transform="translate(7.2 55.258812) scale(0.09 -0.09)">
       <defs>
        <path id="LiberationSerif-37" d="M 628 3200 
L 422 3200 
L 422 4191 
L 3016 4191 
L 3016 3950 
L 1147 0 
L 744 0 
L 2578 3713 
L 738 3713 
L 628 3200 
z
" transform="scale(0.015625)"/>
       </defs>
       <use xlink:href="#LiberationSerif-4d"/>
       <use xlink:href="#LiberationSerif-69" x="88.916016"/>
       <use xlink:href="#LiberationSerif-63" x="116.699219"/>
       <use xlink:href="#LiberationSerif-31" x="161.083984"/>
       <use xlink:href="#LiberationSerif-37" x="211.083984"/>
      </g>
     </g>
    </g>
    <g id="ytick_3">
     <g id="line2d_7">
      <g>
       <use xlink:href="#m86913359e4" x="37.198437" y="66.137909" style="stroke: #000000; stroke-width: 0.5"/>
      </g>
     </g>
     <g id="text_7">
      <!-- Mic15 -->
      <g transform="translate(7.2 69.260487) scale(0.09 -0.09)">
       <use xlink:href="#LiberationSerif-4d"/>
       <use xlink:href="#LiberationSerif-69" x="88.916016"/>
       <use xlink:href="#LiberationSerif-63" x="116.699219"/>
       <use xlink:href="#LiberationSerif-31" x="161.083984"/>
       <use xlink:href="#LiberationSerif-35" x="211.083984"/>
      </g>
     </g>
    </g>
    <g id="ytick_4">
     <g id="line2d_8">
      <g>
       <use xlink:href="#m86913359e4" x="37.198437" y="80.139584" style="stroke: #000000; stroke-width: 0.5"/>
      </g>
     </g>
     <g id="text_8">
      <!-- Mic14 -->
      <g transform="translate(7.2 83.262162) scale(0.09 -0.09)">
       <defs>
        <path id="LiberationSerif-34" d="M 2531 922 
L 2531 0 
L 1994 0 
L 1994 922 
L 125 922 
L 125 1338 
L 2172 4213 
L 2531 4213 
L 2531 1369 
L 3100 1369 
L 3100 922 
L 2531 922 
z
M 1994 3478 
L 1978 3478 
L 478 1369 
L 1994 1369 
L 1994 3478 
z
" transform="scale(0.015625)"/>
       </defs>
       <use xlink:href="#LiberationSerif-4d"/>
       <use xlink:href="#LiberationSerif-69" x="88.916016"/>
       <use xlink:href="#LiberationSerif-63" x="116.699219"/>
       <use xlink:href="#LiberationSerif-31" x="161.083984"/>
       <use xlink:href="#LiberationSerif-34" x="211.083984"/>
      </g>
     </g>
    </g>
    <g id="ytick_5">
     <g id="line2d_9">
      <g>
       <use xlink:href="#m86913359e4" x="37.198437" y="94.141258" style="stroke: #000000; stroke-width: 0.5"/>
      </g>
     </g>
     <g id="text_9">
      <!-- Mic6 -->
      <g transform="translate(11.7 97.263836) scale(0.09 -0.09)">
       <defs>
        <path id="LiberationSerif-36" d="M 3009 1300 
Q 3009 647 2679 292 
Q 2350 -63 1728 -63 
Q 1022 -63 648 487 
Q 275 1038 275 2069 
Q 275 2744 472 3234 
Q 669 3725 1023 3981 
Q 1378 4238 1844 4238 
Q 2300 4238 2753 4128 
L 2753 3406 
L 2547 3406 
L 2438 3834 
Q 2334 3891 2159 3933 
Q 1984 3975 1844 3975 
Q 1388 3975 1133 3533 
Q 878 3091 853 2241 
Q 1363 2509 1875 2509 
Q 2428 2509 2718 2198 
Q 3009 1888 3009 1300 
z
M 1716 184 
Q 2094 184 2262 429 
Q 2431 675 2431 1241 
Q 2431 1753 2270 1981 
Q 2109 2209 1759 2209 
Q 1331 2209 850 2053 
Q 850 1100 1065 642 
Q 1281 184 1716 184 
z
" transform="scale(0.015625)"/>
       </defs>
       <use xlink:href="#LiberationSerif-4d"/>
       <use xlink:href="#LiberationSerif-69" x="88.916016"/>
       <use xlink:href="#LiberationSerif-63" x="116.699219"/>
       <use xlink:href="#LiberationSerif-36" x="161.083984"/>
      </g>
     </g>
    </g>
    <g id="ytick_6">
     <g id="line2d_10">
      <g>
       <use xlink:href="#m86913359e4" x="37.198437" y="108.142933" style="stroke: #000000; stroke-width: 0.5"/>
      </g>
     </g>
     <g id="text_10">
      <!-- Mic20 -->
      <g transform="translate(7.2 111.265511) scale(0.09 -0.09)">
       <defs>
        <path id="LiberationSerif-32" d="M 2847 0 
L 281 0 
L 281 459 
L 863 988 
Q 1422 1478 1684 1781 
Q 1947 2084 2061 2406 
Q 2175 2728 2175 3144 
Q 2175 3550 1990 3762 
Q 1806 3975 1388 3975 
Q 1222 3975 1047 3929 
Q 872 3884 738 3809 
L 628 3297 
L 422 3297 
L 422 4103 
Q 991 4238 1388 4238 
Q 2075 4238 2420 3952 
Q 2766 3666 2766 3144 
Q 2766 2794 2630 2483 
Q 2494 2172 2212 1864 
Q 1931 1556 1281 1003 
Q 1003 766 691 481 
L 2847 481 
L 2847 0 
z
" transform="scale(0.015625)"/>
       </defs>
       <use xlink:href="#LiberationSerif-4d"/>
       <use xlink:href="#LiberationSerif-69" x="88.916016"/>
       <use xlink:href="#LiberationSerif-63" x="116.699219"/>
       <use xlink:href="#LiberationSerif-32" x="161.083984"/>
       <use xlink:href="#LiberationSerif-30" x="211.083984"/>
      </g>
     </g>
    </g>
    <g id="ytick_7">
     <g id="line2d_11">
      <g>
       <use xlink:href="#m86913359e4" x="37.198437" y="122.144608" style="stroke: #000000; stroke-width: 0.5"/>
      </g>
     </g>
     <g id="text_11">
      <!-- Mic4 -->
      <g transform="translate(11.7 125.267186) scale(0.09 -0.09)">
       <use xlink:href="#LiberationSerif-4d"/>
       <use xlink:href="#LiberationSerif-69" x="88.916016"/>
       <use xlink:href="#LiberationSerif-63" x="116.699219"/>
       <use xlink:href="#LiberationSerif-34" x="161.083984"/>
      </g>
     </g>
    </g>
    <g id="ytick_8">
     <g id="line2d_12">
      <g>
       <use xlink:href="#m86913359e4" x="37.198437" y="136.146282" style="stroke: #000000; stroke-width: 0.5"/>
      </g>
     </g>
     <g id="text_12">
      <!-- Mic18 -->
      <g transform="translate(7.2 139.26886) scale(0.09 -0.09)">
       <defs>
        <path id="LiberationSerif-38" d="M 2828 3169 
Q 2828 2825 2661 2586 
Q 2494 2347 2209 2222 
Q 2566 2091 2761 1811 
Q 2956 1531 2956 1131 
Q 2956 538 2622 237 
Q 2288 -63 1581 -63 
Q 244 -63 244 1131 
Q 244 1547 444 1820 
Q 644 2094 984 2222 
Q 713 2347 542 2584 
Q 372 2822 372 3169 
Q 372 3688 689 3972 
Q 1006 4256 1606 4256 
Q 2188 4256 2508 3973 
Q 2828 3691 2828 3169 
z
M 2394 1131 
Q 2394 1631 2198 1856 
Q 2003 2081 1581 2081 
Q 1169 2081 987 1867 
Q 806 1653 806 1131 
Q 806 603 990 393 
Q 1175 184 1581 184 
Q 1997 184 2195 401 
Q 2394 619 2394 1131 
z
M 2266 3169 
Q 2266 3600 2097 3803 
Q 1928 4006 1588 4006 
Q 1256 4006 1095 3809 
Q 934 3613 934 3169 
Q 934 2734 1090 2545 
Q 1247 2356 1588 2356 
Q 1938 2356 2102 2548 
Q 2266 2741 2266 3169 
z
" transform="scale(0.015625)"/>
       </defs>
       <use xlink:href="#LiberationSerif-4d"/>
       <use xlink:href="#LiberationSerif-69" x="88.916016"/>
       <use xlink:href="#LiberationSerif-63" x="116.699219"/>
       <use xlink:href="#LiberationSerif-31" x="161.083984"/>
       <use xlink:href="#LiberationSerif-38" x="211.083984"/>
      </g>
     </g>
    </g>
    <g id="ytick_9">
     <g id="line2d_13">
      <g>
       <use xlink:href="#m86913359e4" x="37.198437" y="150.147957" style="stroke: #000000; stroke-width: 0.5"/>
      </g>
     </g>
     <g id="text_13">
      <!-- Mic10 -->
      <g transform="translate(7.2 153.270535) scale(0.09 -0.09)">
       <use xlink:href="#LiberationSerif-4d"/>
       <use xlink:href="#LiberationSerif-69" x="88.916016"/>
       <use xlink:href="#LiberationSerif-63" x="116.699219"/>
       <use xlink:href="#LiberationSerif-31" x="161.083984"/>
       <use xlink:href="#LiberationSerif-30" x="211.083984"/>
      </g>
     </g>
    </g>
    <g id="ytick_10">
     <g id="line2d_14">
      <g>
       <use xlink:href="#m86913359e4" x="37.198437" y="164.149631" style="stroke: #000000; stroke-width: 0.5"/>
      </g>
     </g>
     <g id="text_14">
      <!-- Mic5 -->
      <g transform="translate(11.7 167.27221) scale(0.09 -0.09)">
       <use xlink:href="#LiberationSerif-4d"/>
       <use xlink:href="#LiberationSerif-69" x="88.916016"/>
       <use xlink:href="#LiberationSerif-63" x="116.699219"/>
       <use xlink:href="#LiberationSerif-35" x="161.083984"/>
      </g>
     </g>
    </g>
    <g id="ytick_11">
     <g id="line2d_15">
      <g>
       <use xlink:href="#m86913359e4" x="37.198437" y="178.151306" style="stroke: #000000; stroke-width: 0.5"/>
      </g>
     </g>
     <g id="text_15">
      <!-- Mic2 -->
      <g transform="translate(11.7 181.273884) scale(0.09 -0.09)">
       <use xlink:href="#LiberationSerif-4d"/>
       <use xlink:href="#LiberationSerif-69" x="88.916016"/>
       <use xlink:href="#LiberationSerif-63" x="116.699219"/>
       <use xlink:href="#LiberationSerif-32" x="161.083984"/>
      </g>
     </g>
    </g>
    <g id="ytick_12">
     <g id="line2d_16">
      <g>
       <use xlink:href="#m86913359e4" x="37.198437" y="192.152981" style="stroke: #000000; stroke-width: 0.5"/>
      </g>
     </g>
     <g id="text_16">
      <!-- Mic21 -->
      <g transform="translate(7.2 195.275559) scale(0.09 -0.09)">
       <use xlink:href="#LiberationSerif-4d"/>
       <use xlink:href="#LiberationSerif-69" x="88.916016"/>
       <use xlink:href="#LiberationSerif-63" x="116.699219"/>
       <use xlink:href="#LiberationSerif-32" x="161.083984"/>
       <use xlink:href="#LiberationSerif-31" x="211.083984"/>
      </g>
     </g>
    </g>
    <g id="ytick_13">
     <g id="line2d_17">
      <g>
       <use xlink:href="#m86913359e4" x="37.198437" y="206.154655" style="stroke: #000000; stroke-width: 0.5"/>
      </g>
     </g>
     <g id="text_17">
      <!-- Mic12 -->
      <g transform="translate(7.2 209.277233) scale(0.09 -0.09)">
       <use xlink:href="#LiberationSerif-4d"/>
       <use xlink:href="#LiberationSerif-69" x="88.916016"/>
       <use xlink:href="#LiberationSerif-63" x="116.699219"/>
       <use xlink:href="#LiberationSerif-31" x="161.083984"/>
       <use xlink:href="#LiberationSerif-32" x="211.083984"/>
      </g>
     </g>
    </g>
    <g id="ytick_14">
     <g id="line2d_18">
      <g>
       <use xlink:href="#m86913359e4" x="37.198437" y="220.15633" style="stroke: #000000; stroke-width: 0.5"/>
      </g>
     </g>
     <g id="text_18">
      <!-- Mic1 -->
      <g transform="translate(11.7 223.278908) scale(0.09 -0.09)">
       <use xlink:href="#LiberationSerif-4d"/>
       <use xlink:href="#LiberationSerif-69" x="88.916016"/>
       <use xlink:href="#LiberationSerif-63" x="116.699219"/>
       <use xlink:href="#LiberationSerif-31" x="161.083984"/>
      </g>
     </g>
    </g>
    <g id="ytick_15">
     <g id="line2d_19">
      <g>
       <use xlink:href="#m86913359e4" x="37.198437" y="234.158005" style="stroke: #000000; stroke-width: 0.5"/>
      </g>
     </g>
     <g id="text_19">
      <!-- Mic16 -->
      <g transform="translate(7.2 237.280583) scale(0.09 -0.09)">
       <use xlink:href="#LiberationSerif-4d"/>
       <use xlink:href="#LiberationSerif-69" x="88.916016"/>
       <use xlink:href="#LiberationSerif-63" x="116.699219"/>
       <use xlink:href="#LiberationSerif-31" x="161.083984"/>
       <use xlink:href="#LiberationSerif-36" x="211.083984"/>
      </g>
     </g>
    </g>
    <g id="ytick_16">
     <g id="line2d_20">
      <g>
       <use xlink:href="#m86913359e4" x="37.198437" y="248.159679" style="stroke: #000000; stroke-width: 0.5"/>
      </g>
     </g>
     <g id="text_20">
      <!-- Mic3 -->
      <g transform="translate(11.7 251.282257) scale(0.09 -0.09)">
       <defs>
        <path id="LiberationSerif-33" d="M 2950 1141 
Q 2950 575 2562 256 
Q 2175 -63 1466 -63 
Q 872 -63 341 72 
L 306 953 
L 513 953 
L 653 366 
Q 775 297 998 247 
Q 1222 197 1416 197 
Q 1906 197 2140 422 
Q 2375 647 2375 1172 
Q 2375 1584 2159 1798 
Q 1944 2013 1491 2034 
L 1044 2059 
L 1044 2316 
L 1491 2344 
Q 1844 2363 2012 2563 
Q 2181 2763 2181 3169 
Q 2181 3591 1998 3783 
Q 1816 3975 1416 3975 
Q 1250 3975 1069 3929 
Q 888 3884 750 3809 
L 641 3297 
L 434 3297 
L 434 4103 
Q 744 4184 969 4211 
Q 1194 4238 1416 4238 
Q 2759 4238 2759 3206 
Q 2759 2772 2520 2514 
Q 2281 2256 1844 2194 
Q 2413 2128 2681 1867 
Q 2950 1606 2950 1141 
z
" transform="scale(0.015625)"/>
       </defs>
       <use xlink:href="#LiberationSerif-4d"/>
       <use xlink:href="#LiberationSerif-69" x="88.916016"/>
       <use xlink:href="#LiberationSerif-63" x="116.699219"/>
       <use xlink:href="#LiberationSerif-33" x="161.083984"/>
      </g>
     </g>
    </g>
    <g id="ytick_17">
     <g id="line2d_21">
      <g>
       <use xlink:href="#m86913359e4" x="37.198437" y="262.161354" style="stroke: #000000; stroke-width: 0.5"/>
      </g>
     </g>
     <g id="text_21">
      <!-- Mic8 -->
      <g transform="translate(11.7 265.283932) scale(0.09 -0.09)">
       <use xlink:href="#LiberationSerif-4d"/>
       <use xlink:href="#LiberationSerif-69" x="88.916016"/>
       <use xlink:href="#LiberationSerif-63" x="116.699219"/>
       <use xlink:href="#LiberationSerif-38" x="161.083984"/>
      </g>
     </g>
    </g>
    <g id="ytick_18">
     <g id="line2d_22">
      <g>
       <use xlink:href="#m86913359e4" x="37.198437" y="276.163029" style="stroke: #000000; stroke-width: 0.5"/>
      </g>
     </g>
     <g id="text_22">
      <!-- Mic19 -->
      <g transform="translate(7.2 279.285607) scale(0.09 -0.09)">
       <defs>
        <path id="LiberationSerif-39" d="M 206 2913 
Q 206 3544 559 3891 
Q 913 4238 1556 4238 
Q 2272 4238 2605 3722 
Q 2938 3206 2938 2106 
Q 2938 1053 2509 495 
Q 2081 -63 1306 -63 
Q 797 -63 372 44 
L 372 769 
L 575 769 
L 684 319 
Q 784 272 953 234 
Q 1122 197 1294 197 
Q 1794 197 2062 636 
Q 2331 1075 2359 1928 
Q 1884 1663 1394 1663 
Q 841 1663 523 1992 
Q 206 2322 206 2913 
z
M 1563 3988 
Q 781 3988 781 2900 
Q 781 2422 968 2194 
Q 1156 1966 1550 1966 
Q 1953 1966 2363 2131 
Q 2363 3091 2173 3539 
Q 1984 3988 1563 3988 
z
" transform="scale(0.015625)"/>
       </defs>
       <use xlink:href="#LiberationSerif-4d"/>
       <use xlink:href="#LiberationSerif-69" x="88.916016"/>
       <use xlink:href="#LiberationSerif-63" x="116.699219"/>
       <use xlink:href="#LiberationSerif-31" x="161.083984"/>
       <use xlink:href="#LiberationSerif-39" x="211.083984"/>
      </g>
     </g>
    </g>
    <g id="ytick_19">
     <g id="line2d_23">
      <g>
       <use xlink:href="#m86913359e4" x="37.198437" y="290.164703" style="stroke: #000000; stroke-width: 0.5"/>
      </g>
     </g>
     <g id="text_23">
      <!-- Mic13 -->
      <g transform="translate(7.2 293.287281) scale(0.09 -0.09)">
       <use xlink:href="#LiberationSerif-4d"/>
       <use xlink:href="#LiberationSerif-69" x="88.916016"/>
       <use xlink:href="#LiberationSerif-63" x="116.699219"/>
       <use xlink:href="#LiberationSerif-31" x="161.083984"/>
       <use xlink:href="#LiberationSerif-33" x="211.083984"/>
      </g>
     </g>
    </g>
    <g id="ytick_20">
     <g id="line2d_24">
      <g>
       <use xlink:href="#m86913359e4" x="37.198437" y="304.166378" style="stroke: #000000; stroke-width: 0.5"/>
      </g>
     </g>
     <g id="text_24">
      <!-- Mic9 -->
      <g transform="translate(11.7 307.288956) scale(0.09 -0.09)">
       <use xlink:href="#LiberationSerif-4d"/>
       <use xlink:href="#LiberationSerif-69" x="88.916016"/>
       <use xlink:href="#LiberationSerif-63" x="116.699219"/>
       <use xlink:href="#LiberationSerif-39" x="161.083984"/>
      </g>
     </g>
    </g>
   </g>
   <g id="patch_3">
    <path d="M 37.198437 317.467969 
L 37.198437 24.832969 
" style="fill: none; stroke: #000000; stroke-width: 0.5; stroke-linejoin: miter; stroke-linecap: square"/>
   </g>
   <g id="patch_4">
    <path d="M 37.198437 317.467969 
L 203.678438 317.467969 
" style="fill: none; stroke: #000000; stroke-width: 0.5; stroke-linejoin: miter; stroke-linecap: square"/>
   </g>
   <g id="patch_5">
    <path d="M 162.872046 38.13456 
Q 175.219758 38.13456 185.555009 38.13456 
" style="fill: none; stroke: #f14432; stroke-width: 1.8; stroke-linecap: round"/>
    <path d="M 181.555009 36.13456 
L 185.555009 38.13456 
L 181.555009 40.13456 
z
" style="fill: #f14432; stroke: #f14432; stroke-width: 1.8; stroke-linecap: round"/>
   </g>
   <g id="line2d_25">
    <defs>
     <path id="m45283e2861" d="M 0 2.5 
C 0.663008 2.5 1.29895 2.236584 1.767767 1.767767 
C 2.236584 1.29895 2.5 0.663008 2.5 0 
C 2.5 -0.663008 2.236584 -1.29895 1.767767 -1.767767 
C 1.29895 -2.236584 0.663008 -2.5 0 -2.5 
C -0.663008 -2.5 -1.29895 -2.236584 -1.767767 -1.767767 
C -2.236584 -1.29895 -2.5 -0.663008 -2.5 0 
C -2.5 0.663008 -2.236584 1.29895 -1.767767 1.767767 
C -1.29895 2.236584 -0.663008 2.5 0 2.5 
z
" style="stroke: #ffffff; stroke-width: 0.4"/>
    </defs>
    <g clip-path="url(#paa0fdf3bc1)">
     <use xlink:href="#m45283e2861" x="162.872046" y="38.13456" style="fill: #f14432; stroke: #ffffff; stroke-width: 0.4"/>
    </g>
   </g>
   <g id="patch_6">
    <path d="M 152.552016 52.136234 
Q 142.776666 52.136234 135.013778 52.136234 
" style="fill: none; stroke: #5fa6d1; stroke-width: 1.8; stroke-linecap: round"/>
    <path d="M 139.013778 54.136234 
L 135.013778 52.136234 
L 139.013778 50.136234 
z
" style="fill: #5fa6d1; stroke: #5fa6d1; stroke-width: 1.8; stroke-linecap: round"/>
   </g>
   <g id="line2d_26">
    <defs>
     <path id="m8a6ecbcb14" d="M 0 2.5 
C 0.663008 2.5 1.29895 2.236584 1.767767 1.767767 
C 2.236584 1.29895 2.5 0.663008 2.5 0 
C 2.5 -0.663008 2.236584 -1.29895 1.767767 -1.767767 
C 1.29895 -2.236584 0.663008 -2.5 0 -2.5 
C -0.663008 -2.5 -1.29895 -2.236584 -1.767767 -1.767767 
C -2.236584 -1.29895 -2.5 -0.663008 -2.5 0 
C -2.5 0.663008 -2.236584 1.29895 -1.767767 1.767767 
C -1.29895 2.236584 -0.663008 2.5 0 2.5 
z
" style="stroke: #ffffff; stroke-width: 0.4"/>
    </defs>
    <g clip-path="url(#paa0fdf3bc1)">
     <use xlink:href="#m8a6ecbcb14" x="152.552016" y="52.136234" style="fill: #5fa6d1; stroke: #ffffff; stroke-width: 0.4"/>
    </g>
   </g>
   <g id="patch_7">
    <path d="M 146.789717 66.137909 
Q 160.31069 66.137909 171.819202 66.137909 
" style="fill: none; stroke: #ee3a2c; stroke-width: 1.8; stroke-linecap: round"/>
    <path d="M 167.819202 64.137909 
L 171.819202 66.137909 
L 167.819202 68.137909 
z
" style="fill: #ee3a2c; stroke: #ee3a2c; stroke-width: 1.8; stroke-linecap: round"/>
   </g>
   <g id="line2d_27">
    <defs>
     <path id="m8a8723aa4a" d="M 0 2.5 
C 0.663008 2.5 1.29895 2.236584 1.767767 1.767767 
C 2.236584 1.29895 2.5 0.663008 2.5 0 
C 2.5 -0.663008 2.236584 -1.29895 1.767767 -1.767767 
C 1.29895 -2.236584 0.663008 -2.5 0 -2.5 
C -0.663008 -2.5 -1.29895 -2.236584 -1.767767 -1.767767 
C -2.236584 -1.29895 -2.5 -0.663008 -2.5 0 
C -2.5 0.663008 -2.236584 1.29895 -1.767767 1.767767 
C -1.29895 2.236584 -0.663008 2.5 0 2.5 
z
" style="stroke: #ffffff; stroke-width: 0.4"/>
    </defs>
    <g clip-path="url(#paa0fdf3bc1)">
     <use xlink:href="#m8a8723aa4a" x="146.789717" y="66.137909" style="fill: #ee3a2c; stroke: #ffffff; stroke-width: 0.4"/>
    </g>
   </g>
   <g id="patch_8">
    <path d="M 116.531015 80.139584 
Q 134.157892 80.139584 149.772307 80.139584 
" style="fill: none; stroke: #d11e1f; stroke-width: 1.8; stroke-linecap: round"/>
    <path d="M 145.772307 78.139584 
L 149.772307 80.139584 
L 145.772307 82.139584 
z
" style="fill: #d11e1f; stroke: #d11e1f; stroke-width: 1.8; stroke-linecap: round"/>
   </g>
   <g id="line2d_28">
    <defs>
     <path id="ma67d5489b3" d="M 0 2.5 
C 0.663008 2.5 1.29895 2.236584 1.767767 1.767767 
C 2.236584 1.29895 2.5 0.663008 2.5 0 
C 2.5 -0.663008 2.236584 -1.29895 1.767767 -1.767767 
C 1.29895 -2.236584 0.663008 -2.5 0 -2.5 
C -0.663008 -2.5 -1.29895 -2.236584 -1.767767 -1.767767 
C -2.236584 -1.29895 -2.5 -0.663008 -2.5 0 
C -2.5 0.663008 -2.236584 1.29895 -1.767767 1.767767 
C -1.29895 2.236584 -0.663008 2.5 0 2.5 
z
" style="stroke: #ffffff; stroke-width: 0.4"/>
    </defs>
    <g clip-path="url(#paa0fdf3bc1)">
     <use xlink:href="#ma67d5489b3" x="116.531015" y="80.139584" style="fill: #d11e1f; stroke: #ffffff; stroke-width: 0.4"/>
    </g>
   </g>
   <g id="patch_9">
    <path d="M 115.528317 94.141258 
Q 134.434114 94.141258 151.327451 94.141258 
" style="fill: none; stroke: #c8171c; stroke-width: 1.8; stroke-linecap: round"/>
    <path d="M 147.327451 92.141258 
L 151.327451 94.141258 
L 147.327451 96.141258 
z
" style="fill: #c8171c; stroke: #c8171c; stroke-width: 1.8; stroke-linecap: round"/>
   </g>
   <g id="line2d_29">
    <defs>
     <path id="m11c73416f1" d="M 0 2.5 
C 0.663008 2.5 1.29895 2.236584 1.767767 1.767767 
C 2.236584 1.29895 2.5 0.663008 2.5 0 
C 2.5 -0.663008 2.236584 -1.29895 1.767767 -1.767767 
C 1.29895 -2.236584 0.663008 -2.5 0 -2.5 
C -0.663008 -2.5 -1.29895 -2.236584 -1.767767 -1.767767 
C -2.236584 -1.29895 -2.5 -0.663008 -2.5 0 
C -2.5 0.663008 -2.236584 1.29895 -1.767767 1.767767 
C -1.29895 2.236584 -0.663008 2.5 0 2.5 
z
" style="stroke: #ffffff; stroke-width: 0.4"/>
    </defs>
    <g clip-path="url(#paa0fdf3bc1)">
     <use xlink:href="#m11c73416f1" x="115.528317" y="94.141258" style="fill: #c8171c; stroke: #ffffff; stroke-width: 0.4"/>
    </g>
   </g>
   <g id="patch_10">
    <path d="M 108.852975 108.142933 
Q 129.858789 108.142933 148.852142 108.142933 
" style="fill: none; stroke: #b81419; stroke-width: 1.8; stroke-linecap: round"/>
    <path d="M 144.852142 106.142933 
L 148.852142 108.142933 
L 144.852142 110.142933 
z
" style="fill: #b81419; stroke: #b81419; stroke-width: 1.8; stroke-linecap: round"/>
   </g>
   <g id="line2d_30">
    <defs>
     <path id="m8855b6c657" d="M 0 2.5 
C 0.663008 2.5 1.29895 2.236584 1.767767 1.767767 
C 2.236584 1.29895 2.5 0.663008 2.5 0 
C 2.5 -0.663008 2.236584 -1.29895 1.767767 -1.767767 
C 1.29895 -2.236584 0.663008 -2.5 0 -2.5 
C -0.663008 -2.5 -1.29895 -2.236584 -1.767767 -1.767767 
C -2.236584 -1.29895 -2.5 -0.663008 -2.5 0 
C -2.5 0.663008 -2.236584 1.29895 -1.767767 1.767767 
C -1.29895 2.236584 -0.663008 2.5 0 2.5 
z
" style="stroke: #ffffff; stroke-width: 0.4"/>
    </defs>
    <g clip-path="url(#paa0fdf3bc1)">
     <use xlink:href="#m8855b6c657" x="108.852975" y="108.142933" style="fill: #b81419; stroke: #ffffff; stroke-width: 0.4"/>
    </g>
   </g>
   <g id="patch_11">
    <path d="M 100.851774 122.144608 
Q 104.504976 122.144608 106.145718 122.144608 
" style="fill: none; stroke: #fc8e6e; stroke-width: 1.8; stroke-linecap: round"/>
    <path d="M 102.145718 120.144608 
L 106.145718 122.144608 
L 102.145718 124.144608 
z
" style="fill: #fc8e6e; stroke: #fc8e6e; stroke-width: 1.8; stroke-linecap: round"/>
   </g>
   <g id="line2d_31">
    <defs>
     <path id="m2d78af8894" d="M 0 2.5 
C 0.663008 2.5 1.29895 2.236584 1.767767 1.767767 
C 2.236584 1.29895 2.5 0.663008 2.5 0 
C 2.5 -0.663008 2.236584 -1.29895 1.767767 -1.767767 
C 1.29895 -2.236584 0.663008 -2.5 0 -2.5 
C -0.663008 -2.5 -1.29895 -2.236584 -1.767767 -1.767767 
C -2.236584 -1.29895 -2.5 -0.663008 -2.5 0 
C -2.5 0.663008 -2.236584 1.29895 -1.767767 1.767767 
C -1.29895 2.236584 -0.663008 2.5 0 2.5 
z
" style="stroke: #ffffff; stroke-width: 0.4"/>
    </defs>
    <g clip-path="url(#paa0fdf3bc1)">
     <use xlink:href="#m2d78af8894" x="100.851774" y="122.144608" style="fill: #fc8e6e; stroke: #ffffff; stroke-width: 0.4"/>
    </g>
   </g>
   <g id="patch_12">
    <path d="M 100.479555 136.146282 
Q 123.354449 136.146282 144.216881 136.146282 
" style="fill: none; stroke: #ab1016; stroke-width: 1.8; stroke-linecap: round"/>
    <path d="M 140.216881 134.146282 
L 144.216881 136.146282 
L 140.216881 138.146282 
z
" style="fill: #ab1016; stroke: #ab1016; stroke-width: 1.8; stroke-linecap: round"/>
   </g>
   <g id="line2d_32">
    <defs>
     <path id="m99f8d714f0" d="M 0 2.5 
C 0.663008 2.5 1.29895 2.236584 1.767767 1.767767 
C 2.236584 1.29895 2.5 0.663008 2.5 0 
C 2.5 -0.663008 2.236584 -1.29895 1.767767 -1.767767 
C 1.29895 -2.236584 0.663008 -2.5 0 -2.5 
C -0.663008 -2.5 -1.29895 -2.236584 -1.767767 -1.767767 
C -2.236584 -1.29895 -2.5 -0.663008 -2.5 0 
C -2.5 0.663008 -2.236584 1.29895 -1.767767 1.767767 
C -1.29895 2.236584 -0.663008 2.5 0 2.5 
z
" style="stroke: #ffffff; stroke-width: 0.4"/>
    </defs>
    <g clip-path="url(#paa0fdf3bc1)">
     <use xlink:href="#m99f8d714f0" x="100.479555" y="136.146282" style="fill: #ab1016; stroke: #ffffff; stroke-width: 0.4"/>
    </g>
   </g>
   <g id="patch_13">
    <path d="M 97.791358 150.147957 
Q 122.504918 150.147957 145.206016 150.147957 
" style="fill: none; stroke: #980c13; stroke-width: 1.8; stroke-linecap: round"/>
    <path d="M 141.206016 148.147957 
L 145.206016 150.147957 
L 141.206016 152.147957 
z
" style="fill: #980c13; stroke: #980c13; stroke-width: 1.8; stroke-linecap: round"/>
   </g>
   <g id="line2d_33">
    <defs>
     <path id="m758021ebc9" d="M 0 2.5 
C 0.663008 2.5 1.29895 2.236584 1.767767 1.767767 
C 2.236584 1.29895 2.5 0.663008 2.5 0 
C 2.5 -0.663008 2.236584 -1.29895 1.767767 -1.767767 
C 1.29895 -2.236584 0.663008 -2.5 0 -2.5 
C -0.663008 -2.5 -1.29895 -2.236584 -1.767767 -1.767767 
C -2.236584 -1.29895 -2.5 -0.663008 -2.5 0 
C -2.5 0.663008 -2.236584 1.29895 -1.767767 1.767767 
C -1.29895 2.236584 -0.663008 2.5 0 2.5 
z
" style="stroke: #ffffff; stroke-width: 0.4"/>
    </defs>
    <g clip-path="url(#paa0fdf3bc1)">
     <use xlink:href="#m758021ebc9" x="97.791358" y="150.147957" style="fill: #980c13; stroke: #ffffff; stroke-width: 0.4"/>
    </g>
   </g>
   <g id="patch_14">
    <path d="M 97.346823 164.149631 
Q 86.764409 164.149631 78.194457 164.149631 
" style="fill: none; stroke: #58a1cf; stroke-width: 1.8; stroke-linecap: round"/>
    <path d="M 82.194457 166.149631 
L 78.194457 164.149631 
L 82.194457 162.149631 
z
" style="fill: #58a1cf; stroke: #58a1cf; stroke-width: 1.8; stroke-linecap: round"/>
   </g>
   <g id="line2d_34">
    <defs>
     <path id="m8b76c9154e" d="M 0 2.5 
C 0.663008 2.5 1.29895 2.236584 1.767767 1.767767 
C 2.236584 1.29895 2.5 0.663008 2.5 0 
C 2.5 -0.663008 2.236584 -1.29895 1.767767 -1.767767 
C 1.29895 -2.236584 0.663008 -2.5 0 -2.5 
C -0.663008 -2.5 -1.29895 -2.236584 -1.767767 -1.767767 
C -2.236584 -1.29895 -2.5 -0.663008 -2.5 0 
C -2.5 0.663008 -2.236584 1.29895 -1.767767 1.767767 
C -1.29895 2.236584 -0.663008 2.5 0 2.5 
z
" style="stroke: #ffffff; stroke-width: 0.4"/>
    </defs>
    <g clip-path="url(#paa0fdf3bc1)">
     <use xlink:href="#m8b76c9154e" x="97.346823" y="164.149631" style="fill: #58a1cf; stroke: #ffffff; stroke-width: 0.4"/>
    </g>
   </g>
   <g id="patch_15">
    <path d="M 94.636537 178.151306 
Q 108.638373 178.151306 120.627748 178.151306 
" style="fill: none; stroke: #eb372a; stroke-width: 1.8; stroke-linecap: round"/>
    <path d="M 116.627748 176.151306 
L 120.627748 178.151306 
L 116.627748 180.151306 
z
" style="fill: #eb372a; stroke: #eb372a; stroke-width: 1.8; stroke-linecap: round"/>
   </g>
   <g id="line2d_35">
    <defs>
     <path id="m91738faf2a" d="M 0 2.5 
C 0.663008 2.5 1.29895 2.236584 1.767767 1.767767 
C 2.236584 1.29895 2.5 0.663008 2.5 0 
C 2.5 -0.663008 2.236584 -1.29895 1.767767 -1.767767 
C 1.29895 -2.236584 0.663008 -2.5 0 -2.5 
C -0.663008 -2.5 -1.29895 -2.236584 -1.767767 -1.767767 
C -2.236584 -1.29895 -2.5 -0.663008 -2.5 0 
C -2.5 0.663008 -2.236584 1.29895 -1.767767 1.767767 
C -1.29895 2.236584 -0.663008 2.5 0 2.5 
z
" style="stroke: #ffffff; stroke-width: 0.4"/>
    </defs>
    <g clip-path="url(#paa0fdf3bc1)">
     <use xlink:href="#m91738faf2a" x="94.636537" y="178.151306" style="fill: #eb372a; stroke: #ffffff; stroke-width: 0.4"/>
    </g>
   </g>
   <g id="patch_16">
    <path d="M 94.171068 192.152981 
Q 99.337536 192.152981 102.491543 192.152981 
" style="fill: none; stroke: #fc8262; stroke-width: 1.8; stroke-linecap: round"/>
    <path d="M 98.491543 190.152981 
L 102.491543 192.152981 
L 98.491543 194.152981 
z
" style="fill: #fc8262; stroke: #fc8262; stroke-width: 1.8; stroke-linecap: round"/>
   </g>
   <g id="line2d_36">
    <defs>
     <path id="m07ffae3865" d="M 0 2.5 
C 0.663008 2.5 1.29895 2.236584 1.767767 1.767767 
C 2.236584 1.29895 2.5 0.663008 2.5 0 
C 2.5 -0.663008 2.236584 -1.29895 1.767767 -1.767767 
C 1.29895 -2.236584 0.663008 -2.5 0 -2.5 
C -0.663008 -2.5 -1.29895 -2.236584 -1.767767 -1.767767 
C -2.236584 -1.29895 -2.5 -0.663008 -2.5 0 
C -2.5 0.663008 -2.236584 1.29895 -1.767767 1.767767 
C -1.29895 2.236584 -0.663008 2.5 0 2.5 
z
" style="stroke: #ffffff; stroke-width: 0.4"/>
    </defs>
    <g clip-path="url(#paa0fdf3bc1)">
     <use xlink:href="#m07ffae3865" x="94.171068" y="192.152981" style="fill: #fc8262; stroke: #ffffff; stroke-width: 0.4"/>
    </g>
   </g>
   <g id="patch_17">
    <path d="M 89.568946 206.154655 
Q 106.557403 206.154655 121.5334 206.154655 
" style="fill: none; stroke: #d52221; stroke-width: 1.8; stroke-linecap: round"/>
    <path d="M 117.5334 204.154655 
L 121.5334 206.154655 
L 117.5334 208.154655 
z
" style="fill: #d52221; stroke: #d52221; stroke-width: 1.8; stroke-linecap: round"/>
   </g>
   <g id="line2d_37">
    <defs>
     <path id="m81b6f540c3" d="M 0 2.5 
C 0.663008 2.5 1.29895 2.236584 1.767767 1.767767 
C 2.236584 1.29895 2.5 0.663008 2.5 0 
C 2.5 -0.663008 2.236584 -1.29895 1.767767 -1.767767 
C 1.29895 -2.236584 0.663008 -2.5 0 -2.5 
C -0.663008 -2.5 -1.29895 -2.236584 -1.767767 -1.767767 
C -2.236584 -1.29895 -2.5 -0.663008 -2.5 0 
C -2.5 0.663008 -2.236584 1.29895 -1.767767 1.767767 
C -1.29895 2.236584 -0.663008 2.5 0 2.5 
z
" style="stroke: #ffffff; stroke-width: 0.4"/>
    </defs>
    <g clip-path="url(#paa0fdf3bc1)">
     <use xlink:href="#m81b6f540c3" x="89.568946" y="206.154655" style="fill: #d52221; stroke: #ffffff; stroke-width: 0.4"/>
    </g>
   </g>
   <g id="patch_18">
    <path d="M 86.85841 220.15633 
Q 85.764267 220.15633 86.682586 220.15633 
" style="fill: none; stroke: #aed1e7; stroke-width: 1.8; stroke-linecap: round"/>
    <path d="M 90.682586 222.15633 
L 86.682586 220.15633 
L 90.682586 218.15633 
z
" style="fill: #aed1e7; stroke: #aed1e7; stroke-width: 1.8; stroke-linecap: round"/>
   </g>
   <g id="line2d_38">
    <defs>
     <path id="m72b40a868d" d="M 0 2.5 
C 0.663008 2.5 1.29895 2.236584 1.767767 1.767767 
C 2.236584 1.29895 2.5 0.663008 2.5 0 
C 2.5 -0.663008 2.236584 -1.29895 1.767767 -1.767767 
C 1.29895 -2.236584 0.663008 -2.5 0 -2.5 
C -0.663008 -2.5 -1.29895 -2.236584 -1.767767 -1.767767 
C -2.236584 -1.29895 -2.5 -0.663008 -2.5 0 
C -2.5 0.663008 -2.236584 1.29895 -1.767767 1.767767 
C -1.29895 2.236584 -0.663008 2.5 0 2.5 
z
" style="stroke: #ffffff; stroke-width: 0.4"/>
    </defs>
    <g clip-path="url(#paa0fdf3bc1)">
     <use xlink:href="#m72b40a868d" x="86.85841" y="220.15633" style="fill: #aed1e7; stroke: #ffffff; stroke-width: 0.4"/>
    </g>
   </g>
   <g id="patch_19">
    <path d="M 85.876175 234.158005 
Q 87.768296 234.158005 87.647955 234.158005 
" style="fill: none; stroke: #fc9c7d; stroke-width: 1.8; stroke-linecap: round"/>
    <path d="M 83.647955 232.158005 
L 87.647955 234.158005 
L 83.647955 236.158005 
z
" style="fill: #fc9c7d; stroke: #fc9c7d; stroke-width: 1.8; stroke-linecap: round"/>
   </g>
   <g id="line2d_39">
    <defs>
     <path id="mb7c7972eb9" d="M 0 2.5 
C 0.663008 2.5 1.29895 2.236584 1.767767 1.767767 
C 2.236584 1.29895 2.5 0.663008 2.5 0 
C 2.5 -0.663008 2.236584 -1.29895 1.767767 -1.767767 
C 1.29895 -2.236584 0.663008 -2.5 0 -2.5 
C -0.663008 -2.5 -1.29895 -2.236584 -1.767767 -1.767767 
C -2.236584 -1.29895 -2.5 -0.663008 -2.5 0 
C -2.5 0.663008 -2.236584 1.29895 -1.767767 1.767767 
C -1.29895 2.236584 -0.663008 2.5 0 2.5 
z
" style="stroke: #ffffff; stroke-width: 0.4"/>
    </defs>
    <g clip-path="url(#paa0fdf3bc1)">
     <use xlink:href="#mb7c7972eb9" x="85.876175" y="234.158005" style="fill: #fc9c7d; stroke: #ffffff; stroke-width: 0.4"/>
    </g>
   </g>
   <g id="patch_20">
    <path d="M 79.69751 248.159679 
Q 101.725462 248.159679 121.740952 248.159679 
" style="fill: none; stroke: #b11218; stroke-width: 1.8; stroke-linecap: round"/>
    <path d="M 117.740952 246.159679 
L 121.740952 248.159679 
L 117.740952 250.159679 
z
" style="fill: #b11218; stroke: #b11218; stroke-width: 1.8; stroke-linecap: round"/>
   </g>
   <g id="line2d_40">
    <defs>
     <path id="m5da2463339" d="M 0 2.5 
C 0.663008 2.5 1.29895 2.236584 1.767767 1.767767 
C 2.236584 1.29895 2.5 0.663008 2.5 0 
C 2.5 -0.663008 2.236584 -1.29895 1.767767 -1.767767 
C 1.29895 -2.236584 0.663008 -2.5 0 -2.5 
C -0.663008 -2.5 -1.29895 -2.236584 -1.767767 -1.767767 
C -2.236584 -1.29895 -2.5 -0.663008 -2.5 0 
C -2.5 0.663008 -2.236584 1.29895 -1.767767 1.767767 
C -1.29895 2.236584 -0.663008 2.5 0 2.5 
z
" style="stroke: #ffffff; stroke-width: 0.4"/>
    </defs>
    <g clip-path="url(#paa0fdf3bc1)">
     <use xlink:href="#m5da2463339" x="79.69751" y="248.159679" style="fill: #b11218; stroke: #ffffff; stroke-width: 0.4"/>
    </g>
   </g>
   <g id="patch_21">
    <path d="M 74.954588 262.161354 
Q 68.872132 262.161354 64.802136 262.161354 
" style="fill: none; stroke: #81badb; stroke-width: 1.8; stroke-linecap: round"/>
    <path d="M 68.802136 264.161354 
L 64.802136 262.161354 
L 68.802136 260.161354 
z
" style="fill: #81badb; stroke: #81badb; stroke-width: 1.8; stroke-linecap: round"/>
   </g>
   <g id="line2d_41">
    <defs>
     <path id="mf1f9f52f35" d="M 0 2.5 
C 0.663008 2.5 1.29895 2.236584 1.767767 1.767767 
C 2.236584 1.29895 2.5 0.663008 2.5 0 
C 2.5 -0.663008 2.236584 -1.29895 1.767767 -1.767767 
C 1.29895 -2.236584 0.663008 -2.5 0 -2.5 
C -0.663008 -2.5 -1.29895 -2.236584 -1.767767 -1.767767 
C -2.236584 -1.29895 -2.5 -0.663008 -2.5 0 
C -2.5 0.663008 -2.236584 1.29895 -1.767767 1.767767 
C -1.29895 2.236584 -0.663008 2.5 0 2.5 
z
" style="stroke: #ffffff; stroke-width: 0.4"/>
    </defs>
    <g clip-path="url(#paa0fdf3bc1)">
     <use xlink:href="#mf1f9f52f35" x="74.954588" y="262.161354" style="fill: #81badb; stroke: #ffffff; stroke-width: 0.4"/>
    </g>
   </g>
   <g id="patch_22">
    <path d="M 73.731541 276.163029 
Q 94.052505 276.163029 112.361007 276.163029 
" style="fill: none; stroke: #bd151a; stroke-width: 1.8; stroke-linecap: round"/>
    <path d="M 108.361007 274.163029 
L 112.361007 276.163029 
L 108.361007 278.163029 
z
" style="fill: #bd151a; stroke: #bd151a; stroke-width: 1.8; stroke-linecap: round"/>
   </g>
   <g id="line2d_42">
    <defs>
     <path id="m5346759737" d="M 0 2.5 
C 0.663008 2.5 1.29895 2.236584 1.767767 1.767767 
C 2.236584 1.29895 2.5 0.663008 2.5 0 
C 2.5 -0.663008 2.236584 -1.29895 1.767767 -1.767767 
C 1.29895 -2.236584 0.663008 -2.5 0 -2.5 
C -0.663008 -2.5 -1.29895 -2.236584 -1.767767 -1.767767 
C -2.236584 -1.29895 -2.5 -0.663008 -2.5 0 
C -2.5 0.663008 -2.236584 1.29895 -1.767767 1.767767 
C -1.29895 2.236584 -0.663008 2.5 0 2.5 
z
" style="stroke: #ffffff; stroke-width: 0.4"/>
    </defs>
    <g clip-path="url(#paa0fdf3bc1)">
     <use xlink:href="#m5346759737" x="73.731541" y="276.163029" style="fill: #bd151a; stroke: #ffffff; stroke-width: 0.4"/>
    </g>
   </g>
   <g id="patch_23">
    <path d="M 54.389676 290.164703 
Q 71.27553 290.164703 86.148922 290.164703 
" style="fill: none; stroke: #d72322; stroke-width: 1.8; stroke-linecap: round"/>
    <path d="M 82.148922 288.164703 
L 86.148922 290.164703 
L 82.148922 292.164703 
z
" style="fill: #d72322; stroke: #d72322; stroke-width: 1.8; stroke-linecap: round"/>
   </g>
   <g id="line2d_43">
    <defs>
     <path id="m00d275ee9a" d="M 0 2.5 
C 0.663008 2.5 1.29895 2.236584 1.767767 1.767767 
C 2.236584 1.29895 2.5 0.663008 2.5 0 
C 2.5 -0.663008 2.236584 -1.29895 1.767767 -1.767767 
C 1.29895 -2.236584 0.663008 -2.5 0 -2.5 
C -0.663008 -2.5 -1.29895 -2.236584 -1.767767 -1.767767 
C -2.236584 -1.29895 -2.5 -0.663008 -2.5 0 
C -2.5 0.663008 -2.236584 1.29895 -1.767767 1.767767 
C -1.29895 2.236584 -0.663008 2.5 0 2.5 
z
" style="stroke: #ffffff; stroke-width: 0.4"/>
    </defs>
    <g clip-path="url(#paa0fdf3bc1)">
     <use xlink:href="#m00d275ee9a" x="54.389676" y="290.164703" style="fill: #d72322; stroke: #ffffff; stroke-width: 0.4"/>
    </g>
   </g>
   <g id="patch_24">
    <path d="M 53.309405 304.166378 
Q 67.609139 304.166378 79.896412 304.166378 
" style="fill: none; stroke: #e93529; stroke-width: 1.8; stroke-linecap: round"/>
    <path d="M 75.896412 302.166378 
L 79.896412 304.166378 
L 75.896412 306.166378 
z
" style="fill: #e93529; stroke: #e93529; stroke-width: 1.8; stroke-linecap: round"/>
   </g>
   <g id="line2d_44">
    <defs>
     <path id="m59450322d7" d="M 0 2.5 
C 0.663008 2.5 1.29895 2.236584 1.767767 1.767767 
C 2.236584 1.29895 2.5 0.663008 2.5 0 
C 2.5 -0.663008 2.236584 -1.29895 1.767767 -1.767767 
C 1.29895 -2.236584 0.663008 -2.5 0 -2.5 
C -0.663008 -2.5 -1.29895 -2.236584 -1.767767 -1.767767 
C -2.236584 -1.29895 -2.5 -0.663008 -2.5 0 
C -2.5 0.663008 -2.236584 1.29895 -1.767767 1.767767 
C -1.29895 2.236584 -0.663008 2.5 0 2.5 
z
" style="stroke: #ffffff; stroke-width: 0.4"/>
    </defs>
    <g clip-path="url(#paa0fdf3bc1)">
     <use xlink:href="#m59450322d7" x="53.309405" y="304.166378" style="fill: #e93529; stroke: #ffffff; stroke-width: 0.4"/>
    </g>
   </g>
   <g id="text_25">
    <g id="patch_25">
     <path d="M 132.906494 314.315269 
L 200.348838 314.315269 
Q 203.048837 314.315269 203.048837 311.615269 
L 203.048837 303.453394 
Q 203.048837 300.753394 200.348838 300.753394 
L 132.906494 300.753394 
Q 130.206494 300.753394 130.206494 303.453394 
L 130.206494 311.615269 
Q 130.206494 314.315269 132.906494 314.315269 
z
" style="fill: #ffffff; opacity: 0.9; stroke: #cccccc; stroke-linejoin: miter"/>
    </g>
    <!-- ● Control  → SCZ -->
    <g style="fill: #222222" transform="translate(132.906494 309.69855) scale(0.09 -0.09)">
     <defs>
      <path id="LiberationSerif-25cf" d="M 1931 3181 
Q 2275 3181 2614 3000 
Q 2953 2819 3131 2478 
Q 3309 2138 3309 1806 
Q 3309 1234 2906 831 
Q 2503 428 1931 428 
Q 1363 428 959 833 
Q 556 1238 556 1806 
Q 556 2144 729 2476 
Q 903 2809 1239 2995 
Q 1575 3181 1931 3181 
z
" transform="scale(0.015625)"/>
      <path id="LiberationSerif-43" d="M 2419 -63 
Q 1400 -63 831 492 
Q 263 1047 263 2047 
Q 263 3128 809 3683 
Q 1356 4238 2431 4238 
Q 3084 4238 3834 4078 
L 3853 3163 
L 3647 3163 
L 3553 3706 
Q 3334 3841 3045 3914 
Q 2756 3988 2456 3988 
Q 1653 3988 1284 3516 
Q 916 3044 916 2053 
Q 916 1141 1302 659 
Q 1688 178 2425 178 
Q 2781 178 3097 264 
Q 3413 350 3597 494 
L 3713 1119 
L 3916 1119 
L 3897 134 
Q 3209 -63 2419 -63 
z
" transform="scale(0.015625)"/>
      <path id="LiberationSerif-6f" d="M 2956 1484 
Q 2956 -63 1581 -63 
Q 919 -63 581 334 
Q 244 731 244 1484 
Q 244 2228 581 2622 
Q 919 3016 1606 3016 
Q 2275 3016 2615 2630 
Q 2956 2244 2956 1484 
z
M 2394 1484 
Q 2394 2159 2197 2462 
Q 2000 2766 1581 2766 
Q 1172 2766 989 2475 
Q 806 2184 806 1484 
Q 806 775 992 479 
Q 1178 184 1581 184 
Q 1994 184 2194 490 
Q 2394 797 2394 1484 
z
" transform="scale(0.015625)"/>
      <path id="LiberationSerif-6e" d="M 1013 2700 
Q 1253 2838 1525 2927 
Q 1797 3016 1978 3016 
Q 2359 3016 2553 2794 
Q 2747 2572 2747 2150 
L 2747 219 
L 3103 141 
L 3103 0 
L 1838 0 
L 1838 141 
L 2228 219 
L 2228 2094 
Q 2228 2353 2101 2501 
Q 1975 2650 1709 2650 
Q 1428 2650 1019 2559 
L 1019 219 
L 1416 141 
L 1416 0 
L 147 0 
L 147 141 
L 500 219 
L 500 2719 
L 147 2797 
L 147 2938 
L 984 2938 
L 1013 2700 
z
" transform="scale(0.015625)"/>
      <path id="LiberationSerif-74" d="M 1044 -63 
Q 744 -63 595 115 
Q 447 294 447 616 
L 447 2675 
L 63 2675 
L 63 2816 
L 453 2938 
L 769 3603 
L 966 3603 
L 966 2938 
L 1638 2938 
L 1638 2675 
L 966 2675 
L 966 672 
Q 966 469 1058 366 
Q 1150 263 1300 263 
Q 1481 263 1741 313 
L 1741 109 
Q 1631 34 1425 -14 
Q 1219 -63 1044 -63 
z
" transform="scale(0.015625)"/>
      <path id="LiberationSerif-6c" d="M 1147 219 
L 1650 141 
L 1650 0 
L 128 0 
L 128 141 
L 628 219 
L 628 4225 
L 128 4300 
L 128 4441 
L 1147 4441 
L 1147 219 
z
" transform="scale(0.015625)"/>
      <path id="LiberationSerif-2192" d="M 4397 1197 
Q 4219 1406 4025 1813 
L 4250 1813 
Q 4647 1347 5094 1119 
L 5094 1006 
Q 4647 778 4250 313 
L 4025 313 
Q 4219 719 4397 928 
L 1306 928 
L 1306 1197 
L 4397 1197 
z
" transform="scale(0.015625)"/>
      <path id="LiberationSerif-53" d="M 434 1128 
L 638 1128 
L 747 563 
Q 863 416 1145 303 
Q 1428 191 1703 191 
Q 2141 191 2386 414 
Q 2631 638 2631 1031 
Q 2631 1256 2536 1403 
Q 2441 1550 2286 1651 
Q 2131 1753 1934 1823 
Q 1738 1894 1530 1966 
Q 1322 2038 1125 2125 
Q 928 2213 773 2347 
Q 619 2481 523 2679 
Q 428 2878 428 3169 
Q 428 3669 803 3953 
Q 1178 4238 1844 4238 
Q 2350 4238 2944 4103 
L 2944 3231 
L 2741 3231 
L 2631 3744 
Q 2313 3975 1844 3975 
Q 1425 3975 1189 3804 
Q 953 3634 953 3334 
Q 953 3131 1048 2997 
Q 1144 2863 1298 2767 
Q 1453 2672 1651 2603 
Q 1850 2534 2058 2461 
Q 2266 2388 2464 2295 
Q 2663 2203 2817 2061 
Q 2972 1919 3067 1714 
Q 3163 1509 3163 1209 
Q 3163 603 2791 270 
Q 2419 -63 1719 -63 
Q 1381 -63 1040 -3 
Q 700 56 434 159 
L 434 1128 
z
" transform="scale(0.015625)"/>
     </defs>
     <use xlink:href="#LiberationSerif-25cf"/>
     <use xlink:href="#LiberationSerif-20" x="60.400391"/>
     <use xlink:href="#LiberationSerif-43" x="85.400391"/>
     <use xlink:href="#LiberationSerif-6f" x="152.099609"/>
     <use xlink:href="#LiberationSerif-6e" x="202.099609"/>
     <use xlink:href="#LiberationSerif-74" x="252.099609"/>
     <use xlink:href="#LiberationSerif-72" x="279.882812"/>
     <use xlink:href="#LiberationSerif-6f" x="313.183594"/>
     <use xlink:href="#LiberationSerif-6c" x="363.183594"/>
     <use xlink:href="#LiberationSerif-20" x="390.966797"/>
     <use xlink:href="#LiberationSerif-20" x="415.966797"/>
     <use xlink:href="#LiberationSerif-2192" x="440.966797"/>
     <use xlink:href="#LiberationSerif-20" x="540.966797"/>
     <use xlink:href="#LiberationSerif-53" x="565.966797"/>
     <use xlink:href="#LiberationSerif-43" x="621.582031"/>
     <use xlink:href="#LiberationSerif-5a" x="688.28125"/>
    </g>
   </g>
   <g id="text_26">
    <!-- Ast15 (ACHES) – Microglia modules -->
    <g transform="translate(33.761875 14.832969) scale(0.11 -0.11)">
     <defs>
      <path id="LiberationSerif-Bold-41" d="M 1338 228 
L 1338 0 
L 63 0 
L 63 228 
L 375 313 
L 1866 4225 
L 2772 4225 
L 4256 313 
L 4575 228 
L 4575 0 
L 2709 0 
L 2709 228 
L 3194 313 
L 2794 1397 
L 1184 1397 
L 800 313 
L 1338 228 
z
M 2003 3594 
L 1313 1741 
L 2675 1741 
L 2003 3594 
z
" transform="scale(0.015625)"/>
      <path id="LiberationSerif-Bold-73" d="M 2334 931 
Q 2334 441 2032 189 
Q 1731 -63 1156 -63 
Q 919 -63 633 -11 
Q 347 41 200 97 
L 200 897 
L 406 897 
L 525 484 
Q 634 375 812 301 
Q 991 228 1175 228 
Q 1447 228 1580 345 
Q 1713 463 1713 644 
Q 1713 816 1584 919 
Q 1456 1022 1025 1156 
Q 572 1297 383 1540 
Q 194 1784 194 2141 
Q 194 2541 491 2778 
Q 788 3016 1256 3016 
Q 1578 3016 2122 2925 
L 2122 2172 
L 1916 2172 
L 1816 2516 
Q 1725 2606 1561 2664 
Q 1397 2722 1250 2722 
Q 1025 2722 917 2630 
Q 809 2538 809 2378 
Q 809 2213 943 2106 
Q 1078 2000 1497 1875 
Q 1953 1734 2143 1504 
Q 2334 1275 2334 931 
z
" transform="scale(0.015625)"/>
      <path id="LiberationSerif-Bold-74" d="M 1369 -63 
Q 947 -63 717 128 
Q 488 319 488 678 
L 488 2613 
L 103 2613 
L 103 2816 
L 556 2938 
L 922 3603 
L 1391 3603 
L 1391 2938 
L 2009 2938 
L 2009 2613 
L 1391 2613 
L 1391 734 
Q 1391 531 1475 428 
Q 1559 325 1697 325 
Q 1863 325 2103 375 
L 2103 109 
Q 2009 44 1782 -9 
Q 1556 -63 1369 -63 
z
" transform="scale(0.015625)"/>
      <path id="LiberationSerif-Bold-31" d="M 2141 344 
L 2869 269 
L 2869 0 
L 513 0 
L 513 269 
L 1238 344 
L 1238 3503 
L 516 3266 
L 516 3531 
L 1697 4225 
L 2141 4225 
L 2141 344 
z
" transform="scale(0.015625)"/>
      <path id="LiberationSerif-Bold-35" d="M 1500 2478 
Q 2244 2478 2605 2172 
Q 2966 1866 2966 1247 
Q 2966 616 2573 276 
Q 2181 -63 1450 -63 
Q 869 -63 294 63 
L 256 1078 
L 544 1078 
L 706 406 
Q 828 338 1006 295 
Q 1184 253 1328 253 
Q 2047 253 2047 1216 
Q 2047 1716 1864 1939 
Q 1681 2163 1281 2163 
Q 1059 2163 875 2081 
L 778 2041 
L 466 2041 
L 466 4191 
L 2653 4191 
L 2653 3494 
L 813 3494 
L 813 2394 
Q 1194 2478 1500 2478 
z
" transform="scale(0.015625)"/>
      <path id="LiberationSerif-Bold-20" transform="scale(0.015625)"/>
      <path id="LiberationSerif-Bold-28" d="M 1134 1544 
Q 1134 803 1214 350 
Q 1294 -103 1467 -447 
Q 1641 -791 1925 -1006 
L 1925 -1363 
Q 1306 -1034 957 -645 
Q 609 -256 445 270 
Q 281 797 281 1547 
Q 281 2291 445 2816 
Q 609 3341 957 3728 
Q 1306 4116 1925 4441 
L 1925 4084 
Q 1641 3869 1469 3528 
Q 1297 3188 1215 2734 
Q 1134 2281 1134 1544 
z
" transform="scale(0.015625)"/>
      <path id="LiberationSerif-Bold-43" d="M 2547 -63 
Q 1494 -63 903 496 
Q 313 1056 313 2047 
Q 313 3122 877 3680 
Q 1441 4238 2544 4238 
Q 3272 4238 4053 4028 
L 4072 3022 
L 3791 3022 
L 3703 3628 
Q 3291 3909 2744 3909 
Q 2019 3909 1684 3457 
Q 1350 3006 1350 2056 
Q 1350 1178 1700 718 
Q 2050 259 2719 259 
Q 3072 259 3336 353 
Q 3600 447 3750 575 
L 3850 1263 
L 4134 1263 
L 4116 200 
Q 3834 91 3384 14 
Q 2934 -63 2547 -63 
z
" transform="scale(0.015625)"/>
      <path id="LiberationSerif-Bold-48" d="M 109 0 
L 109 231 
L 647 313 
L 647 3878 
L 109 3963 
L 109 4191 
L 2169 4191 
L 2169 3963 
L 1631 3878 
L 1631 2328 
L 3344 2328 
L 3344 3878 
L 2806 3963 
L 2806 4191 
L 4872 4191 
L 4872 3963 
L 4331 3878 
L 4331 313 
L 4872 231 
L 4872 0 
L 2806 0 
L 2806 231 
L 3344 313 
L 3344 1984 
L 1631 1984 
L 1631 313 
L 2169 231 
L 2169 0 
L 109 0 
z
" transform="scale(0.015625)"/>
      <path id="LiberationSerif-Bold-45" d="M 109 228 
L 647 313 
L 647 3881 
L 109 3963 
L 109 4191 
L 3678 4191 
L 3678 3125 
L 3394 3125 
L 3294 3803 
Q 2944 3847 2281 3847 
L 1631 3847 
L 1631 2309 
L 2728 2309 
L 2825 2772 
L 3103 2772 
L 3103 1484 
L 2825 1484 
L 2728 1959 
L 1631 1959 
L 1631 344 
L 2422 344 
Q 3228 344 3478 394 
L 3656 1169 
L 3941 1169 
L 3881 0 
L 109 0 
L 109 228 
z
" transform="scale(0.015625)"/>
      <path id="LiberationSerif-Bold-53" d="M 341 1284 
L 616 1284 
L 756 613 
Q 888 459 1153 356 
Q 1419 253 1703 253 
Q 2600 253 2600 991 
Q 2600 1222 2429 1381 
Q 2259 1541 1894 1666 
Q 1356 1844 1120 1955 
Q 884 2066 721 2216 
Q 559 2366 462 2580 
Q 366 2794 366 3106 
Q 366 3659 742 3948 
Q 1119 4238 1844 4238 
Q 2369 4238 3006 4103 
L 3006 3106 
L 2728 3106 
L 2588 3681 
Q 2269 3913 1844 3913 
Q 1459 3913 1253 3770 
Q 1047 3628 1047 3334 
Q 1047 3125 1219 2976 
Q 1391 2828 1756 2713 
Q 2472 2478 2739 2304 
Q 3006 2131 3147 1875 
Q 3288 1619 3288 1272 
Q 3288 -63 1716 -63 
Q 1356 -63 982 -2 
Q 609 59 341 159 
L 341 1284 
z
" transform="scale(0.015625)"/>
      <path id="LiberationSerif-Bold-29" d="M 206 -1363 
L 206 -1006 
Q 491 -788 664 -444 
Q 838 -100 917 358 
Q 997 816 997 1544 
Q 997 2284 915 2737 
Q 834 3191 662 3528 
Q 491 3866 206 4084 
L 206 4441 
Q 831 4106 1178 3720 
Q 1525 3334 1687 2811 
Q 1850 2288 1850 1547 
Q 1850 800 1687 273 
Q 1525 -253 1176 -642 
Q 828 -1031 206 -1363 
z
" transform="scale(0.015625)"/>
      <path id="LiberationSerif-Bold-2013" d="M 3244 1716 
L 3244 1269 
L -44 1269 
L -44 1716 
L 3244 1716 
z
" transform="scale(0.015625)"/>
      <path id="LiberationSerif-Bold-4d" d="M 2756 0 
L 2584 0 
L 1038 3541 
L 1038 313 
L 1600 228 
L 1600 0 
L 109 0 
L 109 228 
L 647 313 
L 647 3881 
L 109 3963 
L 109 4191 
L 1756 4191 
L 2953 1434 
L 4175 4191 
L 5856 4191 
L 5856 3963 
L 5319 3881 
L 5319 313 
L 5856 228 
L 5856 0 
L 3772 0 
L 3772 228 
L 4334 313 
L 4334 3541 
L 2756 0 
z
" transform="scale(0.015625)"/>
      <path id="LiberationSerif-Bold-69" d="M 1363 281 
L 1684 206 
L 1684 0 
L 141 0 
L 141 206 
L 459 281 
L 459 2656 
L 159 2731 
L 159 2938 
L 1363 2938 
L 1363 281 
z
M 428 3963 
Q 428 4166 570 4303 
Q 713 4441 909 4441 
Q 1109 4441 1248 4302 
Q 1388 4163 1388 3963 
Q 1388 3766 1250 3623 
Q 1113 3481 909 3481 
Q 709 3481 568 3620 
Q 428 3759 428 3963 
z
" transform="scale(0.015625)"/>
      <path id="LiberationSerif-Bold-63" d="M 2681 178 
Q 2541 66 2292 3 
Q 2044 -59 1781 -59 
Q 997 -59 608 319 
Q 219 697 219 1475 
Q 219 1959 395 2304 
Q 572 2650 900 2833 
Q 1228 3016 1663 3016 
Q 2100 3016 2616 2906 
L 2616 2038 
L 2391 2038 
L 2259 2553 
Q 2153 2631 2050 2662 
Q 1947 2694 1778 2694 
Q 1594 2694 1444 2547 
Q 1294 2400 1211 2133 
Q 1128 1866 1128 1494 
Q 1128 866 1323 597 
Q 1519 328 1944 328 
Q 2375 328 2681 419 
L 2681 178 
z
" transform="scale(0.015625)"/>
      <path id="LiberationSerif-Bold-72" d="M 1441 2328 
Q 1778 2703 2045 2867 
Q 2313 3031 2534 3031 
L 2703 3031 
L 2703 1959 
L 2528 1959 
L 2344 2353 
Q 2147 2353 1897 2267 
Q 1647 2181 1456 2066 
L 1456 281 
L 1928 206 
L 1928 0 
L 172 0 
L 172 206 
L 553 281 
L 553 2656 
L 172 2731 
L 172 2938 
L 1406 2938 
L 1441 2328 
z
" transform="scale(0.015625)"/>
      <path id="LiberationSerif-Bold-6f" d="M 2956 1484 
Q 2956 694 2617 315 
Q 2278 -63 1581 -63 
Q 906 -63 575 320 
Q 244 703 244 1484 
Q 244 2263 580 2639 
Q 916 3016 1606 3016 
Q 2303 3016 2629 2627 
Q 2956 2238 2956 1484 
z
M 2041 1484 
Q 2041 2172 1939 2436 
Q 1838 2700 1588 2700 
Q 1347 2700 1253 2447 
Q 1159 2194 1159 1484 
Q 1159 763 1254 506 
Q 1350 250 1588 250 
Q 1834 250 1937 520 
Q 2041 791 2041 1484 
z
" transform="scale(0.015625)"/>
      <path id="LiberationSerif-Bold-67" d="M 803 1084 
Q 247 1319 247 2000 
Q 247 2488 587 2752 
Q 928 3016 1563 3016 
Q 1697 3016 1908 2992 
Q 2119 2969 2216 2938 
L 2919 3284 
L 3028 3150 
L 2672 2644 
Q 2866 2406 2866 2000 
Q 2866 1503 2530 1236 
Q 2194 969 1550 969 
Q 1303 969 1072 1006 
L 997 769 
Q 1003 678 1112 598 
Q 1222 519 1381 519 
L 2066 519 
Q 3138 519 3138 -306 
Q 3138 -647 2952 -892 
Q 2766 -1138 2405 -1275 
Q 2044 -1413 1506 -1413 
Q 869 -1413 519 -1230 
Q 169 -1047 169 -728 
Q 169 -588 283 -456 
Q 397 -325 725 -134 
Q 541 -63 411 115 
Q 281 294 281 491 
L 803 1084 
z
M 2453 -519 
Q 2453 -222 2056 -222 
L 1066 -222 
Q 791 -422 791 -675 
Q 791 -875 983 -975 
Q 1175 -1075 1509 -1075 
Q 1963 -1075 2208 -928 
Q 2453 -781 2453 -519 
z
M 1544 1281 
Q 1775 1281 1878 1461 
Q 1981 1641 1981 2000 
Q 1981 2359 1879 2529 
Q 1778 2700 1544 2700 
Q 1328 2700 1229 2529 
Q 1131 2359 1131 2000 
Q 1131 1641 1228 1461 
Q 1325 1281 1544 1281 
z
" transform="scale(0.015625)"/>
      <path id="LiberationSerif-Bold-6c" d="M 1347 281 
L 1669 206 
L 1669 0 
L 125 0 
L 125 206 
L 444 281 
L 444 4159 
L 144 4234 
L 144 4441 
L 1347 4441 
L 1347 281 
z
" transform="scale(0.015625)"/>
      <path id="LiberationSerif-Bold-61" d="M 1706 3003 
Q 2809 3003 2809 2191 
L 2809 281 
L 3103 206 
L 3103 0 
L 2022 0 
L 1953 225 
Q 1709 59 1512 -2 
Q 1316 -63 1116 -63 
Q 206 -63 206 813 
Q 206 1144 340 1342 
Q 475 1541 728 1636 
Q 981 1731 1525 1744 
L 1906 1753 
L 1906 2181 
Q 1906 2713 1472 2713 
Q 1209 2713 884 2550 
L 766 2184 
L 559 2184 
L 559 2894 
Q 1031 2966 1253 2984 
Q 1475 3003 1706 3003 
z
M 1906 1475 
L 1644 1466 
Q 1341 1453 1223 1306 
Q 1106 1159 1106 831 
Q 1106 566 1200 441 
Q 1294 316 1444 316 
Q 1656 316 1906 425 
L 1906 1475 
z
" transform="scale(0.015625)"/>
      <path id="LiberationSerif-Bold-6d" d="M 1356 2681 
L 1569 2791 
Q 2006 3016 2353 3016 
Q 2878 3016 3053 2634 
Q 3694 3016 4134 3016 
Q 4928 3016 4928 2150 
L 4928 281 
L 5222 206 
L 5222 0 
L 3763 0 
L 3763 206 
L 4025 281 
L 4025 2028 
Q 4025 2291 3923 2437 
Q 3822 2584 3616 2584 
Q 3384 2584 3116 2453 
Q 3147 2322 3147 2150 
L 3147 281 
L 3441 206 
L 3441 0 
L 1981 0 
L 1981 206 
L 2244 281 
L 2244 2028 
Q 2244 2291 2142 2437 
Q 2041 2584 1834 2584 
Q 1628 2584 1363 2463 
L 1363 281 
L 1631 206 
L 1631 0 
L 172 0 
L 172 206 
L 459 281 
L 459 2656 
L 172 2731 
L 172 2938 
L 1313 2938 
L 1356 2681 
z
" transform="scale(0.015625)"/>
      <path id="LiberationSerif-Bold-64" d="M 2291 166 
Q 2116 53 2022 17 
Q 1928 -19 1809 -41 
Q 1691 -63 1547 -63 
Q 897 -63 578 310 
Q 259 684 259 1459 
Q 259 2222 601 2619 
Q 944 3016 1594 3016 
Q 1934 3016 2281 2931 
Q 2263 3034 2263 3416 
L 2263 4159 
L 1963 4234 
L 1963 4441 
L 3166 4441 
L 3166 281 
L 3488 206 
L 3488 0 
L 2356 0 
L 2291 166 
z
M 1175 1484 
Q 1175 900 1322 592 
Q 1469 284 1744 284 
Q 1994 284 2263 419 
L 2263 2631 
Q 2019 2697 1769 2697 
Q 1488 2697 1331 2389 
Q 1175 2081 1175 1484 
z
" transform="scale(0.015625)"/>
      <path id="LiberationSerif-Bold-75" d="M 2203 256 
L 1991 147 
Q 1553 -78 1203 -78 
Q 391 -78 391 788 
L 391 2656 
L 97 2731 
L 97 2938 
L 1294 2938 
L 1294 909 
Q 1294 647 1405 500 
Q 1516 353 1722 353 
Q 1959 353 2197 459 
L 2197 2656 
L 1928 2731 
L 1928 2938 
L 3100 2938 
L 3100 281 
L 3388 206 
L 3388 0 
L 2247 0 
L 2203 256 
z
" transform="scale(0.015625)"/>
      <path id="LiberationSerif-Bold-65" d="M 1544 3009 
Q 2141 3009 2408 2690 
Q 2675 2372 2675 1700 
L 2675 1444 
L 1134 1444 
L 1134 1394 
Q 1134 928 1209 731 
Q 1284 534 1453 431 
Q 1622 328 1916 328 
Q 2191 328 2609 419 
L 2609 178 
Q 2438 75 2164 8 
Q 1891 -59 1631 -59 
Q 909 -59 564 317 
Q 219 694 219 1484 
Q 219 2253 548 2631 
Q 878 3009 1544 3009 
z
M 1509 2694 
Q 1322 2694 1230 2491 
Q 1138 2288 1138 1772 
L 1819 1772 
Q 1819 2191 1791 2361 
Q 1763 2531 1695 2612 
Q 1628 2694 1509 2694 
z
" transform="scale(0.015625)"/>
     </defs>
     <use xlink:href="#LiberationSerif-Bold-41"/>
     <use xlink:href="#LiberationSerif-Bold-73" x="72.216797"/>
     <use xlink:href="#LiberationSerif-Bold-74" x="111.132812"/>
     <use xlink:href="#LiberationSerif-Bold-31" x="144.433594"/>
     <use xlink:href="#LiberationSerif-Bold-35" x="194.433594"/>
     <use xlink:href="#LiberationSerif-Bold-20" x="244.433594"/>
     <use xlink:href="#LiberationSerif-Bold-28" x="269.433594"/>
     <use xlink:href="#LiberationSerif-Bold-41" x="302.734375"/>
     <use xlink:href="#LiberationSerif-Bold-43" x="374.951172"/>
     <use xlink:href="#LiberationSerif-Bold-48" x="447.167969"/>
     <use xlink:href="#LiberationSerif-Bold-45" x="524.951172"/>
     <use xlink:href="#LiberationSerif-Bold-53" x="591.650391"/>
     <use xlink:href="#LiberationSerif-Bold-29" x="647.265625"/>
     <use xlink:href="#LiberationSerif-Bold-20" x="680.566406"/>
     <use xlink:href="#LiberationSerif-Bold-2013" x="705.566406"/>
     <use xlink:href="#LiberationSerif-Bold-20" x="755.566406"/>
     <use xlink:href="#LiberationSerif-Bold-4d" x="780.566406"/>
     <use xlink:href="#LiberationSerif-Bold-69" x="874.951172"/>
     <use xlink:href="#LiberationSerif-Bold-63" x="902.734375"/>
     <use xlink:href="#LiberationSerif-Bold-72" x="947.119141"/>
     <use xlink:href="#LiberationSerif-Bold-6f" x="989.753906"/>
     <use xlink:href="#LiberationSerif-Bold-67" x="1039.753906"/>
     <use xlink:href="#LiberationSerif-Bold-6c" x="1089.753906"/>
     <use xlink:href="#LiberationSerif-Bold-69" x="1117.537109"/>
     <use xlink:href="#LiberationSerif-Bold-61" x="1145.320312"/>
     <use xlink:href="#LiberationSerif-Bold-20" x="1195.320312"/>
     <use xlink:href="#LiberationSerif-Bold-6d" x="1220.320312"/>
     <use xlink:href="#LiberationSerif-Bold-6f" x="1303.621094"/>
     <use xlink:href="#LiberationSerif-Bold-64" x="1353.621094"/>
     <use xlink:href="#LiberationSerif-Bold-75" x="1409.236328"/>
     <use xlink:href="#LiberationSerif-Bold-6c" x="1464.851562"/>
     <use xlink:href="#LiberationSerif-Bold-65" x="1492.634766"/>
     <use xlink:href="#LiberationSerif-Bold-73" x="1537.019531"/>
    </g>
   </g>
  </g>
 </g>
 <defs>
  <clipPath id="paa0fdf3bc1">
   <rect x="37.198437" y="24.832969" width="166.48" height="292.635"/>
  </clipPath>
 </defs>
</svg>
