<?xml version="1.0" encoding="utf-8" standalone="no"?>
<!DOCTYPE svg PUBLIC "-//W3C//DTD SVG 1.1//EN"
  "http://www.w3.org/Graphics/SVG/1.1/DTD/svg11.dtd">
<svg xmlns:xlink="http://www.w3.org/1999/xlink" width="563.9325pt" height="347.501562pt" viewBox="0 0 563.9325 347.501562" xmlns="http://www.w3.org/2000/svg" version="1.1">
 <metadata>
  <rdf:RDF xmlns:dc="http://purl.org/dc/elements/1.1/" xmlns:cc="http://creativecommons.org/ns#" xmlns:rdf="http://www.w3.org/1999/02/22-rdf-syntax-ns#">
   <cc:Work>
    <dc:type rdf:resource="http://purl.org/dc/dcmitype/StillImage"/>
    <dc:date>2026-05-22T17:15:49.503638</dc:date>
    <dc:format>image/svg+xml</dc:format>
    <dc:creator>
     <cc:Agent>
      <dc:title>Matplotlib v3.9.4, https://matplotlib.org/</dc:title>
     </cc:Agent>
    </dc:creator>
   </cc:Work>
  </rdf:RDF>
 </metadata>
 <defs>
  <style type="text/css">*{stroke-linejoin: round; stroke-linecap: butt}</style>
 </defs>
 <g id="figure_1">
  <g id="patch_1">
   <path d="M 0 347.501562 
L 563.9325 347.501562 
L 563.9325 0 
L 0 0 
z
" style="fill: #ffffff"/>
  </g>
  <g id="axes_1">
   <g id="patch_2">
    <path d="M 47.0825 307.414687 
L 556.7325 307.414687 
L 556.7325 31.914687 
L 47.0825 31.914687 
z
" style="fill: #ffffff"/>
   </g>
   <g id="matplotlib.axis_1">
    <g id="xtick_1">
     <g id="line2d_1">
      <defs>
       <path id="m6e0b9f0435" d="M 0 0 
L 0 3.5 
" style="stroke: #000000; stroke-width: 0.8"/>
      </defs>
      <g>
       <use xlink:href="#m6e0b9f0435" x="107.143839" y="307.414687" style="stroke: #000000; stroke-width: 0.8"/>
      </g>
     </g>
     <g id="text_1">
      <!-- −0.4 -->
      <g transform="translate(96.260401 322.741562) scale(0.12 -0.12)">
       <defs>
        <path id="LiberationSerif-2212" d="M 3297 2284 
L 3297 1966 
L 319 1966 
L 319 2284 
L 3297 2284 
z
" transform="scale(0.015625)"/>
        <path id="LiberationSerif-30" d="M 2956 2113 
Q 2956 -63 1581 -63 
Q 919 -63 581 493 
Q 244 1050 244 2113 
Q 244 3153 581 3704 
Q 919 4256 1606 4256 
Q 2269 4256 2612 3711 
Q 2956 3166 2956 2113 
z
M 2381 2113 
Q 2381 3119 2190 3562 
Q 2000 4006 1581 4006 
Q 1175 4006 997 3587 
Q 819 3169 819 2113 
Q 819 1050 1000 617 
Q 1181 184 1581 184 
Q 1994 184 2187 639 
Q 2381 1094 2381 2113 
z
" transform="scale(0.015625)"/>
        <path id="LiberationSerif-2e" d="M 1178 288 
Q 1178 134 1070 21 
Q 963 -91 800 -91 
Q 638 -91 530 21 
Q 422 134 422 288 
Q 422 447 531 556 
Q 641 666 800 666 
Q 959 666 1068 556 
Q 1178 447 1178 288 
z
" transform="scale(0.015625)"/>
        <path id="LiberationSerif-34" d="M 2531 922 
L 2531 0 
L 1994 0 
L 1994 922 
L 125 922 
L 125 1338 
L 2172 4213 
L 2531 4213 
L 2531 1369 
L 3100 1369 
L 3100 922 
L 2531 922 
z
M 1994 3478 
L 1978 3478 
L 478 1369 
L 1994 1369 
L 1994 3478 
z
" transform="scale(0.015625)"/>
       </defs>
       <use xlink:href="#LiberationSerif-2212"/>
       <use xlink:href="#LiberationSerif-30" x="56.396484"/>
       <use xlink:href="#LiberationSerif-2e" x="106.396484"/>
       <use xlink:href="#LiberationSerif-34" x="131.396484"/>
      </g>
     </g>
    </g>
    <g id="xtick_2">
     <g id="line2d_2">
      <g>
       <use xlink:href="#m6e0b9f0435" x="204.058101" y="307.414687" style="stroke: #000000; stroke-width: 0.8"/>
      </g>
     </g>
     <g id="text_2">
      <!-- −0.2 -->
      <g transform="translate(193.174663 322.741562) scale(0.12 -0.12)">
       <defs>
        <path id="LiberationSerif-32" d="M 2847 0 
L 281 0 
L 281 459 
L 863 988 
Q 1422 1478 1684 1781 
Q 1947 2084 2061 2406 
Q 2175 2728 2175 3144 
Q 2175 3550 1990 3762 
Q 1806 3975 1388 3975 
Q 1222 3975 1047 3929 
Q 872 3884 738 3809 
L 628 3297 
L 422 3297 
L 422 4103 
Q 991 4238 1388 4238 
Q 2075 4238 2420 3952 
Q 2766 3666 2766 3144 
Q 2766 2794 2630 2483 
Q 2494 2172 2212 1864 
Q 1931 1556 1281 1003 
Q 1003 766 691 481 
L 2847 481 
L 2847 0 
z
" transform="scale(0.015625)"/>
       </defs>
       <use xlink:href="#LiberationSerif-2212"/>
       <use xlink:href="#LiberationSerif-30" x="56.396484"/>
       <use xlink:href="#LiberationSerif-2e" x="106.396484"/>
       <use xlink:href="#LiberationSerif-32" x="131.396484"/>
      </g>
     </g>
    </g>
    <g id="xtick_3">
     <g id="line2d_3">
      <g>
       <use xlink:href="#m6e0b9f0435" x="300.972362" y="307.414687" style="stroke: #000000; stroke-width: 0.8"/>
      </g>
     </g>
     <g id="text_3">
      <!-- 0.0 -->
      <g transform="translate(293.472362 322.741562) scale(0.12 -0.12)">
       <use xlink:href="#LiberationSerif-30"/>
       <use xlink:href="#LiberationSerif-2e" x="50"/>
       <use xlink:href="#LiberationSerif-30" x="75"/>
      </g>
     </g>
    </g>
    <g id="xtick_4">
     <g id="line2d_4">
      <g>
       <use xlink:href="#m6e0b9f0435" x="397.886624" y="307.414687" style="stroke: #000000; stroke-width: 0.8"/>
      </g>
     </g>
     <g id="text_4">
      <!-- 0.2 -->
      <g transform="translate(390.386624 322.741562) scale(0.12 -0.12)">
       <use xlink:href="#LiberationSerif-30"/>
       <use xlink:href="#LiberationSerif-2e" x="50"/>
       <use xlink:href="#LiberationSerif-32" x="75"/>
      </g>
     </g>
    </g>
    <g id="xtick_5">
     <g id="line2d_5">
      <g>
       <use xlink:href="#m6e0b9f0435" x="494.800886" y="307.414687" style="stroke: #000000; stroke-width: 0.8"/>
      </g>
     </g>
     <g id="text_5">
      <!-- 0.4 -->
      <g transform="translate(487.300886 322.741562) scale(0.12 -0.12)">
       <use xlink:href="#LiberationSerif-30"/>
       <use xlink:href="#LiberationSerif-2e" x="50"/>
       <use xlink:href="#LiberationSerif-34" x="75"/>
      </g>
     </g>
    </g>
    <g id="text_6">
     <!-- Null Distribution of Mean Spearman ρ -->
     <g transform="translate(202.859687 337.745937) scale(0.12 -0.12)">
      <defs>
       <path id="LiberationSerif-Bold-4e" d="M 3609 3881 
L 3047 3963 
L 3047 4191 
L 4538 4191 
L 4538 3963 
L 4000 3881 
L 4000 0 
L 3634 0 
L 1050 3369 
L 1050 313 
L 1613 228 
L 1613 0 
L 122 0 
L 122 228 
L 659 313 
L 659 3881 
L 122 3963 
L 122 4191 
L 1556 4191 
L 3609 1513 
L 3609 3881 
z
" transform="scale(0.015625)"/>
       <path id="LiberationSerif-Bold-75" d="M 2203 256 
L 1991 147 
Q 1553 -78 1203 -78 
Q 391 -78 391 788 
L 391 2656 
L 97 2731 
L 97 2938 
L 1294 2938 
L 1294 909 
Q 1294 647 1405 500 
Q 1516 353 1722 353 
Q 1959 353 2197 459 
L 2197 2656 
L 1928 2731 
L 1928 2938 
L 3100 2938 
L 3100 281 
L 3388 206 
L 3388 0 
L 2247 0 
L 2203 256 
z
" transform="scale(0.015625)"/>
       <path id="LiberationSerif-Bold-6c" d="M 1347 281 
L 1669 206 
L 1669 0 
L 125 0 
L 125 206 
L 444 281 
L 444 4159 
L 144 4234 
L 144 4441 
L 1347 4441 
L 1347 281 
z
" transform="scale(0.015625)"/>
       <path id="LiberationSerif-Bold-20" transform="scale(0.015625)"/>
       <path id="LiberationSerif-Bold-44" d="M 3272 2094 
Q 3272 3000 2940 3423 
Q 2609 3847 1863 3847 
L 1631 3847 
L 1631 356 
Q 1931 331 2175 331 
Q 2581 331 2817 506 
Q 3053 681 3162 1054 
Q 3272 1428 3272 2094 
z
M 2103 4191 
Q 3231 4191 3770 3680 
Q 4309 3169 4309 2119 
Q 4309 1041 3793 514 
Q 3278 -13 2234 -13 
L 831 0 
L 113 0 
L 113 228 
L 650 313 
L 650 3881 
L 113 3963 
L 113 4191 
L 2103 4191 
z
" transform="scale(0.015625)"/>
       <path id="LiberationSerif-Bold-69" d="M 1363 281 
L 1684 206 
L 1684 0 
L 141 0 
L 141 206 
L 459 281 
L 459 2656 
L 159 2731 
L 159 2938 
L 1363 2938 
L 1363 281 
z
M 428 3963 
Q 428 4166 570 4303 
Q 713 4441 909 4441 
Q 1109 4441 1248 4302 
Q 1388 4163 1388 3963 
Q 1388 3766 1250 3623 
Q 1113 3481 909 3481 
Q 709 3481 568 3620 
Q 428 3759 428 3963 
z
" transform="scale(0.015625)"/>
       <path id="LiberationSerif-Bold-73" d="M 2334 931 
Q 2334 441 2032 189 
Q 1731 -63 1156 -63 
Q 919 -63 633 -11 
Q 347 41 200 97 
L 200 897 
L 406 897 
L 525 484 
Q 634 375 812 301 
Q 991 228 1175 228 
Q 1447 228 1580 345 
Q 1713 463 1713 644 
Q 1713 816 1584 919 
Q 1456 1022 1025 1156 
Q 572 1297 383 1540 
Q 194 1784 194 2141 
Q 194 2541 491 2778 
Q 788 3016 1256 3016 
Q 1578 3016 2122 2925 
L 2122 2172 
L 1916 2172 
L 1816 2516 
Q 1725 2606 1561 2664 
Q 1397 2722 1250 2722 
Q 1025 2722 917 2630 
Q 809 2538 809 2378 
Q 809 2213 943 2106 
Q 1078 2000 1497 1875 
Q 1953 1734 2143 1504 
Q 2334 1275 2334 931 
z
" transform="scale(0.015625)"/>
       <path id="LiberationSerif-Bold-74" d="M 1369 -63 
Q 947 -63 717 128 
Q 488 319 488 678 
L 488 2613 
L 103 2613 
L 103 2816 
L 556 2938 
L 922 3603 
L 1391 3603 
L 1391 2938 
L 2009 2938 
L 2009 2613 
L 1391 2613 
L 1391 734 
Q 1391 531 1475 428 
Q 1559 325 1697 325 
Q 1863 325 2103 375 
L 2103 109 
Q 2009 44 1782 -9 
Q 1556 -63 1369 -63 
z
" transform="scale(0.015625)"/>
       <path id="LiberationSerif-Bold-72" d="M 1441 2328 
Q 1778 2703 2045 2867 
Q 2313 3031 2534 3031 
L 2703 3031 
L 2703 1959 
L 2528 1959 
L 2344 2353 
Q 2147 2353 1897 2267 
Q 1647 2181 1456 2066 
L 1456 281 
L 1928 206 
L 1928 0 
L 172 0 
L 172 206 
L 553 281 
L 553 2656 
L 172 2731 
L 172 2938 
L 1406 2938 
L 1441 2328 
z
" transform="scale(0.015625)"/>
       <path id="LiberationSerif-Bold-62" d="M 2384 1553 
Q 2384 2131 2242 2400 
Q 2100 2669 1775 2669 
Q 1656 2669 1515 2642 
Q 1375 2616 1284 2563 
L 1284 316 
Q 1484 266 1775 266 
Q 2084 266 2234 567 
Q 2384 869 2384 1553 
z
M 381 4166 
L 81 4238 
L 81 4441 
L 1284 4441 
L 1284 3363 
Q 1284 3072 1253 2772 
Q 1378 2875 1614 2945 
Q 1850 3016 2075 3016 
Q 2713 3016 3006 2666 
Q 3300 2316 3300 1550 
Q 3300 794 2923 365 
Q 2547 -63 1863 -63 
Q 1356 -63 381 150 
L 381 4166 
z
" transform="scale(0.015625)"/>
       <path id="LiberationSerif-Bold-6f" d="M 2956 1484 
Q 2956 694 2617 315 
Q 2278 -63 1581 -63 
Q 906 -63 575 320 
Q 244 703 244 1484 
Q 244 2263 580 2639 
Q 916 3016 1606 3016 
Q 2303 3016 2629 2627 
Q 2956 2238 2956 1484 
z
M 2041 1484 
Q 2041 2172 1939 2436 
Q 1838 2700 1588 2700 
Q 1347 2700 1253 2447 
Q 1159 2194 1159 1484 
Q 1159 763 1254 506 
Q 1350 250 1588 250 
Q 1834 250 1937 520 
Q 2041 791 2041 1484 
z
" transform="scale(0.015625)"/>
       <path id="LiberationSerif-Bold-6e" d="M 1356 2681 
L 1569 2791 
Q 2006 3016 2356 3016 
Q 3169 3016 3169 2150 
L 3169 281 
L 3463 206 
L 3463 0 
L 2003 0 
L 2003 206 
L 2266 281 
L 2266 2028 
Q 2266 2291 2155 2437 
Q 2044 2584 1838 2584 
Q 1600 2584 1363 2478 
L 1363 281 
L 1631 206 
L 1631 0 
L 172 0 
L 172 206 
L 459 281 
L 459 2656 
L 172 2731 
L 172 2938 
L 1313 2938 
L 1356 2681 
z
" transform="scale(0.015625)"/>
       <path id="LiberationSerif-Bold-66" d="M 491 2613 
L 47 2613 
L 47 2828 
L 491 2950 
L 491 3266 
Q 491 3866 797 4186 
Q 1103 4506 1675 4506 
Q 1984 4506 2194 4447 
L 2194 3747 
L 1994 3747 
L 1903 4088 
Q 1828 4163 1706 4163 
Q 1394 4163 1394 3366 
L 1394 2938 
L 1991 2938 
L 1991 2613 
L 1394 2613 
L 1394 281 
L 1872 206 
L 1872 0 
L 172 0 
L 172 206 
L 491 281 
L 491 2613 
z
" transform="scale(0.015625)"/>
       <path id="LiberationSerif-Bold-4d" d="M 2756 0 
L 2584 0 
L 1038 3541 
L 1038 313 
L 1600 228 
L 1600 0 
L 109 0 
L 109 228 
L 647 313 
L 647 3881 
L 109 3963 
L 109 4191 
L 1756 4191 
L 2953 1434 
L 4175 4191 
L 5856 4191 
L 5856 3963 
L 5319 3881 
L 5319 313 
L 5856 228 
L 5856 0 
L 3772 0 
L 3772 228 
L 4334 313 
L 4334 3541 
L 2756 0 
z
" transform="scale(0.015625)"/>
       <path id="LiberationSerif-Bold-65" d="M 1544 3009 
Q 2141 3009 2408 2690 
Q 2675 2372 2675 1700 
L 2675 1444 
L 1134 1444 
L 1134 1394 
Q 1134 928 1209 731 
Q 1284 534 1453 431 
Q 1622 328 1916 328 
Q 2191 328 2609 419 
L 2609 178 
Q 2438 75 2164 8 
Q 1891 -59 1631 -59 
Q 909 -59 564 317 
Q 219 694 219 1484 
Q 219 2253 548 2631 
Q 878 3009 1544 3009 
z
M 1509 2694 
Q 1322 2694 1230 2491 
Q 1138 2288 1138 1772 
L 1819 1772 
Q 1819 2191 1791 2361 
Q 1763 2531 1695 2612 
Q 1628 2694 1509 2694 
z
" transform="scale(0.015625)"/>
       <path id="LiberationSerif-Bold-61" d="M 1706 3003 
Q 2809 3003 2809 2191 
L 2809 281 
L 3103 206 
L 3103 0 
L 2022 0 
L 1953 225 
Q 1709 59 1512 -2 
Q 1316 -63 1116 -63 
Q 206 -63 206 813 
Q 206 1144 340 1342 
Q 475 1541 728 1636 
Q 981 1731 1525 1744 
L 1906 1753 
L 1906 2181 
Q 1906 2713 1472 2713 
Q 1209 2713 884 2550 
L 766 2184 
L 559 2184 
L 559 2894 
Q 1031 2966 1253 2984 
Q 1475 3003 1706 3003 
z
M 1906 1475 
L 1644 1466 
Q 1341 1453 1223 1306 
Q 1106 1159 1106 831 
Q 1106 566 1200 441 
Q 1294 316 1444 316 
Q 1656 316 1906 425 
L 1906 1475 
z
" transform="scale(0.015625)"/>
       <path id="LiberationSerif-Bold-53" d="M 341 1284 
L 616 1284 
L 756 613 
Q 888 459 1153 356 
Q 1419 253 1703 253 
Q 2600 253 2600 991 
Q 2600 1222 2429 1381 
Q 2259 1541 1894 1666 
Q 1356 1844 1120 1955 
Q 884 2066 721 2216 
Q 559 2366 462 2580 
Q 366 2794 366 3106 
Q 366 3659 742 3948 
Q 1119 4238 1844 4238 
Q 2369 4238 3006 4103 
L 3006 3106 
L 2728 3106 
L 2588 3681 
Q 2269 3913 1844 3913 
Q 1459 3913 1253 3770 
Q 1047 3628 1047 3334 
Q 1047 3125 1219 2976 
Q 1391 2828 1756 2713 
Q 2472 2478 2739 2304 
Q 3006 2131 3147 1875 
Q 3288 1619 3288 1272 
Q 3288 -63 1716 -63 
Q 1356 -63 982 -2 
Q 609 59 341 159 
L 341 1284 
z
" transform="scale(0.015625)"/>
       <path id="LiberationSerif-Bold-70" d="M 1278 2788 
Q 1613 3016 2091 3016 
Q 2703 3016 3001 2656 
Q 3300 2297 3300 1522 
Q 3300 753 2953 345 
Q 2606 -63 1956 -63 
Q 1625 -63 1288 22 
Q 1306 -184 1306 -441 
L 1306 -1081 
L 1738 -1156 
L 1738 -1363 
L 84 -1363 
L 84 -1156 
L 403 -1081 
L 403 2656 
L 81 2731 
L 81 2938 
L 1272 2938 
L 1278 2788 
z
M 2384 1500 
Q 2384 2669 1841 2669 
Q 1550 2669 1306 2550 
L 1306 334 
Q 1559 269 1834 269 
Q 2384 269 2384 1500 
z
" transform="scale(0.015625)"/>
       <path id="LiberationSerif-Bold-6d" d="M 1356 2681 
L 1569 2791 
Q 2006 3016 2353 3016 
Q 2878 3016 3053 2634 
Q 3694 3016 4134 3016 
Q 4928 3016 4928 2150 
L 4928 281 
L 5222 206 
L 5222 0 
L 3763 0 
L 3763 206 
L 4025 281 
L 4025 2028 
Q 4025 2291 3923 2437 
Q 3822 2584 3616 2584 
Q 3384 2584 3116 2453 
Q 3147 2322 3147 2150 
L 3147 281 
L 3441 206 
L 3441 0 
L 1981 0 
L 1981 206 
L 2244 281 
L 2244 2028 
Q 2244 2291 2142 2437 
Q 2041 2584 1834 2584 
Q 1628 2584 1363 2463 
L 1363 281 
L 1631 206 
L 1631 0 
L 172 0 
L 172 206 
L 459 281 
L 459 2656 
L 172 2731 
L 172 2938 
L 1313 2938 
L 1356 2681 
z
" transform="scale(0.015625)"/>
       <path id="LiberationSerif-Bold-3c1" d="M 381 1731 
Q 381 2344 725 2673 
Q 1069 3003 1703 3003 
Q 2128 3003 2462 2801 
Q 2797 2600 2980 2226 
Q 3163 1853 3163 1350 
Q 3163 916 3014 598 
Q 2866 281 2598 109 
Q 2331 -63 1994 -63 
Q 1631 -63 1284 69 
L 1284 -1363 
L 381 -1363 
L 381 1731 
z
M 1706 316 
Q 1981 316 2115 567 
Q 2250 819 2250 1341 
Q 2250 1931 2111 2261 
Q 1972 2591 1713 2591 
Q 1513 2591 1398 2392 
Q 1284 2194 1284 1813 
L 1284 384 
Q 1466 316 1706 316 
z
" transform="scale(0.015625)"/>
      </defs>
      <use xlink:href="#LiberationSerif-Bold-4e"/>
      <use xlink:href="#LiberationSerif-Bold-75" x="72.216797"/>
      <use xlink:href="#LiberationSerif-Bold-6c" x="127.832031"/>
      <use xlink:href="#LiberationSerif-Bold-6c" x="155.615234"/>
      <use xlink:href="#LiberationSerif-Bold-20" x="183.398438"/>
      <use xlink:href="#LiberationSerif-Bold-44" x="208.398438"/>
      <use xlink:href="#LiberationSerif-Bold-69" x="280.615234"/>
      <use xlink:href="#LiberationSerif-Bold-73" x="308.398438"/>
      <use xlink:href="#LiberationSerif-Bold-74" x="347.314453"/>
      <use xlink:href="#LiberationSerif-Bold-72" x="380.615234"/>
      <use xlink:href="#LiberationSerif-Bold-69" x="425"/>
      <use xlink:href="#LiberationSerif-Bold-62" x="452.783203"/>
      <use xlink:href="#LiberationSerif-Bold-75" x="508.398438"/>
      <use xlink:href="#LiberationSerif-Bold-74" x="564.013672"/>
      <use xlink:href="#LiberationSerif-Bold-69" x="597.314453"/>
      <use xlink:href="#LiberationSerif-Bold-6f" x="625.097656"/>
      <use xlink:href="#LiberationSerif-Bold-6e" x="675.097656"/>
      <use xlink:href="#LiberationSerif-Bold-20" x="730.712891"/>
      <use xlink:href="#LiberationSerif-Bold-6f" x="755.712891"/>
      <use xlink:href="#LiberationSerif-Bold-66" x="805.712891"/>
      <use xlink:href="#LiberationSerif-Bold-20" x="839.013672"/>
      <use xlink:href="#LiberationSerif-Bold-4d" x="864.013672"/>
      <use xlink:href="#LiberationSerif-Bold-65" x="958.398438"/>
      <use xlink:href="#LiberationSerif-Bold-61" x="1002.783203"/>
      <use xlink:href="#LiberationSerif-Bold-6e" x="1052.783203"/>
      <use xlink:href="#LiberationSerif-Bold-20" x="1108.398438"/>
      <use xlink:href="#LiberationSerif-Bold-53" x="1133.398438"/>
      <use xlink:href="#LiberationSerif-Bold-70" x="1189.013672"/>
      <use xlink:href="#LiberationSerif-Bold-65" x="1244.628906"/>
      <use xlink:href="#LiberationSerif-Bold-61" x="1289.013672"/>
      <use xlink:href="#LiberationSerif-Bold-72" x="1339.013672"/>
      <use xlink:href="#LiberationSerif-Bold-6d" x="1383.398438"/>
      <use xlink:href="#LiberationSerif-Bold-61" x="1466.699219"/>
      <use xlink:href="#LiberationSerif-Bold-6e" x="1516.699219"/>
      <use xlink:href="#LiberationSerif-Bold-20" x="1572.314453"/>
      <use xlink:href="#LiberationSerif-Bold-3c1" x="1597.314453"/>
     </g>
    </g>
   </g>
   <g id="matplotlib.axis_2">
    <g id="ytick_1">
     <g id="line2d_6">
      <path d="M 47.0825 307.414687 
L 556.7325 307.414687 
" clip-path="url(#p9d824d0270)" style="fill: none; stroke: #b0b0b0; stroke-opacity: 0.25; stroke-width: 0.5; stroke-linecap: square"/>
     </g>
     <g id="line2d_7">
      <defs>
       <path id="mc152fb3636" d="M 0 0 
L -3.5 0 
" style="stroke: #000000; stroke-width: 0.8"/>
      </defs>
      <g>
       <use xlink:href="#mc152fb3636" x="47.0825" y="307.414687" style="stroke: #000000; stroke-width: 0.8"/>
      </g>
     </g>
     <g id="text_7">
      <!-- 0 -->
      <g transform="translate(34.0825 311.578125) scale(0.12 -0.12)">
       <use xlink:href="#LiberationSerif-30"/>
      </g>
     </g>
    </g>
    <g id="ytick_2">
     <g id="line2d_8">
      <path d="M 47.0825 246.253626 
L 556.7325 246.253626 
" clip-path="url(#p9d824d0270)" style="fill: none; stroke: #b0b0b0; stroke-opacity: 0.25; stroke-width: 0.5; stroke-linecap: square"/>
     </g>
     <g id="line2d_9">
      <g>
       <use xlink:href="#mc152fb3636" x="47.0825" y="246.253626" style="stroke: #000000; stroke-width: 0.8"/>
      </g>
     </g>
     <g id="text_8">
      <!-- 100 -->
      <g transform="translate(22.0825 250.417064) scale(0.12 -0.12)">
       <defs>
        <path id="LiberationSerif-31" d="M 1959 250 
L 2816 166 
L 2816 0 
L 563 0 
L 563 166 
L 1422 250 
L 1422 3669 
L 575 3366 
L 575 3531 
L 1797 4225 
L 1959 4225 
L 1959 250 
z
" transform="scale(0.015625)"/>
       </defs>
       <use xlink:href="#LiberationSerif-31"/>
       <use xlink:href="#LiberationSerif-30" x="50"/>
       <use xlink:href="#LiberationSerif-30" x="100"/>
      </g>
     </g>
    </g>
    <g id="ytick_3">
     <g id="line2d_10">
      <path d="M 47.0825 185.092565 
L 556.7325 185.092565 
" clip-path="url(#p9d824d0270)" style="fill: none; stroke: #b0b0b0; stroke-opacity: 0.25; stroke-width: 0.5; stroke-linecap: square"/>
     </g>
     <g id="line2d_11">
      <g>
       <use xlink:href="#mc152fb3636" x="47.0825" y="185.092565" style="stroke: #000000; stroke-width: 0.8"/>
      </g>
     </g>
     <g id="text_9">
      <!-- 200 -->
      <g transform="translate(22.0825 189.256003) scale(0.12 -0.12)">
       <use xlink:href="#LiberationSerif-32"/>
       <use xlink:href="#LiberationSerif-30" x="50"/>
       <use xlink:href="#LiberationSerif-30" x="100"/>
      </g>
     </g>
    </g>
    <g id="ytick_4">
     <g id="line2d_12">
      <path d="M 47.0825 123.931504 
L 556.7325 123.931504 
" clip-path="url(#p9d824d0270)" style="fill: none; stroke: #b0b0b0; stroke-opacity: 0.25; stroke-width: 0.5; stroke-linecap: square"/>
     </g>
     <g id="line2d_13">
      <g>
       <use xlink:href="#mc152fb3636" x="47.0825" y="123.931504" style="stroke: #000000; stroke-width: 0.8"/>
      </g>
     </g>
     <g id="text_10">
      <!-- 300 -->
      <g transform="translate(22.0825 128.094942) scale(0.12 -0.12)">
       <defs>
        <path id="LiberationSerif-33" d="M 2950 1141 
Q 2950 575 2562 256 
Q 2175 -63 1466 -63 
Q 872 -63 341 72 
L 306 953 
L 513 953 
L 653 366 
Q 775 297 998 247 
Q 1222 197 1416 197 
Q 1906 197 2140 422 
Q 2375 647 2375 1172 
Q 2375 1584 2159 1798 
Q 1944 2013 1491 2034 
L 1044 2059 
L 1044 2316 
L 1491 2344 
Q 1844 2363 2012 2563 
Q 2181 2763 2181 3169 
Q 2181 3591 1998 3783 
Q 1816 3975 1416 3975 
Q 1250 3975 1069 3929 
Q 888 3884 750 3809 
L 641 3297 
L 434 3297 
L 434 4103 
Q 744 4184 969 4211 
Q 1194 4238 1416 4238 
Q 2759 4238 2759 3206 
Q 2759 2772 2520 2514 
Q 2281 2256 1844 2194 
Q 2413 2128 2681 1867 
Q 2950 1606 2950 1141 
z
" transform="scale(0.015625)"/>
       </defs>
       <use xlink:href="#LiberationSerif-33"/>
       <use xlink:href="#LiberationSerif-30" x="50"/>
       <use xlink:href="#LiberationSerif-30" x="100"/>
      </g>
     </g>
    </g>
    <g id="ytick_5">
     <g id="line2d_14">
      <path d="M 47.0825 62.770443 
L 556.7325 62.770443 
" clip-path="url(#p9d824d0270)" style="fill: none; stroke: #b0b0b0; stroke-opacity: 0.25; stroke-width: 0.5; stroke-linecap: square"/>
     </g>
     <g id="line2d_15">
      <g>
       <use xlink:href="#mc152fb3636" x="47.0825" y="62.770443" style="stroke: #000000; stroke-width: 0.8"/>
      </g>
     </g>
     <g id="text_11">
      <!-- 400 -->
      <g transform="translate(22.0825 66.93388) scale(0.12 -0.12)">
       <use xlink:href="#LiberationSerif-34"/>
       <use xlink:href="#LiberationSerif-30" x="50"/>
       <use xlink:href="#LiberationSerif-30" x="100"/>
      </g>
     </g>
    </g>
    <g id="text_12">
     <!-- Frequency -->
     <g transform="translate(15.493125 196.887812) rotate(-90) scale(0.12 -0.12)">
      <defs>
       <path id="LiberationSerif-Bold-46" d="M 1631 1788 
L 1631 313 
L 2328 228 
L 2328 0 
L 150 0 
L 150 228 
L 647 313 
L 647 3881 
L 109 3963 
L 109 4191 
L 3603 4191 
L 3603 3063 
L 3309 3063 
L 3209 3803 
Q 3056 3825 2703 3836 
Q 2350 3847 2147 3847 
L 1631 3847 
L 1631 2131 
L 2653 2131 
L 2750 2663 
L 3028 2663 
L 3028 1250 
L 2750 1250 
L 2653 1788 
L 1631 1788 
z
" transform="scale(0.015625)"/>
       <path id="LiberationSerif-Bold-71" d="M 1178 1400 
Q 1178 838 1323 561 
Q 1469 284 1803 284 
Q 1922 284 2055 317 
Q 2188 350 2278 403 
L 2278 2641 
Q 2066 2694 1803 2694 
Q 1484 2694 1331 2378 
Q 1178 2063 1178 1400 
z
M 3181 -1081 
L 3500 -1156 
L 3500 -1363 
L 1847 -1363 
L 1847 -1156 
L 2278 -1081 
L 2278 -409 
Q 2278 -119 2309 181 
Q 2003 -63 1544 -63 
Q 891 -63 577 323 
Q 263 709 263 1481 
Q 263 2234 614 2625 
Q 966 3016 1653 3016 
Q 1878 3016 2525 2944 
L 2897 3078 
L 3181 3078 
L 3181 -1081 
z
" transform="scale(0.015625)"/>
       <path id="LiberationSerif-Bold-63" d="M 2681 178 
Q 2541 66 2292 3 
Q 2044 -59 1781 -59 
Q 997 -59 608 319 
Q 219 697 219 1475 
Q 219 1959 395 2304 
Q 572 2650 900 2833 
Q 1228 3016 1663 3016 
Q 2100 3016 2616 2906 
L 2616 2038 
L 2391 2038 
L 2259 2553 
Q 2153 2631 2050 2662 
Q 1947 2694 1778 2694 
Q 1594 2694 1444 2547 
Q 1294 2400 1211 2133 
Q 1128 1866 1128 1494 
Q 1128 866 1323 597 
Q 1519 328 1944 328 
Q 2375 328 2681 419 
L 2681 178 
z
" transform="scale(0.015625)"/>
       <path id="LiberationSerif-Bold-79" d="M 1444 -91 
L 269 2656 
L 63 2731 
L 63 2938 
L 1566 2938 
L 1566 2731 
L 1216 2650 
L 1906 1025 
L 2522 2656 
L 2178 2731 
L 2178 2938 
L 3138 2938 
L 3138 2731 
L 2925 2669 
L 1766 -184 
Q 1566 -694 1416 -923 
Q 1266 -1153 1083 -1267 
Q 900 -1381 666 -1381 
Q 413 -1381 150 -1322 
L 150 -566 
L 338 -566 
L 472 -959 
Q 563 -1031 703 -1031 
Q 822 -1031 912 -975 
Q 1003 -919 1083 -812 
Q 1163 -706 1234 -551 
Q 1306 -397 1444 -91 
z
" transform="scale(0.015625)"/>
      </defs>
      <use xlink:href="#LiberationSerif-Bold-46"/>
      <use xlink:href="#LiberationSerif-Bold-72" x="61.083984"/>
      <use xlink:href="#LiberationSerif-Bold-65" x="103.71875"/>
      <use xlink:href="#LiberationSerif-Bold-71" x="148.103516"/>
      <use xlink:href="#LiberationSerif-Bold-75" x="203.71875"/>
      <use xlink:href="#LiberationSerif-Bold-65" x="259.333984"/>
      <use xlink:href="#LiberationSerif-Bold-6e" x="303.71875"/>
      <use xlink:href="#LiberationSerif-Bold-63" x="359.333984"/>
      <use xlink:href="#LiberationSerif-Bold-79" x="403.71875"/>
     </g>
    </g>
   </g>
   <g id="patch_3">
    <path d="M 70.248409 307.414687 
L 77.970379 307.414687 
L 77.970379 304.356634 
L 70.248409 304.356634 
z
" clip-path="url(#p9d824d0270)" style="fill: #bdc3c7; opacity: 0.9; stroke: #ffffff; stroke-width: 0.4; stroke-linejoin: miter"/>
   </g>
   <g id="patch_4">
    <path d="M 77.970379 307.414687 
L 85.692348 307.414687 
L 85.692348 307.414687 
L 77.970379 307.414687 
z
" clip-path="url(#p9d824d0270)" style="fill: #bdc3c7; opacity: 0.9; stroke: #ffffff; stroke-width: 0.4; stroke-linejoin: miter"/>
   </g>
   <g id="patch_5">
    <path d="M 85.692348 307.414687 
L 93.414318 307.414687 
L 93.414318 306.191466 
L 85.692348 306.191466 
z
" clip-path="url(#p9d824d0270)" style="fill: #bdc3c7; opacity: 0.9; stroke: #ffffff; stroke-width: 0.4; stroke-linejoin: miter"/>
   </g>
   <g id="patch_6">
    <path d="M 93.414318 307.414687 
L 101.136288 307.414687 
L 101.136288 306.191466 
L 93.414318 306.191466 
z
" clip-path="url(#p9d824d0270)" style="fill: #bdc3c7; opacity: 0.9; stroke: #ffffff; stroke-width: 0.4; stroke-linejoin: miter"/>
   </g>
   <g id="patch_7">
    <path d="M 101.136288 307.414687 
L 108.858258 307.414687 
L 108.858258 305.579856 
L 101.136288 305.579856 
z
" clip-path="url(#p9d824d0270)" style="fill: #bdc3c7; opacity: 0.9; stroke: #ffffff; stroke-width: 0.4; stroke-linejoin: miter"/>
   </g>
   <g id="patch_8">
    <path d="M 108.858258 307.414687 
L 116.580227 307.414687 
L 116.580227 300.686971 
L 108.858258 300.686971 
z
" clip-path="url(#p9d824d0270)" style="fill: #bdc3c7; opacity: 0.9; stroke: #ffffff; stroke-width: 0.4; stroke-linejoin: miter"/>
   </g>
   <g id="patch_9">
    <path d="M 116.580227 307.414687 
L 124.302197 307.414687 
L 124.302197 297.017307 
L 116.580227 297.017307 
z
" clip-path="url(#p9d824d0270)" style="fill: #bdc3c7; opacity: 0.9; stroke: #ffffff; stroke-width: 0.4; stroke-linejoin: miter"/>
   </g>
   <g id="patch_10">
    <path d="M 124.302197 307.414687 
L 132.024167 307.414687 
L 132.024167 293.959254 
L 124.302197 293.959254 
z
" clip-path="url(#p9d824d0270)" style="fill: #bdc3c7; opacity: 0.9; stroke: #ffffff; stroke-width: 0.4; stroke-linejoin: miter"/>
   </g>
   <g id="patch_11">
    <path d="M 132.024167 307.414687 
L 139.746136 307.414687 
L 139.746136 289.67798 
L 132.024167 289.67798 
z
" clip-path="url(#p9d824d0270)" style="fill: #bdc3c7; opacity: 0.9; stroke: #ffffff; stroke-width: 0.4; stroke-linejoin: miter"/>
   </g>
   <g id="patch_12">
    <path d="M 139.746136 307.414687 
L 147.468106 307.414687 
L 147.468106 287.843148 
L 139.746136 287.843148 
z
" clip-path="url(#p9d824d0270)" style="fill: #bdc3c7; opacity: 0.9; stroke: #ffffff; stroke-width: 0.4; stroke-linejoin: miter"/>
   </g>
   <g id="patch_13">
    <path d="M 147.468106 307.414687 
L 155.190076 307.414687 
L 155.190076 274.999325 
L 147.468106 274.999325 
z
" clip-path="url(#p9d824d0270)" style="fill: #bdc3c7; opacity: 0.9; stroke: #ffffff; stroke-width: 0.4; stroke-linejoin: miter"/>
   </g>
   <g id="patch_14">
    <path d="M 155.190076 307.414687 
L 162.912045 307.414687 
L 162.912045 269.49483 
L 155.190076 269.49483 
z
" clip-path="url(#p9d824d0270)" style="fill: #bdc3c7; opacity: 0.9; stroke: #ffffff; stroke-width: 0.4; stroke-linejoin: miter"/>
   </g>
   <g id="patch_15">
    <path d="M 162.912045 307.414687 
L 170.634015 307.414687 
L 170.634015 257.262617 
L 162.912045 257.262617 
z
" clip-path="url(#p9d824d0270)" style="fill: #bdc3c7; opacity: 0.9; stroke: #ffffff; stroke-width: 0.4; stroke-linejoin: miter"/>
   </g>
   <g id="patch_16">
    <path d="M 170.634015 307.414687 
L 178.355985 307.414687 
L 178.355985 248.088458 
L 170.634015 248.088458 
z
" clip-path="url(#p9d824d0270)" style="fill: #bdc3c7; opacity: 0.9; stroke: #ffffff; stroke-width: 0.4; stroke-linejoin: miter"/>
   </g>
   <g id="patch_17">
    <path d="M 178.355985 307.414687 
L 186.077955 307.414687 
L 186.077955 232.186582 
L 178.355985 232.186582 
z
" clip-path="url(#p9d824d0270)" style="fill: #bdc3c7; opacity: 0.9; stroke: #ffffff; stroke-width: 0.4; stroke-linejoin: miter"/>
   </g>
   <g id="patch_18">
    <path d="M 186.077955 307.414687 
L 193.799924 307.414687 
L 193.799924 218.731149 
L 186.077955 218.731149 
z
" clip-path="url(#p9d824d0270)" style="fill: #bdc3c7; opacity: 0.9; stroke: #ffffff; stroke-width: 0.4; stroke-linejoin: miter"/>
   </g>
   <g id="patch_19">
    <path d="M 193.799924 307.414687 
L 201.521894 307.414687 
L 201.521894 208.945379 
L 193.799924 208.945379 
z
" clip-path="url(#p9d824d0270)" style="fill: #bdc3c7; opacity: 0.9; stroke: #ffffff; stroke-width: 0.4; stroke-linejoin: miter"/>
   </g>
   <g id="patch_20">
    <path d="M 201.521894 307.414687 
L 209.243864 307.414687 
L 209.243864 185.092565 
L 201.521894 185.092565 
z
" clip-path="url(#p9d824d0270)" style="fill: #bdc3c7; opacity: 0.9; stroke: #ffffff; stroke-width: 0.4; stroke-linejoin: miter"/>
   </g>
   <g id="patch_21">
    <path d="M 209.243864 307.414687 
L 216.965833 307.414687 
L 216.965833 180.811291 
L 209.243864 180.811291 
z
" clip-path="url(#p9d824d0270)" style="fill: #bdc3c7; opacity: 0.9; stroke: #ffffff; stroke-width: 0.4; stroke-linejoin: miter"/>
   </g>
   <g id="patch_22">
    <path d="M 216.965833 307.414687 
L 224.687803 307.414687 
L 224.687803 149.007539 
L 216.965833 149.007539 
z
" clip-path="url(#p9d824d0270)" style="fill: #bdc3c7; opacity: 0.9; stroke: #ffffff; stroke-width: 0.4; stroke-linejoin: miter"/>
   </g>
   <g id="patch_23">
    <path d="M 224.687803 307.414687 
L 232.409773 307.414687 
L 232.409773 141.668212 
L 224.687803 141.668212 
z
" clip-path="url(#p9d824d0270)" style="fill: #bdc3c7; opacity: 0.9; stroke: #ffffff; stroke-width: 0.4; stroke-linejoin: miter"/>
   </g>
   <g id="patch_24">
    <path d="M 232.409773 307.414687 
L 240.131742 307.414687 
L 240.131742 135.552106 
L 232.409773 135.552106 
z
" clip-path="url(#p9d824d0270)" style="fill: #bdc3c7; opacity: 0.9; stroke: #ffffff; stroke-width: 0.4; stroke-linejoin: miter"/>
   </g>
   <g id="patch_25">
    <path d="M 240.131742 307.414687 
L 247.853712 307.414687 
L 247.853712 122.096672 
L 240.131742 122.096672 
z
" clip-path="url(#p9d824d0270)" style="fill: #bdc3c7; opacity: 0.9; stroke: #ffffff; stroke-width: 0.4; stroke-linejoin: miter"/>
   </g>
   <g id="patch_26">
    <path d="M 247.853712 307.414687 
L 255.575682 307.414687 
L 255.575682 120.26184 
L 247.853712 120.26184 
z
" clip-path="url(#p9d824d0270)" style="fill: #bdc3c7; opacity: 0.9; stroke: #ffffff; stroke-width: 0.4; stroke-linejoin: miter"/>
   </g>
   <g id="patch_27">
    <path d="M 255.575682 307.414687 
L 263.297652 307.414687 
L 263.297652 108.641239 
L 255.575682 108.641239 
z
" clip-path="url(#p9d824d0270)" style="fill: #bdc3c7; opacity: 0.9; stroke: #ffffff; stroke-width: 0.4; stroke-linejoin: miter"/>
   </g>
   <g id="patch_28">
    <path d="M 263.297652 307.414687 
L 271.019621 307.414687 
L 271.019621 62.770443 
L 263.297652 62.770443 
z
" clip-path="url(#p9d824d0270)" style="fill: #bdc3c7; opacity: 0.9; stroke: #ffffff; stroke-width: 0.4; stroke-linejoin: miter"/>
   </g>
   <g id="patch_29">
    <path d="M 271.019621 307.414687 
L 278.741591 307.414687 
L 278.741591 52.373062 
L 271.019621 52.373062 
z
" clip-path="url(#p9d824d0270)" style="fill: #bdc3c7; opacity: 0.9; stroke: #ffffff; stroke-width: 0.4; stroke-linejoin: miter"/>
   </g>
   <g id="patch_30">
    <path d="M 278.741591 307.414687 
L 286.463561 307.414687 
L 286.463561 55.431116 
L 278.741591 55.431116 
z
" clip-path="url(#p9d824d0270)" style="fill: #bdc3c7; opacity: 0.9; stroke: #ffffff; stroke-width: 0.4; stroke-linejoin: miter"/>
   </g>
   <g id="patch_31">
    <path d="M 286.463561 307.414687 
L 294.18553 307.414687 
L 294.18553 45.033735 
L 286.463561 45.033735 
z
" clip-path="url(#p9d824d0270)" style="fill: #bdc3c7; opacity: 0.9; stroke: #ffffff; stroke-width: 0.4; stroke-linejoin: miter"/>
   </g>
   <g id="patch_32">
    <path d="M 294.18553 307.414687 
L 301.9075 307.414687 
L 301.9075 51.149841 
L 294.18553 51.149841 
z
" clip-path="url(#p9d824d0270)" style="fill: #bdc3c7; opacity: 0.9; stroke: #ffffff; stroke-width: 0.4; stroke-linejoin: miter"/>
   </g>
   <g id="patch_33">
    <path d="M 301.9075 307.414687 
L 309.62947 307.414687 
L 309.62947 51.761452 
L 301.9075 51.761452 
z
" clip-path="url(#p9d824d0270)" style="fill: #bdc3c7; opacity: 0.9; stroke: #ffffff; stroke-width: 0.4; stroke-linejoin: miter"/>
   </g>
   <g id="patch_34">
    <path d="M 309.62947 307.414687 
L 317.351439 307.414687 
L 317.351439 64.605275 
L 309.62947 64.605275 
z
" clip-path="url(#p9d824d0270)" style="fill: #bdc3c7; opacity: 0.9; stroke: #ffffff; stroke-width: 0.4; stroke-linejoin: miter"/>
   </g>
   <g id="patch_35">
    <path d="M 317.351439 307.414687 
L 325.073409 307.414687 
L 325.073409 46.256956 
L 317.351439 46.256956 
z
" clip-path="url(#p9d824d0270)" style="fill: #bdc3c7; opacity: 0.9; stroke: #ffffff; stroke-width: 0.4; stroke-linejoin: miter"/>
   </g>
   <g id="patch_36">
    <path d="M 325.073409 307.414687 
L 332.795379 307.414687 
L 332.795379 73.779434 
L 325.073409 73.779434 
z
" clip-path="url(#p9d824d0270)" style="fill: #bdc3c7; opacity: 0.9; stroke: #ffffff; stroke-width: 0.4; stroke-linejoin: miter"/>
   </g>
   <g id="patch_37">
    <path d="M 332.795379 307.414687 
L 340.517348 307.414687 
L 340.517348 76.837487 
L 332.795379 76.837487 
z
" clip-path="url(#p9d824d0270)" style="fill: #bdc3c7; opacity: 0.9; stroke: #ffffff; stroke-width: 0.4; stroke-linejoin: miter"/>
   </g>
   <g id="patch_38">
    <path d="M 340.517348 307.414687 
L 348.239318 307.414687 
L 348.239318 91.516142 
L 340.517348 91.516142 
z
" clip-path="url(#p9d824d0270)" style="fill: #bdc3c7; opacity: 0.9; stroke: #ffffff; stroke-width: 0.4; stroke-linejoin: miter"/>
   </g>
   <g id="patch_39">
    <path d="M 348.239318 307.414687 
L 355.961288 307.414687 
L 355.961288 84.788425 
L 348.239318 84.788425 
z
" clip-path="url(#p9d824d0270)" style="fill: #bdc3c7; opacity: 0.9; stroke: #ffffff; stroke-width: 0.4; stroke-linejoin: miter"/>
   </g>
   <g id="patch_40">
    <path d="M 355.961288 307.414687 
L 363.683258 307.414687 
L 363.683258 138.610159 
L 355.961288 138.610159 
z
" clip-path="url(#p9d824d0270)" style="fill: #bdc3c7; opacity: 0.9; stroke: #ffffff; stroke-width: 0.4; stroke-linejoin: miter"/>
   </g>
   <g id="patch_41">
    <path d="M 363.683258 307.414687 
L 371.405227 307.414687 
L 371.405227 134.328884 
L 363.683258 134.328884 
z
" clip-path="url(#p9d824d0270)" style="fill: #bdc3c7; opacity: 0.9; stroke: #ffffff; stroke-width: 0.4; stroke-linejoin: miter"/>
   </g>
   <g id="patch_42">
    <path d="M 371.405227 307.414687 
L 379.127197 307.414687 
L 379.127197 145.949486 
L 371.405227 145.949486 
z
" clip-path="url(#p9d824d0270)" style="fill: #bdc3c7; opacity: 0.9; stroke: #ffffff; stroke-width: 0.4; stroke-linejoin: miter"/>
   </g>
   <g id="patch_43">
    <path d="M 379.127197 307.414687 
L 386.849167 307.414687 
L 386.849167 167.355857 
L 379.127197 167.355857 
z
" clip-path="url(#p9d824d0270)" style="fill: #bdc3c7; opacity: 0.9; stroke: #ffffff; stroke-width: 0.4; stroke-linejoin: miter"/>
   </g>
   <g id="patch_44">
    <path d="M 386.849167 307.414687 
L 394.571136 307.414687 
L 394.571136 192.431893 
L 386.849167 192.431893 
z
" clip-path="url(#p9d824d0270)" style="fill: #bdc3c7; opacity: 0.9; stroke: #ffffff; stroke-width: 0.4; stroke-linejoin: miter"/>
   </g>
   <g id="patch_45">
    <path d="M 394.571136 307.414687 
L 402.293106 307.414687 
L 402.293106 205.275715 
L 394.571136 205.275715 
z
" clip-path="url(#p9d824d0270)" style="fill: #bdc3c7; opacity: 0.9; stroke: #ffffff; stroke-width: 0.4; stroke-linejoin: miter"/>
   </g>
   <g id="patch_46">
    <path d="M 402.293106 307.414687 
L 410.015076 307.414687 
L 410.015076 209.55699 
L 402.293106 209.55699 
z
" clip-path="url(#p9d824d0270)" style="fill: #bdc3c7; opacity: 0.9; stroke: #ffffff; stroke-width: 0.4; stroke-linejoin: miter"/>
   </g>
   <g id="patch_47">
    <path d="M 410.015076 307.414687 
L 417.737045 307.414687 
L 417.737045 232.798193 
L 410.015076 232.798193 
z
" clip-path="url(#p9d824d0270)" style="fill: #bdc3c7; opacity: 0.9; stroke: #ffffff; stroke-width: 0.4; stroke-linejoin: miter"/>
   </g>
   <g id="patch_48">
    <path d="M 417.737045 307.414687 
L 425.459015 307.414687 
L 425.459015 250.534901 
L 417.737045 250.534901 
z
" clip-path="url(#p9d824d0270)" style="fill: #bdc3c7; opacity: 0.9; stroke: #ffffff; stroke-width: 0.4; stroke-linejoin: miter"/>
   </g>
   <g id="patch_49">
    <path d="M 425.459015 307.414687 
L 433.180985 307.414687 
L 433.180985 243.807184 
L 425.459015 243.807184 
z
" clip-path="url(#p9d824d0270)" style="fill: #bdc3c7; opacity: 0.9; stroke: #ffffff; stroke-width: 0.4; stroke-linejoin: miter"/>
   </g>
   <g id="patch_50">
    <path d="M 433.180985 307.414687 
L 440.902955 307.414687 
L 440.902955 266.436777 
L 433.180985 266.436777 
z
" clip-path="url(#p9d824d0270)" style="fill: #bdc3c7; opacity: 0.9; stroke: #ffffff; stroke-width: 0.4; stroke-linejoin: miter"/>
   </g>
   <g id="patch_51">
    <path d="M 440.902955 307.414687 
L 448.624924 307.414687 
L 448.624924 267.659998 
L 440.902955 267.659998 
z
" clip-path="url(#p9d824d0270)" style="fill: #bdc3c7; opacity: 0.9; stroke: #ffffff; stroke-width: 0.4; stroke-linejoin: miter"/>
   </g>
   <g id="patch_52">
    <path d="M 448.624924 307.414687 
L 456.346894 307.414687 
L 456.346894 279.89221 
L 448.624924 279.89221 
z
" clip-path="url(#p9d824d0270)" style="fill: #bdc3c7; opacity: 0.9; stroke: #ffffff; stroke-width: 0.4; stroke-linejoin: miter"/>
   </g>
   <g id="patch_53">
    <path d="M 456.346894 307.414687 
L 464.068864 307.414687 
L 464.068864 280.503821 
L 456.346894 280.503821 
z
" clip-path="url(#p9d824d0270)" style="fill: #bdc3c7; opacity: 0.9; stroke: #ffffff; stroke-width: 0.4; stroke-linejoin: miter"/>
   </g>
   <g id="patch_54">
    <path d="M 464.068864 307.414687 
L 471.790833 307.414687 
L 471.790833 290.28959 
L 464.068864 290.28959 
z
" clip-path="url(#p9d824d0270)" style="fill: #bdc3c7; opacity: 0.9; stroke: #ffffff; stroke-width: 0.4; stroke-linejoin: miter"/>
   </g>
   <g id="patch_55">
    <path d="M 471.790833 307.414687 
L 479.512803 307.414687 
L 479.512803 287.843148 
L 471.790833 287.843148 
z
" clip-path="url(#p9d824d0270)" style="fill: #bdc3c7; opacity: 0.9; stroke: #ffffff; stroke-width: 0.4; stroke-linejoin: miter"/>
   </g>
   <g id="patch_56">
    <path d="M 479.512803 307.414687 
L 487.234773 307.414687 
L 487.234773 300.07536 
L 479.512803 300.07536 
z
" clip-path="url(#p9d824d0270)" style="fill: #bdc3c7; opacity: 0.9; stroke: #ffffff; stroke-width: 0.4; stroke-linejoin: miter"/>
   </g>
   <g id="patch_57">
    <path d="M 487.234773 307.414687 
L 494.956742 307.414687 
L 494.956742 301.910192 
L 487.234773 301.910192 
z
" clip-path="url(#p9d824d0270)" style="fill: #bdc3c7; opacity: 0.9; stroke: #ffffff; stroke-width: 0.4; stroke-linejoin: miter"/>
   </g>
   <g id="patch_58">
    <path d="M 494.956742 307.414687 
L 502.678712 307.414687 
L 502.678712 303.133413 
L 494.956742 303.133413 
z
" clip-path="url(#p9d824d0270)" style="fill: #bdc3c7; opacity: 0.9; stroke: #ffffff; stroke-width: 0.4; stroke-linejoin: miter"/>
   </g>
   <g id="patch_59">
    <path d="M 502.678712 307.414687 
L 510.400682 307.414687 
L 510.400682 303.133413 
L 502.678712 303.133413 
z
" clip-path="url(#p9d824d0270)" style="fill: #bdc3c7; opacity: 0.9; stroke: #ffffff; stroke-width: 0.4; stroke-linejoin: miter"/>
   </g>
   <g id="patch_60">
    <path d="M 510.400682 307.414687 
L 518.122652 307.414687 
L 518.122652 306.191466 
L 510.400682 306.191466 
z
" clip-path="url(#p9d824d0270)" style="fill: #bdc3c7; opacity: 0.9; stroke: #ffffff; stroke-width: 0.4; stroke-linejoin: miter"/>
   </g>
   <g id="patch_61">
    <path d="M 518.122652 307.414687 
L 525.844621 307.414687 
L 525.844621 306.191466 
L 518.122652 306.191466 
z
" clip-path="url(#p9d824d0270)" style="fill: #bdc3c7; opacity: 0.9; stroke: #ffffff; stroke-width: 0.4; stroke-linejoin: miter"/>
   </g>
   <g id="patch_62">
    <path d="M 525.844621 307.414687 
L 533.566591 307.414687 
L 533.566591 306.803077 
L 525.844621 306.803077 
z
" clip-path="url(#p9d824d0270)" style="fill: #bdc3c7; opacity: 0.9; stroke: #ffffff; stroke-width: 0.4; stroke-linejoin: miter"/>
   </g>
   <g id="patch_63">
    <path d="M 47.0825 307.414687 
L 47.0825 31.914687 
" style="fill: none; stroke: #000000; stroke-width: 0.8; stroke-linejoin: miter; stroke-linecap: square"/>
   </g>
   <g id="patch_64">
    <path d="M 47.0825 307.414687 
L 556.7325 307.414687 
" style="fill: none; stroke: #000000; stroke-width: 0.8; stroke-linejoin: miter; stroke-linecap: square"/>
   </g>
   <g id="patch_65">
    <path d="M 145.654759 78.982042 
Q 131.689698 89.290893 118.804037 98.802942 
" style="fill: none; stroke: #000000; stroke-width: 1.2; stroke-linecap: round"/>
    <path d="M 124.091183 97.883109 
L 118.804037 98.802942 
L 121.240458 94.021326 
" style="fill: none; stroke: #000000; stroke-width: 1.2; stroke-linecap: round"/>
   </g>
   <g id="text_13">
    <!-- Mean ρ = -0.381 -->
    <g transform="translate(125.804085 60.691813) scale(0.12 -0.12)">
     <defs>
      <path id="LiberationSerif-4d" d="M 2694 0 
L 2584 0 
L 1050 3603 
L 1050 250 
L 1613 166 
L 1613 0 
L 184 0 
L 184 166 
L 722 250 
L 722 3944 
L 184 4025 
L 184 4191 
L 1453 4191 
L 2816 1003 
L 4303 4191 
L 5503 4191 
L 5503 4025 
L 4966 3944 
L 4966 250 
L 5503 166 
L 5503 0 
L 3803 0 
L 3803 166 
L 4366 250 
L 4366 3603 
L 2694 0 
z
" transform="scale(0.015625)"/>
      <path id="LiberationSerif-65" d="M 813 1478 
L 813 1422 
Q 813 991 908 752 
Q 1003 513 1201 388 
Q 1400 263 1722 263 
Q 1891 263 2122 291 
Q 2353 319 2503 353 
L 2503 178 
Q 2353 81 2095 9 
Q 1838 -63 1569 -63 
Q 884 -63 567 306 
Q 250 675 250 1491 
Q 250 2259 572 2637 
Q 894 3016 1491 3016 
Q 2619 3016 2619 1734 
L 2619 1478 
L 813 1478 
z
M 1491 2766 
Q 1166 2766 992 2503 
Q 819 2241 819 1728 
L 2075 1728 
Q 2075 2288 1931 2527 
Q 1788 2766 1491 2766 
z
" transform="scale(0.015625)"/>
      <path id="LiberationSerif-61" d="M 1453 3003 
Q 1934 3003 2161 2806 
Q 2388 2609 2388 2203 
L 2388 219 
L 2753 141 
L 2753 0 
L 1947 0 
L 1888 294 
Q 1531 -63 978 -63 
Q 225 -63 225 813 
Q 225 1106 339 1298 
Q 453 1491 703 1592 
Q 953 1694 1428 1703 
L 1869 1716 
L 1869 2175 
Q 1869 2478 1758 2622 
Q 1647 2766 1416 2766 
Q 1103 2766 844 2619 
L 738 2253 
L 563 2253 
L 563 2894 
Q 1069 3003 1453 3003 
z
M 1869 1497 
L 1459 1484 
Q 1041 1469 892 1322 
Q 744 1175 744 831 
Q 744 281 1191 281 
Q 1403 281 1558 329 
Q 1713 378 1869 453 
L 1869 1497 
z
" transform="scale(0.015625)"/>
      <path id="LiberationSerif-6e" d="M 1013 2700 
Q 1253 2838 1525 2927 
Q 1797 3016 1978 3016 
Q 2359 3016 2553 2794 
Q 2747 2572 2747 2150 
L 2747 219 
L 3103 141 
L 3103 0 
L 1838 0 
L 1838 141 
L 2228 219 
L 2228 2094 
Q 2228 2353 2101 2501 
Q 1975 2650 1709 2650 
Q 1428 2650 1019 2559 
L 1019 219 
L 1416 141 
L 1416 0 
L 147 0 
L 147 141 
L 500 219 
L 500 2719 
L 147 2797 
L 147 2938 
L 984 2938 
L 1013 2700 
z
" transform="scale(0.015625)"/>
      <path id="LiberationSerif-20" transform="scale(0.015625)"/>
      <path id="LiberationSerif-3c1" d="M 413 1753 
Q 413 2363 702 2683 
Q 991 3003 1519 3003 
Q 1925 3003 2251 2800 
Q 2578 2597 2756 2222 
Q 2934 1847 2934 1350 
Q 2934 909 2776 592 
Q 2619 275 2333 106 
Q 2047 -63 1681 -63 
Q 1316 -63 928 69 
L 928 -1363 
L 413 -1363 
L 413 1753 
z
M 1606 188 
Q 1994 188 2191 477 
Q 2388 766 2388 1309 
Q 2388 1753 2281 2061 
Q 2175 2369 1983 2528 
Q 1791 2688 1538 2688 
Q 928 2688 928 1797 
L 928 322 
Q 1266 188 1606 188 
z
" transform="scale(0.015625)"/>
      <path id="LiberationSerif-3d" d="M 3297 1644 
L 3297 1325 
L 319 1325 
L 319 1644 
L 3297 1644 
z
M 3297 2925 
L 3297 2606 
L 319 2606 
L 319 2925 
L 3297 2925 
z
" transform="scale(0.015625)"/>
      <path id="LiberationSerif-2d" d="M 238 1269 
L 238 1747 
L 1900 1747 
L 1900 1269 
L 238 1269 
z
" transform="scale(0.015625)"/>
      <path id="LiberationSerif-38" d="M 2828 3169 
Q 2828 2825 2661 2586 
Q 2494 2347 2209 2222 
Q 2566 2091 2761 1811 
Q 2956 1531 2956 1131 
Q 2956 538 2622 237 
Q 2288 -63 1581 -63 
Q 244 -63 244 1131 
Q 244 1547 444 1820 
Q 644 2094 984 2222 
Q 713 2347 542 2584 
Q 372 2822 372 3169 
Q 372 3688 689 3972 
Q 1006 4256 1606 4256 
Q 2188 4256 2508 3973 
Q 2828 3691 2828 3169 
z
M 2394 1131 
Q 2394 1631 2198 1856 
Q 2003 2081 1581 2081 
Q 1169 2081 987 1867 
Q 806 1653 806 1131 
Q 806 603 990 393 
Q 1175 184 1581 184 
Q 1997 184 2195 401 
Q 2394 619 2394 1131 
z
M 2266 3169 
Q 2266 3600 2097 3803 
Q 1928 4006 1588 4006 
Q 1256 4006 1095 3809 
Q 934 3613 934 3169 
Q 934 2734 1090 2545 
Q 1247 2356 1588 2356 
Q 1938 2356 2102 2548 
Q 2266 2741 2266 3169 
z
" transform="scale(0.015625)"/>
     </defs>
     <use xlink:href="#LiberationSerif-4d"/>
     <use xlink:href="#LiberationSerif-65" x="88.916016"/>
     <use xlink:href="#LiberationSerif-61" x="133.300781"/>
     <use xlink:href="#LiberationSerif-6e" x="177.685547"/>
     <use xlink:href="#LiberationSerif-20" x="227.685547"/>
     <use xlink:href="#LiberationSerif-3c1" x="252.685547"/>
     <use xlink:href="#LiberationSerif-20" x="302.587891"/>
     <use xlink:href="#LiberationSerif-3d" x="327.587891"/>
     <use xlink:href="#LiberationSerif-20" x="383.984375"/>
     <use xlink:href="#LiberationSerif-2d" x="408.984375"/>
     <use xlink:href="#LiberationSerif-30" x="442.285156"/>
     <use xlink:href="#LiberationSerif-2e" x="492.285156"/>
     <use xlink:href="#LiberationSerif-33" x="517.285156"/>
     <use xlink:href="#LiberationSerif-38" x="567.285156"/>
     <use xlink:href="#LiberationSerif-31" x="617.285156"/>
    </g>
    <!-- P-value = 0.002 -->
    <g transform="translate(125.804085 73.239688) scale(0.12 -0.12)">
     <defs>
      <path id="LiberationSerif-50" d="M 2681 2950 
Q 2681 3466 2440 3687 
Q 2200 3909 1631 3909 
L 1325 3909 
L 1325 1925 
L 1650 1925 
Q 2178 1925 2429 2165 
Q 2681 2406 2681 2950 
z
M 1325 1644 
L 1325 250 
L 1991 166 
L 1991 0 
L 225 0 
L 225 166 
L 722 250 
L 722 3944 
L 184 4025 
L 184 4191 
L 1766 4191 
Q 3303 4191 3303 2956 
Q 3303 2313 2914 1978 
Q 2525 1644 1797 1644 
L 1325 1644 
z
" transform="scale(0.015625)"/>
      <path id="LiberationSerif-76" d="M 1741 -63 
L 1509 -63 
L 300 2719 
L 0 2797 
L 0 2938 
L 1369 2938 
L 1369 2797 
L 903 2713 
L 1759 684 
L 2578 2719 
L 2113 2797 
L 2113 2938 
L 3200 2938 
L 3200 2797 
L 2919 2731 
L 1741 -63 
z
" transform="scale(0.015625)"/>
      <path id="LiberationSerif-6c" d="M 1147 219 
L 1650 141 
L 1650 0 
L 128 0 
L 128 141 
L 628 219 
L 628 4225 
L 128 4300 
L 128 4441 
L 1147 4441 
L 1147 219 
z
" transform="scale(0.015625)"/>
      <path id="LiberationSerif-75" d="M 978 838 
Q 978 300 1478 300 
Q 1866 300 2203 397 
L 2203 2719 
L 1759 2797 
L 1759 2938 
L 2719 2938 
L 2719 219 
L 3091 141 
L 3091 0 
L 2234 0 
L 2209 238 
Q 1988 116 1697 26 
Q 1406 -63 1209 -63 
Q 459 -63 459 800 
L 459 2719 
L 84 2797 
L 84 2938 
L 978 2938 
L 978 838 
z
" transform="scale(0.015625)"/>
     </defs>
     <use xlink:href="#LiberationSerif-50"/>
     <use xlink:href="#LiberationSerif-2d" x="55.615234"/>
     <use xlink:href="#LiberationSerif-76" x="88.916016"/>
     <use xlink:href="#LiberationSerif-61" x="138.916016"/>
     <use xlink:href="#LiberationSerif-6c" x="183.300781"/>
     <use xlink:href="#LiberationSerif-75" x="211.083984"/>
     <use xlink:href="#LiberationSerif-65" x="261.083984"/>
     <use xlink:href="#LiberationSerif-20" x="305.46875"/>
     <use xlink:href="#LiberationSerif-3d" x="330.46875"/>
     <use xlink:href="#LiberationSerif-20" x="386.865234"/>
     <use xlink:href="#LiberationSerif-30" x="411.865234"/>
     <use xlink:href="#LiberationSerif-2e" x="461.865234"/>
     <use xlink:href="#LiberationSerif-30" x="486.865234"/>
     <use xlink:href="#LiberationSerif-30" x="536.865234"/>
     <use xlink:href="#LiberationSerif-32" x="586.865234"/>
    </g>
   </g>
   <g id="text_14">
    <!-- Permutation Null (Mic modules) -->
    <g transform="translate(204.894062 16.914687) scale(0.14 -0.14)">
     <defs>
      <path id="LiberationSerif-Bold-50" d="M 2722 2950 
Q 2722 3450 2536 3648 
Q 2350 3847 1881 3847 
L 1634 3847 
L 1634 1988 
L 1894 1988 
Q 2328 1988 2525 2206 
Q 2722 2425 2722 2950 
z
M 1634 1644 
L 1634 313 
L 2331 228 
L 2331 0 
L 150 0 
L 150 228 
L 647 313 
L 647 3881 
L 109 3963 
L 109 4191 
L 1956 4191 
Q 2847 4191 3287 3892 
Q 3728 3594 3728 2956 
Q 3728 1644 2197 1644 
L 1634 1644 
z
" transform="scale(0.015625)"/>
      <path id="LiberationSerif-Bold-28" d="M 1134 1544 
Q 1134 803 1214 350 
Q 1294 -103 1467 -447 
Q 1641 -791 1925 -1006 
L 1925 -1363 
Q 1306 -1034 957 -645 
Q 609 -256 445 270 
Q 281 797 281 1547 
Q 281 2291 445 2816 
Q 609 3341 957 3728 
Q 1306 4116 1925 4441 
L 1925 4084 
Q 1641 3869 1469 3528 
Q 1297 3188 1215 2734 
Q 1134 2281 1134 1544 
z
" transform="scale(0.015625)"/>
      <path id="LiberationSerif-Bold-64" d="M 2291 166 
Q 2116 53 2022 17 
Q 1928 -19 1809 -41 
Q 1691 -63 1547 -63 
Q 897 -63 578 310 
Q 259 684 259 1459 
Q 259 2222 601 2619 
Q 944 3016 1594 3016 
Q 1934 3016 2281 2931 
Q 2263 3034 2263 3416 
L 2263 4159 
L 1963 4234 
L 1963 4441 
L 3166 4441 
L 3166 281 
L 3488 206 
L 3488 0 
L 2356 0 
L 2291 166 
z
M 1175 1484 
Q 1175 900 1322 592 
Q 1469 284 1744 284 
Q 1994 284 2263 419 
L 2263 2631 
Q 2019 2697 1769 2697 
Q 1488 2697 1331 2389 
Q 1175 2081 1175 1484 
z
" transform="scale(0.015625)"/>
      <path id="LiberationSerif-Bold-29" d="M 206 -1363 
L 206 -1006 
Q 491 -788 664 -444 
Q 838 -100 917 358 
Q 997 816 997 1544 
Q 997 2284 915 2737 
Q 834 3191 662 3528 
Q 491 3866 206 4084 
L 206 4441 
Q 831 4106 1178 3720 
Q 1525 3334 1687 2811 
Q 1850 2288 1850 1547 
Q 1850 800 1687 273 
Q 1525 -253 1176 -642 
Q 828 -1031 206 -1363 
z
" transform="scale(0.015625)"/>
     </defs>
     <use xlink:href="#LiberationSerif-Bold-50"/>
     <use xlink:href="#LiberationSerif-Bold-65" x="61.083984"/>
     <use xlink:href="#LiberationSerif-Bold-72" x="105.46875"/>
     <use xlink:href="#LiberationSerif-Bold-6d" x="149.853516"/>
     <use xlink:href="#LiberationSerif-Bold-75" x="233.154297"/>
     <use xlink:href="#LiberationSerif-Bold-74" x="288.769531"/>
     <use xlink:href="#LiberationSerif-Bold-61" x="322.070312"/>
     <use xlink:href="#LiberationSerif-Bold-74" x="372.070312"/>
     <use xlink:href="#LiberationSerif-Bold-69" x="405.371094"/>
     <use xlink:href="#LiberationSerif-Bold-6f" x="433.154297"/>
     <use xlink:href="#LiberationSerif-Bold-6e" x="483.154297"/>
     <use xlink:href="#LiberationSerif-Bold-20" x="538.769531"/>
     <use xlink:href="#LiberationSerif-Bold-4e" x="563.769531"/>
     <use xlink:href="#LiberationSerif-Bold-75" x="635.986328"/>
     <use xlink:href="#LiberationSerif-Bold-6c" x="691.601562"/>
     <use xlink:href="#LiberationSerif-Bold-6c" x="719.384766"/>
     <use xlink:href="#LiberationSerif-Bold-20" x="747.167969"/>
     <use xlink:href="#LiberationSerif-Bold-28" x="772.167969"/>
     <use xlink:href="#LiberationSerif-Bold-4d" x="805.46875"/>
     <use xlink:href="#LiberationSerif-Bold-69" x="899.853516"/>
     <use xlink:href="#LiberationSerif-Bold-63" x="927.636719"/>
     <use xlink:href="#LiberationSerif-Bold-20" x="972.021484"/>
     <use xlink:href="#LiberationSerif-Bold-6d" x="997.021484"/>
     <use xlink:href="#LiberationSerif-Bold-6f" x="1080.322266"/>
     <use xlink:href="#LiberationSerif-Bold-64" x="1130.322266"/>
     <use xlink:href="#LiberationSerif-Bold-75" x="1185.9375"/>
     <use xlink:href="#LiberationSerif-Bold-6c" x="1241.552734"/>
     <use xlink:href="#LiberationSerif-Bold-65" x="1269.335938"/>
     <use xlink:href="#LiberationSerif-Bold-73" x="1313.720703"/>
     <use xlink:href="#LiberationSerif-Bold-29" x="1352.636719"/>
    </g>
   </g>
   <g id="line2d_16">
    <path d="M 116.112658 307.414687 
L 116.112658 31.914687 
" clip-path="url(#p9d824d0270)" style="fill: none; stroke-dasharray: 7.4,3.2; stroke-dashoffset: 0; stroke: #000000; stroke-width: 2"/>
   </g>
  </g>
 </g>
 <defs>
  <clipPath id="p9d824d0270">
   <rect x="47.0825" y="31.914687" width="509.65" height="275.5"/>
  </clipPath>
 </defs>
</svg>
