<?xml version="1.0" encoding="utf-8" standalone="no"?>
<!DOCTYPE svg PUBLIC "-//W3C//DTD SVG 1.1//EN"
  "http://www.w3.org/Graphics/SVG/1.1/DTD/svg11.dtd">
<svg xmlns:xlink="http://www.w3.org/1999/xlink" width="421.3775pt" height="351.145625pt" viewBox="0 0 421.3775 351.145625" xmlns="http://www.w3.org/2000/svg" version="1.1">
 <metadata>
  <rdf:RDF xmlns:dc="http://purl.org/dc/elements/1.1/" xmlns:cc="http://creativecommons.org/ns#" xmlns:rdf="http://www.w3.org/1999/02/22-rdf-syntax-ns#">
   <cc:Work>
    <dc:type rdf:resource="http://purl.org/dc/dcmitype/StillImage"/>
    <dc:date>2026-06-05T16:12:01.963567</dc:date>
    <dc:format>image/svg+xml</dc:format>
    <dc:creator>
     <cc:Agent>
      <dc:title>Matplotlib v3.9.4, https://matplotlib.org/</dc:title>
     </cc:Agent>
    </dc:creator>
   </cc:Work>
  </rdf:RDF>
 </metadata>
 <defs>
  <style type="text/css">*{stroke-linejoin: round; stroke-linecap: butt}</style>
 </defs>
 <g id="figure_1">
  <g id="patch_1">
   <path d="M 0 351.145625 
L 421.3775 351.145625 
L 421.3775 0 
L 0 0 
z
" style="fill: #ffffff"/>
  </g>
  <g id="axes_1">
   <g id="patch_2">
    <path d="M 54.096563 311.56 
L 398.506562 311.56 
L 398.506562 7.2 
L 54.096563 7.2 
z
" style="fill: #ffffff"/>
   </g>
   <g id="matplotlib.axis_1">
    <g id="xtick_1">
     <g id="line2d_1">
      <path d="M 116.891574 311.56 
L 116.891574 7.2 
" clip-path="url(#p382120a3a6)" style="fill: none; stroke: #b0b0b0; stroke-opacity: 0.3; stroke-width: 0.8; stroke-linecap: square"/>
     </g>
     <g id="line2d_2">
      <defs>
       <path id="m61b9abd1e1" d="M 0 0 
L 0 3.5 
" style="stroke: #000000; stroke-width: 0.8"/>
      </defs>
      <g>
       <use xlink:href="#m61b9abd1e1" x="116.891574" y="311.56" style="stroke: #000000; stroke-width: 0.8"/>
      </g>
     </g>
     <g id="text_1">
      <!-- 0.5 -->
      <g transform="translate(108.940011 326.158437) scale(0.1 -0.1)">
       <defs>
        <path id="DejaVuSans-30" d="M 2034 4250 
Q 1547 4250 1301 3770 
Q 1056 3291 1056 2328 
Q 1056 1369 1301 889 
Q 1547 409 2034 409 
Q 2525 409 2770 889 
Q 3016 1369 3016 2328 
Q 3016 3291 2770 3770 
Q 2525 4250 2034 4250 
z
M 2034 4750 
Q 2819 4750 3233 4129 
Q 3647 3509 3647 2328 
Q 3647 1150 3233 529 
Q 2819 -91 2034 -91 
Q 1250 -91 836 529 
Q 422 1150 422 2328 
Q 422 3509 836 4129 
Q 1250 4750 2034 4750 
z
" transform="scale(0.015625)"/>
        <path id="DejaVuSans-2e" d="M 684 794 
L 1344 794 
L 1344 0 
L 684 0 
L 684 794 
z
" transform="scale(0.015625)"/>
        <path id="DejaVuSans-35" d="M 691 4666 
L 3169 4666 
L 3169 4134 
L 1269 4134 
L 1269 2991 
Q 1406 3038 1543 3061 
Q 1681 3084 1819 3084 
Q 2600 3084 3056 2656 
Q 3513 2228 3513 1497 
Q 3513 744 3044 326 
Q 2575 -91 1722 -91 
Q 1428 -91 1123 -41 
Q 819 9 494 109 
L 494 744 
Q 775 591 1075 516 
Q 1375 441 1709 441 
Q 2250 441 2565 725 
Q 2881 1009 2881 1497 
Q 2881 1984 2565 2268 
Q 2250 2553 1709 2553 
Q 1456 2553 1204 2497 
Q 953 2441 691 2322 
L 691 4666 
z
" transform="scale(0.015625)"/>
       </defs>
       <use xlink:href="#DejaVuSans-30"/>
       <use xlink:href="#DejaVuSans-2e" x="63.623047"/>
       <use xlink:href="#DejaVuSans-35" x="95.410156"/>
      </g>
     </g>
    </g>
    <g id="xtick_2">
     <g id="line2d_3">
      <path d="M 191.734493 311.56 
L 191.734493 7.2 
" clip-path="url(#p382120a3a6)" style="fill: none; stroke: #b0b0b0; stroke-opacity: 0.3; stroke-width: 0.8; stroke-linecap: square"/>
     </g>
     <g id="line2d_4">
      <g>
       <use xlink:href="#m61b9abd1e1" x="191.734493" y="311.56" style="stroke: #000000; stroke-width: 0.8"/>
      </g>
     </g>
     <g id="text_2">
      <!-- 1.0 -->
      <g transform="translate(183.782931 326.158437) scale(0.1 -0.1)">
       <defs>
        <path id="DejaVuSans-31" d="M 794 531 
L 1825 531 
L 1825 4091 
L 703 3866 
L 703 4441 
L 1819 4666 
L 2450 4666 
L 2450 531 
L 3481 531 
L 3481 0 
L 794 0 
L 794 531 
z
" transform="scale(0.015625)"/>
       </defs>
       <use xlink:href="#DejaVuSans-31"/>
       <use xlink:href="#DejaVuSans-2e" x="63.623047"/>
       <use xlink:href="#DejaVuSans-30" x="95.410156"/>
      </g>
     </g>
    </g>
    <g id="xtick_3">
     <g id="line2d_5">
      <path d="M 266.577413 311.56 
L 266.577413 7.2 
" clip-path="url(#p382120a3a6)" style="fill: none; stroke: #b0b0b0; stroke-opacity: 0.3; stroke-width: 0.8; stroke-linecap: square"/>
     </g>
     <g id="line2d_6">
      <g>
       <use xlink:href="#m61b9abd1e1" x="266.577413" y="311.56" style="stroke: #000000; stroke-width: 0.8"/>
      </g>
     </g>
     <g id="text_3">
      <!-- 1.5 -->
      <g transform="translate(258.625851 326.158437) scale(0.1 -0.1)">
       <use xlink:href="#DejaVuSans-31"/>
       <use xlink:href="#DejaVuSans-2e" x="63.623047"/>
       <use xlink:href="#DejaVuSans-35" x="95.410156"/>
      </g>
     </g>
    </g>
    <g id="xtick_4">
     <g id="line2d_7">
      <path d="M 341.420333 311.56 
L 341.420333 7.2 
" clip-path="url(#p382120a3a6)" style="fill: none; stroke: #b0b0b0; stroke-opacity: 0.3; stroke-width: 0.8; stroke-linecap: square"/>
     </g>
     <g id="line2d_8">
      <g>
       <use xlink:href="#m61b9abd1e1" x="341.420333" y="311.56" style="stroke: #000000; stroke-width: 0.8"/>
      </g>
     </g>
     <g id="text_4">
      <!-- 2.0 -->
      <g transform="translate(333.468771 326.158437) scale(0.1 -0.1)">
       <defs>
        <path id="DejaVuSans-32" d="M 1228 531 
L 3431 531 
L 3431 0 
L 469 0 
L 469 531 
Q 828 903 1448 1529 
Q 2069 2156 2228 2338 
Q 2531 2678 2651 2914 
Q 2772 3150 2772 3378 
Q 2772 3750 2511 3984 
Q 2250 4219 1831 4219 
Q 1534 4219 1204 4116 
Q 875 4013 500 3803 
L 500 4441 
Q 881 4594 1212 4672 
Q 1544 4750 1819 4750 
Q 2544 4750 2975 4387 
Q 3406 4025 3406 3419 
Q 3406 3131 3298 2873 
Q 3191 2616 2906 2266 
Q 2828 2175 2409 1742 
Q 1991 1309 1228 531 
z
" transform="scale(0.015625)"/>
       </defs>
       <use xlink:href="#DejaVuSans-32"/>
       <use xlink:href="#DejaVuSans-2e" x="63.623047"/>
       <use xlink:href="#DejaVuSans-30" x="95.410156"/>
      </g>
     </g>
    </g>
    <g id="text_5">
     <!-- GWAS Gene Odds Ratio (Microglia Modules, Fisher Exact Test) -->
     <g transform="translate(16.52375 341.35625) scale(0.12 -0.12)">
      <defs>
       <path id="DejaVuSans-Bold-47" d="M 4781 347 
Q 4331 128 3847 18 
Q 3363 -91 2847 -91 
Q 1681 -91 1000 561 
Q 319 1213 319 2328 
Q 319 3456 1012 4103 
Q 1706 4750 2913 4750 
Q 3378 4750 3804 4662 
Q 4231 4575 4609 4403 
L 4609 3438 
Q 4219 3659 3833 3768 
Q 3447 3878 3059 3878 
Q 2341 3878 1952 3476 
Q 1563 3075 1563 2328 
Q 1563 1588 1938 1184 
Q 2313 781 3003 781 
Q 3191 781 3352 804 
Q 3513 828 3641 878 
L 3641 1784 
L 2906 1784 
L 2906 2591 
L 4781 2591 
L 4781 347 
z
" transform="scale(0.015625)"/>
       <path id="DejaVuSans-Bold-57" d="M 191 4666 
L 1344 4666 
L 2150 1275 
L 2950 4666 
L 4109 4666 
L 4909 1275 
L 5716 4666 
L 6859 4666 
L 5759 0 
L 4372 0 
L 3525 3547 
L 2688 0 
L 1300 0 
L 191 4666 
z
" transform="scale(0.015625)"/>
       <path id="DejaVuSans-Bold-41" d="M 3419 850 
L 1538 850 
L 1241 0 
L 31 0 
L 1759 4666 
L 3194 4666 
L 4922 0 
L 3713 0 
L 3419 850 
z
M 1838 1716 
L 3116 1716 
L 2478 3572 
L 1838 1716 
z
" transform="scale(0.015625)"/>
       <path id="DejaVuSans-Bold-53" d="M 3834 4519 
L 3834 3531 
Q 3450 3703 3084 3790 
Q 2719 3878 2394 3878 
Q 1963 3878 1756 3759 
Q 1550 3641 1550 3391 
Q 1550 3203 1689 3098 
Q 1828 2994 2194 2919 
L 2706 2816 
Q 3484 2659 3812 2340 
Q 4141 2022 4141 1434 
Q 4141 663 3683 286 
Q 3225 -91 2284 -91 
Q 1841 -91 1394 -6 
Q 947 78 500 244 
L 500 1259 
Q 947 1022 1364 901 
Q 1781 781 2169 781 
Q 2563 781 2772 912 
Q 2981 1044 2981 1288 
Q 2981 1506 2839 1625 
Q 2697 1744 2272 1838 
L 1806 1941 
Q 1106 2091 782 2419 
Q 459 2747 459 3303 
Q 459 4000 909 4375 
Q 1359 4750 2203 4750 
Q 2588 4750 2994 4692 
Q 3400 4634 3834 4519 
z
" transform="scale(0.015625)"/>
       <path id="DejaVuSans-Bold-20" transform="scale(0.015625)"/>
       <path id="DejaVuSans-Bold-65" d="M 4031 1759 
L 4031 1441 
L 1416 1441 
Q 1456 1047 1700 850 
Q 1944 653 2381 653 
Q 2734 653 3104 758 
Q 3475 863 3866 1075 
L 3866 213 
Q 3469 63 3072 -14 
Q 2675 -91 2278 -91 
Q 1328 -91 801 392 
Q 275 875 275 1747 
Q 275 2603 792 3093 
Q 1309 3584 2216 3584 
Q 3041 3584 3536 3087 
Q 4031 2591 4031 1759 
z
M 2881 2131 
Q 2881 2450 2695 2645 
Q 2509 2841 2209 2841 
Q 1884 2841 1681 2658 
Q 1478 2475 1428 2131 
L 2881 2131 
z
" transform="scale(0.015625)"/>
       <path id="DejaVuSans-Bold-6e" d="M 4056 2131 
L 4056 0 
L 2931 0 
L 2931 347 
L 2931 1631 
Q 2931 2084 2911 2256 
Q 2891 2428 2841 2509 
Q 2775 2619 2662 2680 
Q 2550 2741 2406 2741 
Q 2056 2741 1856 2470 
Q 1656 2200 1656 1722 
L 1656 0 
L 538 0 
L 538 3500 
L 1656 3500 
L 1656 2988 
Q 1909 3294 2193 3439 
Q 2478 3584 2822 3584 
Q 3428 3584 3742 3212 
Q 4056 2841 4056 2131 
z
" transform="scale(0.015625)"/>
       <path id="DejaVuSans-Bold-4f" d="M 2719 3878 
Q 2169 3878 1866 3472 
Q 1563 3066 1563 2328 
Q 1563 1594 1866 1187 
Q 2169 781 2719 781 
Q 3272 781 3575 1187 
Q 3878 1594 3878 2328 
Q 3878 3066 3575 3472 
Q 3272 3878 2719 3878 
z
M 2719 4750 
Q 3844 4750 4481 4106 
Q 5119 3463 5119 2328 
Q 5119 1197 4481 553 
Q 3844 -91 2719 -91 
Q 1597 -91 958 553 
Q 319 1197 319 2328 
Q 319 3463 958 4106 
Q 1597 4750 2719 4750 
z
" transform="scale(0.015625)"/>
       <path id="DejaVuSans-Bold-64" d="M 2919 2988 
L 2919 4863 
L 4044 4863 
L 4044 0 
L 2919 0 
L 2919 506 
Q 2688 197 2409 53 
Q 2131 -91 1766 -91 
Q 1119 -91 703 423 
Q 288 938 288 1747 
Q 288 2556 703 3070 
Q 1119 3584 1766 3584 
Q 2128 3584 2408 3439 
Q 2688 3294 2919 2988 
z
M 2181 722 
Q 2541 722 2730 984 
Q 2919 1247 2919 1747 
Q 2919 2247 2730 2509 
Q 2541 2772 2181 2772 
Q 1825 2772 1636 2509 
Q 1447 2247 1447 1747 
Q 1447 1247 1636 984 
Q 1825 722 2181 722 
z
" transform="scale(0.015625)"/>
       <path id="DejaVuSans-Bold-73" d="M 3272 3391 
L 3272 2541 
Q 2913 2691 2578 2766 
Q 2244 2841 1947 2841 
Q 1628 2841 1473 2761 
Q 1319 2681 1319 2516 
Q 1319 2381 1436 2309 
Q 1553 2238 1856 2203 
L 2053 2175 
Q 2913 2066 3209 1816 
Q 3506 1566 3506 1031 
Q 3506 472 3093 190 
Q 2681 -91 1863 -91 
Q 1516 -91 1145 -36 
Q 775 19 384 128 
L 384 978 
Q 719 816 1070 734 
Q 1422 653 1784 653 
Q 2113 653 2278 743 
Q 2444 834 2444 1013 
Q 2444 1163 2330 1236 
Q 2216 1309 1875 1350 
L 1678 1375 
Q 931 1469 631 1722 
Q 331 1975 331 2491 
Q 331 3047 712 3315 
Q 1094 3584 1881 3584 
Q 2191 3584 2531 3537 
Q 2872 3491 3272 3391 
z
" transform="scale(0.015625)"/>
       <path id="DejaVuSans-Bold-52" d="M 2297 2597 
Q 2675 2597 2839 2737 
Q 3003 2878 3003 3200 
Q 3003 3519 2839 3656 
Q 2675 3794 2297 3794 
L 1791 3794 
L 1791 2597 
L 2297 2597 
z
M 1791 1766 
L 1791 0 
L 588 0 
L 588 4666 
L 2425 4666 
Q 3347 4666 3776 4356 
Q 4206 4047 4206 3378 
Q 4206 2916 3982 2619 
Q 3759 2322 3309 2181 
Q 3556 2125 3751 1926 
Q 3947 1728 4147 1325 
L 4800 0 
L 3519 0 
L 2950 1159 
Q 2778 1509 2601 1637 
Q 2425 1766 2131 1766 
L 1791 1766 
z
" transform="scale(0.015625)"/>
       <path id="DejaVuSans-Bold-61" d="M 2106 1575 
Q 1756 1575 1579 1456 
Q 1403 1338 1403 1106 
Q 1403 894 1545 773 
Q 1688 653 1941 653 
Q 2256 653 2472 879 
Q 2688 1106 2688 1447 
L 2688 1575 
L 2106 1575 
z
M 3816 1997 
L 3816 0 
L 2688 0 
L 2688 519 
Q 2463 200 2181 54 
Q 1900 -91 1497 -91 
Q 953 -91 614 226 
Q 275 544 275 1050 
Q 275 1666 698 1953 
Q 1122 2241 2028 2241 
L 2688 2241 
L 2688 2328 
Q 2688 2594 2478 2717 
Q 2269 2841 1825 2841 
Q 1466 2841 1156 2769 
Q 847 2697 581 2553 
L 581 3406 
Q 941 3494 1303 3539 
Q 1666 3584 2028 3584 
Q 2975 3584 3395 3211 
Q 3816 2838 3816 1997 
z
" transform="scale(0.015625)"/>
       <path id="DejaVuSans-Bold-74" d="M 1759 4494 
L 1759 3500 
L 2913 3500 
L 2913 2700 
L 1759 2700 
L 1759 1216 
Q 1759 972 1856 886 
Q 1953 800 2241 800 
L 2816 800 
L 2816 0 
L 1856 0 
Q 1194 0 917 276 
Q 641 553 641 1216 
L 641 2700 
L 84 2700 
L 84 3500 
L 641 3500 
L 641 4494 
L 1759 4494 
z
" transform="scale(0.015625)"/>
       <path id="DejaVuSans-Bold-69" d="M 538 3500 
L 1656 3500 
L 1656 0 
L 538 0 
L 538 3500 
z
M 538 4863 
L 1656 4863 
L 1656 3950 
L 538 3950 
L 538 4863 
z
" transform="scale(0.015625)"/>
       <path id="DejaVuSans-Bold-6f" d="M 2203 2784 
Q 1831 2784 1636 2517 
Q 1441 2250 1441 1747 
Q 1441 1244 1636 976 
Q 1831 709 2203 709 
Q 2569 709 2762 976 
Q 2956 1244 2956 1747 
Q 2956 2250 2762 2517 
Q 2569 2784 2203 2784 
z
M 2203 3584 
Q 3106 3584 3614 3096 
Q 4122 2609 4122 1747 
Q 4122 884 3614 396 
Q 3106 -91 2203 -91 
Q 1297 -91 786 396 
Q 275 884 275 1747 
Q 275 2609 786 3096 
Q 1297 3584 2203 3584 
z
" transform="scale(0.015625)"/>
       <path id="DejaVuSans-Bold-28" d="M 2413 -844 
L 1484 -844 
Q 1006 -72 778 623 
Q 550 1319 550 2003 
Q 550 2688 779 3389 
Q 1009 4091 1484 4856 
L 2413 4856 
Q 2013 4116 1813 3408 
Q 1613 2700 1613 2009 
Q 1613 1319 1811 609 
Q 2009 -100 2413 -844 
z
" transform="scale(0.015625)"/>
       <path id="DejaVuSans-Bold-4d" d="M 588 4666 
L 2119 4666 
L 3181 2169 
L 4250 4666 
L 5778 4666 
L 5778 0 
L 4641 0 
L 4641 3413 
L 3566 897 
L 2803 897 
L 1728 3413 
L 1728 0 
L 588 0 
L 588 4666 
z
" transform="scale(0.015625)"/>
       <path id="DejaVuSans-Bold-63" d="M 3366 3391 
L 3366 2478 
Q 3138 2634 2908 2709 
Q 2678 2784 2431 2784 
Q 1963 2784 1702 2511 
Q 1441 2238 1441 1747 
Q 1441 1256 1702 982 
Q 1963 709 2431 709 
Q 2694 709 2930 787 
Q 3166 866 3366 1019 
L 3366 103 
Q 3103 6 2833 -42 
Q 2563 -91 2291 -91 
Q 1344 -91 809 395 
Q 275 881 275 1747 
Q 275 2613 809 3098 
Q 1344 3584 2291 3584 
Q 2566 3584 2833 3536 
Q 3100 3488 3366 3391 
z
" transform="scale(0.015625)"/>
       <path id="DejaVuSans-Bold-72" d="M 3138 2547 
Q 2991 2616 2845 2648 
Q 2700 2681 2553 2681 
Q 2122 2681 1889 2404 
Q 1656 2128 1656 1613 
L 1656 0 
L 538 0 
L 538 3500 
L 1656 3500 
L 1656 2925 
Q 1872 3269 2151 3426 
Q 2431 3584 2822 3584 
Q 2878 3584 2943 3579 
Q 3009 3575 3134 3559 
L 3138 2547 
z
" transform="scale(0.015625)"/>
       <path id="DejaVuSans-Bold-67" d="M 2919 594 
Q 2688 288 2409 144 
Q 2131 0 1766 0 
Q 1125 0 706 504 
Q 288 1009 288 1791 
Q 288 2575 706 3076 
Q 1125 3578 1766 3578 
Q 2131 3578 2409 3434 
Q 2688 3291 2919 2981 
L 2919 3500 
L 4044 3500 
L 4044 353 
Q 4044 -491 3511 -936 
Q 2978 -1381 1966 -1381 
Q 1638 -1381 1331 -1331 
Q 1025 -1281 716 -1178 
L 716 -306 
Q 1009 -475 1290 -558 
Q 1572 -641 1856 -641 
Q 2406 -641 2662 -400 
Q 2919 -159 2919 353 
L 2919 594 
z
M 2181 2772 
Q 1834 2772 1640 2515 
Q 1447 2259 1447 1791 
Q 1447 1309 1634 1061 
Q 1822 813 2181 813 
Q 2531 813 2725 1069 
Q 2919 1325 2919 1791 
Q 2919 2259 2725 2515 
Q 2531 2772 2181 2772 
z
" transform="scale(0.015625)"/>
       <path id="DejaVuSans-Bold-6c" d="M 538 4863 
L 1656 4863 
L 1656 0 
L 538 0 
L 538 4863 
z
" transform="scale(0.015625)"/>
       <path id="DejaVuSans-Bold-75" d="M 500 1363 
L 500 3500 
L 1625 3500 
L 1625 3150 
Q 1625 2866 1622 2436 
Q 1619 2006 1619 1863 
Q 1619 1441 1641 1255 
Q 1663 1069 1716 984 
Q 1784 875 1895 815 
Q 2006 756 2150 756 
Q 2500 756 2700 1025 
Q 2900 1294 2900 1772 
L 2900 3500 
L 4019 3500 
L 4019 0 
L 2900 0 
L 2900 506 
Q 2647 200 2364 54 
Q 2081 -91 1741 -91 
Q 1134 -91 817 281 
Q 500 653 500 1363 
z
" transform="scale(0.015625)"/>
       <path id="DejaVuSans-Bold-2c" d="M 653 1209 
L 1778 1209 
L 1778 256 
L 1006 -909 
L 341 -909 
L 653 256 
L 653 1209 
z
" transform="scale(0.015625)"/>
       <path id="DejaVuSans-Bold-46" d="M 588 4666 
L 3834 4666 
L 3834 3756 
L 1791 3756 
L 1791 2888 
L 3713 2888 
L 3713 1978 
L 1791 1978 
L 1791 0 
L 588 0 
L 588 4666 
z
" transform="scale(0.015625)"/>
       <path id="DejaVuSans-Bold-68" d="M 4056 2131 
L 4056 0 
L 2931 0 
L 2931 347 
L 2931 1625 
Q 2931 2084 2911 2256 
Q 2891 2428 2841 2509 
Q 2775 2619 2662 2680 
Q 2550 2741 2406 2741 
Q 2056 2741 1856 2470 
Q 1656 2200 1656 1722 
L 1656 0 
L 538 0 
L 538 4863 
L 1656 4863 
L 1656 2988 
Q 1909 3294 2193 3439 
Q 2478 3584 2822 3584 
Q 3428 3584 3742 3212 
Q 4056 2841 4056 2131 
z
" transform="scale(0.015625)"/>
       <path id="DejaVuSans-Bold-45" d="M 588 4666 
L 3834 4666 
L 3834 3756 
L 1791 3756 
L 1791 2888 
L 3713 2888 
L 3713 1978 
L 1791 1978 
L 1791 909 
L 3903 909 
L 3903 0 
L 588 0 
L 588 4666 
z
" transform="scale(0.015625)"/>
       <path id="DejaVuSans-Bold-78" d="M 1422 1791 
L 159 3500 
L 1344 3500 
L 2059 2463 
L 2784 3500 
L 3969 3500 
L 2706 1797 
L 4031 0 
L 2847 0 
L 2059 1106 
L 1281 0 
L 97 0 
L 1422 1791 
z
" transform="scale(0.015625)"/>
       <path id="DejaVuSans-Bold-54" d="M 31 4666 
L 4331 4666 
L 4331 3756 
L 2784 3756 
L 2784 0 
L 1581 0 
L 1581 3756 
L 31 3756 
L 31 4666 
z
" transform="scale(0.015625)"/>
       <path id="DejaVuSans-Bold-29" d="M 513 -844 
Q 913 -100 1113 609 
Q 1313 1319 1313 2009 
Q 1313 2700 1113 3408 
Q 913 4116 513 4856 
L 1441 4856 
Q 1916 4091 2145 3389 
Q 2375 2688 2375 2003 
Q 2375 1319 2147 623 
Q 1919 -72 1441 -844 
L 513 -844 
z
" transform="scale(0.015625)"/>
      </defs>
      <use xlink:href="#DejaVuSans-Bold-47"/>
      <use xlink:href="#DejaVuSans-Bold-57" x="82.080078"/>
      <use xlink:href="#DejaVuSans-Bold-41" x="187.882812"/>
      <use xlink:href="#DejaVuSans-Bold-53" x="265.275391"/>
      <use xlink:href="#DejaVuSans-Bold-20" x="337.296875"/>
      <use xlink:href="#DejaVuSans-Bold-47" x="372.111328"/>
      <use xlink:href="#DejaVuSans-Bold-65" x="454.191406"/>
      <use xlink:href="#DejaVuSans-Bold-6e" x="522.013672"/>
      <use xlink:href="#DejaVuSans-Bold-65" x="593.205078"/>
      <use xlink:href="#DejaVuSans-Bold-20" x="661.027344"/>
      <use xlink:href="#DejaVuSans-Bold-4f" x="695.841797"/>
      <use xlink:href="#DejaVuSans-Bold-64" x="780.851562"/>
      <use xlink:href="#DejaVuSans-Bold-64" x="852.433594"/>
      <use xlink:href="#DejaVuSans-Bold-73" x="924.015625"/>
      <use xlink:href="#DejaVuSans-Bold-20" x="983.537109"/>
      <use xlink:href="#DejaVuSans-Bold-52" x="1018.351562"/>
      <use xlink:href="#DejaVuSans-Bold-61" x="1095.353516"/>
      <use xlink:href="#DejaVuSans-Bold-74" x="1162.833984"/>
      <use xlink:href="#DejaVuSans-Bold-69" x="1210.636719"/>
      <use xlink:href="#DejaVuSans-Bold-6f" x="1244.914062"/>
      <use xlink:href="#DejaVuSans-Bold-20" x="1313.615234"/>
      <use xlink:href="#DejaVuSans-Bold-28" x="1348.429688"/>
      <use xlink:href="#DejaVuSans-Bold-4d" x="1394.132812"/>
      <use xlink:href="#DejaVuSans-Bold-69" x="1493.644531"/>
      <use xlink:href="#DejaVuSans-Bold-63" x="1527.921875"/>
      <use xlink:href="#DejaVuSans-Bold-72" x="1587.199219"/>
      <use xlink:href="#DejaVuSans-Bold-6f" x="1636.515625"/>
      <use xlink:href="#DejaVuSans-Bold-67" x="1705.216797"/>
      <use xlink:href="#DejaVuSans-Bold-6c" x="1776.798828"/>
      <use xlink:href="#DejaVuSans-Bold-69" x="1811.076172"/>
      <use xlink:href="#DejaVuSans-Bold-61" x="1845.353516"/>
      <use xlink:href="#DejaVuSans-Bold-20" x="1912.833984"/>
      <use xlink:href="#DejaVuSans-Bold-4d" x="1947.648438"/>
      <use xlink:href="#DejaVuSans-Bold-6f" x="2047.160156"/>
      <use xlink:href="#DejaVuSans-Bold-64" x="2115.861328"/>
      <use xlink:href="#DejaVuSans-Bold-75" x="2187.443359"/>
      <use xlink:href="#DejaVuSans-Bold-6c" x="2258.634766"/>
      <use xlink:href="#DejaVuSans-Bold-65" x="2292.912109"/>
      <use xlink:href="#DejaVuSans-Bold-73" x="2360.734375"/>
      <use xlink:href="#DejaVuSans-Bold-2c" x="2420.255859"/>
      <use xlink:href="#DejaVuSans-Bold-20" x="2458.244141"/>
      <use xlink:href="#DejaVuSans-Bold-46" x="2493.058594"/>
      <use xlink:href="#DejaVuSans-Bold-69" x="2561.369141"/>
      <use xlink:href="#DejaVuSans-Bold-73" x="2595.646484"/>
      <use xlink:href="#DejaVuSans-Bold-68" x="2655.167969"/>
      <use xlink:href="#DejaVuSans-Bold-65" x="2726.359375"/>
      <use xlink:href="#DejaVuSans-Bold-72" x="2794.181641"/>
      <use xlink:href="#DejaVuSans-Bold-20" x="2843.498047"/>
      <use xlink:href="#DejaVuSans-Bold-45" x="2878.3125"/>
      <use xlink:href="#DejaVuSans-Bold-78" x="2946.623047"/>
      <use xlink:href="#DejaVuSans-Bold-61" x="3011.125"/>
      <use xlink:href="#DejaVuSans-Bold-63" x="3078.605469"/>
      <use xlink:href="#DejaVuSans-Bold-74" x="3137.882812"/>
      <use xlink:href="#DejaVuSans-Bold-20" x="3185.685547"/>
      <use xlink:href="#DejaVuSans-Bold-54" x="3220.5"/>
      <use xlink:href="#DejaVuSans-Bold-65" x="3275.462891"/>
      <use xlink:href="#DejaVuSans-Bold-73" x="3343.285156"/>
      <use xlink:href="#DejaVuSans-Bold-74" x="3402.806641"/>
      <use xlink:href="#DejaVuSans-Bold-29" x="3450.609375"/>
     </g>
    </g>
   </g>
   <g id="matplotlib.axis_2">
    <g id="ytick_1">
     <g id="line2d_9">
      <path d="M 54.096563 288.72735 
L 398.506562 288.72735 
" clip-path="url(#p382120a3a6)" style="fill: none; stroke: #b0b0b0; stroke-opacity: 0.3; stroke-width: 0.8; stroke-linecap: square"/>
     </g>
     <g id="line2d_10">
      <defs>
       <path id="m73d96c142e" d="M 0 0 
L -3.5 0 
" style="stroke: #000000; stroke-width: 0.8"/>
      </defs>
      <g>
       <use xlink:href="#m73d96c142e" x="54.096563" y="288.72735" style="stroke: #000000; stroke-width: 0.8"/>
      </g>
     </g>
     <g id="text_6">
      <!-- −0.2 -->
      <g transform="translate(22.81375 292.526569) scale(0.1 -0.1)">
       <defs>
        <path id="DejaVuSans-2212" d="M 678 2272 
L 4684 2272 
L 4684 1741 
L 678 1741 
L 678 2272 
z
" transform="scale(0.015625)"/>
       </defs>
       <use xlink:href="#DejaVuSans-2212"/>
       <use xlink:href="#DejaVuSans-30" x="83.789062"/>
       <use xlink:href="#DejaVuSans-2e" x="147.412109"/>
       <use xlink:href="#DejaVuSans-32" x="179.199219"/>
      </g>
     </g>
    </g>
    <g id="ytick_2">
     <g id="line2d_11">
      <path d="M 54.096563 251.74277 
L 398.506562 251.74277 
" clip-path="url(#p382120a3a6)" style="fill: none; stroke: #b0b0b0; stroke-opacity: 0.3; stroke-width: 0.8; stroke-linecap: square"/>
     </g>
     <g id="line2d_12">
      <g>
       <use xlink:href="#m73d96c142e" x="54.096563" y="251.74277" style="stroke: #000000; stroke-width: 0.8"/>
      </g>
     </g>
     <g id="text_7">
      <!-- −0.1 -->
      <g transform="translate(22.81375 255.541989) scale(0.1 -0.1)">
       <use xlink:href="#DejaVuSans-2212"/>
       <use xlink:href="#DejaVuSans-30" x="83.789062"/>
       <use xlink:href="#DejaVuSans-2e" x="147.412109"/>
       <use xlink:href="#DejaVuSans-31" x="179.199219"/>
      </g>
     </g>
    </g>
    <g id="ytick_3">
     <g id="line2d_13">
      <path d="M 54.096563 214.75819 
L 398.506562 214.75819 
" clip-path="url(#p382120a3a6)" style="fill: none; stroke: #b0b0b0; stroke-opacity: 0.3; stroke-width: 0.8; stroke-linecap: square"/>
     </g>
     <g id="line2d_14">
      <g>
       <use xlink:href="#m73d96c142e" x="54.096563" y="214.75819" style="stroke: #000000; stroke-width: 0.8"/>
      </g>
     </g>
     <g id="text_8">
      <!-- 0.0 -->
      <g transform="translate(31.193438 218.557408) scale(0.1 -0.1)">
       <use xlink:href="#DejaVuSans-30"/>
       <use xlink:href="#DejaVuSans-2e" x="63.623047"/>
       <use xlink:href="#DejaVuSans-30" x="95.410156"/>
      </g>
     </g>
    </g>
    <g id="ytick_4">
     <g id="line2d_15">
      <path d="M 54.096563 177.773609 
L 398.506562 177.773609 
" clip-path="url(#p382120a3a6)" style="fill: none; stroke: #b0b0b0; stroke-opacity: 0.3; stroke-width: 0.8; stroke-linecap: square"/>
     </g>
     <g id="line2d_16">
      <g>
       <use xlink:href="#m73d96c142e" x="54.096563" y="177.773609" style="stroke: #000000; stroke-width: 0.8"/>
      </g>
     </g>
     <g id="text_9">
      <!-- 0.1 -->
      <g transform="translate(31.193438 181.572828) scale(0.1 -0.1)">
       <use xlink:href="#DejaVuSans-30"/>
       <use xlink:href="#DejaVuSans-2e" x="63.623047"/>
       <use xlink:href="#DejaVuSans-31" x="95.410156"/>
      </g>
     </g>
    </g>
    <g id="ytick_5">
     <g id="line2d_17">
      <path d="M 54.096563 140.789029 
L 398.506562 140.789029 
" clip-path="url(#p382120a3a6)" style="fill: none; stroke: #b0b0b0; stroke-opacity: 0.3; stroke-width: 0.8; stroke-linecap: square"/>
     </g>
     <g id="line2d_18">
      <g>
       <use xlink:href="#m73d96c142e" x="54.096563" y="140.789029" style="stroke: #000000; stroke-width: 0.8"/>
      </g>
     </g>
     <g id="text_10">
      <!-- 0.2 -->
      <g transform="translate(31.193438 144.588248) scale(0.1 -0.1)">
       <use xlink:href="#DejaVuSans-30"/>
       <use xlink:href="#DejaVuSans-2e" x="63.623047"/>
       <use xlink:href="#DejaVuSans-32" x="95.410156"/>
      </g>
     </g>
    </g>
    <g id="ytick_6">
     <g id="line2d_19">
      <path d="M 54.096563 103.804449 
L 398.506562 103.804449 
" clip-path="url(#p382120a3a6)" style="fill: none; stroke: #b0b0b0; stroke-opacity: 0.3; stroke-width: 0.8; stroke-linecap: square"/>
     </g>
     <g id="line2d_20">
      <g>
       <use xlink:href="#m73d96c142e" x="54.096563" y="103.804449" style="stroke: #000000; stroke-width: 0.8"/>
      </g>
     </g>
     <g id="text_11">
      <!-- 0.3 -->
      <g transform="translate(31.193438 107.603668) scale(0.1 -0.1)">
       <defs>
        <path id="DejaVuSans-33" d="M 2597 2516 
Q 3050 2419 3304 2112 
Q 3559 1806 3559 1356 
Q 3559 666 3084 287 
Q 2609 -91 1734 -91 
Q 1441 -91 1130 -33 
Q 819 25 488 141 
L 488 750 
Q 750 597 1062 519 
Q 1375 441 1716 441 
Q 2309 441 2620 675 
Q 2931 909 2931 1356 
Q 2931 1769 2642 2001 
Q 2353 2234 1838 2234 
L 1294 2234 
L 1294 2753 
L 1863 2753 
Q 2328 2753 2575 2939 
Q 2822 3125 2822 3475 
Q 2822 3834 2567 4026 
Q 2313 4219 1838 4219 
Q 1578 4219 1281 4162 
Q 984 4106 628 3988 
L 628 4550 
Q 988 4650 1302 4700 
Q 1616 4750 1894 4750 
Q 2613 4750 3031 4423 
Q 3450 4097 3450 3541 
Q 3450 3153 3228 2886 
Q 3006 2619 2597 2516 
z
" transform="scale(0.015625)"/>
       </defs>
       <use xlink:href="#DejaVuSans-30"/>
       <use xlink:href="#DejaVuSans-2e" x="63.623047"/>
       <use xlink:href="#DejaVuSans-33" x="95.410156"/>
      </g>
     </g>
    </g>
    <g id="ytick_7">
     <g id="line2d_21">
      <path d="M 54.096563 66.819869 
L 398.506562 66.819869 
" clip-path="url(#p382120a3a6)" style="fill: none; stroke: #b0b0b0; stroke-opacity: 0.3; stroke-width: 0.8; stroke-linecap: square"/>
     </g>
     <g id="line2d_22">
      <g>
       <use xlink:href="#m73d96c142e" x="54.096563" y="66.819869" style="stroke: #000000; stroke-width: 0.8"/>
      </g>
     </g>
     <g id="text_12">
      <!-- 0.4 -->
      <g transform="translate(31.193438 70.619088) scale(0.1 -0.1)">
       <defs>
        <path id="DejaVuSans-34" d="M 2419 4116 
L 825 1625 
L 2419 1625 
L 2419 4116 
z
M 2253 4666 
L 3047 4666 
L 3047 1625 
L 3713 1625 
L 3713 1100 
L 3047 1100 
L 3047 0 
L 2419 0 
L 2419 1100 
L 313 1100 
L 313 1709 
L 2253 4666 
z
" transform="scale(0.015625)"/>
       </defs>
       <use xlink:href="#DejaVuSans-30"/>
       <use xlink:href="#DejaVuSans-2e" x="63.623047"/>
       <use xlink:href="#DejaVuSans-34" x="95.410156"/>
      </g>
     </g>
    </g>
    <g id="ytick_8">
     <g id="line2d_23">
      <path d="M 54.096563 29.835289 
L 398.506562 29.835289 
" clip-path="url(#p382120a3a6)" style="fill: none; stroke: #b0b0b0; stroke-opacity: 0.3; stroke-width: 0.8; stroke-linecap: square"/>
     </g>
     <g id="line2d_24">
      <g>
       <use xlink:href="#m73d96c142e" x="54.096563" y="29.835289" style="stroke: #000000; stroke-width: 0.8"/>
      </g>
     </g>
     <g id="text_13">
      <!-- 0.5 -->
      <g transform="translate(31.193438 33.634508) scale(0.1 -0.1)">
       <use xlink:href="#DejaVuSans-30"/>
       <use xlink:href="#DejaVuSans-2e" x="63.623047"/>
       <use xlink:href="#DejaVuSans-35" x="95.410156"/>
      </g>
     </g>
    </g>
    <g id="text_14">
     <!-- ΔZ to Ast15 (ACHES) -->
     <g transform="translate(16.318125 229.034375) rotate(-90) scale(0.12 -0.12)">
      <defs>
       <path id="DejaVuSans-Bold-394" d="M 4922 0 
L 31 0 
L 1759 4666 
L 3194 4666 
L 4922 0 
z
M 1559 909 
L 3384 909 
L 2478 3572 
L 1559 909 
z
" transform="scale(0.015625)"/>
       <path id="DejaVuSans-Bold-5a" d="M 359 4666 
L 4281 4666 
L 4281 3938 
L 1778 909 
L 4353 909 
L 4353 0 
L 288 0 
L 288 728 
L 2791 3756 
L 359 3756 
L 359 4666 
z
" transform="scale(0.015625)"/>
       <path id="DejaVuSans-Bold-31" d="M 750 831 
L 1813 831 
L 1813 3847 
L 722 3622 
L 722 4441 
L 1806 4666 
L 2950 4666 
L 2950 831 
L 4013 831 
L 4013 0 
L 750 0 
L 750 831 
z
" transform="scale(0.015625)"/>
       <path id="DejaVuSans-Bold-35" d="M 678 4666 
L 3669 4666 
L 3669 3781 
L 1638 3781 
L 1638 3059 
Q 1775 3097 1914 3117 
Q 2053 3138 2203 3138 
Q 3056 3138 3531 2711 
Q 4006 2284 4006 1522 
Q 4006 766 3489 337 
Q 2972 -91 2053 -91 
Q 1656 -91 1267 -14 
Q 878 63 494 219 
L 494 1166 
Q 875 947 1217 837 
Q 1559 728 1863 728 
Q 2300 728 2551 942 
Q 2803 1156 2803 1522 
Q 2803 1891 2551 2103 
Q 2300 2316 1863 2316 
Q 1603 2316 1309 2248 
Q 1016 2181 678 2041 
L 678 4666 
z
" transform="scale(0.015625)"/>
       <path id="DejaVuSans-Bold-43" d="M 4288 256 
Q 3956 84 3597 -3 
Q 3238 -91 2847 -91 
Q 1681 -91 1000 561 
Q 319 1213 319 2328 
Q 319 3447 1000 4098 
Q 1681 4750 2847 4750 
Q 3238 4750 3597 4662 
Q 3956 4575 4288 4403 
L 4288 3438 
Q 3953 3666 3628 3772 
Q 3303 3878 2944 3878 
Q 2300 3878 1931 3465 
Q 1563 3053 1563 2328 
Q 1563 1606 1931 1193 
Q 2300 781 2944 781 
Q 3303 781 3628 887 
Q 3953 994 4288 1222 
L 4288 256 
z
" transform="scale(0.015625)"/>
       <path id="DejaVuSans-Bold-48" d="M 588 4666 
L 1791 4666 
L 1791 2888 
L 3566 2888 
L 3566 4666 
L 4769 4666 
L 4769 0 
L 3566 0 
L 3566 1978 
L 1791 1978 
L 1791 0 
L 588 0 
L 588 4666 
z
" transform="scale(0.015625)"/>
      </defs>
      <use xlink:href="#DejaVuSans-Bold-394"/>
      <use xlink:href="#DejaVuSans-Bold-5a" x="77.392578"/>
      <use xlink:href="#DejaVuSans-Bold-20" x="149.902344"/>
      <use xlink:href="#DejaVuSans-Bold-74" x="184.716797"/>
      <use xlink:href="#DejaVuSans-Bold-6f" x="232.519531"/>
      <use xlink:href="#DejaVuSans-Bold-20" x="301.220703"/>
      <use xlink:href="#DejaVuSans-Bold-41" x="336.035156"/>
      <use xlink:href="#DejaVuSans-Bold-73" x="413.427734"/>
      <use xlink:href="#DejaVuSans-Bold-74" x="472.949219"/>
      <use xlink:href="#DejaVuSans-Bold-31" x="520.751953"/>
      <use xlink:href="#DejaVuSans-Bold-35" x="590.332031"/>
      <use xlink:href="#DejaVuSans-Bold-20" x="659.912109"/>
      <use xlink:href="#DejaVuSans-Bold-28" x="694.726562"/>
      <use xlink:href="#DejaVuSans-Bold-41" x="740.429688"/>
      <use xlink:href="#DejaVuSans-Bold-43" x="817.822266"/>
      <use xlink:href="#DejaVuSans-Bold-48" x="891.210938"/>
      <use xlink:href="#DejaVuSans-Bold-45" x="974.902344"/>
      <use xlink:href="#DejaVuSans-Bold-53" x="1043.212891"/>
      <use xlink:href="#DejaVuSans-Bold-29" x="1115.234375"/>
     </g>
    </g>
   </g>
   <g id="line2d_25">
    <path d="M 69.751563 173.351115 
L 72.914189 171.878144 
L 76.076815 170.405173 
L 79.239441 168.932202 
L 82.402068 167.459231 
L 85.564694 165.98626 
L 88.72732 164.513289 
L 91.889946 163.040318 
L 95.052573 161.567347 
L 98.215199 160.094377 
L 101.377825 158.621406 
L 104.540451 157.148435 
L 107.703078 155.675464 
L 110.865704 154.202493 
L 114.02833 152.729522 
L 117.190956 151.256551 
L 120.353583 149.78358 
L 123.516209 148.310609 
L 126.678835 146.837638 
L 129.841461 145.364667 
L 133.004088 143.891696 
L 136.166714 142.418725 
L 139.32934 140.945754 
L 142.491967 139.472783 
L 145.654593 137.999812 
L 148.817219 136.526841 
L 151.979845 135.05387 
L 155.142472 133.580899 
L 158.305098 132.107928 
L 161.467724 130.634957 
L 164.63035 129.161986 
L 167.792977 127.689015 
L 170.955603 126.216044 
L 174.118229 124.743073 
L 177.280855 123.270102 
L 180.443482 121.797131 
L 183.606108 120.32416 
L 186.768734 118.851189 
L 189.93136 117.378218 
L 193.093987 115.905247 
L 196.256613 114.432276 
L 199.419239 112.959305 
L 202.581866 111.486334 
L 205.744492 110.013363 
L 208.907118 108.540392 
L 212.069744 107.067421 
L 215.232371 105.59445 
L 218.394997 104.121479 
L 221.557623 102.648508 
L 224.720249 101.175538 
L 227.882876 99.702567 
L 231.045502 98.229596 
L 234.208128 96.756625 
L 237.370754 95.283654 
L 240.533381 93.810683 
L 243.696007 92.337712 
L 246.858633 90.864741 
L 250.021259 89.39177 
L 253.183886 87.918799 
L 256.346512 86.445828 
L 259.509138 84.972857 
L 262.671765 83.499886 
L 265.834391 82.026915 
L 268.997017 80.553944 
L 272.159643 79.080973 
L 275.32227 77.608002 
L 278.484896 76.135031 
L 281.647522 74.66206 
L 284.810148 73.189089 
L 287.972775 71.716118 
L 291.135401 70.243147 
L 294.298027 68.770176 
L 297.460653 67.297205 
L 300.62328 65.824234 
L 303.785906 64.351263 
L 306.948532 62.878292 
L 310.111158 61.405321 
L 313.273785 59.93235 
L 316.436411 58.459379 
L 319.599037 56.986408 
L 322.761664 55.513437 
L 325.92429 54.040466 
L 329.086916 52.567495 
L 332.249542 51.094524 
L 335.412169 49.621553 
L 338.574795 48.148582 
L 341.737421 46.675611 
L 344.900047 45.20264 
L 348.062674 43.729669 
L 351.2253 42.256699 
L 354.387926 40.783728 
L 357.550552 39.310757 
L 360.713179 37.837786 
L 363.875805 36.364815 
L 367.038431 34.891844 
L 370.201057 33.418873 
L 373.363684 31.945902 
L 376.52631 30.472931 
L 379.688936 28.99996 
L 382.851562 27.526989 
" clip-path="url(#p382120a3a6)" style="fill: none; stroke-dasharray: 5.55,2.4; stroke-dashoffset: 0; stroke: #f577a7; stroke-width: 1.5"/>
   </g>
   <g id="patch_3">
    <path d="M 54.096563 311.56 
L 54.096563 7.2 
" style="fill: none; stroke: #000000; stroke-width: 0.8; stroke-linejoin: miter; stroke-linecap: square"/>
   </g>
   <g id="patch_4">
    <path d="M 398.506562 311.56 
L 398.506562 7.2 
" style="fill: none; stroke: #000000; stroke-width: 0.8; stroke-linejoin: miter; stroke-linecap: square"/>
   </g>
   <g id="patch_5">
    <path d="M 54.096563 311.56 
L 398.506563 311.56 
" style="fill: none; stroke: #000000; stroke-width: 0.8; stroke-linejoin: miter; stroke-linecap: square"/>
   </g>
   <g id="patch_6">
    <path d="M 54.096563 7.2 
L 398.506563 7.2 
" style="fill: none; stroke: #000000; stroke-width: 0.8; stroke-linejoin: miter; stroke-linecap: square"/>
   </g>
   <g id="PathCollection_1">
    <defs>
     <path id="m203b866e86" d="M 0 3.162278 
C 0.838646 3.162278 1.643056 2.82908 2.236068 2.236068 
C 2.82908 1.643056 3.162278 0.838646 3.162278 0 
C 3.162278 -0.838646 2.82908 -1.643056 2.236068 -2.236068 
C 1.643056 -2.82908 0.838646 -3.162278 0 -3.162278 
C -0.838646 -3.162278 -1.643056 -2.82908 -2.236068 -2.236068 
C -2.82908 -1.643056 -3.162278 -0.838646 -3.162278 0 
C -3.162278 0.838646 -2.82908 1.643056 -2.236068 2.236068 
C -1.643056 2.82908 -0.838646 3.162278 0 3.162278 
z
" style="stroke: #ffffff; stroke-opacity: 0.8; stroke-width: 0.5"/>
    </defs>
    <g clip-path="url(#p382120a3a6)">
     <use xlink:href="#m203b866e86" x="143.24903" y="223.324708" style="fill: #800080; fill-opacity: 0.8; stroke: #ffffff; stroke-opacity: 0.8; stroke-width: 0.5"/>
     <use xlink:href="#m203b866e86" x="382.851562" y="99.31762" style="fill: #800080; fill-opacity: 0.8; stroke: #ffffff; stroke-opacity: 0.8; stroke-width: 0.5"/>
     <use xlink:href="#m203b866e86" x="195.8177" y="42.157994" style="fill: #800080; fill-opacity: 0.8; stroke: #ffffff; stroke-opacity: 0.8; stroke-width: 0.5"/>
     <use xlink:href="#m203b866e86" x="69.751563" y="186.044351" style="fill: #800080; fill-opacity: 0.8; stroke: #ffffff; stroke-opacity: 0.8; stroke-width: 0.5"/>
     <use xlink:href="#m203b866e86" x="118.689043" y="297.725455" style="fill: #800080; fill-opacity: 0.8; stroke: #ffffff; stroke-opacity: 0.8; stroke-width: 0.5"/>
     <use xlink:href="#m203b866e86" x="70.240427" y="66.652429" style="fill: #800080; fill-opacity: 0.8; stroke: #ffffff; stroke-opacity: 0.8; stroke-width: 0.5"/>
     <use xlink:href="#m203b866e86" x="141.852582" y="262.422405" style="fill: #800080; fill-opacity: 0.8; stroke: #ffffff; stroke-opacity: 0.8; stroke-width: 0.5"/>
     <use xlink:href="#m203b866e86" x="221.231868" y="102.692631" style="fill: #800080; fill-opacity: 0.8; stroke: #ffffff; stroke-opacity: 0.8; stroke-width: 0.5"/>
     <use xlink:href="#m203b866e86" x="253.429092" y="21.034545" style="fill: #800080; fill-opacity: 0.8; stroke: #ffffff; stroke-opacity: 0.8; stroke-width: 0.5"/>
     <use xlink:href="#m203b866e86" x="119.273139" y="118.15195" style="fill: #800080; fill-opacity: 0.8; stroke: #ffffff; stroke-opacity: 0.8; stroke-width: 0.5"/>
     <use xlink:href="#m203b866e86" x="195.839851" y="81.424662" style="fill: #800080; fill-opacity: 0.8; stroke: #ffffff; stroke-opacity: 0.8; stroke-width: 0.5"/>
     <use xlink:href="#m203b866e86" x="160.845043" y="82.419751" style="fill: #800080; fill-opacity: 0.8; stroke: #ffffff; stroke-opacity: 0.8; stroke-width: 0.5"/>
     <use xlink:href="#m203b866e86" x="193.80319" y="72.965973" style="fill: #800080; fill-opacity: 0.8; stroke: #ffffff; stroke-opacity: 0.8; stroke-width: 0.5"/>
     <use xlink:href="#m203b866e86" x="190.723516" y="108.9346" style="fill: #800080; fill-opacity: 0.8; stroke: #ffffff; stroke-opacity: 0.8; stroke-width: 0.5"/>
     <use xlink:href="#m203b866e86" x="143.015129" y="191.579375" style="fill: #800080; fill-opacity: 0.8; stroke: #ffffff; stroke-opacity: 0.8; stroke-width: 0.5"/>
     <use xlink:href="#m203b866e86" x="115.947062" y="291.391904" style="fill: #800080; fill-opacity: 0.8; stroke: #ffffff; stroke-opacity: 0.8; stroke-width: 0.5"/>
     <use xlink:href="#m203b866e86" x="118.370067" y="35.579" style="fill: #800080; fill-opacity: 0.8; stroke: #ffffff; stroke-opacity: 0.8; stroke-width: 0.5"/>
     <use xlink:href="#m203b866e86" x="186.399751" y="55.589725" style="fill: #800080; fill-opacity: 0.8; stroke: #ffffff; stroke-opacity: 0.8; stroke-width: 0.5"/>
     <use xlink:href="#m203b866e86" x="160.45004" y="50.283891" style="fill: #800080; fill-opacity: 0.8; stroke: #ffffff; stroke-opacity: 0.8; stroke-width: 0.5"/>
     <use xlink:href="#m203b866e86" x="152.694432" y="174.047453" style="fill: #800080; fill-opacity: 0.8; stroke: #ffffff; stroke-opacity: 0.8; stroke-width: 0.5"/>
    </g>
   </g>
   <g id="text_15">
    <!-- Mic1 -->
    <g transform="translate(142.24903 219.324708) scale(0.08 -0.08)">
     <defs>
      <path id="DejaVuSans-4d" d="M 628 4666 
L 1569 4666 
L 2759 1491 
L 3956 4666 
L 4897 4666 
L 4897 0 
L 4281 0 
L 4281 4097 
L 3078 897 
L 2444 897 
L 1241 4097 
L 1241 0 
L 628 0 
L 628 4666 
z
" transform="scale(0.015625)"/>
      <path id="DejaVuSans-69" d="M 603 3500 
L 1178 3500 
L 1178 0 
L 603 0 
L 603 3500 
z
M 603 4863 
L 1178 4863 
L 1178 4134 
L 603 4134 
L 603 4863 
z
" transform="scale(0.015625)"/>
      <path id="DejaVuSans-63" d="M 3122 3366 
L 3122 2828 
Q 2878 2963 2633 3030 
Q 2388 3097 2138 3097 
Q 1578 3097 1268 2742 
Q 959 2388 959 1747 
Q 959 1106 1268 751 
Q 1578 397 2138 397 
Q 2388 397 2633 464 
Q 2878 531 3122 666 
L 3122 134 
Q 2881 22 2623 -34 
Q 2366 -91 2075 -91 
Q 1284 -91 818 406 
Q 353 903 353 1747 
Q 353 2603 823 3093 
Q 1294 3584 2113 3584 
Q 2378 3584 2631 3529 
Q 2884 3475 3122 3366 
z
" transform="scale(0.015625)"/>
     </defs>
     <use xlink:href="#DejaVuSans-4d"/>
     <use xlink:href="#DejaVuSans-69" x="86.279297"/>
     <use xlink:href="#DejaVuSans-63" x="114.0625"/>
     <use xlink:href="#DejaVuSans-31" x="169.042969"/>
    </g>
   </g>
   <g id="text_16">
    <!-- Mic2 -->
    <g transform="translate(381.851562 95.31762) scale(0.08 -0.08)">
     <use xlink:href="#DejaVuSans-4d"/>
     <use xlink:href="#DejaVuSans-69" x="86.279297"/>
     <use xlink:href="#DejaVuSans-63" x="114.0625"/>
     <use xlink:href="#DejaVuSans-32" x="169.042969"/>
    </g>
   </g>
   <g id="text_17">
    <!-- Mic3 -->
    <g transform="translate(194.8177 38.157994) scale(0.08 -0.08)">
     <use xlink:href="#DejaVuSans-4d"/>
     <use xlink:href="#DejaVuSans-69" x="86.279297"/>
     <use xlink:href="#DejaVuSans-63" x="114.0625"/>
     <use xlink:href="#DejaVuSans-33" x="169.042969"/>
    </g>
   </g>
   <g id="text_18">
    <!-- Mic4 -->
    <g transform="translate(68.751563 182.044351) scale(0.08 -0.08)">
     <use xlink:href="#DejaVuSans-4d"/>
     <use xlink:href="#DejaVuSans-69" x="86.279297"/>
     <use xlink:href="#DejaVuSans-63" x="114.0625"/>
     <use xlink:href="#DejaVuSans-34" x="169.042969"/>
    </g>
   </g>
   <g id="text_19">
    <!-- Mic5 -->
    <g transform="translate(117.689043 293.725455) scale(0.08 -0.08)">
     <use xlink:href="#DejaVuSans-4d"/>
     <use xlink:href="#DejaVuSans-69" x="86.279297"/>
     <use xlink:href="#DejaVuSans-63" x="114.0625"/>
     <use xlink:href="#DejaVuSans-35" x="169.042969"/>
    </g>
   </g>
   <g id="text_20">
    <!-- Mic6 -->
    <g transform="translate(69.240427 62.652429) scale(0.08 -0.08)">
     <defs>
      <path id="DejaVuSans-36" d="M 2113 2584 
Q 1688 2584 1439 2293 
Q 1191 2003 1191 1497 
Q 1191 994 1439 701 
Q 1688 409 2113 409 
Q 2538 409 2786 701 
Q 3034 994 3034 1497 
Q 3034 2003 2786 2293 
Q 2538 2584 2113 2584 
z
M 3366 4563 
L 3366 3988 
Q 3128 4100 2886 4159 
Q 2644 4219 2406 4219 
Q 1781 4219 1451 3797 
Q 1122 3375 1075 2522 
Q 1259 2794 1537 2939 
Q 1816 3084 2150 3084 
Q 2853 3084 3261 2657 
Q 3669 2231 3669 1497 
Q 3669 778 3244 343 
Q 2819 -91 2113 -91 
Q 1303 -91 875 529 
Q 447 1150 447 2328 
Q 447 3434 972 4092 
Q 1497 4750 2381 4750 
Q 2619 4750 2861 4703 
Q 3103 4656 3366 4563 
z
" transform="scale(0.015625)"/>
     </defs>
     <use xlink:href="#DejaVuSans-4d"/>
     <use xlink:href="#DejaVuSans-69" x="86.279297"/>
     <use xlink:href="#DejaVuSans-63" x="114.0625"/>
     <use xlink:href="#DejaVuSans-36" x="169.042969"/>
    </g>
   </g>
   <g id="text_21">
    <!-- Mic8 -->
    <g transform="translate(140.852582 258.422405) scale(0.08 -0.08)">
     <defs>
      <path id="DejaVuSans-38" d="M 2034 2216 
Q 1584 2216 1326 1975 
Q 1069 1734 1069 1313 
Q 1069 891 1326 650 
Q 1584 409 2034 409 
Q 2484 409 2743 651 
Q 3003 894 3003 1313 
Q 3003 1734 2745 1975 
Q 2488 2216 2034 2216 
z
M 1403 2484 
Q 997 2584 770 2862 
Q 544 3141 544 3541 
Q 544 4100 942 4425 
Q 1341 4750 2034 4750 
Q 2731 4750 3128 4425 
Q 3525 4100 3525 3541 
Q 3525 3141 3298 2862 
Q 3072 2584 2669 2484 
Q 3125 2378 3379 2068 
Q 3634 1759 3634 1313 
Q 3634 634 3220 271 
Q 2806 -91 2034 -91 
Q 1263 -91 848 271 
Q 434 634 434 1313 
Q 434 1759 690 2068 
Q 947 2378 1403 2484 
z
M 1172 3481 
Q 1172 3119 1398 2916 
Q 1625 2713 2034 2713 
Q 2441 2713 2670 2916 
Q 2900 3119 2900 3481 
Q 2900 3844 2670 4047 
Q 2441 4250 2034 4250 
Q 1625 4250 1398 4047 
Q 1172 3844 1172 3481 
z
" transform="scale(0.015625)"/>
     </defs>
     <use xlink:href="#DejaVuSans-4d"/>
     <use xlink:href="#DejaVuSans-69" x="86.279297"/>
     <use xlink:href="#DejaVuSans-63" x="114.0625"/>
     <use xlink:href="#DejaVuSans-38" x="169.042969"/>
    </g>
   </g>
   <g id="text_22">
    <!-- Mic9 -->
    <g transform="translate(220.231868 98.692631) scale(0.08 -0.08)">
     <defs>
      <path id="DejaVuSans-39" d="M 703 97 
L 703 672 
Q 941 559 1184 500 
Q 1428 441 1663 441 
Q 2288 441 2617 861 
Q 2947 1281 2994 2138 
Q 2813 1869 2534 1725 
Q 2256 1581 1919 1581 
Q 1219 1581 811 2004 
Q 403 2428 403 3163 
Q 403 3881 828 4315 
Q 1253 4750 1959 4750 
Q 2769 4750 3195 4129 
Q 3622 3509 3622 2328 
Q 3622 1225 3098 567 
Q 2575 -91 1691 -91 
Q 1453 -91 1209 -44 
Q 966 3 703 97 
z
M 1959 2075 
Q 2384 2075 2632 2365 
Q 2881 2656 2881 3163 
Q 2881 3666 2632 3958 
Q 2384 4250 1959 4250 
Q 1534 4250 1286 3958 
Q 1038 3666 1038 3163 
Q 1038 2656 1286 2365 
Q 1534 2075 1959 2075 
z
" transform="scale(0.015625)"/>
     </defs>
     <use xlink:href="#DejaVuSans-4d"/>
     <use xlink:href="#DejaVuSans-69" x="86.279297"/>
     <use xlink:href="#DejaVuSans-63" x="114.0625"/>
     <use xlink:href="#DejaVuSans-39" x="169.042969"/>
    </g>
   </g>
   <g id="text_23">
    <!-- Mic10 -->
    <g transform="translate(252.429092 17.034545) scale(0.08 -0.08)">
     <use xlink:href="#DejaVuSans-4d"/>
     <use xlink:href="#DejaVuSans-69" x="86.279297"/>
     <use xlink:href="#DejaVuSans-63" x="114.0625"/>
     <use xlink:href="#DejaVuSans-31" x="169.042969"/>
     <use xlink:href="#DejaVuSans-30" x="232.666016"/>
    </g>
   </g>
   <g id="text_24">
    <!-- Mic11 -->
    <g transform="translate(118.273139 114.15195) scale(0.08 -0.08)">
     <use xlink:href="#DejaVuSans-4d"/>
     <use xlink:href="#DejaVuSans-69" x="86.279297"/>
     <use xlink:href="#DejaVuSans-63" x="114.0625"/>
     <use xlink:href="#DejaVuSans-31" x="169.042969"/>
     <use xlink:href="#DejaVuSans-31" x="232.666016"/>
    </g>
   </g>
   <g id="text_25">
    <!-- Mic12 -->
    <g transform="translate(194.839851 77.424662) scale(0.08 -0.08)">
     <use xlink:href="#DejaVuSans-4d"/>
     <use xlink:href="#DejaVuSans-69" x="86.279297"/>
     <use xlink:href="#DejaVuSans-63" x="114.0625"/>
     <use xlink:href="#DejaVuSans-31" x="169.042969"/>
     <use xlink:href="#DejaVuSans-32" x="232.666016"/>
    </g>
   </g>
   <g id="text_26">
    <!-- Mic13 -->
    <g transform="translate(159.845043 78.419751) scale(0.08 -0.08)">
     <use xlink:href="#DejaVuSans-4d"/>
     <use xlink:href="#DejaVuSans-69" x="86.279297"/>
     <use xlink:href="#DejaVuSans-63" x="114.0625"/>
     <use xlink:href="#DejaVuSans-31" x="169.042969"/>
     <use xlink:href="#DejaVuSans-33" x="232.666016"/>
    </g>
   </g>
   <g id="text_27">
    <!-- Mic14 -->
    <g transform="translate(192.80319 68.965973) scale(0.08 -0.08)">
     <use xlink:href="#DejaVuSans-4d"/>
     <use xlink:href="#DejaVuSans-69" x="86.279297"/>
     <use xlink:href="#DejaVuSans-63" x="114.0625"/>
     <use xlink:href="#DejaVuSans-31" x="169.042969"/>
     <use xlink:href="#DejaVuSans-34" x="232.666016"/>
    </g>
   </g>
   <g id="text_28">
    <!-- Mic15 -->
    <g transform="translate(189.723516 104.9346) scale(0.08 -0.08)">
     <use xlink:href="#DejaVuSans-4d"/>
     <use xlink:href="#DejaVuSans-69" x="86.279297"/>
     <use xlink:href="#DejaVuSans-63" x="114.0625"/>
     <use xlink:href="#DejaVuSans-31" x="169.042969"/>
     <use xlink:href="#DejaVuSans-35" x="232.666016"/>
    </g>
   </g>
   <g id="text_29">
    <!-- Mic16 -->
    <g transform="translate(142.015129 187.579375) scale(0.08 -0.08)">
     <use xlink:href="#DejaVuSans-4d"/>
     <use xlink:href="#DejaVuSans-69" x="86.279297"/>
     <use xlink:href="#DejaVuSans-63" x="114.0625"/>
     <use xlink:href="#DejaVuSans-31" x="169.042969"/>
     <use xlink:href="#DejaVuSans-36" x="232.666016"/>
    </g>
   </g>
   <g id="text_30">
    <!-- Mic17 -->
    <g transform="translate(114.947062 287.391904) scale(0.08 -0.08)">
     <defs>
      <path id="DejaVuSans-37" d="M 525 4666 
L 3525 4666 
L 3525 4397 
L 1831 0 
L 1172 0 
L 2766 4134 
L 525 4134 
L 525 4666 
z
" transform="scale(0.015625)"/>
     </defs>
     <use xlink:href="#DejaVuSans-4d"/>
     <use xlink:href="#DejaVuSans-69" x="86.279297"/>
     <use xlink:href="#DejaVuSans-63" x="114.0625"/>
     <use xlink:href="#DejaVuSans-31" x="169.042969"/>
     <use xlink:href="#DejaVuSans-37" x="232.666016"/>
    </g>
   </g>
   <g id="text_31">
    <!-- Mic18 -->
    <g transform="translate(117.370067 31.579) scale(0.08 -0.08)">
     <use xlink:href="#DejaVuSans-4d"/>
     <use xlink:href="#DejaVuSans-69" x="86.279297"/>
     <use xlink:href="#DejaVuSans-63" x="114.0625"/>
     <use xlink:href="#DejaVuSans-31" x="169.042969"/>
     <use xlink:href="#DejaVuSans-38" x="232.666016"/>
    </g>
   </g>
   <g id="text_32">
    <!-- Mic19 -->
    <g transform="translate(185.399751 51.589725) scale(0.08 -0.08)">
     <use xlink:href="#DejaVuSans-4d"/>
     <use xlink:href="#DejaVuSans-69" x="86.279297"/>
     <use xlink:href="#DejaVuSans-63" x="114.0625"/>
     <use xlink:href="#DejaVuSans-31" x="169.042969"/>
     <use xlink:href="#DejaVuSans-39" x="232.666016"/>
    </g>
   </g>
   <g id="text_33">
    <!-- Mic20 -->
    <g transform="translate(159.45004 46.283891) scale(0.08 -0.08)">
     <use xlink:href="#DejaVuSans-4d"/>
     <use xlink:href="#DejaVuSans-69" x="86.279297"/>
     <use xlink:href="#DejaVuSans-63" x="114.0625"/>
     <use xlink:href="#DejaVuSans-32" x="169.042969"/>
     <use xlink:href="#DejaVuSans-30" x="232.666016"/>
    </g>
   </g>
   <g id="text_34">
    <!-- Mic21 -->
    <g transform="translate(151.694432 170.047453) scale(0.08 -0.08)">
     <use xlink:href="#DejaVuSans-4d"/>
     <use xlink:href="#DejaVuSans-69" x="86.279297"/>
     <use xlink:href="#DejaVuSans-63" x="114.0625"/>
     <use xlink:href="#DejaVuSans-32" x="169.042969"/>
     <use xlink:href="#DejaVuSans-31" x="232.666016"/>
    </g>
   </g>
   <g id="text_35">
    <g id="patch_7">
     <path d="M 312.404063 304.999937 
L 414.1775 304.999937 
Q 417.1775 304.999937 417.1775 301.999937 
L 417.1775 281.124 
Q 417.1775 278.124 414.1775 278.124 
L 312.404063 278.124 
Q 309.404063 278.124 309.404063 281.124 
L 309.404063 301.999937 
Q 309.404063 304.999937 312.404063 304.999937 
z
" style="fill: #ffffe0; stroke: #808080; stroke-linejoin: miter"/>
    </g>
    <!-- Spearman r = 0.447 -->
    <g transform="translate(312.404063 288.722438) scale(0.1 -0.1)">
     <defs>
      <path id="DejaVuSans-53" d="M 3425 4513 
L 3425 3897 
Q 3066 4069 2747 4153 
Q 2428 4238 2131 4238 
Q 1616 4238 1336 4038 
Q 1056 3838 1056 3469 
Q 1056 3159 1242 3001 
Q 1428 2844 1947 2747 
L 2328 2669 
Q 3034 2534 3370 2195 
Q 3706 1856 3706 1288 
Q 3706 609 3251 259 
Q 2797 -91 1919 -91 
Q 1588 -91 1214 -16 
Q 841 59 441 206 
L 441 856 
Q 825 641 1194 531 
Q 1563 422 1919 422 
Q 2459 422 2753 634 
Q 3047 847 3047 1241 
Q 3047 1584 2836 1778 
Q 2625 1972 2144 2069 
L 1759 2144 
Q 1053 2284 737 2584 
Q 422 2884 422 3419 
Q 422 4038 858 4394 
Q 1294 4750 2059 4750 
Q 2388 4750 2728 4690 
Q 3069 4631 3425 4513 
z
" transform="scale(0.015625)"/>
      <path id="DejaVuSans-70" d="M 1159 525 
L 1159 -1331 
L 581 -1331 
L 581 3500 
L 1159 3500 
L 1159 2969 
Q 1341 3281 1617 3432 
Q 1894 3584 2278 3584 
Q 2916 3584 3314 3078 
Q 3713 2572 3713 1747 
Q 3713 922 3314 415 
Q 2916 -91 2278 -91 
Q 1894 -91 1617 61 
Q 1341 213 1159 525 
z
M 3116 1747 
Q 3116 2381 2855 2742 
Q 2594 3103 2138 3103 
Q 1681 3103 1420 2742 
Q 1159 2381 1159 1747 
Q 1159 1113 1420 752 
Q 1681 391 2138 391 
Q 2594 391 2855 752 
Q 3116 1113 3116 1747 
z
" transform="scale(0.015625)"/>
      <path id="DejaVuSans-65" d="M 3597 1894 
L 3597 1613 
L 953 1613 
Q 991 1019 1311 708 
Q 1631 397 2203 397 
Q 2534 397 2845 478 
Q 3156 559 3463 722 
L 3463 178 
Q 3153 47 2828 -22 
Q 2503 -91 2169 -91 
Q 1331 -91 842 396 
Q 353 884 353 1716 
Q 353 2575 817 3079 
Q 1281 3584 2069 3584 
Q 2775 3584 3186 3129 
Q 3597 2675 3597 1894 
z
M 3022 2063 
Q 3016 2534 2758 2815 
Q 2500 3097 2075 3097 
Q 1594 3097 1305 2825 
Q 1016 2553 972 2059 
L 3022 2063 
z
" transform="scale(0.015625)"/>
      <path id="DejaVuSans-61" d="M 2194 1759 
Q 1497 1759 1228 1600 
Q 959 1441 959 1056 
Q 959 750 1161 570 
Q 1363 391 1709 391 
Q 2188 391 2477 730 
Q 2766 1069 2766 1631 
L 2766 1759 
L 2194 1759 
z
M 3341 1997 
L 3341 0 
L 2766 0 
L 2766 531 
Q 2569 213 2275 61 
Q 1981 -91 1556 -91 
Q 1019 -91 701 211 
Q 384 513 384 1019 
Q 384 1609 779 1909 
Q 1175 2209 1959 2209 
L 2766 2209 
L 2766 2266 
Q 2766 2663 2505 2880 
Q 2244 3097 1772 3097 
Q 1472 3097 1187 3025 
Q 903 2953 641 2809 
L 641 3341 
Q 956 3463 1253 3523 
Q 1550 3584 1831 3584 
Q 2591 3584 2966 3190 
Q 3341 2797 3341 1997 
z
" transform="scale(0.015625)"/>
      <path id="DejaVuSans-72" d="M 2631 2963 
Q 2534 3019 2420 3045 
Q 2306 3072 2169 3072 
Q 1681 3072 1420 2755 
Q 1159 2438 1159 1844 
L 1159 0 
L 581 0 
L 581 3500 
L 1159 3500 
L 1159 2956 
Q 1341 3275 1631 3429 
Q 1922 3584 2338 3584 
Q 2397 3584 2469 3576 
Q 2541 3569 2628 3553 
L 2631 2963 
z
" transform="scale(0.015625)"/>
      <path id="DejaVuSans-6d" d="M 3328 2828 
Q 3544 3216 3844 3400 
Q 4144 3584 4550 3584 
Q 5097 3584 5394 3201 
Q 5691 2819 5691 2113 
L 5691 0 
L 5113 0 
L 5113 2094 
Q 5113 2597 4934 2840 
Q 4756 3084 4391 3084 
Q 3944 3084 3684 2787 
Q 3425 2491 3425 1978 
L 3425 0 
L 2847 0 
L 2847 2094 
Q 2847 2600 2669 2842 
Q 2491 3084 2119 3084 
Q 1678 3084 1418 2786 
Q 1159 2488 1159 1978 
L 1159 0 
L 581 0 
L 581 3500 
L 1159 3500 
L 1159 2956 
Q 1356 3278 1631 3431 
Q 1906 3584 2284 3584 
Q 2666 3584 2933 3390 
Q 3200 3197 3328 2828 
z
" transform="scale(0.015625)"/>
      <path id="DejaVuSans-6e" d="M 3513 2113 
L 3513 0 
L 2938 0 
L 2938 2094 
Q 2938 2591 2744 2837 
Q 2550 3084 2163 3084 
Q 1697 3084 1428 2787 
Q 1159 2491 1159 1978 
L 1159 0 
L 581 0 
L 581 3500 
L 1159 3500 
L 1159 2956 
Q 1366 3272 1645 3428 
Q 1925 3584 2291 3584 
Q 2894 3584 3203 3211 
Q 3513 2838 3513 2113 
z
" transform="scale(0.015625)"/>
      <path id="DejaVuSans-20" transform="scale(0.015625)"/>
      <path id="DejaVuSans-3d" d="M 678 2906 
L 4684 2906 
L 4684 2381 
L 678 2381 
L 678 2906 
z
M 678 1631 
L 4684 1631 
L 4684 1100 
L 678 1100 
L 678 1631 
z
" transform="scale(0.015625)"/>
     </defs>
     <use xlink:href="#DejaVuSans-53"/>
     <use xlink:href="#DejaVuSans-70" x="63.476562"/>
     <use xlink:href="#DejaVuSans-65" x="126.953125"/>
     <use xlink:href="#DejaVuSans-61" x="188.476562"/>
     <use xlink:href="#DejaVuSans-72" x="249.755859"/>
     <use xlink:href="#DejaVuSans-6d" x="289.119141"/>
     <use xlink:href="#DejaVuSans-61" x="386.53125"/>
     <use xlink:href="#DejaVuSans-6e" x="447.810547"/>
     <use xlink:href="#DejaVuSans-20" x="511.189453"/>
     <use xlink:href="#DejaVuSans-72" x="542.976562"/>
     <use xlink:href="#DejaVuSans-20" x="584.089844"/>
     <use xlink:href="#DejaVuSans-3d" x="615.876953"/>
     <use xlink:href="#DejaVuSans-20" x="699.666016"/>
     <use xlink:href="#DejaVuSans-30" x="731.453125"/>
     <use xlink:href="#DejaVuSans-2e" x="795.076172"/>
     <use xlink:href="#DejaVuSans-34" x="826.863281"/>
     <use xlink:href="#DejaVuSans-34" x="890.486328"/>
     <use xlink:href="#DejaVuSans-37" x="954.109375"/>
    </g>
    <!-- p = 4.84e-02 -->
    <g transform="translate(312.404063 299.92025) scale(0.1 -0.1)">
     <defs>
      <path id="DejaVuSans-2d" d="M 313 2009 
L 1997 2009 
L 1997 1497 
L 313 1497 
L 313 2009 
z
" transform="scale(0.015625)"/>
     </defs>
     <use xlink:href="#DejaVuSans-70"/>
     <use xlink:href="#DejaVuSans-20" x="63.476562"/>
     <use xlink:href="#DejaVuSans-3d" x="95.263672"/>
     <use xlink:href="#DejaVuSans-20" x="179.052734"/>
     <use xlink:href="#DejaVuSans-34" x="210.839844"/>
     <use xlink:href="#DejaVuSans-2e" x="274.462891"/>
     <use xlink:href="#DejaVuSans-38" x="306.25"/>
     <use xlink:href="#DejaVuSans-34" x="369.873047"/>
     <use xlink:href="#DejaVuSans-65" x="433.496094"/>
     <use xlink:href="#DejaVuSans-2d" x="495.019531"/>
     <use xlink:href="#DejaVuSans-30" x="531.103516"/>
     <use xlink:href="#DejaVuSans-32" x="594.726562"/>
    </g>
   </g>
  </g>
 </g>
 <defs>
  <clipPath id="p382120a3a6">
   <rect x="54.096563" y="7.2" width="344.41" height="304.36"/>
  </clipPath>
 </defs>
</svg>
