<?xml version="1.0" encoding="utf-8" standalone="no"?>
<!DOCTYPE svg PUBLIC "-//W3C//DTD SVG 1.1//EN"
  "http://www.w3.org/Graphics/SVG/1.1/DTD/svg11.dtd">
<svg xmlns:xlink="http://www.w3.org/1999/xlink" width="419.217557pt" height="347.29875pt" viewBox="0 0 419.217557 347.29875" xmlns="http://www.w3.org/2000/svg" version="1.1">
 <metadata>
  <rdf:RDF xmlns:dc="http://purl.org/dc/elements/1.1/" xmlns:cc="http://creativecommons.org/ns#" xmlns:rdf="http://www.w3.org/1999/02/22-rdf-syntax-ns#">
   <cc:Work>
    <dc:type rdf:resource="http://purl.org/dc/dcmitype/StillImage"/>
    <dc:date>2026-05-15T16:14:37.790776</dc:date>
    <dc:format>image/svg+xml</dc:format>
    <dc:creator>
     <cc:Agent>
      <dc:title>Matplotlib v3.9.4, https://matplotlib.org/</dc:title>
     </cc:Agent>
    </dc:creator>
   </cc:Work>
  </rdf:RDF>
 </metadata>
 <defs>
  <style type="text/css">*{stroke-linejoin: round; stroke-linecap: butt}</style>
 </defs>
 <g id="figure_1">
  <g id="patch_1">
   <path d="M 0 347.29875 
L 419.217557 347.29875 
L 419.217557 0 
L 0 0 
z
" style="fill: #ffffff"/>
  </g>
  <g id="axes_1">
   <g id="patch_2">
    <path d="M 50.849375 307.24 
L 412.017557 307.24 
L 412.017557 7.2 
L 50.849375 7.2 
z
" style="fill: #ffffff"/>
   </g>
   <g id="matplotlib.axis_1">
    <g id="xtick_1">
     <g id="line2d_1">
      <path d="M 116.699844 307.24 
L 116.699844 7.2 
" clip-path="url(#p8047b9a8e8)" style="fill: none; stroke: #b0b0b0; stroke-opacity: 0.3; stroke-width: 0.8; stroke-linecap: square"/>
     </g>
     <g id="line2d_2">
      <defs>
       <path id="mb3e7b4e0cc" d="M 0 0 
L 0 3.5 
" style="stroke: #000000; stroke-width: 0.8"/>
      </defs>
      <g>
       <use xlink:href="#mb3e7b4e0cc" x="116.699844" y="307.24" style="stroke: #000000; stroke-width: 0.8"/>
      </g>
     </g>
     <g id="text_1">
      <!-- 0.5 -->
      <g transform="translate(109.199844 322.566875) scale(0.12 -0.12)">
       <defs>
        <path id="LiberationSerif-30" d="M 2956 2113 
Q 2956 -63 1581 -63 
Q 919 -63 581 493 
Q 244 1050 244 2113 
Q 244 3153 581 3704 
Q 919 4256 1606 4256 
Q 2269 4256 2612 3711 
Q 2956 3166 2956 2113 
z
M 2381 2113 
Q 2381 3119 2190 3562 
Q 2000 4006 1581 4006 
Q 1175 4006 997 3587 
Q 819 3169 819 2113 
Q 819 1050 1000 617 
Q 1181 184 1581 184 
Q 1994 184 2187 639 
Q 2381 1094 2381 2113 
z
" transform="scale(0.015625)"/>
        <path id="LiberationSerif-2e" d="M 1178 288 
Q 1178 134 1070 21 
Q 963 -91 800 -91 
Q 638 -91 530 21 
Q 422 134 422 288 
Q 422 447 531 556 
Q 641 666 800 666 
Q 959 666 1068 556 
Q 1178 447 1178 288 
z
" transform="scale(0.015625)"/>
        <path id="LiberationSerif-35" d="M 1516 2450 
Q 2241 2450 2595 2153 
Q 2950 1856 2950 1247 
Q 2950 616 2565 276 
Q 2181 -63 1466 -63 
Q 872 -63 406 72 
L 372 953 
L 578 953 
L 719 366 
Q 856 291 1048 244 
Q 1241 197 1416 197 
Q 1909 197 2142 430 
Q 2375 663 2375 1216 
Q 2375 1603 2275 1801 
Q 2175 2000 1956 2094 
Q 1738 2188 1369 2188 
Q 1084 2188 813 2113 
L 513 2113 
L 513 4191 
L 2638 4191 
L 2638 3713 
L 794 3713 
L 794 2375 
Q 1131 2450 1516 2450 
z
" transform="scale(0.015625)"/>
       </defs>
       <use xlink:href="#LiberationSerif-30"/>
       <use xlink:href="#LiberationSerif-2e" x="50"/>
       <use xlink:href="#LiberationSerif-35" x="75"/>
      </g>
     </g>
    </g>
    <g id="xtick_2">
     <g id="line2d_3">
      <path d="M 195.184444 307.24 
L 195.184444 7.2 
" clip-path="url(#p8047b9a8e8)" style="fill: none; stroke: #b0b0b0; stroke-opacity: 0.3; stroke-width: 0.8; stroke-linecap: square"/>
     </g>
     <g id="line2d_4">
      <g>
       <use xlink:href="#mb3e7b4e0cc" x="195.184444" y="307.24" style="stroke: #000000; stroke-width: 0.8"/>
      </g>
     </g>
     <g id="text_2">
      <!-- 1.0 -->
      <g transform="translate(187.684444 322.566875) scale(0.12 -0.12)">
       <defs>
        <path id="LiberationSerif-31" d="M 1959 250 
L 2816 166 
L 2816 0 
L 563 0 
L 563 166 
L 1422 250 
L 1422 3669 
L 575 3366 
L 575 3531 
L 1797 4225 
L 1959 4225 
L 1959 250 
z
" transform="scale(0.015625)"/>
       </defs>
       <use xlink:href="#LiberationSerif-31"/>
       <use xlink:href="#LiberationSerif-2e" x="50"/>
       <use xlink:href="#LiberationSerif-30" x="75"/>
      </g>
     </g>
    </g>
    <g id="xtick_3">
     <g id="line2d_5">
      <path d="M 273.669045 307.24 
L 273.669045 7.2 
" clip-path="url(#p8047b9a8e8)" style="fill: none; stroke: #b0b0b0; stroke-opacity: 0.3; stroke-width: 0.8; stroke-linecap: square"/>
     </g>
     <g id="line2d_6">
      <g>
       <use xlink:href="#mb3e7b4e0cc" x="273.669045" y="307.24" style="stroke: #000000; stroke-width: 0.8"/>
      </g>
     </g>
     <g id="text_3">
      <!-- 1.5 -->
      <g transform="translate(266.169045 322.566875) scale(0.12 -0.12)">
       <use xlink:href="#LiberationSerif-31"/>
       <use xlink:href="#LiberationSerif-2e" x="50"/>
       <use xlink:href="#LiberationSerif-35" x="75"/>
      </g>
     </g>
    </g>
    <g id="xtick_4">
     <g id="line2d_7">
      <path d="M 352.153646 307.24 
L 352.153646 7.2 
" clip-path="url(#p8047b9a8e8)" style="fill: none; stroke: #b0b0b0; stroke-opacity: 0.3; stroke-width: 0.8; stroke-linecap: square"/>
     </g>
     <g id="line2d_8">
      <g>
       <use xlink:href="#mb3e7b4e0cc" x="352.153646" y="307.24" style="stroke: #000000; stroke-width: 0.8"/>
      </g>
     </g>
     <g id="text_4">
      <!-- 2.0 -->
      <g transform="translate(344.653646 322.566875) scale(0.12 -0.12)">
       <defs>
        <path id="LiberationSerif-32" d="M 2847 0 
L 281 0 
L 281 459 
L 863 988 
Q 1422 1478 1684 1781 
Q 1947 2084 2061 2406 
Q 2175 2728 2175 3144 
Q 2175 3550 1990 3762 
Q 1806 3975 1388 3975 
Q 1222 3975 1047 3929 
Q 872 3884 738 3809 
L 628 3297 
L 422 3297 
L 422 4103 
Q 991 4238 1388 4238 
Q 2075 4238 2420 3952 
Q 2766 3666 2766 3144 
Q 2766 2794 2630 2483 
Q 2494 2172 2212 1864 
Q 1931 1556 1281 1003 
Q 1003 766 691 481 
L 2847 481 
L 2847 0 
z
" transform="scale(0.015625)"/>
       </defs>
       <use xlink:href="#LiberationSerif-32"/>
       <use xlink:href="#LiberationSerif-2e" x="50"/>
       <use xlink:href="#LiberationSerif-30" x="75"/>
      </g>
     </g>
    </g>
    <g id="text_5">
     <!-- GWAS Gene Odds Ratio (Microglia Modules, Fisher Exact Test) -->
     <g transform="translate(67.142216 337.449375) scale(0.12 -0.12)">
      <defs>
       <path id="LiberationSerif-Bold-47" d="M 4394 219 
Q 4006 91 3493 14 
Q 2981 -63 2572 -63 
Q 1888 -63 1377 187 
Q 866 438 589 916 
Q 313 1394 313 2047 
Q 313 3100 914 3669 
Q 1516 4238 2631 4238 
Q 2903 4238 3126 4216 
Q 3350 4194 3544 4156 
Q 3738 4119 4256 3972 
L 4256 3009 
L 3975 3009 
L 3900 3553 
Q 3653 3722 3356 3815 
Q 3059 3909 2744 3909 
Q 2016 3909 1683 3456 
Q 1350 3003 1350 2053 
Q 1350 1169 1701 714 
Q 2053 259 2719 259 
Q 3081 259 3409 369 
L 3409 1581 
L 2872 1663 
L 2872 1894 
L 4803 1894 
L 4803 1663 
L 4394 1581 
L 4394 219 
z
" transform="scale(0.015625)"/>
       <path id="LiberationSerif-Bold-57" d="M 4691 -97 
L 4306 -97 
L 3263 2488 
L 2228 -97 
L 1844 -97 
L 456 3881 
L 91 3963 
L 91 4191 
L 1972 4191 
L 1972 3963 
L 1481 3881 
L 2375 1384 
L 3356 3834 
L 3747 3834 
L 4731 1391 
L 5472 3881 
L 4944 3963 
L 4944 4191 
L 6300 4191 
L 6300 3963 
L 5934 3881 
L 4691 -97 
z
" transform="scale(0.015625)"/>
       <path id="LiberationSerif-Bold-41" d="M 1338 228 
L 1338 0 
L 63 0 
L 63 228 
L 375 313 
L 1866 4225 
L 2772 4225 
L 4256 313 
L 4575 228 
L 4575 0 
L 2709 0 
L 2709 228 
L 3194 313 
L 2794 1397 
L 1184 1397 
L 800 313 
L 1338 228 
z
M 2003 3594 
L 1313 1741 
L 2675 1741 
L 2003 3594 
z
" transform="scale(0.015625)"/>
       <path id="LiberationSerif-Bold-53" d="M 341 1284 
L 616 1284 
L 756 613 
Q 888 459 1153 356 
Q 1419 253 1703 253 
Q 2600 253 2600 991 
Q 2600 1222 2429 1381 
Q 2259 1541 1894 1666 
Q 1356 1844 1120 1955 
Q 884 2066 721 2216 
Q 559 2366 462 2580 
Q 366 2794 366 3106 
Q 366 3659 742 3948 
Q 1119 4238 1844 4238 
Q 2369 4238 3006 4103 
L 3006 3106 
L 2728 3106 
L 2588 3681 
Q 2269 3913 1844 3913 
Q 1459 3913 1253 3770 
Q 1047 3628 1047 3334 
Q 1047 3125 1219 2976 
Q 1391 2828 1756 2713 
Q 2472 2478 2739 2304 
Q 3006 2131 3147 1875 
Q 3288 1619 3288 1272 
Q 3288 -63 1716 -63 
Q 1356 -63 982 -2 
Q 609 59 341 159 
L 341 1284 
z
" transform="scale(0.015625)"/>
       <path id="LiberationSerif-Bold-20" transform="scale(0.015625)"/>
       <path id="LiberationSerif-Bold-65" d="M 1544 3009 
Q 2141 3009 2408 2690 
Q 2675 2372 2675 1700 
L 2675 1444 
L 1134 1444 
L 1134 1394 
Q 1134 928 1209 731 
Q 1284 534 1453 431 
Q 1622 328 1916 328 
Q 2191 328 2609 419 
L 2609 178 
Q 2438 75 2164 8 
Q 1891 -59 1631 -59 
Q 909 -59 564 317 
Q 219 694 219 1484 
Q 219 2253 548 2631 
Q 878 3009 1544 3009 
z
M 1509 2694 
Q 1322 2694 1230 2491 
Q 1138 2288 1138 1772 
L 1819 1772 
Q 1819 2191 1791 2361 
Q 1763 2531 1695 2612 
Q 1628 2694 1509 2694 
z
" transform="scale(0.015625)"/>
       <path id="LiberationSerif-Bold-6e" d="M 1356 2681 
L 1569 2791 
Q 2006 3016 2356 3016 
Q 3169 3016 3169 2150 
L 3169 281 
L 3463 206 
L 3463 0 
L 2003 0 
L 2003 206 
L 2266 281 
L 2266 2028 
Q 2266 2291 2155 2437 
Q 2044 2584 1838 2584 
Q 1600 2584 1363 2478 
L 1363 281 
L 1631 206 
L 1631 0 
L 172 0 
L 172 206 
L 459 281 
L 459 2656 
L 172 2731 
L 172 2938 
L 1313 2938 
L 1356 2681 
z
" transform="scale(0.015625)"/>
       <path id="LiberationSerif-Bold-4f" d="M 1350 2100 
Q 1350 1103 1623 676 
Q 1897 250 2491 250 
Q 3081 250 3354 678 
Q 3628 1106 3628 2100 
Q 3628 3091 3354 3506 
Q 3081 3922 2491 3922 
Q 1897 3922 1623 3506 
Q 1350 3091 1350 2100 
z
M 313 2100 
Q 313 4238 2491 4238 
Q 3566 4238 4116 3695 
Q 4666 3153 4666 2100 
Q 4666 1034 4109 485 
Q 3553 -63 2491 -63 
Q 1431 -63 872 484 
Q 313 1031 313 2100 
z
" transform="scale(0.015625)"/>
       <path id="LiberationSerif-Bold-64" d="M 2291 166 
Q 2116 53 2022 17 
Q 1928 -19 1809 -41 
Q 1691 -63 1547 -63 
Q 897 -63 578 310 
Q 259 684 259 1459 
Q 259 2222 601 2619 
Q 944 3016 1594 3016 
Q 1934 3016 2281 2931 
Q 2263 3034 2263 3416 
L 2263 4159 
L 1963 4234 
L 1963 4441 
L 3166 4441 
L 3166 281 
L 3488 206 
L 3488 0 
L 2356 0 
L 2291 166 
z
M 1175 1484 
Q 1175 900 1322 592 
Q 1469 284 1744 284 
Q 1994 284 2263 419 
L 2263 2631 
Q 2019 2697 1769 2697 
Q 1488 2697 1331 2389 
Q 1175 2081 1175 1484 
z
" transform="scale(0.015625)"/>
       <path id="LiberationSerif-Bold-73" d="M 2334 931 
Q 2334 441 2032 189 
Q 1731 -63 1156 -63 
Q 919 -63 633 -11 
Q 347 41 200 97 
L 200 897 
L 406 897 
L 525 484 
Q 634 375 812 301 
Q 991 228 1175 228 
Q 1447 228 1580 345 
Q 1713 463 1713 644 
Q 1713 816 1584 919 
Q 1456 1022 1025 1156 
Q 572 1297 383 1540 
Q 194 1784 194 2141 
Q 194 2541 491 2778 
Q 788 3016 1256 3016 
Q 1578 3016 2122 2925 
L 2122 2172 
L 1916 2172 
L 1816 2516 
Q 1725 2606 1561 2664 
Q 1397 2722 1250 2722 
Q 1025 2722 917 2630 
Q 809 2538 809 2378 
Q 809 2213 943 2106 
Q 1078 2000 1497 1875 
Q 1953 1734 2143 1504 
Q 2334 1275 2334 931 
z
" transform="scale(0.015625)"/>
       <path id="LiberationSerif-Bold-52" d="M 1634 1775 
L 1634 313 
L 2172 228 
L 2172 0 
L 150 0 
L 150 228 
L 647 313 
L 647 3881 
L 109 3963 
L 109 4191 
L 2113 4191 
Q 3038 4191 3494 3906 
Q 3950 3622 3950 3019 
Q 3950 2119 3106 1863 
L 4225 313 
L 4678 228 
L 4678 0 
L 3322 0 
L 2153 1775 
L 1634 1775 
z
M 2975 3013 
Q 2975 3481 2781 3664 
Q 2588 3847 2072 3847 
L 1634 3847 
L 1634 2119 
L 2088 2119 
Q 2569 2119 2772 2319 
Q 2975 2519 2975 3013 
z
" transform="scale(0.015625)"/>
       <path id="LiberationSerif-Bold-61" d="M 1706 3003 
Q 2809 3003 2809 2191 
L 2809 281 
L 3103 206 
L 3103 0 
L 2022 0 
L 1953 225 
Q 1709 59 1512 -2 
Q 1316 -63 1116 -63 
Q 206 -63 206 813 
Q 206 1144 340 1342 
Q 475 1541 728 1636 
Q 981 1731 1525 1744 
L 1906 1753 
L 1906 2181 
Q 1906 2713 1472 2713 
Q 1209 2713 884 2550 
L 766 2184 
L 559 2184 
L 559 2894 
Q 1031 2966 1253 2984 
Q 1475 3003 1706 3003 
z
M 1906 1475 
L 1644 1466 
Q 1341 1453 1223 1306 
Q 1106 1159 1106 831 
Q 1106 566 1200 441 
Q 1294 316 1444 316 
Q 1656 316 1906 425 
L 1906 1475 
z
" transform="scale(0.015625)"/>
       <path id="LiberationSerif-Bold-74" d="M 1369 -63 
Q 947 -63 717 128 
Q 488 319 488 678 
L 488 2613 
L 103 2613 
L 103 2816 
L 556 2938 
L 922 3603 
L 1391 3603 
L 1391 2938 
L 2009 2938 
L 2009 2613 
L 1391 2613 
L 1391 734 
Q 1391 531 1475 428 
Q 1559 325 1697 325 
Q 1863 325 2103 375 
L 2103 109 
Q 2009 44 1782 -9 
Q 1556 -63 1369 -63 
z
" transform="scale(0.015625)"/>
       <path id="LiberationSerif-Bold-69" d="M 1363 281 
L 1684 206 
L 1684 0 
L 141 0 
L 141 206 
L 459 281 
L 459 2656 
L 159 2731 
L 159 2938 
L 1363 2938 
L 1363 281 
z
M 428 3963 
Q 428 4166 570 4303 
Q 713 4441 909 4441 
Q 1109 4441 1248 4302 
Q 1388 4163 1388 3963 
Q 1388 3766 1250 3623 
Q 1113 3481 909 3481 
Q 709 3481 568 3620 
Q 428 3759 428 3963 
z
" transform="scale(0.015625)"/>
       <path id="LiberationSerif-Bold-6f" d="M 2956 1484 
Q 2956 694 2617 315 
Q 2278 -63 1581 -63 
Q 906 -63 575 320 
Q 244 703 244 1484 
Q 244 2263 580 2639 
Q 916 3016 1606 3016 
Q 2303 3016 2629 2627 
Q 2956 2238 2956 1484 
z
M 2041 1484 
Q 2041 2172 1939 2436 
Q 1838 2700 1588 2700 
Q 1347 2700 1253 2447 
Q 1159 2194 1159 1484 
Q 1159 763 1254 506 
Q 1350 250 1588 250 
Q 1834 250 1937 520 
Q 2041 791 2041 1484 
z
" transform="scale(0.015625)"/>
       <path id="LiberationSerif-Bold-28" d="M 1134 1544 
Q 1134 803 1214 350 
Q 1294 -103 1467 -447 
Q 1641 -791 1925 -1006 
L 1925 -1363 
Q 1306 -1034 957 -645 
Q 609 -256 445 270 
Q 281 797 281 1547 
Q 281 2291 445 2816 
Q 609 3341 957 3728 
Q 1306 4116 1925 4441 
L 1925 4084 
Q 1641 3869 1469 3528 
Q 1297 3188 1215 2734 
Q 1134 2281 1134 1544 
z
" transform="scale(0.015625)"/>
       <path id="LiberationSerif-Bold-4d" d="M 2756 0 
L 2584 0 
L 1038 3541 
L 1038 313 
L 1600 228 
L 1600 0 
L 109 0 
L 109 228 
L 647 313 
L 647 3881 
L 109 3963 
L 109 4191 
L 1756 4191 
L 2953 1434 
L 4175 4191 
L 5856 4191 
L 5856 3963 
L 5319 3881 
L 5319 313 
L 5856 228 
L 5856 0 
L 3772 0 
L 3772 228 
L 4334 313 
L 4334 3541 
L 2756 0 
z
" transform="scale(0.015625)"/>
       <path id="LiberationSerif-Bold-63" d="M 2681 178 
Q 2541 66 2292 3 
Q 2044 -59 1781 -59 
Q 997 -59 608 319 
Q 219 697 219 1475 
Q 219 1959 395 2304 
Q 572 2650 900 2833 
Q 1228 3016 1663 3016 
Q 2100 3016 2616 2906 
L 2616 2038 
L 2391 2038 
L 2259 2553 
Q 2153 2631 2050 2662 
Q 1947 2694 1778 2694 
Q 1594 2694 1444 2547 
Q 1294 2400 1211 2133 
Q 1128 1866 1128 1494 
Q 1128 866 1323 597 
Q 1519 328 1944 328 
Q 2375 328 2681 419 
L 2681 178 
z
" transform="scale(0.015625)"/>
       <path id="LiberationSerif-Bold-72" d="M 1441 2328 
Q 1778 2703 2045 2867 
Q 2313 3031 2534 3031 
L 2703 3031 
L 2703 1959 
L 2528 1959 
L 2344 2353 
Q 2147 2353 1897 2267 
Q 1647 2181 1456 2066 
L 1456 281 
L 1928 206 
L 1928 0 
L 172 0 
L 172 206 
L 553 281 
L 553 2656 
L 172 2731 
L 172 2938 
L 1406 2938 
L 1441 2328 
z
" transform="scale(0.015625)"/>
       <path id="LiberationSerif-Bold-67" d="M 803 1084 
Q 247 1319 247 2000 
Q 247 2488 587 2752 
Q 928 3016 1563 3016 
Q 1697 3016 1908 2992 
Q 2119 2969 2216 2938 
L 2919 3284 
L 3028 3150 
L 2672 2644 
Q 2866 2406 2866 2000 
Q 2866 1503 2530 1236 
Q 2194 969 1550 969 
Q 1303 969 1072 1006 
L 997 769 
Q 1003 678 1112 598 
Q 1222 519 1381 519 
L 2066 519 
Q 3138 519 3138 -306 
Q 3138 -647 2952 -892 
Q 2766 -1138 2405 -1275 
Q 2044 -1413 1506 -1413 
Q 869 -1413 519 -1230 
Q 169 -1047 169 -728 
Q 169 -588 283 -456 
Q 397 -325 725 -134 
Q 541 -63 411 115 
Q 281 294 281 491 
L 803 1084 
z
M 2453 -519 
Q 2453 -222 2056 -222 
L 1066 -222 
Q 791 -422 791 -675 
Q 791 -875 983 -975 
Q 1175 -1075 1509 -1075 
Q 1963 -1075 2208 -928 
Q 2453 -781 2453 -519 
z
M 1544 1281 
Q 1775 1281 1878 1461 
Q 1981 1641 1981 2000 
Q 1981 2359 1879 2529 
Q 1778 2700 1544 2700 
Q 1328 2700 1229 2529 
Q 1131 2359 1131 2000 
Q 1131 1641 1228 1461 
Q 1325 1281 1544 1281 
z
" transform="scale(0.015625)"/>
       <path id="LiberationSerif-Bold-6c" d="M 1347 281 
L 1669 206 
L 1669 0 
L 125 0 
L 125 206 
L 444 281 
L 444 4159 
L 144 4234 
L 144 4441 
L 1347 4441 
L 1347 281 
z
" transform="scale(0.015625)"/>
       <path id="LiberationSerif-Bold-75" d="M 2203 256 
L 1991 147 
Q 1553 -78 1203 -78 
Q 391 -78 391 788 
L 391 2656 
L 97 2731 
L 97 2938 
L 1294 2938 
L 1294 909 
Q 1294 647 1405 500 
Q 1516 353 1722 353 
Q 1959 353 2197 459 
L 2197 2656 
L 1928 2731 
L 1928 2938 
L 3100 2938 
L 3100 281 
L 3388 206 
L 3388 0 
L 2247 0 
L 2203 256 
z
" transform="scale(0.015625)"/>
       <path id="LiberationSerif-Bold-2c" d="M 1356 331 
Q 1356 -156 1031 -492 
Q 706 -828 84 -991 
L 84 -703 
Q 281 -644 422 -547 
Q 563 -450 639 -333 
Q 716 -216 716 -109 
Q 716 -41 669 9 
Q 622 59 481 138 
Q 244 263 244 525 
Q 244 728 384 834 
Q 525 941 741 941 
Q 1006 941 1181 770 
Q 1356 600 1356 331 
z
" transform="scale(0.015625)"/>
       <path id="LiberationSerif-Bold-46" d="M 1631 1788 
L 1631 313 
L 2328 228 
L 2328 0 
L 150 0 
L 150 228 
L 647 313 
L 647 3881 
L 109 3963 
L 109 4191 
L 3603 4191 
L 3603 3063 
L 3309 3063 
L 3209 3803 
Q 3056 3825 2703 3836 
Q 2350 3847 2147 3847 
L 1631 3847 
L 1631 2131 
L 2653 2131 
L 2750 2663 
L 3028 2663 
L 3028 1250 
L 2750 1250 
L 2653 1788 
L 1631 1788 
z
" transform="scale(0.015625)"/>
       <path id="LiberationSerif-Bold-68" d="M 1363 3169 
Q 1363 2963 1344 2681 
L 1559 2791 
Q 2003 3016 2356 3016 
Q 3169 3016 3169 2150 
L 3169 281 
L 3463 206 
L 3463 0 
L 2003 0 
L 2003 206 
L 2266 281 
L 2266 2028 
Q 2266 2291 2155 2437 
Q 2044 2584 1838 2584 
Q 1600 2584 1363 2478 
L 1363 281 
L 1631 206 
L 1631 0 
L 172 0 
L 172 206 
L 459 281 
L 459 4159 
L 159 4234 
L 159 4441 
L 1363 4441 
L 1363 3169 
z
" transform="scale(0.015625)"/>
       <path id="LiberationSerif-Bold-45" d="M 109 228 
L 647 313 
L 647 3881 
L 109 3963 
L 109 4191 
L 3678 4191 
L 3678 3125 
L 3394 3125 
L 3294 3803 
Q 2944 3847 2281 3847 
L 1631 3847 
L 1631 2309 
L 2728 2309 
L 2825 2772 
L 3103 2772 
L 3103 1484 
L 2825 1484 
L 2728 1959 
L 1631 1959 
L 1631 344 
L 2422 344 
Q 3228 344 3478 394 
L 3656 1169 
L 3941 1169 
L 3881 0 
L 109 0 
L 109 228 
z
" transform="scale(0.015625)"/>
       <path id="LiberationSerif-Bold-78" d="M 97 2734 
L 97 2938 
L 1666 2938 
L 1666 2734 
L 1338 2650 
L 1766 1991 
L 2331 2656 
L 2038 2734 
L 2038 2938 
L 3038 2938 
L 3038 2734 
L 2778 2669 
L 1953 1700 
L 2884 269 
L 3166 203 
L 3166 0 
L 1597 0 
L 1597 203 
L 1925 275 
L 1413 1066 
L 731 269 
L 1025 203 
L 1025 0 
L 25 0 
L 25 203 
L 288 253 
L 1225 1353 
L 381 2656 
L 97 2734 
z
" transform="scale(0.015625)"/>
       <path id="LiberationSerif-Bold-54" d="M 969 0 
L 969 228 
L 1634 313 
L 1634 3859 
L 1475 3859 
Q 759 3859 469 3797 
L 384 3019 
L 100 3019 
L 100 4191 
L 4172 4191 
L 4172 3019 
L 3884 3019 
L 3800 3797 
Q 3541 3853 2775 3853 
L 2622 3853 
L 2622 313 
L 3288 228 
L 3288 0 
L 969 0 
z
" transform="scale(0.015625)"/>
       <path id="LiberationSerif-Bold-29" d="M 206 -1363 
L 206 -1006 
Q 491 -788 664 -444 
Q 838 -100 917 358 
Q 997 816 997 1544 
Q 997 2284 915 2737 
Q 834 3191 662 3528 
Q 491 3866 206 4084 
L 206 4441 
Q 831 4106 1178 3720 
Q 1525 3334 1687 2811 
Q 1850 2288 1850 1547 
Q 1850 800 1687 273 
Q 1525 -253 1176 -642 
Q 828 -1031 206 -1363 
z
" transform="scale(0.015625)"/>
      </defs>
      <use xlink:href="#LiberationSerif-Bold-47"/>
      <use xlink:href="#LiberationSerif-Bold-57" x="77.783203"/>
      <use xlink:href="#LiberationSerif-Bold-41" x="166.658203"/>
      <use xlink:href="#LiberationSerif-Bold-53" x="238.875"/>
      <use xlink:href="#LiberationSerif-Bold-20" x="294.490234"/>
      <use xlink:href="#LiberationSerif-Bold-47" x="319.490234"/>
      <use xlink:href="#LiberationSerif-Bold-65" x="397.273438"/>
      <use xlink:href="#LiberationSerif-Bold-6e" x="441.658203"/>
      <use xlink:href="#LiberationSerif-Bold-65" x="497.273438"/>
      <use xlink:href="#LiberationSerif-Bold-20" x="541.658203"/>
      <use xlink:href="#LiberationSerif-Bold-4f" x="566.658203"/>
      <use xlink:href="#LiberationSerif-Bold-64" x="644.441406"/>
      <use xlink:href="#LiberationSerif-Bold-64" x="700.056641"/>
      <use xlink:href="#LiberationSerif-Bold-73" x="755.671875"/>
      <use xlink:href="#LiberationSerif-Bold-20" x="794.587891"/>
      <use xlink:href="#LiberationSerif-Bold-52" x="819.587891"/>
      <use xlink:href="#LiberationSerif-Bold-61" x="891.804688"/>
      <use xlink:href="#LiberationSerif-Bold-74" x="941.804688"/>
      <use xlink:href="#LiberationSerif-Bold-69" x="975.105469"/>
      <use xlink:href="#LiberationSerif-Bold-6f" x="1002.888672"/>
      <use xlink:href="#LiberationSerif-Bold-20" x="1052.888672"/>
      <use xlink:href="#LiberationSerif-Bold-28" x="1077.888672"/>
      <use xlink:href="#LiberationSerif-Bold-4d" x="1111.189453"/>
      <use xlink:href="#LiberationSerif-Bold-69" x="1205.574219"/>
      <use xlink:href="#LiberationSerif-Bold-63" x="1233.357422"/>
      <use xlink:href="#LiberationSerif-Bold-72" x="1277.742188"/>
      <use xlink:href="#LiberationSerif-Bold-6f" x="1320.376953"/>
      <use xlink:href="#LiberationSerif-Bold-67" x="1370.376953"/>
      <use xlink:href="#LiberationSerif-Bold-6c" x="1420.376953"/>
      <use xlink:href="#LiberationSerif-Bold-69" x="1448.160156"/>
      <use xlink:href="#LiberationSerif-Bold-61" x="1475.943359"/>
      <use xlink:href="#LiberationSerif-Bold-20" x="1525.943359"/>
      <use xlink:href="#LiberationSerif-Bold-4d" x="1550.943359"/>
      <use xlink:href="#LiberationSerif-Bold-6f" x="1645.328125"/>
      <use xlink:href="#LiberationSerif-Bold-64" x="1695.328125"/>
      <use xlink:href="#LiberationSerif-Bold-75" x="1750.943359"/>
      <use xlink:href="#LiberationSerif-Bold-6c" x="1806.558594"/>
      <use xlink:href="#LiberationSerif-Bold-65" x="1834.341797"/>
      <use xlink:href="#LiberationSerif-Bold-73" x="1878.726562"/>
      <use xlink:href="#LiberationSerif-Bold-2c" x="1917.642578"/>
      <use xlink:href="#LiberationSerif-Bold-20" x="1942.642578"/>
      <use xlink:href="#LiberationSerif-Bold-46" x="1967.642578"/>
      <use xlink:href="#LiberationSerif-Bold-69" x="2028.726562"/>
      <use xlink:href="#LiberationSerif-Bold-73" x="2056.509766"/>
      <use xlink:href="#LiberationSerif-Bold-68" x="2095.425781"/>
      <use xlink:href="#LiberationSerif-Bold-65" x="2151.041016"/>
      <use xlink:href="#LiberationSerif-Bold-72" x="2195.425781"/>
      <use xlink:href="#LiberationSerif-Bold-20" x="2238.060547"/>
      <use xlink:href="#LiberationSerif-Bold-45" x="2263.060547"/>
      <use xlink:href="#LiberationSerif-Bold-78" x="2329.759766"/>
      <use xlink:href="#LiberationSerif-Bold-61" x="2379.759766"/>
      <use xlink:href="#LiberationSerif-Bold-63" x="2429.759766"/>
      <use xlink:href="#LiberationSerif-Bold-74" x="2474.144531"/>
      <use xlink:href="#LiberationSerif-Bold-20" x="2507.445312"/>
      <use xlink:href="#LiberationSerif-Bold-54" x="2530.695312"/>
      <use xlink:href="#LiberationSerif-Bold-65" x="2588.269531"/>
      <use xlink:href="#LiberationSerif-Bold-73" x="2632.654297"/>
      <use xlink:href="#LiberationSerif-Bold-74" x="2671.570312"/>
      <use xlink:href="#LiberationSerif-Bold-29" x="2704.871094"/>
     </g>
    </g>
   </g>
   <g id="matplotlib.axis_2">
    <g id="ytick_1">
     <g id="line2d_9">
      <path d="M 50.849375 284.73143 
L 412.017557 284.73143 
" clip-path="url(#p8047b9a8e8)" style="fill: none; stroke: #b0b0b0; stroke-opacity: 0.3; stroke-width: 0.8; stroke-linecap: square"/>
     </g>
     <g id="line2d_10">
      <defs>
       <path id="m04a7779461" d="M 0 0 
L -3.5 0 
" style="stroke: #000000; stroke-width: 0.8"/>
      </defs>
      <g>
       <use xlink:href="#m04a7779461" x="50.849375" y="284.73143" style="stroke: #000000; stroke-width: 0.8"/>
      </g>
     </g>
     <g id="text_6">
      <!-- −0.2 -->
      <g transform="translate(22.0825 288.894868) scale(0.12 -0.12)">
       <defs>
        <path id="LiberationSerif-2212" d="M 3297 2284 
L 3297 1966 
L 319 1966 
L 319 2284 
L 3297 2284 
z
" transform="scale(0.015625)"/>
       </defs>
       <use xlink:href="#LiberationSerif-2212"/>
       <use xlink:href="#LiberationSerif-30" x="56.396484"/>
       <use xlink:href="#LiberationSerif-2e" x="106.396484"/>
       <use xlink:href="#LiberationSerif-32" x="131.396484"/>
      </g>
     </g>
    </g>
    <g id="ytick_2">
     <g id="line2d_11">
      <path d="M 50.849375 248.271799 
L 412.017557 248.271799 
" clip-path="url(#p8047b9a8e8)" style="fill: none; stroke: #b0b0b0; stroke-opacity: 0.3; stroke-width: 0.8; stroke-linecap: square"/>
     </g>
     <g id="line2d_12">
      <g>
       <use xlink:href="#m04a7779461" x="50.849375" y="248.271799" style="stroke: #000000; stroke-width: 0.8"/>
      </g>
     </g>
     <g id="text_7">
      <!-- −0.1 -->
      <g transform="translate(22.0825 252.435236) scale(0.12 -0.12)">
       <use xlink:href="#LiberationSerif-2212"/>
       <use xlink:href="#LiberationSerif-30" x="56.396484"/>
       <use xlink:href="#LiberationSerif-2e" x="106.396484"/>
       <use xlink:href="#LiberationSerif-31" x="131.396484"/>
      </g>
     </g>
    </g>
    <g id="ytick_3">
     <g id="line2d_13">
      <path d="M 50.849375 211.812167 
L 412.017557 211.812167 
" clip-path="url(#p8047b9a8e8)" style="fill: none; stroke: #b0b0b0; stroke-opacity: 0.3; stroke-width: 0.8; stroke-linecap: square"/>
     </g>
     <g id="line2d_14">
      <g>
       <use xlink:href="#m04a7779461" x="50.849375" y="211.812167" style="stroke: #000000; stroke-width: 0.8"/>
      </g>
     </g>
     <g id="text_8">
      <!-- 0.0 -->
      <g transform="translate(28.849375 215.975605) scale(0.12 -0.12)">
       <use xlink:href="#LiberationSerif-30"/>
       <use xlink:href="#LiberationSerif-2e" x="50"/>
       <use xlink:href="#LiberationSerif-30" x="75"/>
      </g>
     </g>
    </g>
    <g id="ytick_4">
     <g id="line2d_15">
      <path d="M 50.849375 175.352536 
L 412.017557 175.352536 
" clip-path="url(#p8047b9a8e8)" style="fill: none; stroke: #b0b0b0; stroke-opacity: 0.3; stroke-width: 0.8; stroke-linecap: square"/>
     </g>
     <g id="line2d_16">
      <g>
       <use xlink:href="#m04a7779461" x="50.849375" y="175.352536" style="stroke: #000000; stroke-width: 0.8"/>
      </g>
     </g>
     <g id="text_9">
      <!-- 0.1 -->
      <g transform="translate(28.849375 179.515973) scale(0.12 -0.12)">
       <use xlink:href="#LiberationSerif-30"/>
       <use xlink:href="#LiberationSerif-2e" x="50"/>
       <use xlink:href="#LiberationSerif-31" x="75"/>
      </g>
     </g>
    </g>
    <g id="ytick_5">
     <g id="line2d_17">
      <path d="M 50.849375 138.892904 
L 412.017557 138.892904 
" clip-path="url(#p8047b9a8e8)" style="fill: none; stroke: #b0b0b0; stroke-opacity: 0.3; stroke-width: 0.8; stroke-linecap: square"/>
     </g>
     <g id="line2d_18">
      <g>
       <use xlink:href="#m04a7779461" x="50.849375" y="138.892904" style="stroke: #000000; stroke-width: 0.8"/>
      </g>
     </g>
     <g id="text_10">
      <!-- 0.2 -->
      <g transform="translate(28.849375 143.056342) scale(0.12 -0.12)">
       <use xlink:href="#LiberationSerif-30"/>
       <use xlink:href="#LiberationSerif-2e" x="50"/>
       <use xlink:href="#LiberationSerif-32" x="75"/>
      </g>
     </g>
    </g>
    <g id="ytick_6">
     <g id="line2d_19">
      <path d="M 50.849375 102.433273 
L 412.017557 102.433273 
" clip-path="url(#p8047b9a8e8)" style="fill: none; stroke: #b0b0b0; stroke-opacity: 0.3; stroke-width: 0.8; stroke-linecap: square"/>
     </g>
     <g id="line2d_20">
      <g>
       <use xlink:href="#m04a7779461" x="50.849375" y="102.433273" style="stroke: #000000; stroke-width: 0.8"/>
      </g>
     </g>
     <g id="text_11">
      <!-- 0.3 -->
      <g transform="translate(28.849375 106.59671) scale(0.12 -0.12)">
       <defs>
        <path id="LiberationSerif-33" d="M 2950 1141 
Q 2950 575 2562 256 
Q 2175 -63 1466 -63 
Q 872 -63 341 72 
L 306 953 
L 513 953 
L 653 366 
Q 775 297 998 247 
Q 1222 197 1416 197 
Q 1906 197 2140 422 
Q 2375 647 2375 1172 
Q 2375 1584 2159 1798 
Q 1944 2013 1491 2034 
L 1044 2059 
L 1044 2316 
L 1491 2344 
Q 1844 2363 2012 2563 
Q 2181 2763 2181 3169 
Q 2181 3591 1998 3783 
Q 1816 3975 1416 3975 
Q 1250 3975 1069 3929 
Q 888 3884 750 3809 
L 641 3297 
L 434 3297 
L 434 4103 
Q 744 4184 969 4211 
Q 1194 4238 1416 4238 
Q 2759 4238 2759 3206 
Q 2759 2772 2520 2514 
Q 2281 2256 1844 2194 
Q 2413 2128 2681 1867 
Q 2950 1606 2950 1141 
z
" transform="scale(0.015625)"/>
       </defs>
       <use xlink:href="#LiberationSerif-30"/>
       <use xlink:href="#LiberationSerif-2e" x="50"/>
       <use xlink:href="#LiberationSerif-33" x="75"/>
      </g>
     </g>
    </g>
    <g id="ytick_7">
     <g id="line2d_21">
      <path d="M 50.849375 65.973641 
L 412.017557 65.973641 
" clip-path="url(#p8047b9a8e8)" style="fill: none; stroke: #b0b0b0; stroke-opacity: 0.3; stroke-width: 0.8; stroke-linecap: square"/>
     </g>
     <g id="line2d_22">
      <g>
       <use xlink:href="#m04a7779461" x="50.849375" y="65.973641" style="stroke: #000000; stroke-width: 0.8"/>
      </g>
     </g>
     <g id="text_12">
      <!-- 0.4 -->
      <g transform="translate(28.849375 70.137079) scale(0.12 -0.12)">
       <defs>
        <path id="LiberationSerif-34" d="M 2531 922 
L 2531 0 
L 1994 0 
L 1994 922 
L 125 922 
L 125 1338 
L 2172 4213 
L 2531 4213 
L 2531 1369 
L 3100 1369 
L 3100 922 
L 2531 922 
z
M 1994 3478 
L 1978 3478 
L 478 1369 
L 1994 1369 
L 1994 3478 
z
" transform="scale(0.015625)"/>
       </defs>
       <use xlink:href="#LiberationSerif-30"/>
       <use xlink:href="#LiberationSerif-2e" x="50"/>
       <use xlink:href="#LiberationSerif-34" x="75"/>
      </g>
     </g>
    </g>
    <g id="ytick_8">
     <g id="line2d_23">
      <path d="M 50.849375 29.51401 
L 412.017557 29.51401 
" clip-path="url(#p8047b9a8e8)" style="fill: none; stroke: #b0b0b0; stroke-opacity: 0.3; stroke-width: 0.8; stroke-linecap: square"/>
     </g>
     <g id="line2d_24">
      <g>
       <use xlink:href="#m04a7779461" x="50.849375" y="29.51401" style="stroke: #000000; stroke-width: 0.8"/>
      </g>
     </g>
     <g id="text_13">
      <!-- 0.5 -->
      <g transform="translate(28.849375 33.677447) scale(0.12 -0.12)">
       <use xlink:href="#LiberationSerif-30"/>
       <use xlink:href="#LiberationSerif-2e" x="50"/>
       <use xlink:href="#LiberationSerif-35" x="75"/>
      </g>
     </g>
    </g>
    <g id="text_14">
     <!-- ΔZ to Ast15 -->
     <g transform="translate(15.526875 187.318437) rotate(-90) scale(0.12 -0.12)">
      <defs>
       <path id="LiberationSerif-Bold-394" d="M 3903 0 
L 88 0 
L 88 303 
L 1525 4225 
L 2431 4225 
L 3903 303 
L 3903 0 
z
M 513 372 
L 2866 372 
L 1666 3588 
L 513 372 
z
" transform="scale(0.015625)"/>
       <path id="LiberationSerif-Bold-5a" d="M 306 356 
L 2625 3859 
L 1875 3859 
Q 1166 3859 875 3797 
L 778 3138 
L 500 3138 
L 500 4191 
L 3738 4191 
L 3738 3859 
L 1403 325 
L 2278 325 
Q 2634 325 2979 359 
Q 3325 394 3478 428 
L 3663 1228 
L 3944 1228 
L 3859 0 
L 306 0 
L 306 356 
z
" transform="scale(0.015625)"/>
       <path id="LiberationSerif-Bold-31" d="M 2141 344 
L 2869 269 
L 2869 0 
L 513 0 
L 513 269 
L 1238 344 
L 1238 3503 
L 516 3266 
L 516 3531 
L 1697 4225 
L 2141 4225 
L 2141 344 
z
" transform="scale(0.015625)"/>
       <path id="LiberationSerif-Bold-35" d="M 1500 2478 
Q 2244 2478 2605 2172 
Q 2966 1866 2966 1247 
Q 2966 616 2573 276 
Q 2181 -63 1450 -63 
Q 869 -63 294 63 
L 256 1078 
L 544 1078 
L 706 406 
Q 828 338 1006 295 
Q 1184 253 1328 253 
Q 2047 253 2047 1216 
Q 2047 1716 1864 1939 
Q 1681 2163 1281 2163 
Q 1059 2163 875 2081 
L 778 2041 
L 466 2041 
L 466 4191 
L 2653 4191 
L 2653 3494 
L 813 3494 
L 813 2394 
Q 1194 2478 1500 2478 
z
" transform="scale(0.015625)"/>
      </defs>
      <use xlink:href="#LiberationSerif-Bold-394"/>
      <use xlink:href="#LiberationSerif-Bold-5a" x="62.695312"/>
      <use xlink:href="#LiberationSerif-Bold-20" x="129.394531"/>
      <use xlink:href="#LiberationSerif-Bold-74" x="154.394531"/>
      <use xlink:href="#LiberationSerif-Bold-6f" x="187.695312"/>
      <use xlink:href="#LiberationSerif-Bold-20" x="237.695312"/>
      <use xlink:href="#LiberationSerif-Bold-41" x="257.195312"/>
      <use xlink:href="#LiberationSerif-Bold-73" x="329.412109"/>
      <use xlink:href="#LiberationSerif-Bold-74" x="368.328125"/>
      <use xlink:href="#LiberationSerif-Bold-31" x="401.628906"/>
      <use xlink:href="#LiberationSerif-Bold-35" x="451.628906"/>
     </g>
    </g>
   </g>
   <g id="line2d_25">
    <path d="M 67.266111 170.992813 
L 70.582623 169.540749 
L 73.899135 168.088685 
L 77.215647 166.636621 
L 80.532159 165.184557 
L 83.848672 163.732493 
L 87.165184 162.280429 
L 90.481696 160.828365 
L 93.798208 159.376301 
L 97.114721 157.924237 
L 100.431233 156.472173 
L 103.747745 155.020109 
L 107.064257 153.568045 
L 110.38077 152.115981 
L 113.697282 150.663917 
L 117.013794 149.211853 
L 120.330306 147.759789 
L 123.646818 146.307725 
L 126.963331 144.85566 
L 130.279843 143.403596 
L 133.596355 141.951532 
L 136.912867 140.499468 
L 140.22938 139.047404 
L 143.545892 137.59534 
L 146.862404 136.143276 
L 150.178916 134.691212 
L 153.495429 133.239148 
L 156.811941 131.787084 
L 160.128453 130.33502 
L 163.444965 128.882956 
L 166.761477 127.430892 
L 170.07799 125.978828 
L 173.394502 124.526764 
L 176.711014 123.0747 
L 180.027526 121.622636 
L 183.344039 120.170572 
L 186.660551 118.718508 
L 189.977063 117.266444 
L 193.293575 115.81438 
L 196.610087 114.362316 
L 199.9266 112.910252 
L 203.243112 111.458188 
L 206.559624 110.006124 
L 209.876136 108.554059 
L 213.192649 107.101995 
L 216.509161 105.649931 
L 219.825673 104.197867 
L 223.142185 102.745803 
L 226.458698 101.293739 
L 229.77521 99.841675 
L 233.091722 98.389611 
L 236.408234 96.937547 
L 239.724746 95.485483 
L 243.041259 94.033419 
L 246.357771 92.581355 
L 249.674283 91.129291 
L 252.990795 89.677227 
L 256.307308 88.225163 
L 259.62382 86.773099 
L 262.940332 85.321035 
L 266.256844 83.868971 
L 269.573357 82.416907 
L 272.889869 80.964843 
L 276.206381 79.512779 
L 279.522893 78.060715 
L 282.839405 76.608651 
L 286.155918 75.156587 
L 289.47243 73.704523 
L 292.788942 72.252458 
L 296.105454 70.800394 
L 299.421967 69.34833 
L 302.738479 67.896266 
L 306.054991 66.444202 
L 309.371503 64.992138 
L 312.688016 63.540074 
L 316.004528 62.08801 
L 319.32104 60.635946 
L 322.637552 59.183882 
L 325.954064 57.731818 
L 329.270577 56.279754 
L 332.587089 54.82769 
L 335.903601 53.375626 
L 339.220113 51.923562 
L 342.536626 50.471498 
L 345.853138 49.019434 
L 349.16965 47.56737 
L 352.486162 46.115306 
L 355.802675 44.663242 
L 359.119187 43.211178 
L 362.435699 41.759114 
L 365.752211 40.30705 
L 369.068723 38.854986 
L 372.385236 37.402921 
L 375.701748 35.950857 
L 379.01826 34.498793 
L 382.334772 33.046729 
L 385.651285 31.594665 
L 388.967797 30.142601 
L 392.284309 28.690537 
L 395.600821 27.238473 
" clip-path="url(#p8047b9a8e8)" style="fill: none; stroke-dasharray: 5.55,2.4; stroke-dashoffset: 0; stroke: #f577a7; stroke-width: 1.5"/>
   </g>
   <g id="patch_3">
    <path d="M 50.849375 307.24 
L 50.849375 7.2 
" style="fill: none; stroke: #000000; stroke-width: 0.8; stroke-linejoin: miter; stroke-linecap: square"/>
   </g>
   <g id="patch_4">
    <path d="M 412.017557 307.24 
L 412.017557 7.2 
" style="fill: none; stroke: #000000; stroke-width: 0.8; stroke-linejoin: miter; stroke-linecap: square"/>
   </g>
   <g id="patch_5">
    <path d="M 50.849375 307.24 
L 412.017557 307.24 
" style="fill: none; stroke: #000000; stroke-width: 0.8; stroke-linejoin: miter; stroke-linecap: square"/>
   </g>
   <g id="patch_6">
    <path d="M 50.849375 7.2 
L 412.017557 7.2 
" style="fill: none; stroke: #000000; stroke-width: 0.8; stroke-linejoin: miter; stroke-linecap: square"/>
   </g>
   <g id="PathCollection_1">
    <defs>
     <path id="m3837150d16" d="M 0 3.162278 
C 0.838646 3.162278 1.643056 2.82908 2.236068 2.236068 
C 2.82908 1.643056 3.162278 0.838646 3.162278 0 
C 3.162278 -0.838646 2.82908 -1.643056 2.236068 -2.236068 
C 1.643056 -2.82908 0.838646 -3.162278 0 -3.162278 
C -0.838646 -3.162278 -1.643056 -2.82908 -2.236068 -2.236068 
C -2.82908 -1.643056 -3.162278 -0.838646 -3.162278 0 
C -3.162278 0.838646 -2.82908 1.643056 -2.236068 2.236068 
C -1.643056 2.82908 -0.838646 3.162278 0 3.162278 
z
" style="stroke: #ffffff; stroke-opacity: 0.8; stroke-width: 0.5"/>
    </defs>
    <g clip-path="url(#p8047b9a8e8)">
     <use xlink:href="#m3837150d16" x="144.339792" y="220.257095" style="fill: #800080; fill-opacity: 0.8; stroke: #ffffff; stroke-opacity: 0.8; stroke-width: 0.5"/>
     <use xlink:href="#m3837150d16" x="395.600821" y="98.010129" style="fill: #800080; fill-opacity: 0.8; stroke: #ffffff; stroke-opacity: 0.8; stroke-width: 0.5"/>
     <use xlink:href="#m3837150d16" x="199.46633" y="41.661811" style="fill: #800080; fill-opacity: 0.8; stroke: #ffffff; stroke-opacity: 0.8; stroke-width: 0.5"/>
     <use xlink:href="#m3837150d16" x="67.266111" y="183.505885" style="fill: #800080; fill-opacity: 0.8; stroke: #ffffff; stroke-opacity: 0.8; stroke-width: 0.5"/>
     <use xlink:href="#m3837150d16" x="118.584774" y="293.601818" style="fill: #800080; fill-opacity: 0.8; stroke: #ffffff; stroke-opacity: 0.8; stroke-width: 0.5"/>
     <use xlink:href="#m3837150d16" x="67.778762" y="65.808578" style="fill: #800080; fill-opacity: 0.8; stroke: #ffffff; stroke-opacity: 0.8; stroke-width: 0.5"/>
     <use xlink:href="#m3837150d16" x="142.875396" y="258.799851" style="fill: #800080; fill-opacity: 0.8; stroke: #ffffff; stroke-opacity: 0.8; stroke-width: 0.5"/>
     <use xlink:href="#m3837150d16" x="226.117092" y="101.337235" style="fill: #800080; fill-opacity: 0.8; stroke: #ffffff; stroke-opacity: 0.8; stroke-width: 0.5"/>
     <use xlink:href="#m3837150d16" x="259.880957" y="20.838182" style="fill: #800080; fill-opacity: 0.8; stroke: #ffffff; stroke-opacity: 0.8; stroke-width: 0.5"/>
     <use xlink:href="#m3837150d16" x="119.19729" y="116.577129" style="fill: #800080; fill-opacity: 0.8; stroke: #ffffff; stroke-opacity: 0.8; stroke-width: 0.5"/>
     <use xlink:href="#m3837150d16" x="199.489559" y="80.371138" style="fill: #800080; fill-opacity: 0.8; stroke: #ffffff; stroke-opacity: 0.8; stroke-width: 0.5"/>
     <use xlink:href="#m3837150d16" x="162.791986" y="81.352103" style="fill: #800080; fill-opacity: 0.8; stroke: #ffffff; stroke-opacity: 0.8; stroke-width: 0.5"/>
     <use xlink:href="#m3837150d16" x="197.353799" y="72.03251" style="fill: #800080; fill-opacity: 0.8; stroke: #ffffff; stroke-opacity: 0.8; stroke-width: 0.5"/>
     <use xlink:href="#m3837150d16" x="194.124275" y="107.490607" style="fill: #800080; fill-opacity: 0.8; stroke: #ffffff; stroke-opacity: 0.8; stroke-width: 0.5"/>
     <use xlink:href="#m3837150d16" x="144.09451" y="188.962347" style="fill: #800080; fill-opacity: 0.8; stroke: #ffffff; stroke-opacity: 0.8; stroke-width: 0.5"/>
     <use xlink:href="#m3837150d16" x="115.709375" y="287.358164" style="fill: #800080; fill-opacity: 0.8; stroke: #ffffff; stroke-opacity: 0.8; stroke-width: 0.5"/>
     <use xlink:href="#m3837150d16" x="118.250278" y="35.176196" style="fill: #800080; fill-opacity: 0.8; stroke: #ffffff; stroke-opacity: 0.8; stroke-width: 0.5"/>
     <use xlink:href="#m3837150d16" x="189.590126" y="54.902895" style="fill: #800080; fill-opacity: 0.8; stroke: #ffffff; stroke-opacity: 0.8; stroke-width: 0.5"/>
     <use xlink:href="#m3837150d16" x="162.377763" y="49.672371" style="fill: #800080; fill-opacity: 0.8; stroke: #ffffff; stroke-opacity: 0.8; stroke-width: 0.5"/>
     <use xlink:href="#m3837150d16" x="154.244785" y="171.679267" style="fill: #800080; fill-opacity: 0.8; stroke: #ffffff; stroke-opacity: 0.8; stroke-width: 0.5"/>
    </g>
   </g>
   <g id="text_15">
    <!-- Mic1 -->
    <g transform="translate(143.339792 216.257095) scale(0.08 -0.08)">
     <defs>
      <path id="LiberationSerif-4d" d="M 2694 0 
L 2584 0 
L 1050 3603 
L 1050 250 
L 1613 166 
L 1613 0 
L 184 0 
L 184 166 
L 722 250 
L 722 3944 
L 184 4025 
L 184 4191 
L 1453 4191 
L 2816 1003 
L 4303 4191 
L 5503 4191 
L 5503 4025 
L 4966 3944 
L 4966 250 
L 5503 166 
L 5503 0 
L 3803 0 
L 3803 166 
L 4366 250 
L 4366 3603 
L 2694 0 
z
" transform="scale(0.015625)"/>
      <path id="LiberationSerif-69" d="M 1184 3897 
Q 1184 3759 1084 3659 
Q 984 3559 844 3559 
Q 706 3559 606 3659 
Q 506 3759 506 3897 
Q 506 4038 606 4138 
Q 706 4238 844 4238 
Q 984 4238 1084 4138 
Q 1184 4038 1184 3897 
z
M 1153 219 
L 1656 141 
L 1656 0 
L 134 0 
L 134 141 
L 634 219 
L 634 2719 
L 219 2797 
L 219 2938 
L 1153 2938 
L 1153 219 
z
" transform="scale(0.015625)"/>
      <path id="LiberationSerif-63" d="M 2644 178 
Q 2491 66 2222 1 
Q 1953 -63 1672 -63 
Q 244 -63 244 1491 
Q 244 2225 608 2620 
Q 972 3016 1650 3016 
Q 2072 3016 2572 2919 
L 2572 2100 
L 2400 2100 
L 2266 2619 
Q 2006 2766 1644 2766 
Q 806 2766 806 1491 
Q 806 828 1061 545 
Q 1316 263 1850 263 
Q 2306 263 2644 366 
L 2644 178 
z
" transform="scale(0.015625)"/>
     </defs>
     <use xlink:href="#LiberationSerif-4d"/>
     <use xlink:href="#LiberationSerif-69" x="88.916016"/>
     <use xlink:href="#LiberationSerif-63" x="116.699219"/>
     <use xlink:href="#LiberationSerif-31" x="161.083984"/>
    </g>
   </g>
   <g id="text_16">
    <!-- Mic2 -->
    <g transform="translate(394.600821 94.010129) scale(0.08 -0.08)">
     <use xlink:href="#LiberationSerif-4d"/>
     <use xlink:href="#LiberationSerif-69" x="88.916016"/>
     <use xlink:href="#LiberationSerif-63" x="116.699219"/>
     <use xlink:href="#LiberationSerif-32" x="161.083984"/>
    </g>
   </g>
   <g id="text_17">
    <!-- Mic3 -->
    <g transform="translate(198.46633 37.661811) scale(0.08 -0.08)">
     <use xlink:href="#LiberationSerif-4d"/>
     <use xlink:href="#LiberationSerif-69" x="88.916016"/>
     <use xlink:href="#LiberationSerif-63" x="116.699219"/>
     <use xlink:href="#LiberationSerif-33" x="161.083984"/>
    </g>
   </g>
   <g id="text_18">
    <!-- Mic4 -->
    <g transform="translate(66.266111 179.505885) scale(0.08 -0.08)">
     <use xlink:href="#LiberationSerif-4d"/>
     <use xlink:href="#LiberationSerif-69" x="88.916016"/>
     <use xlink:href="#LiberationSerif-63" x="116.699219"/>
     <use xlink:href="#LiberationSerif-34" x="161.083984"/>
    </g>
   </g>
   <g id="text_19">
    <!-- Mic5 -->
    <g transform="translate(117.584774 289.601818) scale(0.08 -0.08)">
     <use xlink:href="#LiberationSerif-4d"/>
     <use xlink:href="#LiberationSerif-69" x="88.916016"/>
     <use xlink:href="#LiberationSerif-63" x="116.699219"/>
     <use xlink:href="#LiberationSerif-35" x="161.083984"/>
    </g>
   </g>
   <g id="text_20">
    <!-- Mic6 -->
    <g transform="translate(66.778762 61.808578) scale(0.08 -0.08)">
     <defs>
      <path id="LiberationSerif-36" d="M 3009 1300 
Q 3009 647 2679 292 
Q 2350 -63 1728 -63 
Q 1022 -63 648 487 
Q 275 1038 275 2069 
Q 275 2744 472 3234 
Q 669 3725 1023 3981 
Q 1378 4238 1844 4238 
Q 2300 4238 2753 4128 
L 2753 3406 
L 2547 3406 
L 2438 3834 
Q 2334 3891 2159 3933 
Q 1984 3975 1844 3975 
Q 1388 3975 1133 3533 
Q 878 3091 853 2241 
Q 1363 2509 1875 2509 
Q 2428 2509 2718 2198 
Q 3009 1888 3009 1300 
z
M 1716 184 
Q 2094 184 2262 429 
Q 2431 675 2431 1241 
Q 2431 1753 2270 1981 
Q 2109 2209 1759 2209 
Q 1331 2209 850 2053 
Q 850 1100 1065 642 
Q 1281 184 1716 184 
z
" transform="scale(0.015625)"/>
     </defs>
     <use xlink:href="#LiberationSerif-4d"/>
     <use xlink:href="#LiberationSerif-69" x="88.916016"/>
     <use xlink:href="#LiberationSerif-63" x="116.699219"/>
     <use xlink:href="#LiberationSerif-36" x="161.083984"/>
    </g>
   </g>
   <g id="text_21">
    <!-- Mic8 -->
    <g transform="translate(141.875396 254.799851) scale(0.08 -0.08)">
     <defs>
      <path id="LiberationSerif-38" d="M 2828 3169 
Q 2828 2825 2661 2586 
Q 2494 2347 2209 2222 
Q 2566 2091 2761 1811 
Q 2956 1531 2956 1131 
Q 2956 538 2622 237 
Q 2288 -63 1581 -63 
Q 244 -63 244 1131 
Q 244 1547 444 1820 
Q 644 2094 984 2222 
Q 713 2347 542 2584 
Q 372 2822 372 3169 
Q 372 3688 689 3972 
Q 1006 4256 1606 4256 
Q 2188 4256 2508 3973 
Q 2828 3691 2828 3169 
z
M 2394 1131 
Q 2394 1631 2198 1856 
Q 2003 2081 1581 2081 
Q 1169 2081 987 1867 
Q 806 1653 806 1131 
Q 806 603 990 393 
Q 1175 184 1581 184 
Q 1997 184 2195 401 
Q 2394 619 2394 1131 
z
M 2266 3169 
Q 2266 3600 2097 3803 
Q 1928 4006 1588 4006 
Q 1256 4006 1095 3809 
Q 934 3613 934 3169 
Q 934 2734 1090 2545 
Q 1247 2356 1588 2356 
Q 1938 2356 2102 2548 
Q 2266 2741 2266 3169 
z
" transform="scale(0.015625)"/>
     </defs>
     <use xlink:href="#LiberationSerif-4d"/>
     <use xlink:href="#LiberationSerif-69" x="88.916016"/>
     <use xlink:href="#LiberationSerif-63" x="116.699219"/>
     <use xlink:href="#LiberationSerif-38" x="161.083984"/>
    </g>
   </g>
   <g id="text_22">
    <!-- Mic9 -->
    <g transform="translate(225.117092 97.337235) scale(0.08 -0.08)">
     <defs>
      <path id="LiberationSerif-39" d="M 206 2913 
Q 206 3544 559 3891 
Q 913 4238 1556 4238 
Q 2272 4238 2605 3722 
Q 2938 3206 2938 2106 
Q 2938 1053 2509 495 
Q 2081 -63 1306 -63 
Q 797 -63 372 44 
L 372 769 
L 575 769 
L 684 319 
Q 784 272 953 234 
Q 1122 197 1294 197 
Q 1794 197 2062 636 
Q 2331 1075 2359 1928 
Q 1884 1663 1394 1663 
Q 841 1663 523 1992 
Q 206 2322 206 2913 
z
M 1563 3988 
Q 781 3988 781 2900 
Q 781 2422 968 2194 
Q 1156 1966 1550 1966 
Q 1953 1966 2363 2131 
Q 2363 3091 2173 3539 
Q 1984 3988 1563 3988 
z
" transform="scale(0.015625)"/>
     </defs>
     <use xlink:href="#LiberationSerif-4d"/>
     <use xlink:href="#LiberationSerif-69" x="88.916016"/>
     <use xlink:href="#LiberationSerif-63" x="116.699219"/>
     <use xlink:href="#LiberationSerif-39" x="161.083984"/>
    </g>
   </g>
   <g id="text_23">
    <!-- Mic10 -->
    <g transform="translate(258.880957 16.838182) scale(0.08 -0.08)">
     <use xlink:href="#LiberationSerif-4d"/>
     <use xlink:href="#LiberationSerif-69" x="88.916016"/>
     <use xlink:href="#LiberationSerif-63" x="116.699219"/>
     <use xlink:href="#LiberationSerif-31" x="161.083984"/>
     <use xlink:href="#LiberationSerif-30" x="211.083984"/>
    </g>
   </g>
   <g id="text_24">
    <!-- Mic11 -->
    <g transform="translate(118.19729 112.577129) scale(0.08 -0.08)">
     <use xlink:href="#LiberationSerif-4d"/>
     <use xlink:href="#LiberationSerif-69" x="88.916016"/>
     <use xlink:href="#LiberationSerif-63" x="116.699219"/>
     <use xlink:href="#LiberationSerif-31" x="161.083984"/>
     <use xlink:href="#LiberationSerif-31" x="207.333984"/>
    </g>
   </g>
   <g id="text_25">
    <!-- Mic12 -->
    <g transform="translate(198.489559 76.371138) scale(0.08 -0.08)">
     <use xlink:href="#LiberationSerif-4d"/>
     <use xlink:href="#LiberationSerif-69" x="88.916016"/>
     <use xlink:href="#LiberationSerif-63" x="116.699219"/>
     <use xlink:href="#LiberationSerif-31" x="161.083984"/>
     <use xlink:href="#LiberationSerif-32" x="211.083984"/>
    </g>
   </g>
   <g id="text_26">
    <!-- Mic13 -->
    <g transform="translate(161.791986 77.352103) scale(0.08 -0.08)">
     <use xlink:href="#LiberationSerif-4d"/>
     <use xlink:href="#LiberationSerif-69" x="88.916016"/>
     <use xlink:href="#LiberationSerif-63" x="116.699219"/>
     <use xlink:href="#LiberationSerif-31" x="161.083984"/>
     <use xlink:href="#LiberationSerif-33" x="211.083984"/>
    </g>
   </g>
   <g id="text_27">
    <!-- Mic14 -->
    <g transform="translate(196.353799 68.03251) scale(0.08 -0.08)">
     <use xlink:href="#LiberationSerif-4d"/>
     <use xlink:href="#LiberationSerif-69" x="88.916016"/>
     <use xlink:href="#LiberationSerif-63" x="116.699219"/>
     <use xlink:href="#LiberationSerif-31" x="161.083984"/>
     <use xlink:href="#LiberationSerif-34" x="211.083984"/>
    </g>
   </g>
   <g id="text_28">
    <!-- Mic15 -->
    <g transform="translate(193.124275 103.490607) scale(0.08 -0.08)">
     <use xlink:href="#LiberationSerif-4d"/>
     <use xlink:href="#LiberationSerif-69" x="88.916016"/>
     <use xlink:href="#LiberationSerif-63" x="116.699219"/>
     <use xlink:href="#LiberationSerif-31" x="161.083984"/>
     <use xlink:href="#LiberationSerif-35" x="211.083984"/>
    </g>
   </g>
   <g id="text_29">
    <!-- Mic16 -->
    <g transform="translate(143.09451 184.962347) scale(0.08 -0.08)">
     <use xlink:href="#LiberationSerif-4d"/>
     <use xlink:href="#LiberationSerif-69" x="88.916016"/>
     <use xlink:href="#LiberationSerif-63" x="116.699219"/>
     <use xlink:href="#LiberationSerif-31" x="161.083984"/>
     <use xlink:href="#LiberationSerif-36" x="211.083984"/>
    </g>
   </g>
   <g id="text_30">
    <!-- Mic17 -->
    <g transform="translate(114.709375 283.358164) scale(0.08 -0.08)">
     <defs>
      <path id="LiberationSerif-37" d="M 628 3200 
L 422 3200 
L 422 4191 
L 3016 4191 
L 3016 3950 
L 1147 0 
L 744 0 
L 2578 3713 
L 738 3713 
L 628 3200 
z
" transform="scale(0.015625)"/>
     </defs>
     <use xlink:href="#LiberationSerif-4d"/>
     <use xlink:href="#LiberationSerif-69" x="88.916016"/>
     <use xlink:href="#LiberationSerif-63" x="116.699219"/>
     <use xlink:href="#LiberationSerif-31" x="161.083984"/>
     <use xlink:href="#LiberationSerif-37" x="211.083984"/>
    </g>
   </g>
   <g id="text_31">
    <!-- Mic18 -->
    <g transform="translate(117.250278 31.176196) scale(0.08 -0.08)">
     <use xlink:href="#LiberationSerif-4d"/>
     <use xlink:href="#LiberationSerif-69" x="88.916016"/>
     <use xlink:href="#LiberationSerif-63" x="116.699219"/>
     <use xlink:href="#LiberationSerif-31" x="161.083984"/>
     <use xlink:href="#LiberationSerif-38" x="211.083984"/>
    </g>
   </g>
   <g id="text_32">
    <!-- Mic19 -->
    <g transform="translate(188.590126 50.902895) scale(0.08 -0.08)">
     <use xlink:href="#LiberationSerif-4d"/>
     <use xlink:href="#LiberationSerif-69" x="88.916016"/>
     <use xlink:href="#LiberationSerif-63" x="116.699219"/>
     <use xlink:href="#LiberationSerif-31" x="161.083984"/>
     <use xlink:href="#LiberationSerif-39" x="211.083984"/>
    </g>
   </g>
   <g id="text_33">
    <!-- Mic20 -->
    <g transform="translate(161.377763 45.672371) scale(0.08 -0.08)">
     <use xlink:href="#LiberationSerif-4d"/>
     <use xlink:href="#LiberationSerif-69" x="88.916016"/>
     <use xlink:href="#LiberationSerif-63" x="116.699219"/>
     <use xlink:href="#LiberationSerif-32" x="161.083984"/>
     <use xlink:href="#LiberationSerif-30" x="211.083984"/>
    </g>
   </g>
   <g id="text_34">
    <!-- Mic21 -->
    <g transform="translate(153.244785 167.679267) scale(0.08 -0.08)">
     <use xlink:href="#LiberationSerif-4d"/>
     <use xlink:href="#LiberationSerif-69" x="88.916016"/>
     <use xlink:href="#LiberationSerif-63" x="116.699219"/>
     <use xlink:href="#LiberationSerif-32" x="161.083984"/>
     <use xlink:href="#LiberationSerif-31" x="211.083984"/>
    </g>
   </g>
   <g id="text_35">
    <g id="patch_7">
     <path d="M 321.725511 299.761312 
L 400.680199 299.761312 
Q 403.680199 299.761312 403.680199 296.761312 
L 403.680199 277.236 
Q 403.680199 274.236 400.680199 274.236 
L 321.725511 274.236 
Q 318.725511 274.236 318.725511 277.236 
L 318.725511 296.761312 
Q 318.725511 299.761312 321.725511 299.761312 
z
" style="fill: #ffffe0; stroke: #808080; stroke-linejoin: miter"/>
    </g>
    <!-- Spearman r = 0.447 -->
    <g transform="translate(321.725511 284.175062) scale(0.1 -0.1)">
     <defs>
      <path id="LiberationSerif-53" d="M 434 1128 
L 638 1128 
L 747 563 
Q 863 416 1145 303 
Q 1428 191 1703 191 
Q 2141 191 2386 414 
Q 2631 638 2631 1031 
Q 2631 1256 2536 1403 
Q 2441 1550 2286 1651 
Q 2131 1753 1934 1823 
Q 1738 1894 1530 1966 
Q 1322 2038 1125 2125 
Q 928 2213 773 2347 
Q 619 2481 523 2679 
Q 428 2878 428 3169 
Q 428 3669 803 3953 
Q 1178 4238 1844 4238 
Q 2350 4238 2944 4103 
L 2944 3231 
L 2741 3231 
L 2631 3744 
Q 2313 3975 1844 3975 
Q 1425 3975 1189 3804 
Q 953 3634 953 3334 
Q 953 3131 1048 2997 
Q 1144 2863 1298 2767 
Q 1453 2672 1651 2603 
Q 1850 2534 2058 2461 
Q 2266 2388 2464 2295 
Q 2663 2203 2817 2061 
Q 2972 1919 3067 1714 
Q 3163 1509 3163 1209 
Q 3163 603 2791 270 
Q 2419 -63 1719 -63 
Q 1381 -63 1040 -3 
Q 700 56 434 159 
L 434 1128 
z
" transform="scale(0.015625)"/>
      <path id="LiberationSerif-70" d="M 475 2719 
L 141 2797 
L 141 2938 
L 966 2938 
L 972 2766 
Q 1103 2878 1323 2947 
Q 1544 3016 1772 3016 
Q 2334 3016 2642 2625 
Q 2950 2234 2950 1503 
Q 2950 756 2614 346 
Q 2278 -63 1644 -63 
Q 1291 -63 972 6 
Q 991 -219 991 -347 
L 991 -1141 
L 1503 -1216 
L 1503 -1363 
L 103 -1363 
L 103 -1216 
L 475 -1141 
L 475 2719 
z
M 2388 1503 
Q 2388 2103 2192 2395 
Q 1997 2688 1600 2688 
Q 1234 2688 991 2584 
L 991 238 
Q 1269 184 1600 184 
Q 2388 184 2388 1503 
z
" transform="scale(0.015625)"/>
      <path id="LiberationSerif-65" d="M 813 1478 
L 813 1422 
Q 813 991 908 752 
Q 1003 513 1201 388 
Q 1400 263 1722 263 
Q 1891 263 2122 291 
Q 2353 319 2503 353 
L 2503 178 
Q 2353 81 2095 9 
Q 1838 -63 1569 -63 
Q 884 -63 567 306 
Q 250 675 250 1491 
Q 250 2259 572 2637 
Q 894 3016 1491 3016 
Q 2619 3016 2619 1734 
L 2619 1478 
L 813 1478 
z
M 1491 2766 
Q 1166 2766 992 2503 
Q 819 2241 819 1728 
L 2075 1728 
Q 2075 2288 1931 2527 
Q 1788 2766 1491 2766 
z
" transform="scale(0.015625)"/>
      <path id="LiberationSerif-61" d="M 1453 3003 
Q 1934 3003 2161 2806 
Q 2388 2609 2388 2203 
L 2388 219 
L 2753 141 
L 2753 0 
L 1947 0 
L 1888 294 
Q 1531 -63 978 -63 
Q 225 -63 225 813 
Q 225 1106 339 1298 
Q 453 1491 703 1592 
Q 953 1694 1428 1703 
L 1869 1716 
L 1869 2175 
Q 1869 2478 1758 2622 
Q 1647 2766 1416 2766 
Q 1103 2766 844 2619 
L 738 2253 
L 563 2253 
L 563 2894 
Q 1069 3003 1453 3003 
z
M 1869 1497 
L 1459 1484 
Q 1041 1469 892 1322 
Q 744 1175 744 831 
Q 744 281 1191 281 
Q 1403 281 1558 329 
Q 1713 378 1869 453 
L 1869 1497 
z
" transform="scale(0.015625)"/>
      <path id="LiberationSerif-72" d="M 2075 3016 
L 2075 2222 
L 1941 2222 
L 1759 2566 
Q 1603 2566 1389 2523 
Q 1175 2481 1019 2413 
L 1019 219 
L 1522 141 
L 1522 0 
L 128 0 
L 128 141 
L 500 219 
L 500 2719 
L 128 2797 
L 128 2938 
L 984 2938 
L 1013 2572 
Q 1200 2728 1520 2872 
Q 1841 3016 2028 3016 
L 2075 3016 
z
" transform="scale(0.015625)"/>
      <path id="LiberationSerif-6d" d="M 1019 2700 
Q 1253 2834 1515 2925 
Q 1778 3016 1978 3016 
Q 2194 3016 2376 2934 
Q 2559 2853 2650 2675 
Q 2891 2809 3214 2912 
Q 3538 3016 3750 3016 
Q 4500 3016 4500 2150 
L 4500 219 
L 4878 141 
L 4878 0 
L 3544 0 
L 3544 141 
L 3981 219 
L 3981 2094 
Q 3981 2631 3481 2631 
Q 3400 2631 3292 2618 
Q 3184 2606 3076 2590 
Q 2969 2575 2870 2554 
Q 2772 2534 2706 2522 
Q 2759 2353 2759 2150 
L 2759 219 
L 3200 141 
L 3200 0 
L 1806 0 
L 1806 141 
L 2241 219 
L 2241 2094 
Q 2241 2353 2108 2492 
Q 1975 2631 1709 2631 
Q 1434 2631 1025 2541 
L 1025 219 
L 1466 141 
L 1466 0 
L 134 0 
L 134 141 
L 506 219 
L 506 2719 
L 134 2797 
L 134 2938 
L 994 2938 
L 1019 2700 
z
" transform="scale(0.015625)"/>
      <path id="LiberationSerif-6e" d="M 1013 2700 
Q 1253 2838 1525 2927 
Q 1797 3016 1978 3016 
Q 2359 3016 2553 2794 
Q 2747 2572 2747 2150 
L 2747 219 
L 3103 141 
L 3103 0 
L 1838 0 
L 1838 141 
L 2228 219 
L 2228 2094 
Q 2228 2353 2101 2501 
Q 1975 2650 1709 2650 
Q 1428 2650 1019 2559 
L 1019 219 
L 1416 141 
L 1416 0 
L 147 0 
L 147 141 
L 500 219 
L 500 2719 
L 147 2797 
L 147 2938 
L 984 2938 
L 1013 2700 
z
" transform="scale(0.015625)"/>
      <path id="LiberationSerif-20" transform="scale(0.015625)"/>
      <path id="LiberationSerif-3d" d="M 3297 1644 
L 3297 1325 
L 319 1325 
L 319 1644 
L 3297 1644 
z
M 3297 2925 
L 3297 2606 
L 319 2606 
L 319 2925 
L 3297 2925 
z
" transform="scale(0.015625)"/>
     </defs>
     <use xlink:href="#LiberationSerif-53"/>
     <use xlink:href="#LiberationSerif-70" x="55.615234"/>
     <use xlink:href="#LiberationSerif-65" x="105.615234"/>
     <use xlink:href="#LiberationSerif-61" x="150"/>
     <use xlink:href="#LiberationSerif-72" x="194.384766"/>
     <use xlink:href="#LiberationSerif-6d" x="227.685547"/>
     <use xlink:href="#LiberationSerif-61" x="305.46875"/>
     <use xlink:href="#LiberationSerif-6e" x="349.853516"/>
     <use xlink:href="#LiberationSerif-20" x="399.853516"/>
     <use xlink:href="#LiberationSerif-72" x="424.853516"/>
     <use xlink:href="#LiberationSerif-20" x="458.154297"/>
     <use xlink:href="#LiberationSerif-3d" x="483.154297"/>
     <use xlink:href="#LiberationSerif-20" x="539.550781"/>
     <use xlink:href="#LiberationSerif-30" x="564.550781"/>
     <use xlink:href="#LiberationSerif-2e" x="614.550781"/>
     <use xlink:href="#LiberationSerif-34" x="639.550781"/>
     <use xlink:href="#LiberationSerif-34" x="689.550781"/>
     <use xlink:href="#LiberationSerif-37" x="739.550781"/>
    </g>
    <!-- p = 4.84e-02 -->
    <g transform="translate(321.725511 294.631625) scale(0.1 -0.1)">
     <defs>
      <path id="LiberationSerif-2d" d="M 238 1269 
L 238 1747 
L 1900 1747 
L 1900 1269 
L 238 1269 
z
" transform="scale(0.015625)"/>
     </defs>
     <use xlink:href="#LiberationSerif-70"/>
     <use xlink:href="#LiberationSerif-20" x="50"/>
     <use xlink:href="#LiberationSerif-3d" x="75"/>
     <use xlink:href="#LiberationSerif-20" x="131.396484"/>
     <use xlink:href="#LiberationSerif-34" x="156.396484"/>
     <use xlink:href="#LiberationSerif-2e" x="206.396484"/>
     <use xlink:href="#LiberationSerif-38" x="231.396484"/>
     <use xlink:href="#LiberationSerif-34" x="281.396484"/>
     <use xlink:href="#LiberationSerif-65" x="331.396484"/>
     <use xlink:href="#LiberationSerif-2d" x="375.78125"/>
     <use xlink:href="#LiberationSerif-30" x="409.082031"/>
     <use xlink:href="#LiberationSerif-32" x="459.082031"/>
    </g>
   </g>
  </g>
 </g>
 <defs>
  <clipPath id="p8047b9a8e8">
   <rect x="50.849375" y="7.2" width="361.168182" height="300.04"/>
  </clipPath>
 </defs>
</svg>
