<?xml version="1.0" encoding="utf-8" standalone="no"?>
<!DOCTYPE svg PUBLIC "-//W3C//DTD SVG 1.1//EN"
  "http://www.w3.org/Graphics/SVG/1.1/DTD/svg11.dtd">
<svg xmlns:xlink="http://www.w3.org/1999/xlink" width="348.49125pt" height="418.825813pt" viewBox="0 0 348.49125 418.825813" xmlns="http://www.w3.org/2000/svg" version="1.1">
 <metadata>
  <rdf:RDF xmlns:dc="http://purl.org/dc/elements/1.1/" xmlns:cc="http://creativecommons.org/ns#" xmlns:rdf="http://www.w3.org/1999/02/22-rdf-syntax-ns#">
   <cc:Work>
    <dc:type rdf:resource="http://purl.org/dc/dcmitype/StillImage"/>
    <dc:date>2026-05-22T17:15:48.639943</dc:date>
    <dc:format>image/svg+xml</dc:format>
    <dc:creator>
     <cc:Agent>
      <dc:title>Matplotlib v3.9.4, https://matplotlib.org/</dc:title>
     </cc:Agent>
    </dc:creator>
   </cc:Work>
  </rdf:RDF>
 </metadata>
 <defs>
  <style type="text/css">*{stroke-linejoin: round; stroke-linecap: butt}</style>
 </defs>
 <g id="figure_1">
  <g id="patch_1">
   <path d="M 0 418.825813 
L 348.49125 418.825813 
L 348.49125 0 
L 0 0 
z
" style="fill: #ffffff"/>
  </g>
  <g id="axes_1">
   <g id="patch_2">
    <path d="M 45.53125 366.166688 
L 341.29125 366.166688 
L 341.29125 31.914688 
L 45.53125 31.914688 
z
" style="fill: #ffffff"/>
   </g>
   <g id="patch_3">
    <path d="M 216.937614 350.973415 
L 270.039977 350.973415 
L 270.039977 340.176165 
L 216.937614 340.176165 
z
" clip-path="url(#pa23b811951)" style="fill: #f7b596; stroke: #ffffff; stroke-width: 0.5; stroke-linejoin: miter"/>
   </g>
   <g id="patch_4">
    <path d="M 216.937614 335.548772 
L 83.173432 335.548772 
L 83.173432 324.751523 
L 216.937614 324.751523 
z
" clip-path="url(#pa23b811951)" style="fill: #1a5899; stroke: #ffffff; stroke-width: 0.5; stroke-linejoin: miter"/>
   </g>
   <g id="patch_5">
    <path d="M 216.937614 320.12413 
L 75.443341 320.12413 
L 75.443341 309.32688 
L 216.937614 309.32688 
z
" clip-path="url(#pa23b811951)" style="fill: #134c87; stroke: #ffffff; stroke-width: 0.5; stroke-linejoin: miter"/>
   </g>
   <g id="patch_6">
    <path d="M 216.937614 304.699488 
L 208.871432 304.699488 
L 208.871432 293.902238 
L 216.937614 293.902238 
z
" clip-path="url(#pa23b811951)" style="fill: #edf2f5; stroke: #ffffff; stroke-width: 0.5; stroke-linejoin: miter"/>
   </g>
   <g id="patch_7">
    <path d="M 216.937614 289.274845 
L 262.645977 289.274845 
L 262.645977 278.477596 
L 216.937614 278.477596 
z
" clip-path="url(#pa23b811951)" style="fill: #f9c2a7; stroke: #ffffff; stroke-width: 0.5; stroke-linejoin: miter"/>
   </g>
   <g id="patch_8">
    <path d="M 216.937614 273.850203 
L 119.807341 273.850203 
L 119.807341 263.052953 
L 216.937614 263.052953 
z
" clip-path="url(#pa23b811951)" style="fill: #408fc1; stroke: #ffffff; stroke-width: 0.5; stroke-linejoin: miter"/>
   </g>
   <g id="patch_9">
    <path d="M 216.937614 258.425561 
L 327.847614 258.425561 
L 327.847614 247.628311 
L 216.937614 247.628311 
z
" clip-path="url(#pa23b811951)" style="fill: #c43b3c; stroke: #ffffff; stroke-width: 0.5; stroke-linejoin: miter"/>
   </g>
   <g id="patch_10">
    <path d="M 216.937614 243.000918 
L 92.247886 243.000918 
L 92.247886 232.203669 
L 216.937614 232.203669 
z
" clip-path="url(#pa23b811951)" style="fill: #2267ac; stroke: #ffffff; stroke-width: 0.5; stroke-linejoin: miter"/>
   </g>
   <g id="patch_11">
    <path d="M 216.937614 227.576276 
L 60.31925 227.576276 
L 60.31925 216.779026 
L 216.937614 216.779026 
z
" clip-path="url(#pa23b811951)" style="fill: #063264; stroke: #ffffff; stroke-width: 0.5; stroke-linejoin: miter"/>
   </g>
   <g id="patch_12">
    <path d="M 216.937614 212.151634 
L 322.134068 212.151634 
L 322.134068 201.354384 
L 216.937614 201.354384 
z
" clip-path="url(#pa23b811951)" style="fill: #c94741; stroke: #ffffff; stroke-width: 0.5; stroke-linejoin: miter"/>
   </g>
   <g id="patch_13">
    <path d="M 216.937614 196.726991 
L 82.165159 196.726991 
L 82.165159 185.929741 
L 216.937614 185.929741 
z
" clip-path="url(#pa23b811951)" style="fill: #195696; stroke: #ffffff; stroke-width: 0.5; stroke-linejoin: miter"/>
   </g>
   <g id="patch_14">
    <path d="M 216.937614 181.302349 
L 114.093795 181.302349 
L 114.093795 170.505099 
L 216.937614 170.505099 
z
" clip-path="url(#pa23b811951)" style="fill: #3a87bd; stroke: #ffffff; stroke-width: 0.5; stroke-linejoin: miter"/>
   </g>
   <g id="patch_15">
    <path d="M 216.937614 165.877706 
L 58.974886 165.877706 
L 58.974886 155.080457 
L 216.937614 155.080457 
z
" clip-path="url(#pa23b811951)" style="fill: #053061; stroke: #ffffff; stroke-width: 0.5; stroke-linejoin: miter"/>
   </g>
   <g id="patch_16">
    <path d="M 216.937614 150.453064 
L 95.608795 150.453064 
L 95.608795 139.655814 
L 216.937614 139.655814 
z
" clip-path="url(#pa23b811951)" style="fill: #266caf; stroke: #ffffff; stroke-width: 0.5; stroke-linejoin: miter"/>
   </g>
   <g id="patch_17">
    <path d="M 216.937614 135.028422 
L 148.038977 135.028422 
L 148.038977 124.231172 
L 216.937614 124.231172 
z
" clip-path="url(#pa23b811951)" style="fill: #84bcd9; stroke: #ffffff; stroke-width: 0.5; stroke-linejoin: miter"/>
   </g>
   <g id="patch_18">
    <path d="M 216.937614 119.603779 
L 163.83525 119.603779 
L 163.83525 108.80653 
L 216.937614 108.80653 
z
" clip-path="url(#pa23b811951)" style="fill: #a5cee3; stroke: #ffffff; stroke-width: 0.5; stroke-linejoin: miter"/>
   </g>
   <g id="patch_19">
    <path d="M 216.937614 104.179137 
L 78.80425 104.179137 
L 78.80425 93.381887 
L 216.937614 93.381887 
z
" clip-path="url(#pa23b811951)" style="fill: #175290; stroke: #ffffff; stroke-width: 0.5; stroke-linejoin: miter"/>
   </g>
   <g id="patch_20">
    <path d="M 216.937614 88.754495 
L 136.611886 88.754495 
L 136.611886 77.957245 
L 216.937614 77.957245 
z
" clip-path="url(#pa23b811951)" style="fill: #65a9cf; stroke: #ffffff; stroke-width: 0.5; stroke-linejoin: miter"/>
   </g>
   <g id="patch_21">
    <path d="M 216.937614 73.329852 
L 62.335795 73.329852 
L 62.335795 62.532603 
L 216.937614 62.532603 
z
" clip-path="url(#pa23b811951)" style="fill: #073467; stroke: #ffffff; stroke-width: 0.5; stroke-linejoin: miter"/>
   </g>
   <g id="patch_22">
    <path d="M 216.937614 57.90521 
L 114.093795 57.90521 
L 114.093795 47.10796 
L 216.937614 47.10796 
z
" clip-path="url(#pa23b811951)" style="fill: #3a87bd; stroke: #ffffff; stroke-width: 0.5; stroke-linejoin: miter"/>
   </g>
   <g id="matplotlib.axis_1">
    <g id="xtick_1">
     <g id="line2d_1">
      <path d="M 63.680159 366.166688 
L 63.680159 31.914688 
" clip-path="url(#pa23b811951)" style="fill: none; stroke: #b0b0b0; stroke-opacity: 0.25; stroke-width: 0.5; stroke-linecap: square"/>
     </g>
     <g id="line2d_2">
      <defs>
       <path id="mb1866cf81a" d="M 0 0 
L 0 3.5 
" style="stroke: #000000; stroke-width: 0.8"/>
      </defs>
      <g>
       <use xlink:href="#mb1866cf81a" x="63.680159" y="366.166688" style="stroke: #000000; stroke-width: 0.8"/>
      </g>
     </g>
     <g id="text_1">
      <!-- −0.8 -->
      <g transform="translate(52.796722 381.493563) scale(0.12 -0.12)">
       <defs>
        <path id="LiberationSerif-2212" d="M 3297 2284 
L 3297 1966 
L 319 1966 
L 319 2284 
L 3297 2284 
z
" transform="scale(0.015625)"/>
        <path id="LiberationSerif-30" d="M 2956 2113 
Q 2956 -63 1581 -63 
Q 919 -63 581 493 
Q 244 1050 244 2113 
Q 244 3153 581 3704 
Q 919 4256 1606 4256 
Q 2269 4256 2612 3711 
Q 2956 3166 2956 2113 
z
M 2381 2113 
Q 2381 3119 2190 3562 
Q 2000 4006 1581 4006 
Q 1175 4006 997 3587 
Q 819 3169 819 2113 
Q 819 1050 1000 617 
Q 1181 184 1581 184 
Q 1994 184 2187 639 
Q 2381 1094 2381 2113 
z
" transform="scale(0.015625)"/>
        <path id="LiberationSerif-2e" d="M 1178 288 
Q 1178 134 1070 21 
Q 963 -91 800 -91 
Q 638 -91 530 21 
Q 422 134 422 288 
Q 422 447 531 556 
Q 641 666 800 666 
Q 959 666 1068 556 
Q 1178 447 1178 288 
z
" transform="scale(0.015625)"/>
        <path id="LiberationSerif-38" d="M 2828 3169 
Q 2828 2825 2661 2586 
Q 2494 2347 2209 2222 
Q 2566 2091 2761 1811 
Q 2956 1531 2956 1131 
Q 2956 538 2622 237 
Q 2288 -63 1581 -63 
Q 244 -63 244 1131 
Q 244 1547 444 1820 
Q 644 2094 984 2222 
Q 713 2347 542 2584 
Q 372 2822 372 3169 
Q 372 3688 689 3972 
Q 1006 4256 1606 4256 
Q 2188 4256 2508 3973 
Q 2828 3691 2828 3169 
z
M 2394 1131 
Q 2394 1631 2198 1856 
Q 2003 2081 1581 2081 
Q 1169 2081 987 1867 
Q 806 1653 806 1131 
Q 806 603 990 393 
Q 1175 184 1581 184 
Q 1997 184 2195 401 
Q 2394 619 2394 1131 
z
M 2266 3169 
Q 2266 3600 2097 3803 
Q 1928 4006 1588 4006 
Q 1256 4006 1095 3809 
Q 934 3613 934 3169 
Q 934 2734 1090 2545 
Q 1247 2356 1588 2356 
Q 1938 2356 2102 2548 
Q 2266 2741 2266 3169 
z
" transform="scale(0.015625)"/>
       </defs>
       <use xlink:href="#LiberationSerif-2212"/>
       <use xlink:href="#LiberationSerif-30" x="56.396484"/>
       <use xlink:href="#LiberationSerif-2e" x="106.396484"/>
       <use xlink:href="#LiberationSerif-38" x="131.396484"/>
      </g>
     </g>
    </g>
    <g id="xtick_2">
     <g id="line2d_3">
      <path d="M 101.994523 366.166688 
L 101.994523 31.914688 
" clip-path="url(#pa23b811951)" style="fill: none; stroke: #b0b0b0; stroke-opacity: 0.25; stroke-width: 0.5; stroke-linecap: square"/>
     </g>
     <g id="line2d_4">
      <g>
       <use xlink:href="#mb1866cf81a" x="101.994523" y="366.166688" style="stroke: #000000; stroke-width: 0.8"/>
      </g>
     </g>
     <g id="text_2">
      <!-- −0.6 -->
      <g transform="translate(91.111085 381.493563) scale(0.12 -0.12)">
       <defs>
        <path id="LiberationSerif-36" d="M 3009 1300 
Q 3009 647 2679 292 
Q 2350 -63 1728 -63 
Q 1022 -63 648 487 
Q 275 1038 275 2069 
Q 275 2744 472 3234 
Q 669 3725 1023 3981 
Q 1378 4238 1844 4238 
Q 2300 4238 2753 4128 
L 2753 3406 
L 2547 3406 
L 2438 3834 
Q 2334 3891 2159 3933 
Q 1984 3975 1844 3975 
Q 1388 3975 1133 3533 
Q 878 3091 853 2241 
Q 1363 2509 1875 2509 
Q 2428 2509 2718 2198 
Q 3009 1888 3009 1300 
z
M 1716 184 
Q 2094 184 2262 429 
Q 2431 675 2431 1241 
Q 2431 1753 2270 1981 
Q 2109 2209 1759 2209 
Q 1331 2209 850 2053 
Q 850 1100 1065 642 
Q 1281 184 1716 184 
z
" transform="scale(0.015625)"/>
       </defs>
       <use xlink:href="#LiberationSerif-2212"/>
       <use xlink:href="#LiberationSerif-30" x="56.396484"/>
       <use xlink:href="#LiberationSerif-2e" x="106.396484"/>
       <use xlink:href="#LiberationSerif-36" x="131.396484"/>
      </g>
     </g>
    </g>
    <g id="xtick_3">
     <g id="line2d_5">
      <path d="M 140.308886 366.166688 
L 140.308886 31.914688 
" clip-path="url(#pa23b811951)" style="fill: none; stroke: #b0b0b0; stroke-opacity: 0.25; stroke-width: 0.5; stroke-linecap: square"/>
     </g>
     <g id="line2d_6">
      <g>
       <use xlink:href="#mb1866cf81a" x="140.308886" y="366.166688" style="stroke: #000000; stroke-width: 0.8"/>
      </g>
     </g>
     <g id="text_3">
      <!-- −0.4 -->
      <g transform="translate(129.425449 381.493563) scale(0.12 -0.12)">
       <defs>
        <path id="LiberationSerif-34" d="M 2531 922 
L 2531 0 
L 1994 0 
L 1994 922 
L 125 922 
L 125 1338 
L 2172 4213 
L 2531 4213 
L 2531 1369 
L 3100 1369 
L 3100 922 
L 2531 922 
z
M 1994 3478 
L 1978 3478 
L 478 1369 
L 1994 1369 
L 1994 3478 
z
" transform="scale(0.015625)"/>
       </defs>
       <use xlink:href="#LiberationSerif-2212"/>
       <use xlink:href="#LiberationSerif-30" x="56.396484"/>
       <use xlink:href="#LiberationSerif-2e" x="106.396484"/>
       <use xlink:href="#LiberationSerif-34" x="131.396484"/>
      </g>
     </g>
    </g>
    <g id="xtick_4">
     <g id="line2d_7">
      <path d="M 178.62325 366.166688 
L 178.62325 31.914688 
" clip-path="url(#pa23b811951)" style="fill: none; stroke: #b0b0b0; stroke-opacity: 0.25; stroke-width: 0.5; stroke-linecap: square"/>
     </g>
     <g id="line2d_8">
      <g>
       <use xlink:href="#mb1866cf81a" x="178.62325" y="366.166688" style="stroke: #000000; stroke-width: 0.8"/>
      </g>
     </g>
     <g id="text_4">
      <!-- −0.2 -->
      <g transform="translate(167.739813 381.493563) scale(0.12 -0.12)">
       <defs>
        <path id="LiberationSerif-32" d="M 2847 0 
L 281 0 
L 281 459 
L 863 988 
Q 1422 1478 1684 1781 
Q 1947 2084 2061 2406 
Q 2175 2728 2175 3144 
Q 2175 3550 1990 3762 
Q 1806 3975 1388 3975 
Q 1222 3975 1047 3929 
Q 872 3884 738 3809 
L 628 3297 
L 422 3297 
L 422 4103 
Q 991 4238 1388 4238 
Q 2075 4238 2420 3952 
Q 2766 3666 2766 3144 
Q 2766 2794 2630 2483 
Q 2494 2172 2212 1864 
Q 1931 1556 1281 1003 
Q 1003 766 691 481 
L 2847 481 
L 2847 0 
z
" transform="scale(0.015625)"/>
       </defs>
       <use xlink:href="#LiberationSerif-2212"/>
       <use xlink:href="#LiberationSerif-30" x="56.396484"/>
       <use xlink:href="#LiberationSerif-2e" x="106.396484"/>
       <use xlink:href="#LiberationSerif-32" x="131.396484"/>
      </g>
     </g>
    </g>
    <g id="xtick_5">
     <g id="line2d_9">
      <path d="M 216.937614 366.166688 
L 216.937614 31.914688 
" clip-path="url(#pa23b811951)" style="fill: none; stroke: #b0b0b0; stroke-opacity: 0.25; stroke-width: 0.5; stroke-linecap: square"/>
     </g>
     <g id="line2d_10">
      <g>
       <use xlink:href="#mb1866cf81a" x="216.937614" y="366.166688" style="stroke: #000000; stroke-width: 0.8"/>
      </g>
     </g>
     <g id="text_5">
      <!-- 0.0 -->
      <g transform="translate(209.437614 381.493563) scale(0.12 -0.12)">
       <use xlink:href="#LiberationSerif-30"/>
       <use xlink:href="#LiberationSerif-2e" x="50"/>
       <use xlink:href="#LiberationSerif-30" x="75"/>
      </g>
     </g>
    </g>
    <g id="xtick_6">
     <g id="line2d_11">
      <path d="M 255.251977 366.166688 
L 255.251977 31.914688 
" clip-path="url(#pa23b811951)" style="fill: none; stroke: #b0b0b0; stroke-opacity: 0.25; stroke-width: 0.5; stroke-linecap: square"/>
     </g>
     <g id="line2d_12">
      <g>
       <use xlink:href="#mb1866cf81a" x="255.251977" y="366.166688" style="stroke: #000000; stroke-width: 0.8"/>
      </g>
     </g>
     <g id="text_6">
      <!-- 0.2 -->
      <g transform="translate(247.751977 381.493563) scale(0.12 -0.12)">
       <use xlink:href="#LiberationSerif-30"/>
       <use xlink:href="#LiberationSerif-2e" x="50"/>
       <use xlink:href="#LiberationSerif-32" x="75"/>
      </g>
     </g>
    </g>
    <g id="xtick_7">
     <g id="line2d_13">
      <path d="M 293.566341 366.166688 
L 293.566341 31.914688 
" clip-path="url(#pa23b811951)" style="fill: none; stroke: #b0b0b0; stroke-opacity: 0.25; stroke-width: 0.5; stroke-linecap: square"/>
     </g>
     <g id="line2d_14">
      <g>
       <use xlink:href="#mb1866cf81a" x="293.566341" y="366.166688" style="stroke: #000000; stroke-width: 0.8"/>
      </g>
     </g>
     <g id="text_7">
      <!-- 0.4 -->
      <g transform="translate(286.066341 381.493563) scale(0.12 -0.12)">
       <use xlink:href="#LiberationSerif-30"/>
       <use xlink:href="#LiberationSerif-2e" x="50"/>
       <use xlink:href="#LiberationSerif-34" x="75"/>
      </g>
     </g>
    </g>
    <g id="xtick_8">
     <g id="line2d_15">
      <path d="M 331.880705 366.166688 
L 331.880705 31.914688 
" clip-path="url(#pa23b811951)" style="fill: none; stroke: #b0b0b0; stroke-opacity: 0.25; stroke-width: 0.5; stroke-linecap: square"/>
     </g>
     <g id="line2d_16">
      <g>
       <use xlink:href="#mb1866cf81a" x="331.880705" y="366.166688" style="stroke: #000000; stroke-width: 0.8"/>
      </g>
     </g>
     <g id="text_8">
      <!-- 0.6 -->
      <g transform="translate(324.380705 381.493563) scale(0.12 -0.12)">
       <use xlink:href="#LiberationSerif-30"/>
       <use xlink:href="#LiberationSerif-2e" x="50"/>
       <use xlink:href="#LiberationSerif-36" x="75"/>
      </g>
     </g>
    </g>
    <g id="text_9">
     <!-- Spearman ρ -->
     <g transform="translate(162.365938 396.376063) scale(0.12 -0.12)">
      <defs>
       <path id="LiberationSerif-Bold-53" d="M 341 1284 
L 616 1284 
L 756 613 
Q 888 459 1153 356 
Q 1419 253 1703 253 
Q 2600 253 2600 991 
Q 2600 1222 2429 1381 
Q 2259 1541 1894 1666 
Q 1356 1844 1120 1955 
Q 884 2066 721 2216 
Q 559 2366 462 2580 
Q 366 2794 366 3106 
Q 366 3659 742 3948 
Q 1119 4238 1844 4238 
Q 2369 4238 3006 4103 
L 3006 3106 
L 2728 3106 
L 2588 3681 
Q 2269 3913 1844 3913 
Q 1459 3913 1253 3770 
Q 1047 3628 1047 3334 
Q 1047 3125 1219 2976 
Q 1391 2828 1756 2713 
Q 2472 2478 2739 2304 
Q 3006 2131 3147 1875 
Q 3288 1619 3288 1272 
Q 3288 -63 1716 -63 
Q 1356 -63 982 -2 
Q 609 59 341 159 
L 341 1284 
z
" transform="scale(0.015625)"/>
       <path id="LiberationSerif-Bold-70" d="M 1278 2788 
Q 1613 3016 2091 3016 
Q 2703 3016 3001 2656 
Q 3300 2297 3300 1522 
Q 3300 753 2953 345 
Q 2606 -63 1956 -63 
Q 1625 -63 1288 22 
Q 1306 -184 1306 -441 
L 1306 -1081 
L 1738 -1156 
L 1738 -1363 
L 84 -1363 
L 84 -1156 
L 403 -1081 
L 403 2656 
L 81 2731 
L 81 2938 
L 1272 2938 
L 1278 2788 
z
M 2384 1500 
Q 2384 2669 1841 2669 
Q 1550 2669 1306 2550 
L 1306 334 
Q 1559 269 1834 269 
Q 2384 269 2384 1500 
z
" transform="scale(0.015625)"/>
       <path id="LiberationSerif-Bold-65" d="M 1544 3009 
Q 2141 3009 2408 2690 
Q 2675 2372 2675 1700 
L 2675 1444 
L 1134 1444 
L 1134 1394 
Q 1134 928 1209 731 
Q 1284 534 1453 431 
Q 1622 328 1916 328 
Q 2191 328 2609 419 
L 2609 178 
Q 2438 75 2164 8 
Q 1891 -59 1631 -59 
Q 909 -59 564 317 
Q 219 694 219 1484 
Q 219 2253 548 2631 
Q 878 3009 1544 3009 
z
M 1509 2694 
Q 1322 2694 1230 2491 
Q 1138 2288 1138 1772 
L 1819 1772 
Q 1819 2191 1791 2361 
Q 1763 2531 1695 2612 
Q 1628 2694 1509 2694 
z
" transform="scale(0.015625)"/>
       <path id="LiberationSerif-Bold-61" d="M 1706 3003 
Q 2809 3003 2809 2191 
L 2809 281 
L 3103 206 
L 3103 0 
L 2022 0 
L 1953 225 
Q 1709 59 1512 -2 
Q 1316 -63 1116 -63 
Q 206 -63 206 813 
Q 206 1144 340 1342 
Q 475 1541 728 1636 
Q 981 1731 1525 1744 
L 1906 1753 
L 1906 2181 
Q 1906 2713 1472 2713 
Q 1209 2713 884 2550 
L 766 2184 
L 559 2184 
L 559 2894 
Q 1031 2966 1253 2984 
Q 1475 3003 1706 3003 
z
M 1906 1475 
L 1644 1466 
Q 1341 1453 1223 1306 
Q 1106 1159 1106 831 
Q 1106 566 1200 441 
Q 1294 316 1444 316 
Q 1656 316 1906 425 
L 1906 1475 
z
" transform="scale(0.015625)"/>
       <path id="LiberationSerif-Bold-72" d="M 1441 2328 
Q 1778 2703 2045 2867 
Q 2313 3031 2534 3031 
L 2703 3031 
L 2703 1959 
L 2528 1959 
L 2344 2353 
Q 2147 2353 1897 2267 
Q 1647 2181 1456 2066 
L 1456 281 
L 1928 206 
L 1928 0 
L 172 0 
L 172 206 
L 553 281 
L 553 2656 
L 172 2731 
L 172 2938 
L 1406 2938 
L 1441 2328 
z
" transform="scale(0.015625)"/>
       <path id="LiberationSerif-Bold-6d" d="M 1356 2681 
L 1569 2791 
Q 2006 3016 2353 3016 
Q 2878 3016 3053 2634 
Q 3694 3016 4134 3016 
Q 4928 3016 4928 2150 
L 4928 281 
L 5222 206 
L 5222 0 
L 3763 0 
L 3763 206 
L 4025 281 
L 4025 2028 
Q 4025 2291 3923 2437 
Q 3822 2584 3616 2584 
Q 3384 2584 3116 2453 
Q 3147 2322 3147 2150 
L 3147 281 
L 3441 206 
L 3441 0 
L 1981 0 
L 1981 206 
L 2244 281 
L 2244 2028 
Q 2244 2291 2142 2437 
Q 2041 2584 1834 2584 
Q 1628 2584 1363 2463 
L 1363 281 
L 1631 206 
L 1631 0 
L 172 0 
L 172 206 
L 459 281 
L 459 2656 
L 172 2731 
L 172 2938 
L 1313 2938 
L 1356 2681 
z
" transform="scale(0.015625)"/>
       <path id="LiberationSerif-Bold-6e" d="M 1356 2681 
L 1569 2791 
Q 2006 3016 2356 3016 
Q 3169 3016 3169 2150 
L 3169 281 
L 3463 206 
L 3463 0 
L 2003 0 
L 2003 206 
L 2266 281 
L 2266 2028 
Q 2266 2291 2155 2437 
Q 2044 2584 1838 2584 
Q 1600 2584 1363 2478 
L 1363 281 
L 1631 206 
L 1631 0 
L 172 0 
L 172 206 
L 459 281 
L 459 2656 
L 172 2731 
L 172 2938 
L 1313 2938 
L 1356 2681 
z
" transform="scale(0.015625)"/>
       <path id="LiberationSerif-Bold-20" transform="scale(0.015625)"/>
       <path id="LiberationSerif-Bold-3c1" d="M 381 1731 
Q 381 2344 725 2673 
Q 1069 3003 1703 3003 
Q 2128 3003 2462 2801 
Q 2797 2600 2980 2226 
Q 3163 1853 3163 1350 
Q 3163 916 3014 598 
Q 2866 281 2598 109 
Q 2331 -63 1994 -63 
Q 1631 -63 1284 69 
L 1284 -1363 
L 381 -1363 
L 381 1731 
z
M 1706 316 
Q 1981 316 2115 567 
Q 2250 819 2250 1341 
Q 2250 1931 2111 2261 
Q 1972 2591 1713 2591 
Q 1513 2591 1398 2392 
Q 1284 2194 1284 1813 
L 1284 384 
Q 1466 316 1706 316 
z
" transform="scale(0.015625)"/>
      </defs>
      <use xlink:href="#LiberationSerif-Bold-53"/>
      <use xlink:href="#LiberationSerif-Bold-70" x="55.615234"/>
      <use xlink:href="#LiberationSerif-Bold-65" x="111.230469"/>
      <use xlink:href="#LiberationSerif-Bold-61" x="155.615234"/>
      <use xlink:href="#LiberationSerif-Bold-72" x="205.615234"/>
      <use xlink:href="#LiberationSerif-Bold-6d" x="250"/>
      <use xlink:href="#LiberationSerif-Bold-61" x="333.300781"/>
      <use xlink:href="#LiberationSerif-Bold-6e" x="383.300781"/>
      <use xlink:href="#LiberationSerif-Bold-20" x="438.916016"/>
      <use xlink:href="#LiberationSerif-Bold-3c1" x="463.916016"/>
     </g>
     <!-- (Reference GWAS OR vs. ΔZ) -->
     <g transform="translate(116.93375 409.070188) scale(0.12 -0.12)">
      <defs>
       <path id="LiberationSerif-Bold-28" d="M 1134 1544 
Q 1134 803 1214 350 
Q 1294 -103 1467 -447 
Q 1641 -791 1925 -1006 
L 1925 -1363 
Q 1306 -1034 957 -645 
Q 609 -256 445 270 
Q 281 797 281 1547 
Q 281 2291 445 2816 
Q 609 3341 957 3728 
Q 1306 4116 1925 4441 
L 1925 4084 
Q 1641 3869 1469 3528 
Q 1297 3188 1215 2734 
Q 1134 2281 1134 1544 
z
" transform="scale(0.015625)"/>
       <path id="LiberationSerif-Bold-52" d="M 1634 1775 
L 1634 313 
L 2172 228 
L 2172 0 
L 150 0 
L 150 228 
L 647 313 
L 647 3881 
L 109 3963 
L 109 4191 
L 2113 4191 
Q 3038 4191 3494 3906 
Q 3950 3622 3950 3019 
Q 3950 2119 3106 1863 
L 4225 313 
L 4678 228 
L 4678 0 
L 3322 0 
L 2153 1775 
L 1634 1775 
z
M 2975 3013 
Q 2975 3481 2781 3664 
Q 2588 3847 2072 3847 
L 1634 3847 
L 1634 2119 
L 2088 2119 
Q 2569 2119 2772 2319 
Q 2975 2519 2975 3013 
z
" transform="scale(0.015625)"/>
       <path id="LiberationSerif-Bold-66" d="M 491 2613 
L 47 2613 
L 47 2828 
L 491 2950 
L 491 3266 
Q 491 3866 797 4186 
Q 1103 4506 1675 4506 
Q 1984 4506 2194 4447 
L 2194 3747 
L 1994 3747 
L 1903 4088 
Q 1828 4163 1706 4163 
Q 1394 4163 1394 3366 
L 1394 2938 
L 1991 2938 
L 1991 2613 
L 1394 2613 
L 1394 281 
L 1872 206 
L 1872 0 
L 172 0 
L 172 206 
L 491 281 
L 491 2613 
z
" transform="scale(0.015625)"/>
       <path id="LiberationSerif-Bold-63" d="M 2681 178 
Q 2541 66 2292 3 
Q 2044 -59 1781 -59 
Q 997 -59 608 319 
Q 219 697 219 1475 
Q 219 1959 395 2304 
Q 572 2650 900 2833 
Q 1228 3016 1663 3016 
Q 2100 3016 2616 2906 
L 2616 2038 
L 2391 2038 
L 2259 2553 
Q 2153 2631 2050 2662 
Q 1947 2694 1778 2694 
Q 1594 2694 1444 2547 
Q 1294 2400 1211 2133 
Q 1128 1866 1128 1494 
Q 1128 866 1323 597 
Q 1519 328 1944 328 
Q 2375 328 2681 419 
L 2681 178 
z
" transform="scale(0.015625)"/>
       <path id="LiberationSerif-Bold-47" d="M 4394 219 
Q 4006 91 3493 14 
Q 2981 -63 2572 -63 
Q 1888 -63 1377 187 
Q 866 438 589 916 
Q 313 1394 313 2047 
Q 313 3100 914 3669 
Q 1516 4238 2631 4238 
Q 2903 4238 3126 4216 
Q 3350 4194 3544 4156 
Q 3738 4119 4256 3972 
L 4256 3009 
L 3975 3009 
L 3900 3553 
Q 3653 3722 3356 3815 
Q 3059 3909 2744 3909 
Q 2016 3909 1683 3456 
Q 1350 3003 1350 2053 
Q 1350 1169 1701 714 
Q 2053 259 2719 259 
Q 3081 259 3409 369 
L 3409 1581 
L 2872 1663 
L 2872 1894 
L 4803 1894 
L 4803 1663 
L 4394 1581 
L 4394 219 
z
" transform="scale(0.015625)"/>
       <path id="LiberationSerif-Bold-57" d="M 4691 -97 
L 4306 -97 
L 3263 2488 
L 2228 -97 
L 1844 -97 
L 456 3881 
L 91 3963 
L 91 4191 
L 1972 4191 
L 1972 3963 
L 1481 3881 
L 2375 1384 
L 3356 3834 
L 3747 3834 
L 4731 1391 
L 5472 3881 
L 4944 3963 
L 4944 4191 
L 6300 4191 
L 6300 3963 
L 5934 3881 
L 4691 -97 
z
" transform="scale(0.015625)"/>
       <path id="LiberationSerif-Bold-41" d="M 1338 228 
L 1338 0 
L 63 0 
L 63 228 
L 375 313 
L 1866 4225 
L 2772 4225 
L 4256 313 
L 4575 228 
L 4575 0 
L 2709 0 
L 2709 228 
L 3194 313 
L 2794 1397 
L 1184 1397 
L 800 313 
L 1338 228 
z
M 2003 3594 
L 1313 1741 
L 2675 1741 
L 2003 3594 
z
" transform="scale(0.015625)"/>
       <path id="LiberationSerif-Bold-4f" d="M 1350 2100 
Q 1350 1103 1623 676 
Q 1897 250 2491 250 
Q 3081 250 3354 678 
Q 3628 1106 3628 2100 
Q 3628 3091 3354 3506 
Q 3081 3922 2491 3922 
Q 1897 3922 1623 3506 
Q 1350 3091 1350 2100 
z
M 313 2100 
Q 313 4238 2491 4238 
Q 3566 4238 4116 3695 
Q 4666 3153 4666 2100 
Q 4666 1034 4109 485 
Q 3553 -63 2491 -63 
Q 1431 -63 872 484 
Q 313 1031 313 2100 
z
" transform="scale(0.015625)"/>
       <path id="LiberationSerif-Bold-76" d="M 1813 -63 
L 1434 -63 
L 206 2656 
L 0 2731 
L 0 2938 
L 1503 2938 
L 1503 2731 
L 1153 2650 
L 1906 975 
L 2584 2656 
L 2241 2731 
L 2241 2938 
L 3200 2938 
L 3200 2731 
L 2988 2669 
L 1813 -63 
z
" transform="scale(0.015625)"/>
       <path id="LiberationSerif-Bold-73" d="M 2334 931 
Q 2334 441 2032 189 
Q 1731 -63 1156 -63 
Q 919 -63 633 -11 
Q 347 41 200 97 
L 200 897 
L 406 897 
L 525 484 
Q 634 375 812 301 
Q 991 228 1175 228 
Q 1447 228 1580 345 
Q 1713 463 1713 644 
Q 1713 816 1584 919 
Q 1456 1022 1025 1156 
Q 572 1297 383 1540 
Q 194 1784 194 2141 
Q 194 2541 491 2778 
Q 788 3016 1256 3016 
Q 1578 3016 2122 2925 
L 2122 2172 
L 1916 2172 
L 1816 2516 
Q 1725 2606 1561 2664 
Q 1397 2722 1250 2722 
Q 1025 2722 917 2630 
Q 809 2538 809 2378 
Q 809 2213 943 2106 
Q 1078 2000 1497 1875 
Q 1953 1734 2143 1504 
Q 2334 1275 2334 931 
z
" transform="scale(0.015625)"/>
       <path id="LiberationSerif-Bold-2e" d="M 800 -91 
Q 584 -91 432 59 
Q 281 209 281 428 
Q 281 644 431 795 
Q 581 947 800 947 
Q 1016 947 1167 797 
Q 1319 647 1319 428 
Q 1319 213 1169 61 
Q 1019 -91 800 -91 
z
" transform="scale(0.015625)"/>
       <path id="LiberationSerif-Bold-394" d="M 3903 0 
L 88 0 
L 88 303 
L 1525 4225 
L 2431 4225 
L 3903 303 
L 3903 0 
z
M 513 372 
L 2866 372 
L 1666 3588 
L 513 372 
z
" transform="scale(0.015625)"/>
       <path id="LiberationSerif-Bold-5a" d="M 306 356 
L 2625 3859 
L 1875 3859 
Q 1166 3859 875 3797 
L 778 3138 
L 500 3138 
L 500 4191 
L 3738 4191 
L 3738 3859 
L 1403 325 
L 2278 325 
Q 2634 325 2979 359 
Q 3325 394 3478 428 
L 3663 1228 
L 3944 1228 
L 3859 0 
L 306 0 
L 306 356 
z
" transform="scale(0.015625)"/>
       <path id="LiberationSerif-Bold-29" d="M 206 -1363 
L 206 -1006 
Q 491 -788 664 -444 
Q 838 -100 917 358 
Q 997 816 997 1544 
Q 997 2284 915 2737 
Q 834 3191 662 3528 
Q 491 3866 206 4084 
L 206 4441 
Q 831 4106 1178 3720 
Q 1525 3334 1687 2811 
Q 1850 2288 1850 1547 
Q 1850 800 1687 273 
Q 1525 -253 1176 -642 
Q 828 -1031 206 -1363 
z
" transform="scale(0.015625)"/>
      </defs>
      <use xlink:href="#LiberationSerif-Bold-28"/>
      <use xlink:href="#LiberationSerif-Bold-52" x="33.300781"/>
      <use xlink:href="#LiberationSerif-Bold-65" x="105.517578"/>
      <use xlink:href="#LiberationSerif-Bold-66" x="149.902344"/>
      <use xlink:href="#LiberationSerif-Bold-65" x="183.203125"/>
      <use xlink:href="#LiberationSerif-Bold-72" x="227.587891"/>
      <use xlink:href="#LiberationSerif-Bold-65" x="270.222656"/>
      <use xlink:href="#LiberationSerif-Bold-6e" x="314.607422"/>
      <use xlink:href="#LiberationSerif-Bold-63" x="370.222656"/>
      <use xlink:href="#LiberationSerif-Bold-65" x="414.607422"/>
      <use xlink:href="#LiberationSerif-Bold-20" x="458.992188"/>
      <use xlink:href="#LiberationSerif-Bold-47" x="483.992188"/>
      <use xlink:href="#LiberationSerif-Bold-57" x="561.775391"/>
      <use xlink:href="#LiberationSerif-Bold-41" x="650.650391"/>
      <use xlink:href="#LiberationSerif-Bold-53" x="722.867188"/>
      <use xlink:href="#LiberationSerif-Bold-20" x="778.482422"/>
      <use xlink:href="#LiberationSerif-Bold-4f" x="803.482422"/>
      <use xlink:href="#LiberationSerif-Bold-52" x="881.265625"/>
      <use xlink:href="#LiberationSerif-Bold-20" x="953.482422"/>
      <use xlink:href="#LiberationSerif-Bold-76" x="978.482422"/>
      <use xlink:href="#LiberationSerif-Bold-73" x="1028.482422"/>
      <use xlink:href="#LiberationSerif-Bold-2e" x="1067.398438"/>
      <use xlink:href="#LiberationSerif-Bold-20" x="1092.398438"/>
      <use xlink:href="#LiberationSerif-Bold-394" x="1111.898438"/>
      <use xlink:href="#LiberationSerif-Bold-5a" x="1174.59375"/>
      <use xlink:href="#LiberationSerif-Bold-29" x="1241.292969"/>
     </g>
    </g>
   </g>
   <g id="matplotlib.axis_2">
    <g id="ytick_1">
     <g id="line2d_17">
      <defs>
       <path id="mdd33390ec2" d="M 0 0 
L -3.5 0 
" style="stroke: #000000; stroke-width: 0.8"/>
      </defs>
      <g>
       <use xlink:href="#mdd33390ec2" x="45.53125" y="345.57479" style="stroke: #000000; stroke-width: 0.8"/>
      </g>
     </g>
     <g id="text_10">
      <!-- Mic1 -->
      <g transform="translate(13.2 349.738227) scale(0.12 -0.12)">
       <defs>
        <path id="LiberationSerif-4d" d="M 2694 0 
L 2584 0 
L 1050 3603 
L 1050 250 
L 1613 166 
L 1613 0 
L 184 0 
L 184 166 
L 722 250 
L 722 3944 
L 184 4025 
L 184 4191 
L 1453 4191 
L 2816 1003 
L 4303 4191 
L 5503 4191 
L 5503 4025 
L 4966 3944 
L 4966 250 
L 5503 166 
L 5503 0 
L 3803 0 
L 3803 166 
L 4366 250 
L 4366 3603 
L 2694 0 
z
" transform="scale(0.015625)"/>
        <path id="LiberationSerif-69" d="M 1184 3897 
Q 1184 3759 1084 3659 
Q 984 3559 844 3559 
Q 706 3559 606 3659 
Q 506 3759 506 3897 
Q 506 4038 606 4138 
Q 706 4238 844 4238 
Q 984 4238 1084 4138 
Q 1184 4038 1184 3897 
z
M 1153 219 
L 1656 141 
L 1656 0 
L 134 0 
L 134 141 
L 634 219 
L 634 2719 
L 219 2797 
L 219 2938 
L 1153 2938 
L 1153 219 
z
" transform="scale(0.015625)"/>
        <path id="LiberationSerif-63" d="M 2644 178 
Q 2491 66 2222 1 
Q 1953 -63 1672 -63 
Q 244 -63 244 1491 
Q 244 2225 608 2620 
Q 972 3016 1650 3016 
Q 2072 3016 2572 2919 
L 2572 2100 
L 2400 2100 
L 2266 2619 
Q 2006 2766 1644 2766 
Q 806 2766 806 1491 
Q 806 828 1061 545 
Q 1316 263 1850 263 
Q 2306 263 2644 366 
L 2644 178 
z
" transform="scale(0.015625)"/>
        <path id="LiberationSerif-31" d="M 1959 250 
L 2816 166 
L 2816 0 
L 563 0 
L 563 166 
L 1422 250 
L 1422 3669 
L 575 3366 
L 575 3531 
L 1797 4225 
L 1959 4225 
L 1959 250 
z
" transform="scale(0.015625)"/>
       </defs>
       <use xlink:href="#LiberationSerif-4d"/>
       <use xlink:href="#LiberationSerif-69" x="88.916016"/>
       <use xlink:href="#LiberationSerif-63" x="116.699219"/>
       <use xlink:href="#LiberationSerif-31" x="161.083984"/>
      </g>
     </g>
    </g>
    <g id="ytick_2">
     <g id="line2d_18">
      <g>
       <use xlink:href="#mdd33390ec2" x="45.53125" y="330.150148" style="stroke: #000000; stroke-width: 0.8"/>
      </g>
     </g>
     <g id="text_11">
      <!-- Mic2 -->
      <g transform="translate(13.2 334.313585) scale(0.12 -0.12)">
       <use xlink:href="#LiberationSerif-4d"/>
       <use xlink:href="#LiberationSerif-69" x="88.916016"/>
       <use xlink:href="#LiberationSerif-63" x="116.699219"/>
       <use xlink:href="#LiberationSerif-32" x="161.083984"/>
      </g>
     </g>
    </g>
    <g id="ytick_3">
     <g id="line2d_19">
      <g>
       <use xlink:href="#mdd33390ec2" x="45.53125" y="314.725505" style="stroke: #000000; stroke-width: 0.8"/>
      </g>
     </g>
     <g id="text_12">
      <!-- Mic3 -->
      <g transform="translate(13.2 318.888943) scale(0.12 -0.12)">
       <defs>
        <path id="LiberationSerif-33" d="M 2950 1141 
Q 2950 575 2562 256 
Q 2175 -63 1466 -63 
Q 872 -63 341 72 
L 306 953 
L 513 953 
L 653 366 
Q 775 297 998 247 
Q 1222 197 1416 197 
Q 1906 197 2140 422 
Q 2375 647 2375 1172 
Q 2375 1584 2159 1798 
Q 1944 2013 1491 2034 
L 1044 2059 
L 1044 2316 
L 1491 2344 
Q 1844 2363 2012 2563 
Q 2181 2763 2181 3169 
Q 2181 3591 1998 3783 
Q 1816 3975 1416 3975 
Q 1250 3975 1069 3929 
Q 888 3884 750 3809 
L 641 3297 
L 434 3297 
L 434 4103 
Q 744 4184 969 4211 
Q 1194 4238 1416 4238 
Q 2759 4238 2759 3206 
Q 2759 2772 2520 2514 
Q 2281 2256 1844 2194 
Q 2413 2128 2681 1867 
Q 2950 1606 2950 1141 
z
" transform="scale(0.015625)"/>
       </defs>
       <use xlink:href="#LiberationSerif-4d"/>
       <use xlink:href="#LiberationSerif-69" x="88.916016"/>
       <use xlink:href="#LiberationSerif-63" x="116.699219"/>
       <use xlink:href="#LiberationSerif-33" x="161.083984"/>
      </g>
     </g>
    </g>
    <g id="ytick_4">
     <g id="line2d_20">
      <g>
       <use xlink:href="#mdd33390ec2" x="45.53125" y="299.300863" style="stroke: #000000; stroke-width: 0.8"/>
      </g>
     </g>
     <g id="text_13">
      <!-- Mic4 -->
      <g transform="translate(13.2 303.4643) scale(0.12 -0.12)">
       <use xlink:href="#LiberationSerif-4d"/>
       <use xlink:href="#LiberationSerif-69" x="88.916016"/>
       <use xlink:href="#LiberationSerif-63" x="116.699219"/>
       <use xlink:href="#LiberationSerif-34" x="161.083984"/>
      </g>
     </g>
    </g>
    <g id="ytick_5">
     <g id="line2d_21">
      <g>
       <use xlink:href="#mdd33390ec2" x="45.53125" y="283.87622" style="stroke: #000000; stroke-width: 0.8"/>
      </g>
     </g>
     <g id="text_14">
      <!-- Mic5 -->
      <g transform="translate(13.2 288.039658) scale(0.12 -0.12)">
       <defs>
        <path id="LiberationSerif-35" d="M 1516 2450 
Q 2241 2450 2595 2153 
Q 2950 1856 2950 1247 
Q 2950 616 2565 276 
Q 2181 -63 1466 -63 
Q 872 -63 406 72 
L 372 953 
L 578 953 
L 719 366 
Q 856 291 1048 244 
Q 1241 197 1416 197 
Q 1909 197 2142 430 
Q 2375 663 2375 1216 
Q 2375 1603 2275 1801 
Q 2175 2000 1956 2094 
Q 1738 2188 1369 2188 
Q 1084 2188 813 2113 
L 513 2113 
L 513 4191 
L 2638 4191 
L 2638 3713 
L 794 3713 
L 794 2375 
Q 1131 2450 1516 2450 
z
" transform="scale(0.015625)"/>
       </defs>
       <use xlink:href="#LiberationSerif-4d"/>
       <use xlink:href="#LiberationSerif-69" x="88.916016"/>
       <use xlink:href="#LiberationSerif-63" x="116.699219"/>
       <use xlink:href="#LiberationSerif-35" x="161.083984"/>
      </g>
     </g>
    </g>
    <g id="ytick_6">
     <g id="line2d_22">
      <g>
       <use xlink:href="#mdd33390ec2" x="45.53125" y="268.451578" style="stroke: #000000; stroke-width: 0.8"/>
      </g>
     </g>
     <g id="text_15">
      <!-- Mic6 -->
      <g transform="translate(13.2 272.615016) scale(0.12 -0.12)">
       <use xlink:href="#LiberationSerif-4d"/>
       <use xlink:href="#LiberationSerif-69" x="88.916016"/>
       <use xlink:href="#LiberationSerif-63" x="116.699219"/>
       <use xlink:href="#LiberationSerif-36" x="161.083984"/>
      </g>
     </g>
    </g>
    <g id="ytick_7">
     <g id="line2d_23">
      <g>
       <use xlink:href="#mdd33390ec2" x="45.53125" y="253.026936" style="stroke: #000000; stroke-width: 0.8"/>
      </g>
     </g>
     <g id="text_16">
      <!-- Mic8 -->
      <g transform="translate(13.2 257.190373) scale(0.12 -0.12)">
       <use xlink:href="#LiberationSerif-4d"/>
       <use xlink:href="#LiberationSerif-69" x="88.916016"/>
       <use xlink:href="#LiberationSerif-63" x="116.699219"/>
       <use xlink:href="#LiberationSerif-38" x="161.083984"/>
      </g>
     </g>
    </g>
    <g id="ytick_8">
     <g id="line2d_24">
      <g>
       <use xlink:href="#mdd33390ec2" x="45.53125" y="237.602293" style="stroke: #000000; stroke-width: 0.8"/>
      </g>
     </g>
     <g id="text_17">
      <!-- Mic9 -->
      <g transform="translate(13.2 241.765731) scale(0.12 -0.12)">
       <defs>
        <path id="LiberationSerif-39" d="M 206 2913 
Q 206 3544 559 3891 
Q 913 4238 1556 4238 
Q 2272 4238 2605 3722 
Q 2938 3206 2938 2106 
Q 2938 1053 2509 495 
Q 2081 -63 1306 -63 
Q 797 -63 372 44 
L 372 769 
L 575 769 
L 684 319 
Q 784 272 953 234 
Q 1122 197 1294 197 
Q 1794 197 2062 636 
Q 2331 1075 2359 1928 
Q 1884 1663 1394 1663 
Q 841 1663 523 1992 
Q 206 2322 206 2913 
z
M 1563 3988 
Q 781 3988 781 2900 
Q 781 2422 968 2194 
Q 1156 1966 1550 1966 
Q 1953 1966 2363 2131 
Q 2363 3091 2173 3539 
Q 1984 3988 1563 3988 
z
" transform="scale(0.015625)"/>
       </defs>
       <use xlink:href="#LiberationSerif-4d"/>
       <use xlink:href="#LiberationSerif-69" x="88.916016"/>
       <use xlink:href="#LiberationSerif-63" x="116.699219"/>
       <use xlink:href="#LiberationSerif-39" x="161.083984"/>
      </g>
     </g>
    </g>
    <g id="ytick_9">
     <g id="line2d_25">
      <g>
       <use xlink:href="#mdd33390ec2" x="45.53125" y="222.177651" style="stroke: #000000; stroke-width: 0.8"/>
      </g>
     </g>
     <g id="text_18">
      <!-- Mic10 -->
      <g transform="translate(7.2 226.341089) scale(0.12 -0.12)">
       <use xlink:href="#LiberationSerif-4d"/>
       <use xlink:href="#LiberationSerif-69" x="88.916016"/>
       <use xlink:href="#LiberationSerif-63" x="116.699219"/>
       <use xlink:href="#LiberationSerif-31" x="161.083984"/>
       <use xlink:href="#LiberationSerif-30" x="211.083984"/>
      </g>
     </g>
    </g>
    <g id="ytick_10">
     <g id="line2d_26">
      <g>
       <use xlink:href="#mdd33390ec2" x="45.53125" y="206.753009" style="stroke: #000000; stroke-width: 0.8"/>
      </g>
     </g>
     <g id="text_19">
      <!-- Mic11 -->
      <g transform="translate(7.65 210.916446) scale(0.12 -0.12)">
       <use xlink:href="#LiberationSerif-4d"/>
       <use xlink:href="#LiberationSerif-69" x="88.916016"/>
       <use xlink:href="#LiberationSerif-63" x="116.699219"/>
       <use xlink:href="#LiberationSerif-31" x="161.083984"/>
       <use xlink:href="#LiberationSerif-31" x="207.333984"/>
      </g>
     </g>
    </g>
    <g id="ytick_11">
     <g id="line2d_27">
      <g>
       <use xlink:href="#mdd33390ec2" x="45.53125" y="191.328366" style="stroke: #000000; stroke-width: 0.8"/>
      </g>
     </g>
     <g id="text_20">
      <!-- Mic12 -->
      <g transform="translate(7.2 195.491804) scale(0.12 -0.12)">
       <use xlink:href="#LiberationSerif-4d"/>
       <use xlink:href="#LiberationSerif-69" x="88.916016"/>
       <use xlink:href="#LiberationSerif-63" x="116.699219"/>
       <use xlink:href="#LiberationSerif-31" x="161.083984"/>
       <use xlink:href="#LiberationSerif-32" x="211.083984"/>
      </g>
     </g>
    </g>
    <g id="ytick_12">
     <g id="line2d_28">
      <g>
       <use xlink:href="#mdd33390ec2" x="45.53125" y="175.903724" style="stroke: #000000; stroke-width: 0.8"/>
      </g>
     </g>
     <g id="text_21">
      <!-- Mic13 -->
      <g transform="translate(7.2 180.067161) scale(0.12 -0.12)">
       <use xlink:href="#LiberationSerif-4d"/>
       <use xlink:href="#LiberationSerif-69" x="88.916016"/>
       <use xlink:href="#LiberationSerif-63" x="116.699219"/>
       <use xlink:href="#LiberationSerif-31" x="161.083984"/>
       <use xlink:href="#LiberationSerif-33" x="211.083984"/>
      </g>
     </g>
    </g>
    <g id="ytick_13">
     <g id="line2d_29">
      <g>
       <use xlink:href="#mdd33390ec2" x="45.53125" y="160.479082" style="stroke: #000000; stroke-width: 0.8"/>
      </g>
     </g>
     <g id="text_22">
      <!-- Mic14 -->
      <g transform="translate(7.2 164.642519) scale(0.12 -0.12)">
       <use xlink:href="#LiberationSerif-4d"/>
       <use xlink:href="#LiberationSerif-69" x="88.916016"/>
       <use xlink:href="#LiberationSerif-63" x="116.699219"/>
       <use xlink:href="#LiberationSerif-31" x="161.083984"/>
       <use xlink:href="#LiberationSerif-34" x="211.083984"/>
      </g>
     </g>
    </g>
    <g id="ytick_14">
     <g id="line2d_30">
      <g>
       <use xlink:href="#mdd33390ec2" x="45.53125" y="145.054439" style="stroke: #000000; stroke-width: 0.8"/>
      </g>
     </g>
     <g id="text_23">
      <!-- Mic15 -->
      <g transform="translate(7.2 149.217877) scale(0.12 -0.12)">
       <use xlink:href="#LiberationSerif-4d"/>
       <use xlink:href="#LiberationSerif-69" x="88.916016"/>
       <use xlink:href="#LiberationSerif-63" x="116.699219"/>
       <use xlink:href="#LiberationSerif-31" x="161.083984"/>
       <use xlink:href="#LiberationSerif-35" x="211.083984"/>
      </g>
     </g>
    </g>
    <g id="ytick_15">
     <g id="line2d_31">
      <g>
       <use xlink:href="#mdd33390ec2" x="45.53125" y="129.629797" style="stroke: #000000; stroke-width: 0.8"/>
      </g>
     </g>
     <g id="text_24">
      <!-- Mic16 -->
      <g transform="translate(7.2 133.793234) scale(0.12 -0.12)">
       <use xlink:href="#LiberationSerif-4d"/>
       <use xlink:href="#LiberationSerif-69" x="88.916016"/>
       <use xlink:href="#LiberationSerif-63" x="116.699219"/>
       <use xlink:href="#LiberationSerif-31" x="161.083984"/>
       <use xlink:href="#LiberationSerif-36" x="211.083984"/>
      </g>
     </g>
    </g>
    <g id="ytick_16">
     <g id="line2d_32">
      <g>
       <use xlink:href="#mdd33390ec2" x="45.53125" y="114.205155" style="stroke: #000000; stroke-width: 0.8"/>
      </g>
     </g>
     <g id="text_25">
      <!-- Mic17 -->
      <g transform="translate(7.2 118.368592) scale(0.12 -0.12)">
       <defs>
        <path id="LiberationSerif-37" d="M 628 3200 
L 422 3200 
L 422 4191 
L 3016 4191 
L 3016 3950 
L 1147 0 
L 744 0 
L 2578 3713 
L 738 3713 
L 628 3200 
z
" transform="scale(0.015625)"/>
       </defs>
       <use xlink:href="#LiberationSerif-4d"/>
       <use xlink:href="#LiberationSerif-69" x="88.916016"/>
       <use xlink:href="#LiberationSerif-63" x="116.699219"/>
       <use xlink:href="#LiberationSerif-31" x="161.083984"/>
       <use xlink:href="#LiberationSerif-37" x="211.083984"/>
      </g>
     </g>
    </g>
    <g id="ytick_17">
     <g id="line2d_33">
      <g>
       <use xlink:href="#mdd33390ec2" x="45.53125" y="98.780512" style="stroke: #000000; stroke-width: 0.8"/>
      </g>
     </g>
     <g id="text_26">
      <!-- Mic18 -->
      <g transform="translate(7.2 102.94395) scale(0.12 -0.12)">
       <use xlink:href="#LiberationSerif-4d"/>
       <use xlink:href="#LiberationSerif-69" x="88.916016"/>
       <use xlink:href="#LiberationSerif-63" x="116.699219"/>
       <use xlink:href="#LiberationSerif-31" x="161.083984"/>
       <use xlink:href="#LiberationSerif-38" x="211.083984"/>
      </g>
     </g>
    </g>
    <g id="ytick_18">
     <g id="line2d_34">
      <g>
       <use xlink:href="#mdd33390ec2" x="45.53125" y="83.35587" style="stroke: #000000; stroke-width: 0.8"/>
      </g>
     </g>
     <g id="text_27">
      <!-- Mic19 -->
      <g transform="translate(7.2 87.519307) scale(0.12 -0.12)">
       <use xlink:href="#LiberationSerif-4d"/>
       <use xlink:href="#LiberationSerif-69" x="88.916016"/>
       <use xlink:href="#LiberationSerif-63" x="116.699219"/>
       <use xlink:href="#LiberationSerif-31" x="161.083984"/>
       <use xlink:href="#LiberationSerif-39" x="211.083984"/>
      </g>
     </g>
    </g>
    <g id="ytick_19">
     <g id="line2d_35">
      <g>
       <use xlink:href="#mdd33390ec2" x="45.53125" y="67.931227" style="stroke: #000000; stroke-width: 0.8"/>
      </g>
     </g>
     <g id="text_28">
      <!-- Mic20 -->
      <g transform="translate(7.2 72.094665) scale(0.12 -0.12)">
       <use xlink:href="#LiberationSerif-4d"/>
       <use xlink:href="#LiberationSerif-69" x="88.916016"/>
       <use xlink:href="#LiberationSerif-63" x="116.699219"/>
       <use xlink:href="#LiberationSerif-32" x="161.083984"/>
       <use xlink:href="#LiberationSerif-30" x="211.083984"/>
      </g>
     </g>
    </g>
    <g id="ytick_20">
     <g id="line2d_36">
      <g>
       <use xlink:href="#mdd33390ec2" x="45.53125" y="52.506585" style="stroke: #000000; stroke-width: 0.8"/>
      </g>
     </g>
     <g id="text_29">
      <!-- Mic21 -->
      <g transform="translate(7.2 56.670023) scale(0.12 -0.12)">
       <use xlink:href="#LiberationSerif-4d"/>
       <use xlink:href="#LiberationSerif-69" x="88.916016"/>
       <use xlink:href="#LiberationSerif-63" x="116.699219"/>
       <use xlink:href="#LiberationSerif-32" x="161.083984"/>
       <use xlink:href="#LiberationSerif-31" x="211.083984"/>
      </g>
     </g>
    </g>
   </g>
   <g id="line2d_37">
    <path d="M 216.937614 366.166688 
L 216.937614 31.914688 
" clip-path="url(#pa23b811951)" style="fill: none; stroke: #000000; stroke-width: 0.8; stroke-linecap: square"/>
   </g>
   <g id="patch_23">
    <path d="M 45.53125 366.166688 
L 45.53125 31.914688 
" style="fill: none; stroke: #000000; stroke-width: 0.8; stroke-linejoin: miter; stroke-linecap: square"/>
   </g>
   <g id="patch_24">
    <path d="M 45.53125 366.166688 
L 341.29125 366.166688 
" style="fill: none; stroke: #000000; stroke-width: 0.8; stroke-linejoin: miter; stroke-linecap: square"/>
   </g>
   <g id="patch_25">
    <path d="M 194.534851 34.702282 
Q 172.281819 47.093432 147.183382 45.081139 
" style="fill: none; stroke: #000000; stroke-width: 1.2; stroke-linecap: round"/>
    <path d="M 151.393484 47.625748 
L 147.183382 45.081139 
L 151.74513 43.239822 
" style="fill: none; stroke: #000000; stroke-width: 1.2; stroke-linecap: round"/>
   </g>
   <g id="text_30">
    <!-- Mean ρ = -0.38 -->
    <g transform="translate(172.590418 29.369622) scale(0.11 -0.11)">
     <defs>
      <path id="LiberationSerif-65" d="M 813 1478 
L 813 1422 
Q 813 991 908 752 
Q 1003 513 1201 388 
Q 1400 263 1722 263 
Q 1891 263 2122 291 
Q 2353 319 2503 353 
L 2503 178 
Q 2353 81 2095 9 
Q 1838 -63 1569 -63 
Q 884 -63 567 306 
Q 250 675 250 1491 
Q 250 2259 572 2637 
Q 894 3016 1491 3016 
Q 2619 3016 2619 1734 
L 2619 1478 
L 813 1478 
z
M 1491 2766 
Q 1166 2766 992 2503 
Q 819 2241 819 1728 
L 2075 1728 
Q 2075 2288 1931 2527 
Q 1788 2766 1491 2766 
z
" transform="scale(0.015625)"/>
      <path id="LiberationSerif-61" d="M 1453 3003 
Q 1934 3003 2161 2806 
Q 2388 2609 2388 2203 
L 2388 219 
L 2753 141 
L 2753 0 
L 1947 0 
L 1888 294 
Q 1531 -63 978 -63 
Q 225 -63 225 813 
Q 225 1106 339 1298 
Q 453 1491 703 1592 
Q 953 1694 1428 1703 
L 1869 1716 
L 1869 2175 
Q 1869 2478 1758 2622 
Q 1647 2766 1416 2766 
Q 1103 2766 844 2619 
L 738 2253 
L 563 2253 
L 563 2894 
Q 1069 3003 1453 3003 
z
M 1869 1497 
L 1459 1484 
Q 1041 1469 892 1322 
Q 744 1175 744 831 
Q 744 281 1191 281 
Q 1403 281 1558 329 
Q 1713 378 1869 453 
L 1869 1497 
z
" transform="scale(0.015625)"/>
      <path id="LiberationSerif-6e" d="M 1013 2700 
Q 1253 2838 1525 2927 
Q 1797 3016 1978 3016 
Q 2359 3016 2553 2794 
Q 2747 2572 2747 2150 
L 2747 219 
L 3103 141 
L 3103 0 
L 1838 0 
L 1838 141 
L 2228 219 
L 2228 2094 
Q 2228 2353 2101 2501 
Q 1975 2650 1709 2650 
Q 1428 2650 1019 2559 
L 1019 219 
L 1416 141 
L 1416 0 
L 147 0 
L 147 141 
L 500 219 
L 500 2719 
L 147 2797 
L 147 2938 
L 984 2938 
L 1013 2700 
z
" transform="scale(0.015625)"/>
      <path id="LiberationSerif-20" transform="scale(0.015625)"/>
      <path id="LiberationSerif-3c1" d="M 413 1753 
Q 413 2363 702 2683 
Q 991 3003 1519 3003 
Q 1925 3003 2251 2800 
Q 2578 2597 2756 2222 
Q 2934 1847 2934 1350 
Q 2934 909 2776 592 
Q 2619 275 2333 106 
Q 2047 -63 1681 -63 
Q 1316 -63 928 69 
L 928 -1363 
L 413 -1363 
L 413 1753 
z
M 1606 188 
Q 1994 188 2191 477 
Q 2388 766 2388 1309 
Q 2388 1753 2281 2061 
Q 2175 2369 1983 2528 
Q 1791 2688 1538 2688 
Q 928 2688 928 1797 
L 928 322 
Q 1266 188 1606 188 
z
" transform="scale(0.015625)"/>
      <path id="LiberationSerif-3d" d="M 3297 1644 
L 3297 1325 
L 319 1325 
L 319 1644 
L 3297 1644 
z
M 3297 2925 
L 3297 2606 
L 319 2606 
L 319 2925 
L 3297 2925 
z
" transform="scale(0.015625)"/>
      <path id="LiberationSerif-2d" d="M 238 1269 
L 238 1747 
L 1900 1747 
L 1900 1269 
L 238 1269 
z
" transform="scale(0.015625)"/>
     </defs>
     <use xlink:href="#LiberationSerif-4d"/>
     <use xlink:href="#LiberationSerif-65" x="88.916016"/>
     <use xlink:href="#LiberationSerif-61" x="133.300781"/>
     <use xlink:href="#LiberationSerif-6e" x="177.685547"/>
     <use xlink:href="#LiberationSerif-20" x="227.685547"/>
     <use xlink:href="#LiberationSerif-3c1" x="252.685547"/>
     <use xlink:href="#LiberationSerif-20" x="302.587891"/>
     <use xlink:href="#LiberationSerif-3d" x="327.587891"/>
     <use xlink:href="#LiberationSerif-20" x="383.984375"/>
     <use xlink:href="#LiberationSerif-2d" x="408.984375"/>
     <use xlink:href="#LiberationSerif-30" x="442.285156"/>
     <use xlink:href="#LiberationSerif-2e" x="492.285156"/>
     <use xlink:href="#LiberationSerif-33" x="517.285156"/>
     <use xlink:href="#LiberationSerif-38" x="567.285156"/>
    </g>
   </g>
   <g id="text_31">
    <!-- Mic module ρ (vs. Ast GWAS OR) -->
    <g transform="translate(91.862031 16.914688) scale(0.14 -0.14)">
     <defs>
      <path id="LiberationSerif-Bold-4d" d="M 2756 0 
L 2584 0 
L 1038 3541 
L 1038 313 
L 1600 228 
L 1600 0 
L 109 0 
L 109 228 
L 647 313 
L 647 3881 
L 109 3963 
L 109 4191 
L 1756 4191 
L 2953 1434 
L 4175 4191 
L 5856 4191 
L 5856 3963 
L 5319 3881 
L 5319 313 
L 5856 228 
L 5856 0 
L 3772 0 
L 3772 228 
L 4334 313 
L 4334 3541 
L 2756 0 
z
" transform="scale(0.015625)"/>
      <path id="LiberationSerif-Bold-69" d="M 1363 281 
L 1684 206 
L 1684 0 
L 141 0 
L 141 206 
L 459 281 
L 459 2656 
L 159 2731 
L 159 2938 
L 1363 2938 
L 1363 281 
z
M 428 3963 
Q 428 4166 570 4303 
Q 713 4441 909 4441 
Q 1109 4441 1248 4302 
Q 1388 4163 1388 3963 
Q 1388 3766 1250 3623 
Q 1113 3481 909 3481 
Q 709 3481 568 3620 
Q 428 3759 428 3963 
z
" transform="scale(0.015625)"/>
      <path id="LiberationSerif-Bold-6f" d="M 2956 1484 
Q 2956 694 2617 315 
Q 2278 -63 1581 -63 
Q 906 -63 575 320 
Q 244 703 244 1484 
Q 244 2263 580 2639 
Q 916 3016 1606 3016 
Q 2303 3016 2629 2627 
Q 2956 2238 2956 1484 
z
M 2041 1484 
Q 2041 2172 1939 2436 
Q 1838 2700 1588 2700 
Q 1347 2700 1253 2447 
Q 1159 2194 1159 1484 
Q 1159 763 1254 506 
Q 1350 250 1588 250 
Q 1834 250 1937 520 
Q 2041 791 2041 1484 
z
" transform="scale(0.015625)"/>
      <path id="LiberationSerif-Bold-64" d="M 2291 166 
Q 2116 53 2022 17 
Q 1928 -19 1809 -41 
Q 1691 -63 1547 -63 
Q 897 -63 578 310 
Q 259 684 259 1459 
Q 259 2222 601 2619 
Q 944 3016 1594 3016 
Q 1934 3016 2281 2931 
Q 2263 3034 2263 3416 
L 2263 4159 
L 1963 4234 
L 1963 4441 
L 3166 4441 
L 3166 281 
L 3488 206 
L 3488 0 
L 2356 0 
L 2291 166 
z
M 1175 1484 
Q 1175 900 1322 592 
Q 1469 284 1744 284 
Q 1994 284 2263 419 
L 2263 2631 
Q 2019 2697 1769 2697 
Q 1488 2697 1331 2389 
Q 1175 2081 1175 1484 
z
" transform="scale(0.015625)"/>
      <path id="LiberationSerif-Bold-75" d="M 2203 256 
L 1991 147 
Q 1553 -78 1203 -78 
Q 391 -78 391 788 
L 391 2656 
L 97 2731 
L 97 2938 
L 1294 2938 
L 1294 909 
Q 1294 647 1405 500 
Q 1516 353 1722 353 
Q 1959 353 2197 459 
L 2197 2656 
L 1928 2731 
L 1928 2938 
L 3100 2938 
L 3100 281 
L 3388 206 
L 3388 0 
L 2247 0 
L 2203 256 
z
" transform="scale(0.015625)"/>
      <path id="LiberationSerif-Bold-6c" d="M 1347 281 
L 1669 206 
L 1669 0 
L 125 0 
L 125 206 
L 444 281 
L 444 4159 
L 144 4234 
L 144 4441 
L 1347 4441 
L 1347 281 
z
" transform="scale(0.015625)"/>
      <path id="LiberationSerif-Bold-74" d="M 1369 -63 
Q 947 -63 717 128 
Q 488 319 488 678 
L 488 2613 
L 103 2613 
L 103 2816 
L 556 2938 
L 922 3603 
L 1391 3603 
L 1391 2938 
L 2009 2938 
L 2009 2613 
L 1391 2613 
L 1391 734 
Q 1391 531 1475 428 
Q 1559 325 1697 325 
Q 1863 325 2103 375 
L 2103 109 
Q 2009 44 1782 -9 
Q 1556 -63 1369 -63 
z
" transform="scale(0.015625)"/>
     </defs>
     <use xlink:href="#LiberationSerif-Bold-4d"/>
     <use xlink:href="#LiberationSerif-Bold-69" x="94.384766"/>
     <use xlink:href="#LiberationSerif-Bold-63" x="122.167969"/>
     <use xlink:href="#LiberationSerif-Bold-20" x="166.552734"/>
     <use xlink:href="#LiberationSerif-Bold-6d" x="191.552734"/>
     <use xlink:href="#LiberationSerif-Bold-6f" x="274.853516"/>
     <use xlink:href="#LiberationSerif-Bold-64" x="324.853516"/>
     <use xlink:href="#LiberationSerif-Bold-75" x="380.46875"/>
     <use xlink:href="#LiberationSerif-Bold-6c" x="436.083984"/>
     <use xlink:href="#LiberationSerif-Bold-65" x="463.867188"/>
     <use xlink:href="#LiberationSerif-Bold-20" x="508.251953"/>
     <use xlink:href="#LiberationSerif-Bold-3c1" x="533.251953"/>
     <use xlink:href="#LiberationSerif-Bold-20" x="586.767578"/>
     <use xlink:href="#LiberationSerif-Bold-28" x="611.767578"/>
     <use xlink:href="#LiberationSerif-Bold-76" x="645.068359"/>
     <use xlink:href="#LiberationSerif-Bold-73" x="695.068359"/>
     <use xlink:href="#LiberationSerif-Bold-2e" x="733.984375"/>
     <use xlink:href="#LiberationSerif-Bold-20" x="758.984375"/>
     <use xlink:href="#LiberationSerif-Bold-41" x="778.484375"/>
     <use xlink:href="#LiberationSerif-Bold-73" x="850.701172"/>
     <use xlink:href="#LiberationSerif-Bold-74" x="889.617188"/>
     <use xlink:href="#LiberationSerif-Bold-20" x="922.917969"/>
     <use xlink:href="#LiberationSerif-Bold-47" x="947.917969"/>
     <use xlink:href="#LiberationSerif-Bold-57" x="1025.701172"/>
     <use xlink:href="#LiberationSerif-Bold-41" x="1114.576172"/>
     <use xlink:href="#LiberationSerif-Bold-53" x="1186.792969"/>
     <use xlink:href="#LiberationSerif-Bold-20" x="1242.408203"/>
     <use xlink:href="#LiberationSerif-Bold-4f" x="1267.408203"/>
     <use xlink:href="#LiberationSerif-Bold-52" x="1345.191406"/>
     <use xlink:href="#LiberationSerif-Bold-29" x="1417.408203"/>
    </g>
   </g>
   <g id="line2d_38">
    <path d="M 143.854645 366.166688 
L 143.854645 31.914688 
" clip-path="url(#pa23b811951)" style="fill: none; stroke-dasharray: 5.55,2.4; stroke-dashoffset: 0; stroke: #000000; stroke-width: 1.5"/>
   </g>
  </g>
 </g>
 <defs>
  <clipPath id="pa23b811951">
   <rect x="45.53125" y="31.914688" width="295.76" height="334.252"/>
  </clipPath>
 </defs>
</svg>
