<?xml version="1.0" encoding="utf-8" standalone="no"?>
<!DOCTYPE svg PUBLIC "-//W3C//DTD SVG 1.1//EN"
  "http://www.w3.org/Graphics/SVG/1.1/DTD/svg11.dtd">
<svg xmlns:xlink="http://www.w3.org/1999/xlink" width="481.056094pt" height="392.654375pt" viewBox="0 0 481.056094 392.654375" xmlns="http://www.w3.org/2000/svg" version="1.1">
 <metadata>
  <rdf:RDF xmlns:dc="http://purl.org/dc/elements/1.1/" xmlns:cc="http://creativecommons.org/ns#" xmlns:rdf="http://www.w3.org/1999/02/22-rdf-syntax-ns#">
   <cc:Work>
    <dc:type rdf:resource="http://purl.org/dc/dcmitype/StillImage"/>
    <dc:date>2026-05-22T17:23:39.712279</dc:date>
    <dc:format>image/svg+xml</dc:format>
    <dc:creator>
     <cc:Agent>
      <dc:title>Matplotlib v3.9.4, https://matplotlib.org/</dc:title>
     </cc:Agent>
    </dc:creator>
   </cc:Work>
  </rdf:RDF>
 </metadata>
 <defs>
  <style type="text/css">*{stroke-linejoin: round; stroke-linecap: butt}</style>
 </defs>
 <g id="figure_1">
  <g id="patch_1">
   <path d="M 0 392.654375 
L 481.056094 392.654375 
L 481.056094 0 
L 0 0 
z
" style="fill: #ffffff"/>
  </g>
  <g id="axes_1">
   <g id="patch_2">
    <path d="M 83.256094 356.28875 
L 473.856094 356.28875 
L 473.856094 23.64875 
L 83.256094 23.64875 
z
" style="fill: #ffffff"/>
   </g>
   <g id="line2d_1">
    <path d="M 346.613372 356.28875 
L 346.613372 23.64875 
" clip-path="url(#pecab176e77)" style="fill: none; stroke: #333333; stroke-width: 0.6; stroke-linecap: square"/>
   </g>
   <g id="patch_3">
    <path d="M 346.613372 341.16875 
L 141.944428 341.16875 
L 141.944428 329.848964 
L 346.613372 329.848964 
z
" clip-path="url(#pecab176e77)" style="fill: #b0b8c4; stroke: #ffffff; stroke-width: 0.5; stroke-linejoin: miter"/>
   </g>
   <g id="patch_4">
    <path d="M 346.613372 324.997627 
L 142.969414 324.997627 
L 142.969414 313.677841 
L 346.613372 313.677841 
z
" clip-path="url(#pecab176e77)" style="fill: #b0b8c4; stroke: #ffffff; stroke-width: 0.5; stroke-linejoin: miter"/>
   </g>
   <g id="patch_5">
    <path d="M 346.613372 308.826504 
L 144.026848 308.826504 
L 144.026848 297.506718 
L 346.613372 297.506718 
z
" clip-path="url(#pecab176e77)" style="fill: #b0b8c4; stroke: #ffffff; stroke-width: 0.5; stroke-linejoin: miter"/>
   </g>
   <g id="patch_6">
    <path d="M 346.613372 292.655381 
L 190.007733 292.655381 
L 190.007733 281.335595 
L 346.613372 281.335595 
z
" clip-path="url(#pecab176e77)" style="fill: #b0b8c4; stroke: #ffffff; stroke-width: 0.5; stroke-linejoin: miter"/>
   </g>
   <g id="patch_7">
    <path d="M 346.613372 276.484258 
L 191.488037 276.484258 
L 191.488037 265.164472 
L 346.613372 265.164472 
z
" clip-path="url(#pecab176e77)" style="fill: #b0b8c4; stroke: #ffffff; stroke-width: 0.5; stroke-linejoin: miter"/>
   </g>
   <g id="patch_8">
    <path d="M 346.613372 260.313135 
L 196.217589 260.313135 
L 196.217589 248.993349 
L 346.613372 248.993349 
z
" clip-path="url(#pecab176e77)" style="fill: #b0b8c4; stroke: #ffffff; stroke-width: 0.5; stroke-linejoin: miter"/>
   </g>
   <g id="patch_9">
    <path d="M 346.613372 244.142012 
L 199.138781 244.142012 
L 199.138781 232.822226 
L 346.613372 232.822226 
z
" clip-path="url(#pecab176e77)" style="fill: #b0b8c4; stroke: #ffffff; stroke-width: 0.5; stroke-linejoin: miter"/>
   </g>
   <g id="patch_10">
    <path d="M 346.613372 227.970889 
L 226.183743 227.970889 
L 226.183743 216.651103 
L 346.613372 216.651103 
z
" clip-path="url(#pecab176e77)" style="fill: #b0b8c4; stroke: #ffffff; stroke-width: 0.5; stroke-linejoin: miter"/>
   </g>
   <g id="patch_11">
    <path d="M 346.613372 211.799766 
L 246.008074 211.799766 
L 246.008074 200.47998 
L 346.613372 200.47998 
z
" clip-path="url(#pecab176e77)" style="fill: #b0b8c4; stroke: #ffffff; stroke-width: 0.5; stroke-linejoin: miter"/>
   </g>
   <g id="patch_12">
    <path d="M 346.613372 195.628643 
L 247.418027 195.628643 
L 247.418027 184.308857 
L 346.613372 184.308857 
z
" clip-path="url(#pecab176e77)" style="fill: #b0b8c4; stroke: #ffffff; stroke-width: 0.5; stroke-linejoin: miter"/>
   </g>
   <g id="patch_13">
    <path d="M 346.613372 179.45752 
L 247.51374 179.45752 
L 247.51374 168.137734 
L 346.613372 168.137734 
z
" clip-path="url(#pecab176e77)" style="fill: #b0b8c4; stroke: #ffffff; stroke-width: 0.5; stroke-linejoin: miter"/>
   </g>
   <g id="patch_14">
    <path d="M 346.613372 163.286397 
L 253.277279 163.286397 
L 253.277279 151.966611 
L 346.613372 151.966611 
z
" clip-path="url(#pecab176e77)" style="fill: #b0b8c4; stroke: #ffffff; stroke-width: 0.5; stroke-linejoin: miter"/>
   </g>
   <g id="patch_15">
    <path d="M 346.613372 147.115274 
L 257.329059 147.115274 
L 257.329059 135.795488 
L 346.613372 135.795488 
z
" clip-path="url(#pecab176e77)" style="fill: #b0b8c4; stroke: #ffffff; stroke-width: 0.5; stroke-linejoin: miter"/>
   </g>
   <g id="patch_16">
    <path d="M 346.613372 130.944151 
L 259.062358 130.944151 
L 259.062358 119.624365 
L 346.613372 119.624365 
z
" clip-path="url(#pecab176e77)" style="fill: #b0b8c4; stroke: #ffffff; stroke-width: 0.5; stroke-linejoin: miter"/>
   </g>
   <g id="patch_17">
    <path d="M 346.613372 114.773028 
L 279.657913 114.773028 
L 279.657913 103.453242 
L 346.613372 103.453242 
z
" clip-path="url(#pecab176e77)" style="fill: #b0b8c4; stroke: #ffffff; stroke-width: 0.5; stroke-linejoin: miter"/>
   </g>
   <g id="patch_18">
    <path d="M 346.613372 98.601905 
L 342.255365 98.601905 
L 342.255365 87.282119 
L 346.613372 87.282119 
z
" clip-path="url(#pecab176e77)" style="fill: #b0b8c4; stroke: #ffffff; stroke-width: 0.5; stroke-linejoin: miter"/>
   </g>
   <g id="patch_19">
    <path d="M 346.613372 82.430782 
L 360.46525 82.430782 
L 360.46525 71.110996 
L 346.613372 71.110996 
z
" clip-path="url(#pecab176e77)" style="fill: #b0b8c4; stroke: #ffffff; stroke-width: 0.5; stroke-linejoin: miter"/>
   </g>
   <g id="patch_20">
    <path d="M 346.613372 66.259659 
L 392.325287 66.259659 
L 392.325287 54.939873 
L 346.613372 54.939873 
z
" clip-path="url(#pecab176e77)" style="fill: #b0b8c4; stroke: #ffffff; stroke-width: 0.5; stroke-linejoin: miter"/>
   </g>
   <g id="patch_21">
    <path d="M 346.613372 50.088536 
L 437.853519 50.088536 
L 437.853519 38.76875 
L 346.613372 38.76875 
z
" clip-path="url(#pecab176e77)" style="fill: #c44e52; stroke: #ffffff; stroke-width: 0.5; stroke-linejoin: miter"/>
   </g>
   <g id="matplotlib.axis_1">
    <g id="xtick_1">
     <g id="line2d_2">
      <defs>
       <path id="maf3efbee2d" d="M 0 0 
L 0 3.5 
" style="stroke: #000000; stroke-width: 0.8"/>
      </defs>
      <g>
       <use xlink:href="#maf3efbee2d" x="88.67417" y="356.28875" style="stroke: #000000; stroke-width: 0.8"/>
      </g>
     </g>
     <g id="text_1">
      <!-- −0.5 -->
      <g transform="translate(79.604639 370.227813) scale(0.1 -0.1)">
       <defs>
        <path id="LiberationSerif-2212" d="M 3297 2284 
L 3297 1966 
L 319 1966 
L 319 2284 
L 3297 2284 
z
" transform="scale(0.015625)"/>
        <path id="LiberationSerif-30" d="M 2956 2113 
Q 2956 -63 1581 -63 
Q 919 -63 581 493 
Q 244 1050 244 2113 
Q 244 3153 581 3704 
Q 919 4256 1606 4256 
Q 2269 4256 2612 3711 
Q 2956 3166 2956 2113 
z
M 2381 2113 
Q 2381 3119 2190 3562 
Q 2000 4006 1581 4006 
Q 1175 4006 997 3587 
Q 819 3169 819 2113 
Q 819 1050 1000 617 
Q 1181 184 1581 184 
Q 1994 184 2187 639 
Q 2381 1094 2381 2113 
z
" transform="scale(0.015625)"/>
        <path id="LiberationSerif-2e" d="M 1178 288 
Q 1178 134 1070 21 
Q 963 -91 800 -91 
Q 638 -91 530 21 
Q 422 134 422 288 
Q 422 447 531 556 
Q 641 666 800 666 
Q 959 666 1068 556 
Q 1178 447 1178 288 
z
" transform="scale(0.015625)"/>
        <path id="LiberationSerif-35" d="M 1516 2450 
Q 2241 2450 2595 2153 
Q 2950 1856 2950 1247 
Q 2950 616 2565 276 
Q 2181 -63 1466 -63 
Q 872 -63 406 72 
L 372 953 
L 578 953 
L 719 366 
Q 856 291 1048 244 
Q 1241 197 1416 197 
Q 1909 197 2142 430 
Q 2375 663 2375 1216 
Q 2375 1603 2275 1801 
Q 2175 2000 1956 2094 
Q 1738 2188 1369 2188 
Q 1084 2188 813 2113 
L 513 2113 
L 513 4191 
L 2638 4191 
L 2638 3713 
L 794 3713 
L 794 2375 
Q 1131 2450 1516 2450 
z
" transform="scale(0.015625)"/>
       </defs>
       <use xlink:href="#LiberationSerif-2212"/>
       <use xlink:href="#LiberationSerif-30" x="56.396484"/>
       <use xlink:href="#LiberationSerif-2e" x="106.396484"/>
       <use xlink:href="#LiberationSerif-35" x="131.396484"/>
      </g>
     </g>
    </g>
    <g id="xtick_2">
     <g id="line2d_3">
      <g>
       <use xlink:href="#maf3efbee2d" x="140.26201" y="356.28875" style="stroke: #000000; stroke-width: 0.8"/>
      </g>
     </g>
     <g id="text_2">
      <!-- −0.4 -->
      <g transform="translate(131.192479 370.227813) scale(0.1 -0.1)">
       <defs>
        <path id="LiberationSerif-34" d="M 2531 922 
L 2531 0 
L 1994 0 
L 1994 922 
L 125 922 
L 125 1338 
L 2172 4213 
L 2531 4213 
L 2531 1369 
L 3100 1369 
L 3100 922 
L 2531 922 
z
M 1994 3478 
L 1978 3478 
L 478 1369 
L 1994 1369 
L 1994 3478 
z
" transform="scale(0.015625)"/>
       </defs>
       <use xlink:href="#LiberationSerif-2212"/>
       <use xlink:href="#LiberationSerif-30" x="56.396484"/>
       <use xlink:href="#LiberationSerif-2e" x="106.396484"/>
       <use xlink:href="#LiberationSerif-34" x="131.396484"/>
      </g>
     </g>
    </g>
    <g id="xtick_3">
     <g id="line2d_4">
      <g>
       <use xlink:href="#maf3efbee2d" x="191.849851" y="356.28875" style="stroke: #000000; stroke-width: 0.8"/>
      </g>
     </g>
     <g id="text_3">
      <!-- −0.3 -->
      <g transform="translate(182.780319 370.227813) scale(0.1 -0.1)">
       <defs>
        <path id="LiberationSerif-33" d="M 2950 1141 
Q 2950 575 2562 256 
Q 2175 -63 1466 -63 
Q 872 -63 341 72 
L 306 953 
L 513 953 
L 653 366 
Q 775 297 998 247 
Q 1222 197 1416 197 
Q 1906 197 2140 422 
Q 2375 647 2375 1172 
Q 2375 1584 2159 1798 
Q 1944 2013 1491 2034 
L 1044 2059 
L 1044 2316 
L 1491 2344 
Q 1844 2363 2012 2563 
Q 2181 2763 2181 3169 
Q 2181 3591 1998 3783 
Q 1816 3975 1416 3975 
Q 1250 3975 1069 3929 
Q 888 3884 750 3809 
L 641 3297 
L 434 3297 
L 434 4103 
Q 744 4184 969 4211 
Q 1194 4238 1416 4238 
Q 2759 4238 2759 3206 
Q 2759 2772 2520 2514 
Q 2281 2256 1844 2194 
Q 2413 2128 2681 1867 
Q 2950 1606 2950 1141 
z
" transform="scale(0.015625)"/>
       </defs>
       <use xlink:href="#LiberationSerif-2212"/>
       <use xlink:href="#LiberationSerif-30" x="56.396484"/>
       <use xlink:href="#LiberationSerif-2e" x="106.396484"/>
       <use xlink:href="#LiberationSerif-33" x="131.396484"/>
      </g>
     </g>
    </g>
    <g id="xtick_4">
     <g id="line2d_5">
      <g>
       <use xlink:href="#maf3efbee2d" x="243.437691" y="356.28875" style="stroke: #000000; stroke-width: 0.8"/>
      </g>
     </g>
     <g id="text_4">
      <!-- −0.2 -->
      <g transform="translate(234.36816 370.227813) scale(0.1 -0.1)">
       <defs>
        <path id="LiberationSerif-32" d="M 2847 0 
L 281 0 
L 281 459 
L 863 988 
Q 1422 1478 1684 1781 
Q 1947 2084 2061 2406 
Q 2175 2728 2175 3144 
Q 2175 3550 1990 3762 
Q 1806 3975 1388 3975 
Q 1222 3975 1047 3929 
Q 872 3884 738 3809 
L 628 3297 
L 422 3297 
L 422 4103 
Q 991 4238 1388 4238 
Q 2075 4238 2420 3952 
Q 2766 3666 2766 3144 
Q 2766 2794 2630 2483 
Q 2494 2172 2212 1864 
Q 1931 1556 1281 1003 
Q 1003 766 691 481 
L 2847 481 
L 2847 0 
z
" transform="scale(0.015625)"/>
       </defs>
       <use xlink:href="#LiberationSerif-2212"/>
       <use xlink:href="#LiberationSerif-30" x="56.396484"/>
       <use xlink:href="#LiberationSerif-2e" x="106.396484"/>
       <use xlink:href="#LiberationSerif-32" x="131.396484"/>
      </g>
     </g>
    </g>
    <g id="xtick_5">
     <g id="line2d_6">
      <g>
       <use xlink:href="#maf3efbee2d" x="295.025531" y="356.28875" style="stroke: #000000; stroke-width: 0.8"/>
      </g>
     </g>
     <g id="text_5">
      <!-- −0.1 -->
      <g transform="translate(285.956 370.227813) scale(0.1 -0.1)">
       <defs>
        <path id="LiberationSerif-31" d="M 1959 250 
L 2816 166 
L 2816 0 
L 563 0 
L 563 166 
L 1422 250 
L 1422 3669 
L 575 3366 
L 575 3531 
L 1797 4225 
L 1959 4225 
L 1959 250 
z
" transform="scale(0.015625)"/>
       </defs>
       <use xlink:href="#LiberationSerif-2212"/>
       <use xlink:href="#LiberationSerif-30" x="56.396484"/>
       <use xlink:href="#LiberationSerif-2e" x="106.396484"/>
       <use xlink:href="#LiberationSerif-31" x="131.396484"/>
      </g>
     </g>
    </g>
    <g id="xtick_6">
     <g id="line2d_7">
      <g>
       <use xlink:href="#maf3efbee2d" x="346.613372" y="356.28875" style="stroke: #000000; stroke-width: 0.8"/>
      </g>
     </g>
     <g id="text_6">
      <!-- 0.0 -->
      <g transform="translate(340.363372 370.227813) scale(0.1 -0.1)">
       <use xlink:href="#LiberationSerif-30"/>
       <use xlink:href="#LiberationSerif-2e" x="50"/>
       <use xlink:href="#LiberationSerif-30" x="75"/>
      </g>
     </g>
    </g>
    <g id="xtick_7">
     <g id="line2d_8">
      <g>
       <use xlink:href="#maf3efbee2d" x="398.201212" y="356.28875" style="stroke: #000000; stroke-width: 0.8"/>
      </g>
     </g>
     <g id="text_7">
      <!-- 0.1 -->
      <g transform="translate(391.951212 370.227813) scale(0.1 -0.1)">
       <use xlink:href="#LiberationSerif-30"/>
       <use xlink:href="#LiberationSerif-2e" x="50"/>
       <use xlink:href="#LiberationSerif-31" x="75"/>
      </g>
     </g>
    </g>
    <g id="xtick_8">
     <g id="line2d_9">
      <g>
       <use xlink:href="#maf3efbee2d" x="449.789052" y="356.28875" style="stroke: #000000; stroke-width: 0.8"/>
      </g>
     </g>
     <g id="text_8">
      <!-- 0.2 -->
      <g transform="translate(443.539052 370.227813) scale(0.1 -0.1)">
       <use xlink:href="#LiberationSerif-30"/>
       <use xlink:href="#LiberationSerif-2e" x="50"/>
       <use xlink:href="#LiberationSerif-32" x="75"/>
      </g>
     </g>
    </g>
    <g id="text_9">
     <!-- Mean ΔZ across Mic modules (unweighted) -->
     <g transform="translate(190.774063 383.296562) scale(0.1 -0.1)">
      <defs>
       <path id="LiberationSerif-4d" d="M 2694 0 
L 2584 0 
L 1050 3603 
L 1050 250 
L 1613 166 
L 1613 0 
L 184 0 
L 184 166 
L 722 250 
L 722 3944 
L 184 4025 
L 184 4191 
L 1453 4191 
L 2816 1003 
L 4303 4191 
L 5503 4191 
L 5503 4025 
L 4966 3944 
L 4966 250 
L 5503 166 
L 5503 0 
L 3803 0 
L 3803 166 
L 4366 250 
L 4366 3603 
L 2694 0 
z
" transform="scale(0.015625)"/>
       <path id="LiberationSerif-65" d="M 813 1478 
L 813 1422 
Q 813 991 908 752 
Q 1003 513 1201 388 
Q 1400 263 1722 263 
Q 1891 263 2122 291 
Q 2353 319 2503 353 
L 2503 178 
Q 2353 81 2095 9 
Q 1838 -63 1569 -63 
Q 884 -63 567 306 
Q 250 675 250 1491 
Q 250 2259 572 2637 
Q 894 3016 1491 3016 
Q 2619 3016 2619 1734 
L 2619 1478 
L 813 1478 
z
M 1491 2766 
Q 1166 2766 992 2503 
Q 819 2241 819 1728 
L 2075 1728 
Q 2075 2288 1931 2527 
Q 1788 2766 1491 2766 
z
" transform="scale(0.015625)"/>
       <path id="LiberationSerif-61" d="M 1453 3003 
Q 1934 3003 2161 2806 
Q 2388 2609 2388 2203 
L 2388 219 
L 2753 141 
L 2753 0 
L 1947 0 
L 1888 294 
Q 1531 -63 978 -63 
Q 225 -63 225 813 
Q 225 1106 339 1298 
Q 453 1491 703 1592 
Q 953 1694 1428 1703 
L 1869 1716 
L 1869 2175 
Q 1869 2478 1758 2622 
Q 1647 2766 1416 2766 
Q 1103 2766 844 2619 
L 738 2253 
L 563 2253 
L 563 2894 
Q 1069 3003 1453 3003 
z
M 1869 1497 
L 1459 1484 
Q 1041 1469 892 1322 
Q 744 1175 744 831 
Q 744 281 1191 281 
Q 1403 281 1558 329 
Q 1713 378 1869 453 
L 1869 1497 
z
" transform="scale(0.015625)"/>
       <path id="LiberationSerif-6e" d="M 1013 2700 
Q 1253 2838 1525 2927 
Q 1797 3016 1978 3016 
Q 2359 3016 2553 2794 
Q 2747 2572 2747 2150 
L 2747 219 
L 3103 141 
L 3103 0 
L 1838 0 
L 1838 141 
L 2228 219 
L 2228 2094 
Q 2228 2353 2101 2501 
Q 1975 2650 1709 2650 
Q 1428 2650 1019 2559 
L 1019 219 
L 1416 141 
L 1416 0 
L 147 0 
L 147 141 
L 500 219 
L 500 2719 
L 147 2797 
L 147 2938 
L 984 2938 
L 1013 2700 
z
" transform="scale(0.015625)"/>
       <path id="LiberationSerif-20" transform="scale(0.015625)"/>
       <path id="LiberationSerif-394" d="M 3875 0 
L 247 0 
L 244 250 
L 1734 4225 
L 2328 4225 
L 3875 250 
L 3875 0 
z
M 1894 3738 
L 644 341 
L 3163 341 
L 1894 3738 
z
" transform="scale(0.015625)"/>
       <path id="LiberationSerif-5a" d="M 306 294 
L 2656 3922 
L 1875 3922 
Q 1103 3922 813 3859 
L 716 3200 
L 500 3200 
L 500 4191 
L 3353 4191 
L 3353 3922 
L 988 263 
L 1894 263 
Q 2256 263 2629 297 
Q 3003 331 3156 366 
L 3341 1166 
L 3559 1166 
L 3475 0 
L 306 0 
L 306 294 
z
" transform="scale(0.015625)"/>
       <path id="LiberationSerif-63" d="M 2644 178 
Q 2491 66 2222 1 
Q 1953 -63 1672 -63 
Q 244 -63 244 1491 
Q 244 2225 608 2620 
Q 972 3016 1650 3016 
Q 2072 3016 2572 2919 
L 2572 2100 
L 2400 2100 
L 2266 2619 
Q 2006 2766 1644 2766 
Q 806 2766 806 1491 
Q 806 828 1061 545 
Q 1316 263 1850 263 
Q 2306 263 2644 366 
L 2644 178 
z
" transform="scale(0.015625)"/>
       <path id="LiberationSerif-72" d="M 2075 3016 
L 2075 2222 
L 1941 2222 
L 1759 2566 
Q 1603 2566 1389 2523 
Q 1175 2481 1019 2413 
L 1019 219 
L 1522 141 
L 1522 0 
L 128 0 
L 128 141 
L 500 219 
L 500 2719 
L 128 2797 
L 128 2938 
L 984 2938 
L 1013 2572 
Q 1200 2728 1520 2872 
Q 1841 3016 2028 3016 
L 2075 3016 
z
" transform="scale(0.015625)"/>
       <path id="LiberationSerif-6f" d="M 2956 1484 
Q 2956 -63 1581 -63 
Q 919 -63 581 334 
Q 244 731 244 1484 
Q 244 2228 581 2622 
Q 919 3016 1606 3016 
Q 2275 3016 2615 2630 
Q 2956 2244 2956 1484 
z
M 2394 1484 
Q 2394 2159 2197 2462 
Q 2000 2766 1581 2766 
Q 1172 2766 989 2475 
Q 806 2184 806 1484 
Q 806 775 992 479 
Q 1178 184 1581 184 
Q 1994 184 2194 490 
Q 2394 797 2394 1484 
z
" transform="scale(0.015625)"/>
       <path id="LiberationSerif-73" d="M 2259 825 
Q 2259 388 1982 162 
Q 1706 -63 1166 -63 
Q 947 -63 683 -17 
Q 419 28 269 84 
L 269 806 
L 409 806 
L 563 397 
Q 797 184 1172 184 
Q 1778 184 1778 703 
Q 1778 1084 1300 1247 
L 1022 1338 
Q 706 1441 562 1547 
Q 419 1653 341 1808 
Q 263 1963 263 2181 
Q 263 2569 527 2792 
Q 791 3016 1241 3016 
Q 1563 3016 2047 2919 
L 2047 2278 
L 1900 2278 
L 1769 2619 
Q 1603 2766 1247 2766 
Q 994 2766 861 2641 
Q 728 2516 728 2303 
Q 728 2125 848 2003 
Q 969 1881 1213 1800 
Q 1672 1644 1812 1572 
Q 1953 1500 2051 1395 
Q 2150 1291 2204 1156 
Q 2259 1022 2259 825 
z
" transform="scale(0.015625)"/>
       <path id="LiberationSerif-69" d="M 1184 3897 
Q 1184 3759 1084 3659 
Q 984 3559 844 3559 
Q 706 3559 606 3659 
Q 506 3759 506 3897 
Q 506 4038 606 4138 
Q 706 4238 844 4238 
Q 984 4238 1084 4138 
Q 1184 4038 1184 3897 
z
M 1153 219 
L 1656 141 
L 1656 0 
L 134 0 
L 134 141 
L 634 219 
L 634 2719 
L 219 2797 
L 219 2938 
L 1153 2938 
L 1153 219 
z
" transform="scale(0.015625)"/>
       <path id="LiberationSerif-6d" d="M 1019 2700 
Q 1253 2834 1515 2925 
Q 1778 3016 1978 3016 
Q 2194 3016 2376 2934 
Q 2559 2853 2650 2675 
Q 2891 2809 3214 2912 
Q 3538 3016 3750 3016 
Q 4500 3016 4500 2150 
L 4500 219 
L 4878 141 
L 4878 0 
L 3544 0 
L 3544 141 
L 3981 219 
L 3981 2094 
Q 3981 2631 3481 2631 
Q 3400 2631 3292 2618 
Q 3184 2606 3076 2590 
Q 2969 2575 2870 2554 
Q 2772 2534 2706 2522 
Q 2759 2353 2759 2150 
L 2759 219 
L 3200 141 
L 3200 0 
L 1806 0 
L 1806 141 
L 2241 219 
L 2241 2094 
Q 2241 2353 2108 2492 
Q 1975 2631 1709 2631 
Q 1434 2631 1025 2541 
L 1025 219 
L 1466 141 
L 1466 0 
L 134 0 
L 134 141 
L 506 219 
L 506 2719 
L 134 2797 
L 134 2938 
L 994 2938 
L 1019 2700 
z
" transform="scale(0.015625)"/>
       <path id="LiberationSerif-64" d="M 2259 219 
Q 1906 -63 1434 -63 
Q 231 -63 231 1441 
Q 231 2213 572 2614 
Q 913 3016 1575 3016 
Q 1913 3016 2259 2944 
Q 2241 3047 2241 3463 
L 2241 4225 
L 1747 4300 
L 1747 4441 
L 2759 4441 
L 2759 219 
L 3122 141 
L 3122 0 
L 2297 0 
L 2259 219 
z
M 794 1441 
Q 794 847 994 555 
Q 1194 263 1606 263 
Q 1959 263 2241 384 
L 2241 2706 
Q 1963 2759 1606 2759 
Q 794 2759 794 1441 
z
" transform="scale(0.015625)"/>
       <path id="LiberationSerif-75" d="M 978 838 
Q 978 300 1478 300 
Q 1866 300 2203 397 
L 2203 2719 
L 1759 2797 
L 1759 2938 
L 2719 2938 
L 2719 219 
L 3091 141 
L 3091 0 
L 2234 0 
L 2209 238 
Q 1988 116 1697 26 
Q 1406 -63 1209 -63 
Q 459 -63 459 800 
L 459 2719 
L 84 2797 
L 84 2938 
L 978 2938 
L 978 838 
z
" transform="scale(0.015625)"/>
       <path id="LiberationSerif-6c" d="M 1147 219 
L 1650 141 
L 1650 0 
L 128 0 
L 128 141 
L 628 219 
L 628 4225 
L 128 4300 
L 128 4441 
L 1147 4441 
L 1147 219 
z
" transform="scale(0.015625)"/>
       <path id="LiberationSerif-28" d="M 884 1544 
Q 884 731 993 248 
Q 1103 -234 1337 -565 
Q 1572 -897 1925 -1100 
L 1925 -1363 
Q 1306 -1034 957 -645 
Q 609 -256 445 270 
Q 281 797 281 1544 
Q 281 2288 443 2811 
Q 606 3334 953 3721 
Q 1300 4109 1925 4441 
L 1925 4178 
Q 1544 3959 1319 3617 
Q 1094 3275 989 2819 
Q 884 2363 884 1544 
z
" transform="scale(0.015625)"/>
       <path id="LiberationSerif-77" d="M 3284 -63 
L 3041 -63 
L 2316 1875 
L 1600 -63 
L 1369 -63 
L 353 2719 
L 6 2797 
L 6 2938 
L 1403 2938 
L 1403 2797 
L 916 2713 
L 1613 728 
L 2322 2644 
L 2584 2644 
L 3291 716 
L 3956 2719 
L 3475 2797 
L 3475 2938 
L 4594 2938 
L 4594 2797 
L 4269 2731 
L 3284 -63 
z
" transform="scale(0.015625)"/>
       <path id="LiberationSerif-67" d="M 2719 2009 
Q 2719 1503 2416 1243 
Q 2113 984 1544 984 
Q 1288 984 1069 1031 
L 872 622 
Q 881 569 993 522 
Q 1106 475 1275 475 
L 2144 475 
Q 2619 475 2848 269 
Q 3078 63 3078 -300 
Q 3078 -628 2895 -872 
Q 2713 -1116 2359 -1248 
Q 2006 -1381 1503 -1381 
Q 903 -1381 589 -1197 
Q 275 -1013 275 -672 
Q 275 -506 387 -345 
Q 500 -184 800 31 
Q 622 91 500 234 
Q 378 378 378 544 
L 872 1100 
Q 378 1331 378 2009 
Q 378 2491 683 2753 
Q 988 3016 1569 3016 
Q 1684 3016 1865 2992 
Q 2047 2969 2144 2938 
L 2834 3284 
L 2944 3150 
L 2509 2700 
Q 2719 2466 2719 2009 
z
M 2591 -397 
Q 2591 -219 2481 -119 
Q 2372 -19 2150 -19 
L 1013 -19 
Q 881 -131 798 -304 
Q 716 -478 716 -628 
Q 716 -897 909 -1014 
Q 1103 -1131 1503 -1131 
Q 2025 -1131 2308 -937 
Q 2591 -744 2591 -397 
z
M 1550 1222 
Q 1891 1222 2033 1417 
Q 2175 1613 2175 2009 
Q 2175 2425 2028 2601 
Q 1881 2778 1556 2778 
Q 1228 2778 1075 2600 
Q 922 2422 922 2009 
Q 922 1597 1072 1409 
Q 1222 1222 1550 1222 
z
" transform="scale(0.015625)"/>
       <path id="LiberationSerif-68" d="M 1019 3169 
Q 1019 2844 997 2700 
Q 1222 2828 1508 2922 
Q 1794 3016 1991 3016 
Q 2372 3016 2565 2794 
Q 2759 2572 2759 2150 
L 2759 219 
L 3116 141 
L 3116 0 
L 1850 0 
L 1850 141 
L 2241 219 
L 2241 2113 
Q 2241 2650 1722 2650 
Q 1428 2650 1019 2559 
L 1019 219 
L 1416 141 
L 1416 0 
L 128 0 
L 128 141 
L 500 219 
L 500 4225 
L 63 4300 
L 63 4441 
L 1019 4441 
L 1019 3169 
z
" transform="scale(0.015625)"/>
       <path id="LiberationSerif-74" d="M 1044 -63 
Q 744 -63 595 115 
Q 447 294 447 616 
L 447 2675 
L 63 2675 
L 63 2816 
L 453 2938 
L 769 3603 
L 966 3603 
L 966 2938 
L 1638 2938 
L 1638 2675 
L 966 2675 
L 966 672 
Q 966 469 1058 366 
Q 1150 263 1300 263 
Q 1481 263 1741 313 
L 1741 109 
Q 1631 34 1425 -14 
Q 1219 -63 1044 -63 
z
" transform="scale(0.015625)"/>
       <path id="LiberationSerif-29" d="M 206 -1363 
L 206 -1100 
Q 559 -897 793 -564 
Q 1028 -231 1137 251 
Q 1247 734 1247 1544 
Q 1247 2363 1142 2819 
Q 1038 3275 813 3617 
Q 588 3959 206 4178 
L 206 4441 
Q 831 4106 1178 3720 
Q 1525 3334 1687 2811 
Q 1850 2288 1850 1544 
Q 1850 800 1687 273 
Q 1525 -253 1178 -640 
Q 831 -1028 206 -1363 
z
" transform="scale(0.015625)"/>
      </defs>
      <use xlink:href="#LiberationSerif-4d"/>
      <use xlink:href="#LiberationSerif-65" x="88.916016"/>
      <use xlink:href="#LiberationSerif-61" x="133.300781"/>
      <use xlink:href="#LiberationSerif-6e" x="177.685547"/>
      <use xlink:href="#LiberationSerif-20" x="227.685547"/>
      <use xlink:href="#LiberationSerif-394" x="247.185547"/>
      <use xlink:href="#LiberationSerif-5a" x="311.492188"/>
      <use xlink:href="#LiberationSerif-20" x="372.576172"/>
      <use xlink:href="#LiberationSerif-61" x="397.576172"/>
      <use xlink:href="#LiberationSerif-63" x="441.960938"/>
      <use xlink:href="#LiberationSerif-72" x="486.345703"/>
      <use xlink:href="#LiberationSerif-6f" x="519.646484"/>
      <use xlink:href="#LiberationSerif-73" x="569.646484"/>
      <use xlink:href="#LiberationSerif-73" x="608.5625"/>
      <use xlink:href="#LiberationSerif-20" x="647.478516"/>
      <use xlink:href="#LiberationSerif-4d" x="672.478516"/>
      <use xlink:href="#LiberationSerif-69" x="761.394531"/>
      <use xlink:href="#LiberationSerif-63" x="789.177734"/>
      <use xlink:href="#LiberationSerif-20" x="833.5625"/>
      <use xlink:href="#LiberationSerif-6d" x="858.5625"/>
      <use xlink:href="#LiberationSerif-6f" x="936.345703"/>
      <use xlink:href="#LiberationSerif-64" x="986.345703"/>
      <use xlink:href="#LiberationSerif-75" x="1036.345703"/>
      <use xlink:href="#LiberationSerif-6c" x="1086.345703"/>
      <use xlink:href="#LiberationSerif-65" x="1114.128906"/>
      <use xlink:href="#LiberationSerif-73" x="1158.513672"/>
      <use xlink:href="#LiberationSerif-20" x="1197.429688"/>
      <use xlink:href="#LiberationSerif-28" x="1222.429688"/>
      <use xlink:href="#LiberationSerif-75" x="1255.730469"/>
      <use xlink:href="#LiberationSerif-6e" x="1305.730469"/>
      <use xlink:href="#LiberationSerif-77" x="1355.730469"/>
      <use xlink:href="#LiberationSerif-65" x="1427.947266"/>
      <use xlink:href="#LiberationSerif-69" x="1472.332031"/>
      <use xlink:href="#LiberationSerif-67" x="1500.115234"/>
      <use xlink:href="#LiberationSerif-68" x="1550.115234"/>
      <use xlink:href="#LiberationSerif-74" x="1600.115234"/>
      <use xlink:href="#LiberationSerif-65" x="1627.898438"/>
      <use xlink:href="#LiberationSerif-64" x="1672.283203"/>
      <use xlink:href="#LiberationSerif-29" x="1722.283203"/>
     </g>
    </g>
   </g>
   <g id="matplotlib.axis_2">
    <g id="ytick_1">
     <g id="line2d_10">
      <defs>
       <path id="mc1d07c50e6" d="M 0 0 
L -3.5 0 
" style="stroke: #000000; stroke-width: 0.8"/>
      </defs>
      <g>
       <use xlink:href="#mc1d07c50e6" x="83.256094" y="335.508857" style="stroke: #000000; stroke-width: 0.8"/>
      </g>
     </g>
     <g id="text_10">
      <!-- Ast2 -->
      <g transform="translate(60.197734 338.457959) scale(0.085 -0.085)">
       <defs>
        <path id="LiberationSerif-41" d="M 1441 166 
L 1441 0 
L 63 0 
L 63 166 
L 538 250 
L 1966 4225 
L 2559 4225 
L 4044 250 
L 4575 166 
L 4575 0 
L 2803 0 
L 2803 166 
L 3366 250 
L 2950 1459 
L 1300 1459 
L 878 250 
L 1441 166 
z
M 2113 3775 
L 1394 1741 
L 2853 1741 
L 2113 3775 
z
" transform="scale(0.015625)"/>
       </defs>
       <use xlink:href="#LiberationSerif-41"/>
       <use xlink:href="#LiberationSerif-73" x="72.216797"/>
       <use xlink:href="#LiberationSerif-74" x="111.132812"/>
       <use xlink:href="#LiberationSerif-32" x="138.916016"/>
      </g>
     </g>
    </g>
    <g id="ytick_2">
     <g id="line2d_11">
      <g>
       <use xlink:href="#mc1d07c50e6" x="83.256094" y="319.337734" style="stroke: #000000; stroke-width: 0.8"/>
      </g>
     </g>
     <g id="text_11">
      <!-- Ast4 -->
      <g transform="translate(60.197734 322.286836) scale(0.085 -0.085)">
       <use xlink:href="#LiberationSerif-41"/>
       <use xlink:href="#LiberationSerif-73" x="72.216797"/>
       <use xlink:href="#LiberationSerif-74" x="111.132812"/>
       <use xlink:href="#LiberationSerif-34" x="138.916016"/>
      </g>
     </g>
    </g>
    <g id="ytick_3">
     <g id="line2d_12">
      <g>
       <use xlink:href="#mc1d07c50e6" x="83.256094" y="303.166611" style="stroke: #000000; stroke-width: 0.8"/>
      </g>
     </g>
     <g id="text_12">
      <!-- Ast7 -->
      <g transform="translate(60.197734 306.115713) scale(0.085 -0.085)">
       <defs>
        <path id="LiberationSerif-37" d="M 628 3200 
L 422 3200 
L 422 4191 
L 3016 4191 
L 3016 3950 
L 1147 0 
L 744 0 
L 2578 3713 
L 738 3713 
L 628 3200 
z
" transform="scale(0.015625)"/>
       </defs>
       <use xlink:href="#LiberationSerif-41"/>
       <use xlink:href="#LiberationSerif-73" x="72.216797"/>
       <use xlink:href="#LiberationSerif-74" x="111.132812"/>
       <use xlink:href="#LiberationSerif-37" x="138.916016"/>
      </g>
     </g>
    </g>
    <g id="ytick_4">
     <g id="line2d_13">
      <g>
       <use xlink:href="#mc1d07c50e6" x="83.256094" y="286.995488" style="stroke: #000000; stroke-width: 0.8"/>
      </g>
     </g>
     <g id="text_13">
      <!-- Ast19 -->
      <g transform="translate(55.947734 289.94459) scale(0.085 -0.085)">
       <defs>
        <path id="LiberationSerif-39" d="M 206 2913 
Q 206 3544 559 3891 
Q 913 4238 1556 4238 
Q 2272 4238 2605 3722 
Q 2938 3206 2938 2106 
Q 2938 1053 2509 495 
Q 2081 -63 1306 -63 
Q 797 -63 372 44 
L 372 769 
L 575 769 
L 684 319 
Q 784 272 953 234 
Q 1122 197 1294 197 
Q 1794 197 2062 636 
Q 2331 1075 2359 1928 
Q 1884 1663 1394 1663 
Q 841 1663 523 1992 
Q 206 2322 206 2913 
z
M 1563 3988 
Q 781 3988 781 2900 
Q 781 2422 968 2194 
Q 1156 1966 1550 1966 
Q 1953 1966 2363 2131 
Q 2363 3091 2173 3539 
Q 1984 3988 1563 3988 
z
" transform="scale(0.015625)"/>
       </defs>
       <use xlink:href="#LiberationSerif-41"/>
       <use xlink:href="#LiberationSerif-73" x="72.216797"/>
       <use xlink:href="#LiberationSerif-74" x="111.132812"/>
       <use xlink:href="#LiberationSerif-31" x="138.916016"/>
       <use xlink:href="#LiberationSerif-39" x="188.916016"/>
      </g>
     </g>
    </g>
    <g id="ytick_5">
     <g id="line2d_14">
      <g>
       <use xlink:href="#mc1d07c50e6" x="83.256094" y="270.824365" style="stroke: #000000; stroke-width: 0.8"/>
      </g>
     </g>
     <g id="text_14">
      <!-- Ast12 -->
      <g transform="translate(55.947734 273.773467) scale(0.085 -0.085)">
       <use xlink:href="#LiberationSerif-41"/>
       <use xlink:href="#LiberationSerif-73" x="72.216797"/>
       <use xlink:href="#LiberationSerif-74" x="111.132812"/>
       <use xlink:href="#LiberationSerif-31" x="138.916016"/>
       <use xlink:href="#LiberationSerif-32" x="188.916016"/>
      </g>
     </g>
    </g>
    <g id="ytick_6">
     <g id="line2d_15">
      <g>
       <use xlink:href="#mc1d07c50e6" x="83.256094" y="254.653242" style="stroke: #000000; stroke-width: 0.8"/>
      </g>
     </g>
     <g id="text_15">
      <!-- Ast1 -->
      <g transform="translate(60.197734 257.602344) scale(0.085 -0.085)">
       <use xlink:href="#LiberationSerif-41"/>
       <use xlink:href="#LiberationSerif-73" x="72.216797"/>
       <use xlink:href="#LiberationSerif-74" x="111.132812"/>
       <use xlink:href="#LiberationSerif-31" x="138.916016"/>
      </g>
     </g>
    </g>
    <g id="ytick_7">
     <g id="line2d_16">
      <g>
       <use xlink:href="#mc1d07c50e6" x="83.256094" y="238.482119" style="stroke: #000000; stroke-width: 0.8"/>
      </g>
     </g>
     <g id="text_16">
      <!-- Ast11 -->
      <g transform="translate(56.266484 241.431221) scale(0.085 -0.085)">
       <use xlink:href="#LiberationSerif-41"/>
       <use xlink:href="#LiberationSerif-73" x="72.216797"/>
       <use xlink:href="#LiberationSerif-74" x="111.132812"/>
       <use xlink:href="#LiberationSerif-31" x="138.916016"/>
       <use xlink:href="#LiberationSerif-31" x="185.166016"/>
      </g>
     </g>
    </g>
    <g id="ytick_8">
     <g id="line2d_17">
      <g>
       <use xlink:href="#mc1d07c50e6" x="83.256094" y="222.310996" style="stroke: #000000; stroke-width: 0.8"/>
      </g>
     </g>
     <g id="text_17">
      <!-- Ast9 -->
      <g transform="translate(60.197734 225.260098) scale(0.085 -0.085)">
       <use xlink:href="#LiberationSerif-41"/>
       <use xlink:href="#LiberationSerif-73" x="72.216797"/>
       <use xlink:href="#LiberationSerif-74" x="111.132812"/>
       <use xlink:href="#LiberationSerif-39" x="138.916016"/>
      </g>
     </g>
    </g>
    <g id="ytick_9">
     <g id="line2d_18">
      <g>
       <use xlink:href="#mc1d07c50e6" x="83.256094" y="206.139873" style="stroke: #000000; stroke-width: 0.8"/>
      </g>
     </g>
     <g id="text_18">
      <!-- Ast18 -->
      <g transform="translate(55.947734 209.088975) scale(0.085 -0.085)">
       <defs>
        <path id="LiberationSerif-38" d="M 2828 3169 
Q 2828 2825 2661 2586 
Q 2494 2347 2209 2222 
Q 2566 2091 2761 1811 
Q 2956 1531 2956 1131 
Q 2956 538 2622 237 
Q 2288 -63 1581 -63 
Q 244 -63 244 1131 
Q 244 1547 444 1820 
Q 644 2094 984 2222 
Q 713 2347 542 2584 
Q 372 2822 372 3169 
Q 372 3688 689 3972 
Q 1006 4256 1606 4256 
Q 2188 4256 2508 3973 
Q 2828 3691 2828 3169 
z
M 2394 1131 
Q 2394 1631 2198 1856 
Q 2003 2081 1581 2081 
Q 1169 2081 987 1867 
Q 806 1653 806 1131 
Q 806 603 990 393 
Q 1175 184 1581 184 
Q 1997 184 2195 401 
Q 2394 619 2394 1131 
z
M 2266 3169 
Q 2266 3600 2097 3803 
Q 1928 4006 1588 4006 
Q 1256 4006 1095 3809 
Q 934 3613 934 3169 
Q 934 2734 1090 2545 
Q 1247 2356 1588 2356 
Q 1938 2356 2102 2548 
Q 2266 2741 2266 3169 
z
" transform="scale(0.015625)"/>
       </defs>
       <use xlink:href="#LiberationSerif-41"/>
       <use xlink:href="#LiberationSerif-73" x="72.216797"/>
       <use xlink:href="#LiberationSerif-74" x="111.132812"/>
       <use xlink:href="#LiberationSerif-31" x="138.916016"/>
       <use xlink:href="#LiberationSerif-38" x="188.916016"/>
      </g>
     </g>
    </g>
    <g id="ytick_10">
     <g id="line2d_19">
      <g>
       <use xlink:href="#mc1d07c50e6" x="83.256094" y="189.96875" style="stroke: #000000; stroke-width: 0.8"/>
      </g>
     </g>
     <g id="text_19">
      <!-- Ast3 -->
      <g transform="translate(60.197734 192.917852) scale(0.085 -0.085)">
       <use xlink:href="#LiberationSerif-41"/>
       <use xlink:href="#LiberationSerif-73" x="72.216797"/>
       <use xlink:href="#LiberationSerif-74" x="111.132812"/>
       <use xlink:href="#LiberationSerif-33" x="138.916016"/>
      </g>
     </g>
    </g>
    <g id="ytick_11">
     <g id="line2d_20">
      <g>
       <use xlink:href="#mc1d07c50e6" x="83.256094" y="173.797627" style="stroke: #000000; stroke-width: 0.8"/>
      </g>
     </g>
     <g id="text_20">
      <!-- Ast14 -->
      <g transform="translate(55.947734 176.746729) scale(0.085 -0.085)">
       <use xlink:href="#LiberationSerif-41"/>
       <use xlink:href="#LiberationSerif-73" x="72.216797"/>
       <use xlink:href="#LiberationSerif-74" x="111.132812"/>
       <use xlink:href="#LiberationSerif-31" x="138.916016"/>
       <use xlink:href="#LiberationSerif-34" x="188.916016"/>
      </g>
     </g>
    </g>
    <g id="ytick_12">
     <g id="line2d_21">
      <g>
       <use xlink:href="#mc1d07c50e6" x="83.256094" y="157.626504" style="stroke: #000000; stroke-width: 0.8"/>
      </g>
     </g>
     <g id="text_21">
      <!-- Ast16 -->
      <g transform="translate(55.947734 160.575606) scale(0.085 -0.085)">
       <defs>
        <path id="LiberationSerif-36" d="M 3009 1300 
Q 3009 647 2679 292 
Q 2350 -63 1728 -63 
Q 1022 -63 648 487 
Q 275 1038 275 2069 
Q 275 2744 472 3234 
Q 669 3725 1023 3981 
Q 1378 4238 1844 4238 
Q 2300 4238 2753 4128 
L 2753 3406 
L 2547 3406 
L 2438 3834 
Q 2334 3891 2159 3933 
Q 1984 3975 1844 3975 
Q 1388 3975 1133 3533 
Q 878 3091 853 2241 
Q 1363 2509 1875 2509 
Q 2428 2509 2718 2198 
Q 3009 1888 3009 1300 
z
M 1716 184 
Q 2094 184 2262 429 
Q 2431 675 2431 1241 
Q 2431 1753 2270 1981 
Q 2109 2209 1759 2209 
Q 1331 2209 850 2053 
Q 850 1100 1065 642 
Q 1281 184 1716 184 
z
" transform="scale(0.015625)"/>
       </defs>
       <use xlink:href="#LiberationSerif-41"/>
       <use xlink:href="#LiberationSerif-73" x="72.216797"/>
       <use xlink:href="#LiberationSerif-74" x="111.132812"/>
       <use xlink:href="#LiberationSerif-31" x="138.916016"/>
       <use xlink:href="#LiberationSerif-36" x="188.916016"/>
      </g>
     </g>
    </g>
    <g id="ytick_13">
     <g id="line2d_22">
      <g>
       <use xlink:href="#mc1d07c50e6" x="83.256094" y="141.455381" style="stroke: #000000; stroke-width: 0.8"/>
      </g>
     </g>
     <g id="text_22">
      <!-- Ast13 -->
      <g transform="translate(55.947734 144.404483) scale(0.085 -0.085)">
       <use xlink:href="#LiberationSerif-41"/>
       <use xlink:href="#LiberationSerif-73" x="72.216797"/>
       <use xlink:href="#LiberationSerif-74" x="111.132812"/>
       <use xlink:href="#LiberationSerif-31" x="138.916016"/>
       <use xlink:href="#LiberationSerif-33" x="188.916016"/>
      </g>
     </g>
    </g>
    <g id="ytick_14">
     <g id="line2d_23">
      <g>
       <use xlink:href="#mc1d07c50e6" x="83.256094" y="125.284258" style="stroke: #000000; stroke-width: 0.8"/>
      </g>
     </g>
     <g id="text_23">
      <!-- Ast8 -->
      <g transform="translate(60.197734 128.23336) scale(0.085 -0.085)">
       <use xlink:href="#LiberationSerif-41"/>
       <use xlink:href="#LiberationSerif-73" x="72.216797"/>
       <use xlink:href="#LiberationSerif-74" x="111.132812"/>
       <use xlink:href="#LiberationSerif-38" x="138.916016"/>
      </g>
     </g>
    </g>
    <g id="ytick_15">
     <g id="line2d_24">
      <g>
       <use xlink:href="#mc1d07c50e6" x="83.256094" y="109.113135" style="stroke: #000000; stroke-width: 0.8"/>
      </g>
     </g>
     <g id="text_24">
      <!-- Ast10 -->
      <g transform="translate(55.947734 112.062237) scale(0.085 -0.085)">
       <use xlink:href="#LiberationSerif-41"/>
       <use xlink:href="#LiberationSerif-73" x="72.216797"/>
       <use xlink:href="#LiberationSerif-74" x="111.132812"/>
       <use xlink:href="#LiberationSerif-31" x="138.916016"/>
       <use xlink:href="#LiberationSerif-30" x="188.916016"/>
      </g>
     </g>
    </g>
    <g id="ytick_16">
     <g id="line2d_25">
      <g>
       <use xlink:href="#mc1d07c50e6" x="83.256094" y="92.942012" style="stroke: #000000; stroke-width: 0.8"/>
      </g>
     </g>
     <g id="text_25">
      <!-- Ast5 -->
      <g transform="translate(60.197734 95.891114) scale(0.085 -0.085)">
       <use xlink:href="#LiberationSerif-41"/>
       <use xlink:href="#LiberationSerif-73" x="72.216797"/>
       <use xlink:href="#LiberationSerif-74" x="111.132812"/>
       <use xlink:href="#LiberationSerif-35" x="138.916016"/>
      </g>
     </g>
    </g>
    <g id="ytick_17">
     <g id="line2d_26">
      <g>
       <use xlink:href="#mc1d07c50e6" x="83.256094" y="76.770889" style="stroke: #000000; stroke-width: 0.8"/>
      </g>
     </g>
     <g id="text_26">
      <!-- Ast17 -->
      <g transform="translate(55.947734 79.719991) scale(0.085 -0.085)">
       <use xlink:href="#LiberationSerif-41"/>
       <use xlink:href="#LiberationSerif-73" x="72.216797"/>
       <use xlink:href="#LiberationSerif-74" x="111.132812"/>
       <use xlink:href="#LiberationSerif-31" x="138.916016"/>
       <use xlink:href="#LiberationSerif-37" x="188.916016"/>
      </g>
     </g>
    </g>
    <g id="ytick_18">
     <g id="line2d_27">
      <g>
       <use xlink:href="#mc1d07c50e6" x="83.256094" y="60.599766" style="stroke: #000000; stroke-width: 0.8"/>
      </g>
     </g>
     <g id="text_27">
      <!-- Ast20 -->
      <g transform="translate(55.947734 63.548868) scale(0.085 -0.085)">
       <use xlink:href="#LiberationSerif-41"/>
       <use xlink:href="#LiberationSerif-73" x="72.216797"/>
       <use xlink:href="#LiberationSerif-74" x="111.132812"/>
       <use xlink:href="#LiberationSerif-32" x="138.916016"/>
       <use xlink:href="#LiberationSerif-30" x="188.916016"/>
      </g>
     </g>
    </g>
    <g id="ytick_19">
     <g id="line2d_28">
      <g>
       <use xlink:href="#mc1d07c50e6" x="83.256094" y="44.428643" style="stroke: #000000; stroke-width: 0.8"/>
      </g>
     </g>
     <g id="text_28">
      <!-- Ast15 (ACHES) -->
      <g transform="translate(20.296875 47.377745) scale(0.085 -0.085)">
       <defs>
        <path id="LiberationSerif-43" d="M 2419 -63 
Q 1400 -63 831 492 
Q 263 1047 263 2047 
Q 263 3128 809 3683 
Q 1356 4238 2431 4238 
Q 3084 4238 3834 4078 
L 3853 3163 
L 3647 3163 
L 3553 3706 
Q 3334 3841 3045 3914 
Q 2756 3988 2456 3988 
Q 1653 3988 1284 3516 
Q 916 3044 916 2053 
Q 916 1141 1302 659 
Q 1688 178 2425 178 
Q 2781 178 3097 264 
Q 3413 350 3597 494 
L 3713 1119 
L 3916 1119 
L 3897 134 
Q 3209 -63 2419 -63 
z
" transform="scale(0.015625)"/>
        <path id="LiberationSerif-48" d="M 184 0 
L 184 166 
L 722 250 
L 722 3944 
L 184 4025 
L 184 4191 
L 1863 4191 
L 1863 4025 
L 1325 3944 
L 1325 2297 
L 3297 2297 
L 3297 3944 
L 2759 4025 
L 2759 4191 
L 4434 4191 
L 4434 4025 
L 3897 3944 
L 3897 250 
L 4434 166 
L 4434 0 
L 2759 0 
L 2759 166 
L 3297 250 
L 3297 2016 
L 1325 2016 
L 1325 250 
L 1863 166 
L 1863 0 
L 184 0 
z
" transform="scale(0.015625)"/>
        <path id="LiberationSerif-45" d="M 184 166 
L 722 250 
L 722 3944 
L 184 4025 
L 184 4191 
L 3328 4191 
L 3328 3188 
L 3122 3188 
L 3022 3866 
Q 2672 3909 2009 3909 
L 1325 3909 
L 1325 2272 
L 2456 2272 
L 2553 2772 
L 2753 2772 
L 2753 1484 
L 2553 1484 
L 2456 1991 
L 1325 1991 
L 1325 281 
L 2150 281 
Q 2956 281 3206 331 
L 3384 1106 
L 3591 1106 
L 3531 0 
L 184 0 
L 184 166 
z
" transform="scale(0.015625)"/>
        <path id="LiberationSerif-53" d="M 434 1128 
L 638 1128 
L 747 563 
Q 863 416 1145 303 
Q 1428 191 1703 191 
Q 2141 191 2386 414 
Q 2631 638 2631 1031 
Q 2631 1256 2536 1403 
Q 2441 1550 2286 1651 
Q 2131 1753 1934 1823 
Q 1738 1894 1530 1966 
Q 1322 2038 1125 2125 
Q 928 2213 773 2347 
Q 619 2481 523 2679 
Q 428 2878 428 3169 
Q 428 3669 803 3953 
Q 1178 4238 1844 4238 
Q 2350 4238 2944 4103 
L 2944 3231 
L 2741 3231 
L 2631 3744 
Q 2313 3975 1844 3975 
Q 1425 3975 1189 3804 
Q 953 3634 953 3334 
Q 953 3131 1048 2997 
Q 1144 2863 1298 2767 
Q 1453 2672 1651 2603 
Q 1850 2534 2058 2461 
Q 2266 2388 2464 2295 
Q 2663 2203 2817 2061 
Q 2972 1919 3067 1714 
Q 3163 1509 3163 1209 
Q 3163 603 2791 270 
Q 2419 -63 1719 -63 
Q 1381 -63 1040 -3 
Q 700 56 434 159 
L 434 1128 
z
" transform="scale(0.015625)"/>
       </defs>
       <use xlink:href="#LiberationSerif-41"/>
       <use xlink:href="#LiberationSerif-73" x="72.216797"/>
       <use xlink:href="#LiberationSerif-74" x="111.132812"/>
       <use xlink:href="#LiberationSerif-31" x="138.916016"/>
       <use xlink:href="#LiberationSerif-35" x="188.916016"/>
       <use xlink:href="#LiberationSerif-20" x="238.916016"/>
       <use xlink:href="#LiberationSerif-28" x="263.916016"/>
       <use xlink:href="#LiberationSerif-41" x="297.216797"/>
       <use xlink:href="#LiberationSerif-43" x="369.433594"/>
       <use xlink:href="#LiberationSerif-48" x="436.132812"/>
       <use xlink:href="#LiberationSerif-45" x="508.349609"/>
       <use xlink:href="#LiberationSerif-53" x="569.433594"/>
       <use xlink:href="#LiberationSerif-29" x="625.048828"/>
      </g>
     </g>
    </g>
    <g id="text_29">
     <!-- Astrocyte modules -->
     <g transform="translate(14.139062 227.601563) rotate(-90) scale(0.1 -0.1)">
      <defs>
       <path id="LiberationSerif-79" d="M 622 -1381 
Q 378 -1381 141 -1325 
L 141 -691 
L 288 -691 
L 391 -991 
Q 488 -1063 659 -1063 
Q 822 -1063 959 -969 
Q 1097 -875 1211 -690 
Q 1325 -506 1497 -31 
L 378 2719 
L 78 2797 
L 78 2938 
L 1441 2938 
L 1441 2797 
L 978 2713 
L 1772 659 
L 2541 2719 
L 2081 2797 
L 2081 2938 
L 3175 2938 
L 3175 2797 
L 2869 2731 
L 1722 -184 
Q 1519 -700 1369 -925 
Q 1219 -1150 1037 -1265 
Q 856 -1381 622 -1381 
z
" transform="scale(0.015625)"/>
      </defs>
      <use xlink:href="#LiberationSerif-41"/>
      <use xlink:href="#LiberationSerif-73" x="72.216797"/>
      <use xlink:href="#LiberationSerif-74" x="111.132812"/>
      <use xlink:href="#LiberationSerif-72" x="138.916016"/>
      <use xlink:href="#LiberationSerif-6f" x="172.216797"/>
      <use xlink:href="#LiberationSerif-63" x="222.216797"/>
      <use xlink:href="#LiberationSerif-79" x="266.601562"/>
      <use xlink:href="#LiberationSerif-74" x="316.601562"/>
      <use xlink:href="#LiberationSerif-65" x="344.384766"/>
      <use xlink:href="#LiberationSerif-20" x="388.769531"/>
      <use xlink:href="#LiberationSerif-6d" x="413.769531"/>
      <use xlink:href="#LiberationSerif-6f" x="491.552734"/>
      <use xlink:href="#LiberationSerif-64" x="541.552734"/>
      <use xlink:href="#LiberationSerif-75" x="591.552734"/>
      <use xlink:href="#LiberationSerif-6c" x="641.552734"/>
      <use xlink:href="#LiberationSerif-65" x="669.335938"/>
      <use xlink:href="#LiberationSerif-73" x="713.720703"/>
     </g>
    </g>
   </g>
   <g id="patch_22">
    <path d="M 83.256094 356.28875 
L 83.256094 23.64875 
" style="fill: none; stroke: #000000; stroke-width: 0.8; stroke-linejoin: miter; stroke-linecap: square"/>
   </g>
   <g id="patch_23">
    <path d="M 83.256094 356.28875 
L 473.856094 356.28875 
" style="fill: none; stroke: #000000; stroke-width: 0.8; stroke-linejoin: miter; stroke-linecap: square"/>
   </g>
   <g id="text_30">
    <!-- -0.397 -->
    <g style="fill: #666666" transform="translate(118.445135 337.312373) scale(0.075 -0.075)">
     <defs>
      <path id="LiberationSerif-2d" d="M 238 1269 
L 238 1747 
L 1900 1747 
L 1900 1269 
L 238 1269 
z
" transform="scale(0.015625)"/>
     </defs>
     <use xlink:href="#LiberationSerif-2d"/>
     <use xlink:href="#LiberationSerif-30" x="33.300781"/>
     <use xlink:href="#LiberationSerif-2e" x="83.300781"/>
     <use xlink:href="#LiberationSerif-33" x="108.300781"/>
     <use xlink:href="#LiberationSerif-39" x="158.300781"/>
     <use xlink:href="#LiberationSerif-37" x="208.300781"/>
    </g>
   </g>
   <g id="text_31">
    <!-- -0.395 -->
    <g style="fill: #666666" transform="translate(119.470121 321.14125) scale(0.075 -0.075)">
     <use xlink:href="#LiberationSerif-2d"/>
     <use xlink:href="#LiberationSerif-30" x="33.300781"/>
     <use xlink:href="#LiberationSerif-2e" x="83.300781"/>
     <use xlink:href="#LiberationSerif-33" x="108.300781"/>
     <use xlink:href="#LiberationSerif-39" x="158.300781"/>
     <use xlink:href="#LiberationSerif-35" x="208.300781"/>
    </g>
   </g>
   <g id="text_32">
    <!-- -0.393 -->
    <g style="fill: #666666" transform="translate(120.527555 304.970127) scale(0.075 -0.075)">
     <use xlink:href="#LiberationSerif-2d"/>
     <use xlink:href="#LiberationSerif-30" x="33.300781"/>
     <use xlink:href="#LiberationSerif-2e" x="83.300781"/>
     <use xlink:href="#LiberationSerif-33" x="108.300781"/>
     <use xlink:href="#LiberationSerif-39" x="158.300781"/>
     <use xlink:href="#LiberationSerif-33" x="208.300781"/>
    </g>
   </g>
   <g id="text_33">
    <!-- -0.304 -->
    <g style="fill: #666666" transform="translate(166.50844 288.799004) scale(0.075 -0.075)">
     <use xlink:href="#LiberationSerif-2d"/>
     <use xlink:href="#LiberationSerif-30" x="33.300781"/>
     <use xlink:href="#LiberationSerif-2e" x="83.300781"/>
     <use xlink:href="#LiberationSerif-33" x="108.300781"/>
     <use xlink:href="#LiberationSerif-30" x="158.300781"/>
     <use xlink:href="#LiberationSerif-34" x="208.300781"/>
    </g>
   </g>
   <g id="text_34">
    <!-- -0.301 -->
    <g style="fill: #666666" transform="translate(167.988744 272.627881) scale(0.075 -0.075)">
     <use xlink:href="#LiberationSerif-2d"/>
     <use xlink:href="#LiberationSerif-30" x="33.300781"/>
     <use xlink:href="#LiberationSerif-2e" x="83.300781"/>
     <use xlink:href="#LiberationSerif-33" x="108.300781"/>
     <use xlink:href="#LiberationSerif-30" x="158.300781"/>
     <use xlink:href="#LiberationSerif-31" x="208.300781"/>
    </g>
   </g>
   <g id="text_35">
    <!-- -0.292 -->
    <g style="fill: #666666" transform="translate(172.718297 256.456758) scale(0.075 -0.075)">
     <use xlink:href="#LiberationSerif-2d"/>
     <use xlink:href="#LiberationSerif-30" x="33.300781"/>
     <use xlink:href="#LiberationSerif-2e" x="83.300781"/>
     <use xlink:href="#LiberationSerif-32" x="108.300781"/>
     <use xlink:href="#LiberationSerif-39" x="158.300781"/>
     <use xlink:href="#LiberationSerif-32" x="208.300781"/>
    </g>
   </g>
   <g id="text_36">
    <!-- -0.286 -->
    <g style="fill: #666666" transform="translate(175.639489 240.285635) scale(0.075 -0.075)">
     <use xlink:href="#LiberationSerif-2d"/>
     <use xlink:href="#LiberationSerif-30" x="33.300781"/>
     <use xlink:href="#LiberationSerif-2e" x="83.300781"/>
     <use xlink:href="#LiberationSerif-32" x="108.300781"/>
     <use xlink:href="#LiberationSerif-38" x="158.300781"/>
     <use xlink:href="#LiberationSerif-36" x="208.300781"/>
    </g>
   </g>
   <g id="text_37">
    <!-- -0.233 -->
    <g style="fill: #666666" transform="translate(202.68445 224.114512) scale(0.075 -0.075)">
     <use xlink:href="#LiberationSerif-2d"/>
     <use xlink:href="#LiberationSerif-30" x="33.300781"/>
     <use xlink:href="#LiberationSerif-2e" x="83.300781"/>
     <use xlink:href="#LiberationSerif-32" x="108.300781"/>
     <use xlink:href="#LiberationSerif-33" x="158.300781"/>
     <use xlink:href="#LiberationSerif-33" x="208.300781"/>
    </g>
   </g>
   <g id="text_38">
    <!-- -0.195 -->
    <g style="fill: #666666" transform="translate(222.508781 207.943389) scale(0.075 -0.075)">
     <use xlink:href="#LiberationSerif-2d"/>
     <use xlink:href="#LiberationSerif-30" x="33.300781"/>
     <use xlink:href="#LiberationSerif-2e" x="83.300781"/>
     <use xlink:href="#LiberationSerif-31" x="108.300781"/>
     <use xlink:href="#LiberationSerif-39" x="158.300781"/>
     <use xlink:href="#LiberationSerif-35" x="208.300781"/>
    </g>
   </g>
   <g id="text_39">
    <!-- -0.192 -->
    <g style="fill: #666666" transform="translate(223.918734 191.772266) scale(0.075 -0.075)">
     <use xlink:href="#LiberationSerif-2d"/>
     <use xlink:href="#LiberationSerif-30" x="33.300781"/>
     <use xlink:href="#LiberationSerif-2e" x="83.300781"/>
     <use xlink:href="#LiberationSerif-31" x="108.300781"/>
     <use xlink:href="#LiberationSerif-39" x="158.300781"/>
     <use xlink:href="#LiberationSerif-32" x="208.300781"/>
    </g>
   </g>
   <g id="text_40">
    <!-- -0.192 -->
    <g style="fill: #666666" transform="translate(224.014447 175.601143) scale(0.075 -0.075)">
     <use xlink:href="#LiberationSerif-2d"/>
     <use xlink:href="#LiberationSerif-30" x="33.300781"/>
     <use xlink:href="#LiberationSerif-2e" x="83.300781"/>
     <use xlink:href="#LiberationSerif-31" x="108.300781"/>
     <use xlink:href="#LiberationSerif-39" x="158.300781"/>
     <use xlink:href="#LiberationSerif-32" x="208.300781"/>
    </g>
   </g>
   <g id="text_41">
    <!-- -0.181 -->
    <g style="fill: #666666" transform="translate(229.777986 159.43002) scale(0.075 -0.075)">
     <use xlink:href="#LiberationSerif-2d"/>
     <use xlink:href="#LiberationSerif-30" x="33.300781"/>
     <use xlink:href="#LiberationSerif-2e" x="83.300781"/>
     <use xlink:href="#LiberationSerif-31" x="108.300781"/>
     <use xlink:href="#LiberationSerif-38" x="158.300781"/>
     <use xlink:href="#LiberationSerif-31" x="208.300781"/>
    </g>
   </g>
   <g id="text_42">
    <!-- -0.173 -->
    <g style="fill: #666666" transform="translate(233.829766 143.258897) scale(0.075 -0.075)">
     <use xlink:href="#LiberationSerif-2d"/>
     <use xlink:href="#LiberationSerif-30" x="33.300781"/>
     <use xlink:href="#LiberationSerif-2e" x="83.300781"/>
     <use xlink:href="#LiberationSerif-31" x="108.300781"/>
     <use xlink:href="#LiberationSerif-37" x="158.300781"/>
     <use xlink:href="#LiberationSerif-33" x="208.300781"/>
    </g>
   </g>
   <g id="text_43">
    <!-- -0.170 -->
    <g style="fill: #666666" transform="translate(235.563065 127.087774) scale(0.075 -0.075)">
     <use xlink:href="#LiberationSerif-2d"/>
     <use xlink:href="#LiberationSerif-30" x="33.300781"/>
     <use xlink:href="#LiberationSerif-2e" x="83.300781"/>
     <use xlink:href="#LiberationSerif-31" x="108.300781"/>
     <use xlink:href="#LiberationSerif-37" x="158.300781"/>
     <use xlink:href="#LiberationSerif-30" x="208.300781"/>
    </g>
   </g>
   <g id="text_44">
    <!-- -0.130 -->
    <g style="fill: #666666" transform="translate(256.15862 110.916651) scale(0.075 -0.075)">
     <use xlink:href="#LiberationSerif-2d"/>
     <use xlink:href="#LiberationSerif-30" x="33.300781"/>
     <use xlink:href="#LiberationSerif-2e" x="83.300781"/>
     <use xlink:href="#LiberationSerif-31" x="108.300781"/>
     <use xlink:href="#LiberationSerif-33" x="158.300781"/>
     <use xlink:href="#LiberationSerif-30" x="208.300781"/>
    </g>
   </g>
   <g id="text_45">
    <!-- -0.008 -->
    <g style="fill: #666666" transform="translate(318.756073 94.745528) scale(0.075 -0.075)">
     <use xlink:href="#LiberationSerif-2d"/>
     <use xlink:href="#LiberationSerif-30" x="33.300781"/>
     <use xlink:href="#LiberationSerif-2e" x="83.300781"/>
     <use xlink:href="#LiberationSerif-30" x="108.300781"/>
     <use xlink:href="#LiberationSerif-30" x="158.300781"/>
     <use xlink:href="#LiberationSerif-38" x="208.300781"/>
    </g>
   </g>
   <g id="text_46">
    <!-- 0.027 -->
    <g style="fill: #666666" transform="translate(364.592278 78.574405) scale(0.075 -0.075)">
     <use xlink:href="#LiberationSerif-30"/>
     <use xlink:href="#LiberationSerif-2e" x="50"/>
     <use xlink:href="#LiberationSerif-30" x="75"/>
     <use xlink:href="#LiberationSerif-32" x="125"/>
     <use xlink:href="#LiberationSerif-37" x="175"/>
    </g>
   </g>
   <g id="text_47">
    <!-- 0.089 -->
    <g style="fill: #666666" transform="translate(396.452314 62.403282) scale(0.075 -0.075)">
     <use xlink:href="#LiberationSerif-30"/>
     <use xlink:href="#LiberationSerif-2e" x="50"/>
     <use xlink:href="#LiberationSerif-30" x="75"/>
     <use xlink:href="#LiberationSerif-38" x="125"/>
     <use xlink:href="#LiberationSerif-39" x="175"/>
    </g>
   </g>
   <g id="text_48">
    <!-- 0.177 -->
    <g style="fill: #666666" transform="translate(441.980546 46.232159) scale(0.075 -0.075)">
     <use xlink:href="#LiberationSerif-30"/>
     <use xlink:href="#LiberationSerif-2e" x="50"/>
     <use xlink:href="#LiberationSerif-31" x="75"/>
     <use xlink:href="#LiberationSerif-37" x="125"/>
     <use xlink:href="#LiberationSerif-37" x="175"/>
    </g>
   </g>
   <g id="text_49">
    <!-- BA11 (validation cohort, module transfer) -->
    <g transform="translate(171.063281 15.64875) scale(0.12 -0.12)">
     <defs>
      <path id="LiberationSerif-Bold-42" d="M 2744 3156 
Q 2744 3522 2586 3684 
Q 2428 3847 2066 3847 
L 1631 3847 
L 1631 2388 
L 2091 2388 
Q 2425 2388 2584 2563 
Q 2744 2738 2744 3156 
z
M 3059 1222 
Q 3059 1638 2851 1841 
Q 2644 2044 2172 2044 
L 1631 2044 
L 1631 344 
Q 2081 325 2341 325 
Q 2706 325 2882 547 
Q 3059 769 3059 1222 
z
M 106 0 
L 106 228 
L 647 313 
L 647 3881 
L 106 3963 
L 106 4191 
L 2141 4191 
Q 2975 4191 3372 3967 
Q 3769 3744 3769 3244 
Q 3769 2869 3534 2597 
Q 3300 2325 2906 2241 
Q 3491 2181 3791 1923 
Q 4091 1666 4091 1222 
Q 4091 613 3641 297 
Q 3191 -19 2350 -19 
L 925 0 
L 106 0 
z
" transform="scale(0.015625)"/>
      <path id="LiberationSerif-Bold-41" d="M 1338 228 
L 1338 0 
L 63 0 
L 63 228 
L 375 313 
L 1866 4225 
L 2772 4225 
L 4256 313 
L 4575 228 
L 4575 0 
L 2709 0 
L 2709 228 
L 3194 313 
L 2794 1397 
L 1184 1397 
L 800 313 
L 1338 228 
z
M 2003 3594 
L 1313 1741 
L 2675 1741 
L 2003 3594 
z
" transform="scale(0.015625)"/>
      <path id="LiberationSerif-Bold-31" d="M 2141 344 
L 2869 269 
L 2869 0 
L 513 0 
L 513 269 
L 1238 344 
L 1238 3503 
L 516 3266 
L 516 3531 
L 1697 4225 
L 2141 4225 
L 2141 344 
z
" transform="scale(0.015625)"/>
      <path id="LiberationSerif-Bold-20" transform="scale(0.015625)"/>
      <path id="LiberationSerif-Bold-28" d="M 1134 1544 
Q 1134 803 1214 350 
Q 1294 -103 1467 -447 
Q 1641 -791 1925 -1006 
L 1925 -1363 
Q 1306 -1034 957 -645 
Q 609 -256 445 270 
Q 281 797 281 1547 
Q 281 2291 445 2816 
Q 609 3341 957 3728 
Q 1306 4116 1925 4441 
L 1925 4084 
Q 1641 3869 1469 3528 
Q 1297 3188 1215 2734 
Q 1134 2281 1134 1544 
z
" transform="scale(0.015625)"/>
      <path id="LiberationSerif-Bold-76" d="M 1813 -63 
L 1434 -63 
L 206 2656 
L 0 2731 
L 0 2938 
L 1503 2938 
L 1503 2731 
L 1153 2650 
L 1906 975 
L 2584 2656 
L 2241 2731 
L 2241 2938 
L 3200 2938 
L 3200 2731 
L 2988 2669 
L 1813 -63 
z
" transform="scale(0.015625)"/>
      <path id="LiberationSerif-Bold-61" d="M 1706 3003 
Q 2809 3003 2809 2191 
L 2809 281 
L 3103 206 
L 3103 0 
L 2022 0 
L 1953 225 
Q 1709 59 1512 -2 
Q 1316 -63 1116 -63 
Q 206 -63 206 813 
Q 206 1144 340 1342 
Q 475 1541 728 1636 
Q 981 1731 1525 1744 
L 1906 1753 
L 1906 2181 
Q 1906 2713 1472 2713 
Q 1209 2713 884 2550 
L 766 2184 
L 559 2184 
L 559 2894 
Q 1031 2966 1253 2984 
Q 1475 3003 1706 3003 
z
M 1906 1475 
L 1644 1466 
Q 1341 1453 1223 1306 
Q 1106 1159 1106 831 
Q 1106 566 1200 441 
Q 1294 316 1444 316 
Q 1656 316 1906 425 
L 1906 1475 
z
" transform="scale(0.015625)"/>
      <path id="LiberationSerif-Bold-6c" d="M 1347 281 
L 1669 206 
L 1669 0 
L 125 0 
L 125 206 
L 444 281 
L 444 4159 
L 144 4234 
L 144 4441 
L 1347 4441 
L 1347 281 
z
" transform="scale(0.015625)"/>
      <path id="LiberationSerif-Bold-69" d="M 1363 281 
L 1684 206 
L 1684 0 
L 141 0 
L 141 206 
L 459 281 
L 459 2656 
L 159 2731 
L 159 2938 
L 1363 2938 
L 1363 281 
z
M 428 3963 
Q 428 4166 570 4303 
Q 713 4441 909 4441 
Q 1109 4441 1248 4302 
Q 1388 4163 1388 3963 
Q 1388 3766 1250 3623 
Q 1113 3481 909 3481 
Q 709 3481 568 3620 
Q 428 3759 428 3963 
z
" transform="scale(0.015625)"/>
      <path id="LiberationSerif-Bold-64" d="M 2291 166 
Q 2116 53 2022 17 
Q 1928 -19 1809 -41 
Q 1691 -63 1547 -63 
Q 897 -63 578 310 
Q 259 684 259 1459 
Q 259 2222 601 2619 
Q 944 3016 1594 3016 
Q 1934 3016 2281 2931 
Q 2263 3034 2263 3416 
L 2263 4159 
L 1963 4234 
L 1963 4441 
L 3166 4441 
L 3166 281 
L 3488 206 
L 3488 0 
L 2356 0 
L 2291 166 
z
M 1175 1484 
Q 1175 900 1322 592 
Q 1469 284 1744 284 
Q 1994 284 2263 419 
L 2263 2631 
Q 2019 2697 1769 2697 
Q 1488 2697 1331 2389 
Q 1175 2081 1175 1484 
z
" transform="scale(0.015625)"/>
      <path id="LiberationSerif-Bold-74" d="M 1369 -63 
Q 947 -63 717 128 
Q 488 319 488 678 
L 488 2613 
L 103 2613 
L 103 2816 
L 556 2938 
L 922 3603 
L 1391 3603 
L 1391 2938 
L 2009 2938 
L 2009 2613 
L 1391 2613 
L 1391 734 
Q 1391 531 1475 428 
Q 1559 325 1697 325 
Q 1863 325 2103 375 
L 2103 109 
Q 2009 44 1782 -9 
Q 1556 -63 1369 -63 
z
" transform="scale(0.015625)"/>
      <path id="LiberationSerif-Bold-6f" d="M 2956 1484 
Q 2956 694 2617 315 
Q 2278 -63 1581 -63 
Q 906 -63 575 320 
Q 244 703 244 1484 
Q 244 2263 580 2639 
Q 916 3016 1606 3016 
Q 2303 3016 2629 2627 
Q 2956 2238 2956 1484 
z
M 2041 1484 
Q 2041 2172 1939 2436 
Q 1838 2700 1588 2700 
Q 1347 2700 1253 2447 
Q 1159 2194 1159 1484 
Q 1159 763 1254 506 
Q 1350 250 1588 250 
Q 1834 250 1937 520 
Q 2041 791 2041 1484 
z
" transform="scale(0.015625)"/>
      <path id="LiberationSerif-Bold-6e" d="M 1356 2681 
L 1569 2791 
Q 2006 3016 2356 3016 
Q 3169 3016 3169 2150 
L 3169 281 
L 3463 206 
L 3463 0 
L 2003 0 
L 2003 206 
L 2266 281 
L 2266 2028 
Q 2266 2291 2155 2437 
Q 2044 2584 1838 2584 
Q 1600 2584 1363 2478 
L 1363 281 
L 1631 206 
L 1631 0 
L 172 0 
L 172 206 
L 459 281 
L 459 2656 
L 172 2731 
L 172 2938 
L 1313 2938 
L 1356 2681 
z
" transform="scale(0.015625)"/>
      <path id="LiberationSerif-Bold-63" d="M 2681 178 
Q 2541 66 2292 3 
Q 2044 -59 1781 -59 
Q 997 -59 608 319 
Q 219 697 219 1475 
Q 219 1959 395 2304 
Q 572 2650 900 2833 
Q 1228 3016 1663 3016 
Q 2100 3016 2616 2906 
L 2616 2038 
L 2391 2038 
L 2259 2553 
Q 2153 2631 2050 2662 
Q 1947 2694 1778 2694 
Q 1594 2694 1444 2547 
Q 1294 2400 1211 2133 
Q 1128 1866 1128 1494 
Q 1128 866 1323 597 
Q 1519 328 1944 328 
Q 2375 328 2681 419 
L 2681 178 
z
" transform="scale(0.015625)"/>
      <path id="LiberationSerif-Bold-68" d="M 1363 3169 
Q 1363 2963 1344 2681 
L 1559 2791 
Q 2003 3016 2356 3016 
Q 3169 3016 3169 2150 
L 3169 281 
L 3463 206 
L 3463 0 
L 2003 0 
L 2003 206 
L 2266 281 
L 2266 2028 
Q 2266 2291 2155 2437 
Q 2044 2584 1838 2584 
Q 1600 2584 1363 2478 
L 1363 281 
L 1631 206 
L 1631 0 
L 172 0 
L 172 206 
L 459 281 
L 459 4159 
L 159 4234 
L 159 4441 
L 1363 4441 
L 1363 3169 
z
" transform="scale(0.015625)"/>
      <path id="LiberationSerif-Bold-72" d="M 1441 2328 
Q 1778 2703 2045 2867 
Q 2313 3031 2534 3031 
L 2703 3031 
L 2703 1959 
L 2528 1959 
L 2344 2353 
Q 2147 2353 1897 2267 
Q 1647 2181 1456 2066 
L 1456 281 
L 1928 206 
L 1928 0 
L 172 0 
L 172 206 
L 553 281 
L 553 2656 
L 172 2731 
L 172 2938 
L 1406 2938 
L 1441 2328 
z
" transform="scale(0.015625)"/>
      <path id="LiberationSerif-Bold-2c" d="M 1356 331 
Q 1356 -156 1031 -492 
Q 706 -828 84 -991 
L 84 -703 
Q 281 -644 422 -547 
Q 563 -450 639 -333 
Q 716 -216 716 -109 
Q 716 -41 669 9 
Q 622 59 481 138 
Q 244 263 244 525 
Q 244 728 384 834 
Q 525 941 741 941 
Q 1006 941 1181 770 
Q 1356 600 1356 331 
z
" transform="scale(0.015625)"/>
      <path id="LiberationSerif-Bold-6d" d="M 1356 2681 
L 1569 2791 
Q 2006 3016 2353 3016 
Q 2878 3016 3053 2634 
Q 3694 3016 4134 3016 
Q 4928 3016 4928 2150 
L 4928 281 
L 5222 206 
L 5222 0 
L 3763 0 
L 3763 206 
L 4025 281 
L 4025 2028 
Q 4025 2291 3923 2437 
Q 3822 2584 3616 2584 
Q 3384 2584 3116 2453 
Q 3147 2322 3147 2150 
L 3147 281 
L 3441 206 
L 3441 0 
L 1981 0 
L 1981 206 
L 2244 281 
L 2244 2028 
Q 2244 2291 2142 2437 
Q 2041 2584 1834 2584 
Q 1628 2584 1363 2463 
L 1363 281 
L 1631 206 
L 1631 0 
L 172 0 
L 172 206 
L 459 281 
L 459 2656 
L 172 2731 
L 172 2938 
L 1313 2938 
L 1356 2681 
z
" transform="scale(0.015625)"/>
      <path id="LiberationSerif-Bold-75" d="M 2203 256 
L 1991 147 
Q 1553 -78 1203 -78 
Q 391 -78 391 788 
L 391 2656 
L 97 2731 
L 97 2938 
L 1294 2938 
L 1294 909 
Q 1294 647 1405 500 
Q 1516 353 1722 353 
Q 1959 353 2197 459 
L 2197 2656 
L 1928 2731 
L 1928 2938 
L 3100 2938 
L 3100 281 
L 3388 206 
L 3388 0 
L 2247 0 
L 2203 256 
z
" transform="scale(0.015625)"/>
      <path id="LiberationSerif-Bold-65" d="M 1544 3009 
Q 2141 3009 2408 2690 
Q 2675 2372 2675 1700 
L 2675 1444 
L 1134 1444 
L 1134 1394 
Q 1134 928 1209 731 
Q 1284 534 1453 431 
Q 1622 328 1916 328 
Q 2191 328 2609 419 
L 2609 178 
Q 2438 75 2164 8 
Q 1891 -59 1631 -59 
Q 909 -59 564 317 
Q 219 694 219 1484 
Q 219 2253 548 2631 
Q 878 3009 1544 3009 
z
M 1509 2694 
Q 1322 2694 1230 2491 
Q 1138 2288 1138 1772 
L 1819 1772 
Q 1819 2191 1791 2361 
Q 1763 2531 1695 2612 
Q 1628 2694 1509 2694 
z
" transform="scale(0.015625)"/>
      <path id="LiberationSerif-Bold-73" d="M 2334 931 
Q 2334 441 2032 189 
Q 1731 -63 1156 -63 
Q 919 -63 633 -11 
Q 347 41 200 97 
L 200 897 
L 406 897 
L 525 484 
Q 634 375 812 301 
Q 991 228 1175 228 
Q 1447 228 1580 345 
Q 1713 463 1713 644 
Q 1713 816 1584 919 
Q 1456 1022 1025 1156 
Q 572 1297 383 1540 
Q 194 1784 194 2141 
Q 194 2541 491 2778 
Q 788 3016 1256 3016 
Q 1578 3016 2122 2925 
L 2122 2172 
L 1916 2172 
L 1816 2516 
Q 1725 2606 1561 2664 
Q 1397 2722 1250 2722 
Q 1025 2722 917 2630 
Q 809 2538 809 2378 
Q 809 2213 943 2106 
Q 1078 2000 1497 1875 
Q 1953 1734 2143 1504 
Q 2334 1275 2334 931 
z
" transform="scale(0.015625)"/>
      <path id="LiberationSerif-Bold-66" d="M 491 2613 
L 47 2613 
L 47 2828 
L 491 2950 
L 491 3266 
Q 491 3866 797 4186 
Q 1103 4506 1675 4506 
Q 1984 4506 2194 4447 
L 2194 3747 
L 1994 3747 
L 1903 4088 
Q 1828 4163 1706 4163 
Q 1394 4163 1394 3366 
L 1394 2938 
L 1991 2938 
L 1991 2613 
L 1394 2613 
L 1394 281 
L 1872 206 
L 1872 0 
L 172 0 
L 172 206 
L 491 281 
L 491 2613 
z
" transform="scale(0.015625)"/>
      <path id="LiberationSerif-Bold-29" d="M 206 -1363 
L 206 -1006 
Q 491 -788 664 -444 
Q 838 -100 917 358 
Q 997 816 997 1544 
Q 997 2284 915 2737 
Q 834 3191 662 3528 
Q 491 3866 206 4084 
L 206 4441 
Q 831 4106 1178 3720 
Q 1525 3334 1687 2811 
Q 1850 2288 1850 1547 
Q 1850 800 1687 273 
Q 1525 -253 1176 -642 
Q 828 -1031 206 -1363 
z
" transform="scale(0.015625)"/>
     </defs>
     <use xlink:href="#LiberationSerif-Bold-42"/>
     <use xlink:href="#LiberationSerif-Bold-41" x="66.699219"/>
     <use xlink:href="#LiberationSerif-Bold-31" x="138.916016"/>
     <use xlink:href="#LiberationSerif-Bold-31" x="183.416016"/>
     <use xlink:href="#LiberationSerif-Bold-20" x="233.416016"/>
     <use xlink:href="#LiberationSerif-Bold-28" x="258.416016"/>
     <use xlink:href="#LiberationSerif-Bold-76" x="291.716797"/>
     <use xlink:href="#LiberationSerif-Bold-61" x="341.716797"/>
     <use xlink:href="#LiberationSerif-Bold-6c" x="391.716797"/>
     <use xlink:href="#LiberationSerif-Bold-69" x="419.5"/>
     <use xlink:href="#LiberationSerif-Bold-64" x="447.283203"/>
     <use xlink:href="#LiberationSerif-Bold-61" x="502.898438"/>
     <use xlink:href="#LiberationSerif-Bold-74" x="552.898438"/>
     <use xlink:href="#LiberationSerif-Bold-69" x="586.199219"/>
     <use xlink:href="#LiberationSerif-Bold-6f" x="613.982422"/>
     <use xlink:href="#LiberationSerif-Bold-6e" x="663.982422"/>
     <use xlink:href="#LiberationSerif-Bold-20" x="719.597656"/>
     <use xlink:href="#LiberationSerif-Bold-63" x="744.597656"/>
     <use xlink:href="#LiberationSerif-Bold-6f" x="788.982422"/>
     <use xlink:href="#LiberationSerif-Bold-68" x="838.982422"/>
     <use xlink:href="#LiberationSerif-Bold-6f" x="894.597656"/>
     <use xlink:href="#LiberationSerif-Bold-72" x="944.597656"/>
     <use xlink:href="#LiberationSerif-Bold-74" x="988.982422"/>
     <use xlink:href="#LiberationSerif-Bold-2c" x="1022.283203"/>
     <use xlink:href="#LiberationSerif-Bold-20" x="1047.283203"/>
     <use xlink:href="#LiberationSerif-Bold-6d" x="1072.283203"/>
     <use xlink:href="#LiberationSerif-Bold-6f" x="1155.583984"/>
     <use xlink:href="#LiberationSerif-Bold-64" x="1205.583984"/>
     <use xlink:href="#LiberationSerif-Bold-75" x="1261.199219"/>
     <use xlink:href="#LiberationSerif-Bold-6c" x="1316.814453"/>
     <use xlink:href="#LiberationSerif-Bold-65" x="1344.597656"/>
     <use xlink:href="#LiberationSerif-Bold-20" x="1388.982422"/>
     <use xlink:href="#LiberationSerif-Bold-74" x="1413.982422"/>
     <use xlink:href="#LiberationSerif-Bold-72" x="1447.283203"/>
     <use xlink:href="#LiberationSerif-Bold-61" x="1491.667969"/>
     <use xlink:href="#LiberationSerif-Bold-6e" x="1541.667969"/>
     <use xlink:href="#LiberationSerif-Bold-73" x="1597.283203"/>
     <use xlink:href="#LiberationSerif-Bold-66" x="1636.199219"/>
     <use xlink:href="#LiberationSerif-Bold-65" x="1669.5"/>
     <use xlink:href="#LiberationSerif-Bold-72" x="1713.884766"/>
     <use xlink:href="#LiberationSerif-Bold-29" x="1758.269531"/>
    </g>
   </g>
   <g id="legend_1">
    <g id="patch_24">
     <path d="M 360.914844 336.08125 
L 376.914844 336.08125 
L 376.914844 330.48125 
L 360.914844 330.48125 
z
" style="fill: #c44e52"/>
    </g>
    <g id="text_50">
     <!-- Ast15 (ACHES, Transfer) -->
     <g transform="translate(383.314844 336.08125) scale(0.08 -0.08)">
      <defs>
       <path id="LiberationSerif-2c" d="M 1197 153 
Q 1197 -275 948 -564 
Q 700 -853 244 -984 
L 244 -744 
Q 794 -569 794 -219 
Q 794 -156 747 -106 
Q 700 -56 584 3 
Q 372 113 372 313 
Q 372 481 478 570 
Q 584 659 750 659 
Q 950 659 1073 515 
Q 1197 372 1197 153 
z
" transform="scale(0.015625)"/>
       <path id="LiberationSerif-54" d="M 984 0 
L 984 166 
L 1650 250 
L 1650 3922 
L 1491 3922 
Q 700 3922 409 3859 
L 325 3206 
L 116 3206 
L 116 4191 
L 3803 4191 
L 3803 3206 
L 3591 3206 
L 3506 3859 
Q 3413 3881 3097 3898 
Q 2781 3916 2406 3916 
L 2253 3916 
L 2253 250 
L 2919 166 
L 2919 0 
L 984 0 
z
" transform="scale(0.015625)"/>
       <path id="LiberationSerif-66" d="M 703 2675 
L 197 2675 
L 197 2828 
L 703 2950 
L 703 3156 
Q 703 3806 961 4156 
Q 1219 4506 1684 4506 
Q 1925 4506 2131 4447 
L 2131 3806 
L 1978 3806 
L 1838 4191 
Q 1731 4256 1581 4256 
Q 1384 4256 1303 4081 
Q 1222 3906 1222 3425 
L 1222 2938 
L 2003 2938 
L 2003 2675 
L 1222 2675 
L 1222 244 
L 1856 141 
L 1856 0 
L 269 0 
L 269 141 
L 703 244 
L 703 2675 
z
" transform="scale(0.015625)"/>
      </defs>
      <use xlink:href="#LiberationSerif-41"/>
      <use xlink:href="#LiberationSerif-73" x="72.216797"/>
      <use xlink:href="#LiberationSerif-74" x="111.132812"/>
      <use xlink:href="#LiberationSerif-31" x="138.916016"/>
      <use xlink:href="#LiberationSerif-35" x="188.916016"/>
      <use xlink:href="#LiberationSerif-20" x="238.916016"/>
      <use xlink:href="#LiberationSerif-28" x="263.916016"/>
      <use xlink:href="#LiberationSerif-41" x="297.216797"/>
      <use xlink:href="#LiberationSerif-43" x="369.433594"/>
      <use xlink:href="#LiberationSerif-48" x="436.132812"/>
      <use xlink:href="#LiberationSerif-45" x="508.349609"/>
      <use xlink:href="#LiberationSerif-53" x="569.433594"/>
      <use xlink:href="#LiberationSerif-2c" x="625.048828"/>
      <use xlink:href="#LiberationSerif-20" x="650.048828"/>
      <use xlink:href="#LiberationSerif-54" x="673.298828"/>
      <use xlink:href="#LiberationSerif-72" x="730.882812"/>
      <use xlink:href="#LiberationSerif-61" x="764.183594"/>
      <use xlink:href="#LiberationSerif-6e" x="808.568359"/>
      <use xlink:href="#LiberationSerif-73" x="858.568359"/>
      <use xlink:href="#LiberationSerif-66" x="897.484375"/>
      <use xlink:href="#LiberationSerif-65" x="930.785156"/>
      <use xlink:href="#LiberationSerif-72" x="975.169922"/>
      <use xlink:href="#LiberationSerif-29" x="1008.470703"/>
     </g>
    </g>
    <g id="patch_25">
     <path d="M 360.914844 347.385 
L 376.914844 347.385 
L 376.914844 341.785 
L 360.914844 341.785 
z
" style="fill: #b0b8c4"/>
    </g>
    <g id="text_51">
     <!-- Other -->
     <g transform="translate(383.314844 347.385) scale(0.08 -0.08)">
      <defs>
       <path id="LiberationSerif-4f" d="M 916 2100 
Q 916 1091 1253 637 
Q 1591 184 2309 184 
Q 3025 184 3365 637 
Q 3706 1091 3706 2100 
Q 3706 3103 3367 3545 
Q 3028 3988 2309 3988 
Q 1588 3988 1252 3545 
Q 916 3103 916 2100 
z
M 263 2100 
Q 263 4238 2309 4238 
Q 3322 4238 3840 3695 
Q 4359 3153 4359 2100 
Q 4359 1031 3834 484 
Q 3309 -63 2309 -63 
Q 1313 -63 788 482 
Q 263 1028 263 2100 
z
" transform="scale(0.015625)"/>
      </defs>
      <use xlink:href="#LiberationSerif-4f"/>
      <use xlink:href="#LiberationSerif-74" x="72.216797"/>
      <use xlink:href="#LiberationSerif-68" x="100"/>
      <use xlink:href="#LiberationSerif-65" x="150"/>
      <use xlink:href="#LiberationSerif-72" x="194.384766"/>
     </g>
    </g>
   </g>
  </g>
 </g>
 <defs>
  <clipPath id="pecab176e77">
   <rect x="83.256094" y="23.64875" width="390.6" height="332.64"/>
  </clipPath>
 </defs>
</svg>
