<?xml version="1.0" encoding="utf-8" standalone="no"?>
<!DOCTYPE svg PUBLIC "-//W3C//DTD SVG 1.1//EN"
  "http://www.w3.org/Graphics/SVG/1.1/DTD/svg11.dtd">
<svg xmlns:xlink="http://www.w3.org/1999/xlink" width="499.136875pt" height="427.996105pt" viewBox="0 0 499.136875 427.996105" xmlns="http://www.w3.org/2000/svg" version="1.1">
 <metadata>
  <rdf:RDF xmlns:dc="http://purl.org/dc/elements/1.1/" xmlns:cc="http://creativecommons.org/ns#" xmlns:rdf="http://www.w3.org/1999/02/22-rdf-syntax-ns#">
   <cc:Work>
    <dc:type rdf:resource="http://purl.org/dc/dcmitype/StillImage"/>
    <dc:date>2026-05-22T17:14:36.834466</dc:date>
    <dc:format>image/svg+xml</dc:format>
    <dc:creator>
     <cc:Agent>
      <dc:title>Matplotlib v3.9.4, https://matplotlib.org/</dc:title>
     </cc:Agent>
    </dc:creator>
   </cc:Work>
  </rdf:RDF>
 </metadata>
 <defs>
  <style type="text/css">*{stroke-linejoin: round; stroke-linecap: butt}</style>
 </defs>
 <g id="figure_1">
  <g id="patch_1">
   <path d="M 0 427.996105 
L 499.136875 427.996105 
L 499.136875 0 
L 0 0 
z
" style="fill: #ffffff"/>
  </g>
  <g id="axes_1">
   <g id="patch_2">
    <path d="M 43.425625 371.904509 
L 491.936875 371.904509 
L 491.936875 26.914687 
L 43.425625 26.914687 
z
" style="fill: #ffffff"/>
   </g>
   <g id="LineCollection_1">
    <path d="M 63.8125 371.904509 
L 63.8125 149.330431 
" clip-path="url(#pacfb949596)" style="fill: none; stroke: #e07b54; stroke-width: 3"/>
    <path d="M 87.797059 371.904509 
L 87.797059 212.513126 
" clip-path="url(#pacfb949596)" style="fill: none; stroke: #d94f4f; stroke-width: 3"/>
    <path d="M 111.781618 371.904509 
L 111.781618 343.245343 
" clip-path="url(#pacfb949596)" style="fill: none; stroke: #b0b8c4; stroke-width: 3"/>
    <path d="M 135.766176 371.904509 
L 135.766176 345.61042 
" clip-path="url(#pacfb949596)" style="fill: none; stroke: #b0b8c4; stroke-width: 3"/>
    <path d="M 159.750735 371.904509 
L 159.750735 354.024721 
" clip-path="url(#pacfb949596)" style="fill: none; stroke: #b0b8c4; stroke-width: 3"/>
    <path d="M 183.735294 371.904509 
L 183.735294 359.508724 
" clip-path="url(#pacfb949596)" style="fill: none; stroke: #b0b8c4; stroke-width: 3"/>
    <path d="M 207.719853 371.904509 
L 207.719853 360.412467 
" clip-path="url(#pacfb949596)" style="fill: none; stroke: #b0b8c4; stroke-width: 3"/>
    <path d="M 231.704412 371.904509 
L 231.704412 362.915574 
" clip-path="url(#pacfb949596)" style="fill: none; stroke: #b0b8c4; stroke-width: 3"/>
    <path d="M 255.688971 371.904509 
L 255.688971 367.983238 
" clip-path="url(#pacfb949596)" style="fill: none; stroke: #b0b8c4; stroke-width: 3"/>
    <path d="M 279.673529 371.904509 
L 279.673529 369.770876 
" clip-path="url(#pacfb949596)" style="fill: none; stroke: #b0b8c4; stroke-width: 3"/>
    <path d="M 303.658088 371.904509 
L 303.658088 369.801798 
" clip-path="url(#pacfb949596)" style="fill: none; stroke: #b0b8c4; stroke-width: 3"/>
    <path d="M 327.642647 371.904509 
L 327.642647 370.122934 
" clip-path="url(#pacfb949596)" style="fill: none; stroke: #b0b8c4; stroke-width: 3"/>
    <path d="M 351.627206 371.904509 
L 351.627206 370.14321 
" clip-path="url(#pacfb949596)" style="fill: none; stroke: #b0b8c4; stroke-width: 3"/>
    <path d="M 375.611765 371.904509 
L 375.611765 370.456354 
" clip-path="url(#pacfb949596)" style="fill: none; stroke: #b0b8c4; stroke-width: 3"/>
    <path d="M 399.596324 371.904509 
L 399.596324 370.473318 
" clip-path="url(#pacfb949596)" style="fill: none; stroke: #b0b8c4; stroke-width: 3"/>
    <path d="M 423.580882 371.904509 
L 423.580882 371.114382 
" clip-path="url(#pacfb949596)" style="fill: none; stroke: #b0b8c4; stroke-width: 3"/>
    <path d="M 447.565441 371.904509 
L 447.565441 371.904509 
" clip-path="url(#pacfb949596)" style="fill: none; stroke: #b0b8c4; stroke-width: 3"/>
    <path d="M 471.55 371.904509 
L 471.55 371.904509 
" clip-path="url(#pacfb949596)" style="fill: none; stroke: #b0b8c4; stroke-width: 3"/>
   </g>
   <g id="matplotlib.axis_1">
    <g id="xtick_1">
     <g id="line2d_1">
      <defs>
       <path id="m62b0095f8c" d="M 0 0 
L 0 3 
" style="stroke: #000000; stroke-width: 0.5"/>
      </defs>
      <g>
       <use xlink:href="#m62b0095f8c" x="63.8125" y="371.904509" style="stroke: #000000; stroke-width: 0.5"/>
      </g>
     </g>
     <g id="text_1">
      <!-- Ast7_val -->
      <g transform="translate(42.18122 402.756383) rotate(-45) scale(0.08 -0.08)">
       <defs>
        <path id="LiberationSerif-41" d="M 1441 166 
L 1441 0 
L 63 0 
L 63 166 
L 538 250 
L 1966 4225 
L 2559 4225 
L 4044 250 
L 4575 166 
L 4575 0 
L 2803 0 
L 2803 166 
L 3366 250 
L 2950 1459 
L 1300 1459 
L 878 250 
L 1441 166 
z
M 2113 3775 
L 1394 1741 
L 2853 1741 
L 2113 3775 
z
" transform="scale(0.015625)"/>
        <path id="LiberationSerif-73" d="M 2259 825 
Q 2259 388 1982 162 
Q 1706 -63 1166 -63 
Q 947 -63 683 -17 
Q 419 28 269 84 
L 269 806 
L 409 806 
L 563 397 
Q 797 184 1172 184 
Q 1778 184 1778 703 
Q 1778 1084 1300 1247 
L 1022 1338 
Q 706 1441 562 1547 
Q 419 1653 341 1808 
Q 263 1963 263 2181 
Q 263 2569 527 2792 
Q 791 3016 1241 3016 
Q 1563 3016 2047 2919 
L 2047 2278 
L 1900 2278 
L 1769 2619 
Q 1603 2766 1247 2766 
Q 994 2766 861 2641 
Q 728 2516 728 2303 
Q 728 2125 848 2003 
Q 969 1881 1213 1800 
Q 1672 1644 1812 1572 
Q 1953 1500 2051 1395 
Q 2150 1291 2204 1156 
Q 2259 1022 2259 825 
z
" transform="scale(0.015625)"/>
        <path id="LiberationSerif-74" d="M 1044 -63 
Q 744 -63 595 115 
Q 447 294 447 616 
L 447 2675 
L 63 2675 
L 63 2816 
L 453 2938 
L 769 3603 
L 966 3603 
L 966 2938 
L 1638 2938 
L 1638 2675 
L 966 2675 
L 966 672 
Q 966 469 1058 366 
Q 1150 263 1300 263 
Q 1481 263 1741 313 
L 1741 109 
Q 1631 34 1425 -14 
Q 1219 -63 1044 -63 
z
" transform="scale(0.015625)"/>
        <path id="LiberationSerif-37" d="M 628 3200 
L 422 3200 
L 422 4191 
L 3016 4191 
L 3016 3950 
L 1147 0 
L 744 0 
L 2578 3713 
L 738 3713 
L 628 3200 
z
" transform="scale(0.015625)"/>
        <path id="LiberationSerif-5f" d="M -50 -825 
L -50 -506 
L 3250 -506 
L 3250 -825 
L -50 -825 
z
" transform="scale(0.015625)"/>
        <path id="LiberationSerif-76" d="M 1741 -63 
L 1509 -63 
L 300 2719 
L 0 2797 
L 0 2938 
L 1369 2938 
L 1369 2797 
L 903 2713 
L 1759 684 
L 2578 2719 
L 2113 2797 
L 2113 2938 
L 3200 2938 
L 3200 2797 
L 2919 2731 
L 1741 -63 
z
" transform="scale(0.015625)"/>
        <path id="LiberationSerif-61" d="M 1453 3003 
Q 1934 3003 2161 2806 
Q 2388 2609 2388 2203 
L 2388 219 
L 2753 141 
L 2753 0 
L 1947 0 
L 1888 294 
Q 1531 -63 978 -63 
Q 225 -63 225 813 
Q 225 1106 339 1298 
Q 453 1491 703 1592 
Q 953 1694 1428 1703 
L 1869 1716 
L 1869 2175 
Q 1869 2478 1758 2622 
Q 1647 2766 1416 2766 
Q 1103 2766 844 2619 
L 738 2253 
L 563 2253 
L 563 2894 
Q 1069 3003 1453 3003 
z
M 1869 1497 
L 1459 1484 
Q 1041 1469 892 1322 
Q 744 1175 744 831 
Q 744 281 1191 281 
Q 1403 281 1558 329 
Q 1713 378 1869 453 
L 1869 1497 
z
" transform="scale(0.015625)"/>
        <path id="LiberationSerif-6c" d="M 1147 219 
L 1650 141 
L 1650 0 
L 128 0 
L 128 141 
L 628 219 
L 628 4225 
L 128 4300 
L 128 4441 
L 1147 4441 
L 1147 219 
z
" transform="scale(0.015625)"/>
       </defs>
       <use xlink:href="#LiberationSerif-41"/>
       <use xlink:href="#LiberationSerif-73" x="72.216797"/>
       <use xlink:href="#LiberationSerif-74" x="111.132812"/>
       <use xlink:href="#LiberationSerif-37" x="138.916016"/>
       <use xlink:href="#LiberationSerif-5f" x="188.916016"/>
       <use xlink:href="#LiberationSerif-76" x="238.916016"/>
       <use xlink:href="#LiberationSerif-61" x="288.916016"/>
       <use xlink:href="#LiberationSerif-6c" x="333.300781"/>
      </g>
     </g>
    </g>
    <g id="xtick_2">
     <g id="line2d_2">
      <g>
       <use xlink:href="#m62b0095f8c" x="87.797059" y="371.904509" style="stroke: #000000; stroke-width: 0.5"/>
      </g>
     </g>
     <g id="text_2">
      <!-- Ast13_val -->
      <g transform="translate(63.337351 405.58481) rotate(-45) scale(0.08 -0.08)">
       <defs>
        <path id="LiberationSerif-31" d="M 1959 250 
L 2816 166 
L 2816 0 
L 563 0 
L 563 166 
L 1422 250 
L 1422 3669 
L 575 3366 
L 575 3531 
L 1797 4225 
L 1959 4225 
L 1959 250 
z
" transform="scale(0.015625)"/>
        <path id="LiberationSerif-33" d="M 2950 1141 
Q 2950 575 2562 256 
Q 2175 -63 1466 -63 
Q 872 -63 341 72 
L 306 953 
L 513 953 
L 653 366 
Q 775 297 998 247 
Q 1222 197 1416 197 
Q 1906 197 2140 422 
Q 2375 647 2375 1172 
Q 2375 1584 2159 1798 
Q 1944 2013 1491 2034 
L 1044 2059 
L 1044 2316 
L 1491 2344 
Q 1844 2363 2012 2563 
Q 2181 2763 2181 3169 
Q 2181 3591 1998 3783 
Q 1816 3975 1416 3975 
Q 1250 3975 1069 3929 
Q 888 3884 750 3809 
L 641 3297 
L 434 3297 
L 434 4103 
Q 744 4184 969 4211 
Q 1194 4238 1416 4238 
Q 2759 4238 2759 3206 
Q 2759 2772 2520 2514 
Q 2281 2256 1844 2194 
Q 2413 2128 2681 1867 
Q 2950 1606 2950 1141 
z
" transform="scale(0.015625)"/>
       </defs>
       <use xlink:href="#LiberationSerif-41"/>
       <use xlink:href="#LiberationSerif-73" x="72.216797"/>
       <use xlink:href="#LiberationSerif-74" x="111.132812"/>
       <use xlink:href="#LiberationSerif-31" x="138.916016"/>
       <use xlink:href="#LiberationSerif-33" x="188.916016"/>
       <use xlink:href="#LiberationSerif-5f" x="238.916016"/>
       <use xlink:href="#LiberationSerif-76" x="288.916016"/>
       <use xlink:href="#LiberationSerif-61" x="338.916016"/>
       <use xlink:href="#LiberationSerif-6c" x="383.300781"/>
      </g>
     </g>
    </g>
    <g id="xtick_3">
     <g id="line2d_3">
      <g>
       <use xlink:href="#m62b0095f8c" x="111.781618" y="371.904509" style="stroke: #000000; stroke-width: 0.5"/>
      </g>
     </g>
     <g id="text_3">
      <!-- Ast14_val -->
      <g transform="translate(87.32191 405.58481) rotate(-45) scale(0.08 -0.08)">
       <defs>
        <path id="LiberationSerif-34" d="M 2531 922 
L 2531 0 
L 1994 0 
L 1994 922 
L 125 922 
L 125 1338 
L 2172 4213 
L 2531 4213 
L 2531 1369 
L 3100 1369 
L 3100 922 
L 2531 922 
z
M 1994 3478 
L 1978 3478 
L 478 1369 
L 1994 1369 
L 1994 3478 
z
" transform="scale(0.015625)"/>
       </defs>
       <use xlink:href="#LiberationSerif-41"/>
       <use xlink:href="#LiberationSerif-73" x="72.216797"/>
       <use xlink:href="#LiberationSerif-74" x="111.132812"/>
       <use xlink:href="#LiberationSerif-31" x="138.916016"/>
       <use xlink:href="#LiberationSerif-34" x="188.916016"/>
       <use xlink:href="#LiberationSerif-5f" x="238.916016"/>
       <use xlink:href="#LiberationSerif-76" x="288.916016"/>
       <use xlink:href="#LiberationSerif-61" x="338.916016"/>
       <use xlink:href="#LiberationSerif-6c" x="383.300781"/>
      </g>
     </g>
    </g>
    <g id="xtick_4">
     <g id="line2d_4">
      <g>
       <use xlink:href="#m62b0095f8c" x="135.766176" y="371.904509" style="stroke: #000000; stroke-width: 0.5"/>
      </g>
     </g>
     <g id="text_4">
      <!-- Ast9_val -->
      <g transform="translate(114.134896 402.756383) rotate(-45) scale(0.08 -0.08)">
       <defs>
        <path id="LiberationSerif-39" d="M 206 2913 
Q 206 3544 559 3891 
Q 913 4238 1556 4238 
Q 2272 4238 2605 3722 
Q 2938 3206 2938 2106 
Q 2938 1053 2509 495 
Q 2081 -63 1306 -63 
Q 797 -63 372 44 
L 372 769 
L 575 769 
L 684 319 
Q 784 272 953 234 
Q 1122 197 1294 197 
Q 1794 197 2062 636 
Q 2331 1075 2359 1928 
Q 1884 1663 1394 1663 
Q 841 1663 523 1992 
Q 206 2322 206 2913 
z
M 1563 3988 
Q 781 3988 781 2900 
Q 781 2422 968 2194 
Q 1156 1966 1550 1966 
Q 1953 1966 2363 2131 
Q 2363 3091 2173 3539 
Q 1984 3988 1563 3988 
z
" transform="scale(0.015625)"/>
       </defs>
       <use xlink:href="#LiberationSerif-41"/>
       <use xlink:href="#LiberationSerif-73" x="72.216797"/>
       <use xlink:href="#LiberationSerif-74" x="111.132812"/>
       <use xlink:href="#LiberationSerif-39" x="138.916016"/>
       <use xlink:href="#LiberationSerif-5f" x="188.916016"/>
       <use xlink:href="#LiberationSerif-76" x="238.916016"/>
       <use xlink:href="#LiberationSerif-61" x="288.916016"/>
       <use xlink:href="#LiberationSerif-6c" x="333.300781"/>
      </g>
     </g>
    </g>
    <g id="xtick_5">
     <g id="line2d_5">
      <g>
       <use xlink:href="#m62b0095f8c" x="159.750735" y="371.904509" style="stroke: #000000; stroke-width: 0.5"/>
      </g>
     </g>
     <g id="text_5">
      <!-- Ast15_val -->
      <g transform="translate(135.291028 405.58481) rotate(-45) scale(0.08 -0.08)">
       <defs>
        <path id="LiberationSerif-35" d="M 1516 2450 
Q 2241 2450 2595 2153 
Q 2950 1856 2950 1247 
Q 2950 616 2565 276 
Q 2181 -63 1466 -63 
Q 872 -63 406 72 
L 372 953 
L 578 953 
L 719 366 
Q 856 291 1048 244 
Q 1241 197 1416 197 
Q 1909 197 2142 430 
Q 2375 663 2375 1216 
Q 2375 1603 2275 1801 
Q 2175 2000 1956 2094 
Q 1738 2188 1369 2188 
Q 1084 2188 813 2113 
L 513 2113 
L 513 4191 
L 2638 4191 
L 2638 3713 
L 794 3713 
L 794 2375 
Q 1131 2450 1516 2450 
z
" transform="scale(0.015625)"/>
       </defs>
       <use xlink:href="#LiberationSerif-41"/>
       <use xlink:href="#LiberationSerif-73" x="72.216797"/>
       <use xlink:href="#LiberationSerif-74" x="111.132812"/>
       <use xlink:href="#LiberationSerif-31" x="138.916016"/>
       <use xlink:href="#LiberationSerif-35" x="188.916016"/>
       <use xlink:href="#LiberationSerif-5f" x="238.916016"/>
       <use xlink:href="#LiberationSerif-76" x="288.916016"/>
       <use xlink:href="#LiberationSerif-61" x="338.916016"/>
       <use xlink:href="#LiberationSerif-6c" x="383.300781"/>
      </g>
     </g>
    </g>
    <g id="xtick_6">
     <g id="line2d_6">
      <g>
       <use xlink:href="#m62b0095f8c" x="183.735294" y="371.904509" style="stroke: #000000; stroke-width: 0.5"/>
      </g>
     </g>
     <g id="text_6">
      <!-- Ast19_val -->
      <g transform="translate(159.275587 405.58481) rotate(-45) scale(0.08 -0.08)">
       <use xlink:href="#LiberationSerif-41"/>
       <use xlink:href="#LiberationSerif-73" x="72.216797"/>
       <use xlink:href="#LiberationSerif-74" x="111.132812"/>
       <use xlink:href="#LiberationSerif-31" x="138.916016"/>
       <use xlink:href="#LiberationSerif-39" x="188.916016"/>
       <use xlink:href="#LiberationSerif-5f" x="238.916016"/>
       <use xlink:href="#LiberationSerif-76" x="288.916016"/>
       <use xlink:href="#LiberationSerif-61" x="338.916016"/>
       <use xlink:href="#LiberationSerif-6c" x="383.300781"/>
      </g>
     </g>
    </g>
    <g id="xtick_7">
     <g id="line2d_7">
      <g>
       <use xlink:href="#m62b0095f8c" x="207.719853" y="371.904509" style="stroke: #000000; stroke-width: 0.5"/>
      </g>
     </g>
     <g id="text_7">
      <!-- Ast11_val -->
      <g transform="translate(183.472278 405.372678) rotate(-45) scale(0.08 -0.08)">
       <use xlink:href="#LiberationSerif-41"/>
       <use xlink:href="#LiberationSerif-73" x="72.216797"/>
       <use xlink:href="#LiberationSerif-74" x="111.132812"/>
       <use xlink:href="#LiberationSerif-31" x="138.916016"/>
       <use xlink:href="#LiberationSerif-31" x="185.166016"/>
       <use xlink:href="#LiberationSerif-5f" x="235.166016"/>
       <use xlink:href="#LiberationSerif-76" x="285.166016"/>
       <use xlink:href="#LiberationSerif-61" x="335.166016"/>
       <use xlink:href="#LiberationSerif-6c" x="379.550781"/>
      </g>
     </g>
    </g>
    <g id="xtick_8">
     <g id="line2d_8">
      <g>
       <use xlink:href="#m62b0095f8c" x="231.704412" y="371.904509" style="stroke: #000000; stroke-width: 0.5"/>
      </g>
     </g>
     <g id="text_8">
      <!-- Ast6_val -->
      <g transform="translate(210.073131 402.756383) rotate(-45) scale(0.08 -0.08)">
       <defs>
        <path id="LiberationSerif-36" d="M 3009 1300 
Q 3009 647 2679 292 
Q 2350 -63 1728 -63 
Q 1022 -63 648 487 
Q 275 1038 275 2069 
Q 275 2744 472 3234 
Q 669 3725 1023 3981 
Q 1378 4238 1844 4238 
Q 2300 4238 2753 4128 
L 2753 3406 
L 2547 3406 
L 2438 3834 
Q 2334 3891 2159 3933 
Q 1984 3975 1844 3975 
Q 1388 3975 1133 3533 
Q 878 3091 853 2241 
Q 1363 2509 1875 2509 
Q 2428 2509 2718 2198 
Q 3009 1888 3009 1300 
z
M 1716 184 
Q 2094 184 2262 429 
Q 2431 675 2431 1241 
Q 2431 1753 2270 1981 
Q 2109 2209 1759 2209 
Q 1331 2209 850 2053 
Q 850 1100 1065 642 
Q 1281 184 1716 184 
z
" transform="scale(0.015625)"/>
       </defs>
       <use xlink:href="#LiberationSerif-41"/>
       <use xlink:href="#LiberationSerif-73" x="72.216797"/>
       <use xlink:href="#LiberationSerif-74" x="111.132812"/>
       <use xlink:href="#LiberationSerif-36" x="138.916016"/>
       <use xlink:href="#LiberationSerif-5f" x="188.916016"/>
       <use xlink:href="#LiberationSerif-76" x="238.916016"/>
       <use xlink:href="#LiberationSerif-61" x="288.916016"/>
       <use xlink:href="#LiberationSerif-6c" x="333.300781"/>
      </g>
     </g>
    </g>
    <g id="xtick_9">
     <g id="line2d_9">
      <g>
       <use xlink:href="#m62b0095f8c" x="255.688971" y="371.904509" style="stroke: #000000; stroke-width: 0.5"/>
      </g>
     </g>
     <g id="text_9">
      <!-- Ast1_val -->
      <g transform="translate(234.05769 402.756383) rotate(-45) scale(0.08 -0.08)">
       <use xlink:href="#LiberationSerif-41"/>
       <use xlink:href="#LiberationSerif-73" x="72.216797"/>
       <use xlink:href="#LiberationSerif-74" x="111.132812"/>
       <use xlink:href="#LiberationSerif-31" x="138.916016"/>
       <use xlink:href="#LiberationSerif-5f" x="188.916016"/>
       <use xlink:href="#LiberationSerif-76" x="238.916016"/>
       <use xlink:href="#LiberationSerif-61" x="288.916016"/>
       <use xlink:href="#LiberationSerif-6c" x="333.300781"/>
      </g>
     </g>
    </g>
    <g id="xtick_10">
     <g id="line2d_10">
      <g>
       <use xlink:href="#m62b0095f8c" x="279.673529" y="371.904509" style="stroke: #000000; stroke-width: 0.5"/>
      </g>
     </g>
     <g id="text_10">
      <!-- Ast10_val -->
      <g transform="translate(255.213822 405.58481) rotate(-45) scale(0.08 -0.08)">
       <defs>
        <path id="LiberationSerif-30" d="M 2956 2113 
Q 2956 -63 1581 -63 
Q 919 -63 581 493 
Q 244 1050 244 2113 
Q 244 3153 581 3704 
Q 919 4256 1606 4256 
Q 2269 4256 2612 3711 
Q 2956 3166 2956 2113 
z
M 2381 2113 
Q 2381 3119 2190 3562 
Q 2000 4006 1581 4006 
Q 1175 4006 997 3587 
Q 819 3169 819 2113 
Q 819 1050 1000 617 
Q 1181 184 1581 184 
Q 1994 184 2187 639 
Q 2381 1094 2381 2113 
z
" transform="scale(0.015625)"/>
       </defs>
       <use xlink:href="#LiberationSerif-41"/>
       <use xlink:href="#LiberationSerif-73" x="72.216797"/>
       <use xlink:href="#LiberationSerif-74" x="111.132812"/>
       <use xlink:href="#LiberationSerif-31" x="138.916016"/>
       <use xlink:href="#LiberationSerif-30" x="188.916016"/>
       <use xlink:href="#LiberationSerif-5f" x="238.916016"/>
       <use xlink:href="#LiberationSerif-76" x="288.916016"/>
       <use xlink:href="#LiberationSerif-61" x="338.916016"/>
       <use xlink:href="#LiberationSerif-6c" x="383.300781"/>
      </g>
     </g>
    </g>
    <g id="xtick_11">
     <g id="line2d_11">
      <g>
       <use xlink:href="#m62b0095f8c" x="303.658088" y="371.904509" style="stroke: #000000; stroke-width: 0.5"/>
      </g>
     </g>
     <g id="text_11">
      <!-- Ast8_val -->
      <g transform="translate(282.026808 402.756383) rotate(-45) scale(0.08 -0.08)">
       <defs>
        <path id="LiberationSerif-38" d="M 2828 3169 
Q 2828 2825 2661 2586 
Q 2494 2347 2209 2222 
Q 2566 2091 2761 1811 
Q 2956 1531 2956 1131 
Q 2956 538 2622 237 
Q 2288 -63 1581 -63 
Q 244 -63 244 1131 
Q 244 1547 444 1820 
Q 644 2094 984 2222 
Q 713 2347 542 2584 
Q 372 2822 372 3169 
Q 372 3688 689 3972 
Q 1006 4256 1606 4256 
Q 2188 4256 2508 3973 
Q 2828 3691 2828 3169 
z
M 2394 1131 
Q 2394 1631 2198 1856 
Q 2003 2081 1581 2081 
Q 1169 2081 987 1867 
Q 806 1653 806 1131 
Q 806 603 990 393 
Q 1175 184 1581 184 
Q 1997 184 2195 401 
Q 2394 619 2394 1131 
z
M 2266 3169 
Q 2266 3600 2097 3803 
Q 1928 4006 1588 4006 
Q 1256 4006 1095 3809 
Q 934 3613 934 3169 
Q 934 2734 1090 2545 
Q 1247 2356 1588 2356 
Q 1938 2356 2102 2548 
Q 2266 2741 2266 3169 
z
" transform="scale(0.015625)"/>
       </defs>
       <use xlink:href="#LiberationSerif-41"/>
       <use xlink:href="#LiberationSerif-73" x="72.216797"/>
       <use xlink:href="#LiberationSerif-74" x="111.132812"/>
       <use xlink:href="#LiberationSerif-38" x="138.916016"/>
       <use xlink:href="#LiberationSerif-5f" x="188.916016"/>
       <use xlink:href="#LiberationSerif-76" x="238.916016"/>
       <use xlink:href="#LiberationSerif-61" x="288.916016"/>
       <use xlink:href="#LiberationSerif-6c" x="333.300781"/>
      </g>
     </g>
    </g>
    <g id="xtick_12">
     <g id="line2d_12">
      <g>
       <use xlink:href="#m62b0095f8c" x="327.642647" y="371.904509" style="stroke: #000000; stroke-width: 0.5"/>
      </g>
     </g>
     <g id="text_12">
      <!-- Ast3_val -->
      <g transform="translate(306.011367 402.756383) rotate(-45) scale(0.08 -0.08)">
       <use xlink:href="#LiberationSerif-41"/>
       <use xlink:href="#LiberationSerif-73" x="72.216797"/>
       <use xlink:href="#LiberationSerif-74" x="111.132812"/>
       <use xlink:href="#LiberationSerif-33" x="138.916016"/>
       <use xlink:href="#LiberationSerif-5f" x="188.916016"/>
       <use xlink:href="#LiberationSerif-76" x="238.916016"/>
       <use xlink:href="#LiberationSerif-61" x="288.916016"/>
       <use xlink:href="#LiberationSerif-6c" x="333.300781"/>
      </g>
     </g>
    </g>
    <g id="xtick_13">
     <g id="line2d_13">
      <g>
       <use xlink:href="#m62b0095f8c" x="351.627206" y="371.904509" style="stroke: #000000; stroke-width: 0.5"/>
      </g>
     </g>
     <g id="text_13">
      <!-- Ast4_val -->
      <g transform="translate(329.995926 402.756383) rotate(-45) scale(0.08 -0.08)">
       <use xlink:href="#LiberationSerif-41"/>
       <use xlink:href="#LiberationSerif-73" x="72.216797"/>
       <use xlink:href="#LiberationSerif-74" x="111.132812"/>
       <use xlink:href="#LiberationSerif-34" x="138.916016"/>
       <use xlink:href="#LiberationSerif-5f" x="188.916016"/>
       <use xlink:href="#LiberationSerif-76" x="238.916016"/>
       <use xlink:href="#LiberationSerif-61" x="288.916016"/>
       <use xlink:href="#LiberationSerif-6c" x="333.300781"/>
      </g>
     </g>
    </g>
    <g id="xtick_14">
     <g id="line2d_14">
      <g>
       <use xlink:href="#m62b0095f8c" x="375.611765" y="371.904509" style="stroke: #000000; stroke-width: 0.5"/>
      </g>
     </g>
     <g id="text_14">
      <!-- Ast18_val -->
      <g transform="translate(351.152057 405.58481) rotate(-45) scale(0.08 -0.08)">
       <use xlink:href="#LiberationSerif-41"/>
       <use xlink:href="#LiberationSerif-73" x="72.216797"/>
       <use xlink:href="#LiberationSerif-74" x="111.132812"/>
       <use xlink:href="#LiberationSerif-31" x="138.916016"/>
       <use xlink:href="#LiberationSerif-38" x="188.916016"/>
       <use xlink:href="#LiberationSerif-5f" x="238.916016"/>
       <use xlink:href="#LiberationSerif-76" x="288.916016"/>
       <use xlink:href="#LiberationSerif-61" x="338.916016"/>
       <use xlink:href="#LiberationSerif-6c" x="383.300781"/>
      </g>
     </g>
    </g>
    <g id="xtick_15">
     <g id="line2d_15">
      <g>
       <use xlink:href="#m62b0095f8c" x="399.596324" y="371.904509" style="stroke: #000000; stroke-width: 0.5"/>
      </g>
     </g>
     <g id="text_15">
      <!-- Ast12_val -->
      <g transform="translate(375.136616 405.58481) rotate(-45) scale(0.08 -0.08)">
       <defs>
        <path id="LiberationSerif-32" d="M 2847 0 
L 281 0 
L 281 459 
L 863 988 
Q 1422 1478 1684 1781 
Q 1947 2084 2061 2406 
Q 2175 2728 2175 3144 
Q 2175 3550 1990 3762 
Q 1806 3975 1388 3975 
Q 1222 3975 1047 3929 
Q 872 3884 738 3809 
L 628 3297 
L 422 3297 
L 422 4103 
Q 991 4238 1388 4238 
Q 2075 4238 2420 3952 
Q 2766 3666 2766 3144 
Q 2766 2794 2630 2483 
Q 2494 2172 2212 1864 
Q 1931 1556 1281 1003 
Q 1003 766 691 481 
L 2847 481 
L 2847 0 
z
" transform="scale(0.015625)"/>
       </defs>
       <use xlink:href="#LiberationSerif-41"/>
       <use xlink:href="#LiberationSerif-73" x="72.216797"/>
       <use xlink:href="#LiberationSerif-74" x="111.132812"/>
       <use xlink:href="#LiberationSerif-31" x="138.916016"/>
       <use xlink:href="#LiberationSerif-32" x="188.916016"/>
       <use xlink:href="#LiberationSerif-5f" x="238.916016"/>
       <use xlink:href="#LiberationSerif-76" x="288.916016"/>
       <use xlink:href="#LiberationSerif-61" x="338.916016"/>
       <use xlink:href="#LiberationSerif-6c" x="383.300781"/>
      </g>
     </g>
    </g>
    <g id="xtick_16">
     <g id="line2d_16">
      <g>
       <use xlink:href="#m62b0095f8c" x="423.580882" y="371.904509" style="stroke: #000000; stroke-width: 0.5"/>
      </g>
     </g>
     <g id="text_16">
      <!-- Ast2_val -->
      <g transform="translate(401.949602 402.756383) rotate(-45) scale(0.08 -0.08)">
       <use xlink:href="#LiberationSerif-41"/>
       <use xlink:href="#LiberationSerif-73" x="72.216797"/>
       <use xlink:href="#LiberationSerif-74" x="111.132812"/>
       <use xlink:href="#LiberationSerif-32" x="138.916016"/>
       <use xlink:href="#LiberationSerif-5f" x="188.916016"/>
       <use xlink:href="#LiberationSerif-76" x="238.916016"/>
       <use xlink:href="#LiberationSerif-61" x="288.916016"/>
       <use xlink:href="#LiberationSerif-6c" x="333.300781"/>
      </g>
     </g>
    </g>
    <g id="xtick_17">
     <g id="line2d_17">
      <g>
       <use xlink:href="#m62b0095f8c" x="447.565441" y="371.904509" style="stroke: #000000; stroke-width: 0.5"/>
      </g>
     </g>
     <g id="text_17">
      <!-- Ast17_val -->
      <g transform="translate(423.105734 405.58481) rotate(-45) scale(0.08 -0.08)">
       <use xlink:href="#LiberationSerif-41"/>
       <use xlink:href="#LiberationSerif-73" x="72.216797"/>
       <use xlink:href="#LiberationSerif-74" x="111.132812"/>
       <use xlink:href="#LiberationSerif-31" x="138.916016"/>
       <use xlink:href="#LiberationSerif-37" x="188.916016"/>
       <use xlink:href="#LiberationSerif-5f" x="238.916016"/>
       <use xlink:href="#LiberationSerif-76" x="288.916016"/>
       <use xlink:href="#LiberationSerif-61" x="338.916016"/>
       <use xlink:href="#LiberationSerif-6c" x="383.300781"/>
      </g>
     </g>
    </g>
    <g id="xtick_18">
     <g id="line2d_18">
      <g>
       <use xlink:href="#m62b0095f8c" x="471.55" y="371.904509" style="stroke: #000000; stroke-width: 0.5"/>
      </g>
     </g>
     <g id="text_18">
      <!-- Ast16_val -->
      <g transform="translate(447.090293 405.58481) rotate(-45) scale(0.08 -0.08)">
       <use xlink:href="#LiberationSerif-41"/>
       <use xlink:href="#LiberationSerif-73" x="72.216797"/>
       <use xlink:href="#LiberationSerif-74" x="111.132812"/>
       <use xlink:href="#LiberationSerif-31" x="138.916016"/>
       <use xlink:href="#LiberationSerif-36" x="188.916016"/>
       <use xlink:href="#LiberationSerif-5f" x="238.916016"/>
       <use xlink:href="#LiberationSerif-76" x="288.916016"/>
       <use xlink:href="#LiberationSerif-61" x="338.916016"/>
       <use xlink:href="#LiberationSerif-6c" x="383.300781"/>
      </g>
     </g>
    </g>
    <g id="text_19">
     <!-- Astrocyte modules (BA11) -->
     <g transform="translate(208.313047 418.422512) scale(0.11 -0.11)">
      <defs>
       <path id="LiberationSerif-72" d="M 2075 3016 
L 2075 2222 
L 1941 2222 
L 1759 2566 
Q 1603 2566 1389 2523 
Q 1175 2481 1019 2413 
L 1019 219 
L 1522 141 
L 1522 0 
L 128 0 
L 128 141 
L 500 219 
L 500 2719 
L 128 2797 
L 128 2938 
L 984 2938 
L 1013 2572 
Q 1200 2728 1520 2872 
Q 1841 3016 2028 3016 
L 2075 3016 
z
" transform="scale(0.015625)"/>
       <path id="LiberationSerif-6f" d="M 2956 1484 
Q 2956 -63 1581 -63 
Q 919 -63 581 334 
Q 244 731 244 1484 
Q 244 2228 581 2622 
Q 919 3016 1606 3016 
Q 2275 3016 2615 2630 
Q 2956 2244 2956 1484 
z
M 2394 1484 
Q 2394 2159 2197 2462 
Q 2000 2766 1581 2766 
Q 1172 2766 989 2475 
Q 806 2184 806 1484 
Q 806 775 992 479 
Q 1178 184 1581 184 
Q 1994 184 2194 490 
Q 2394 797 2394 1484 
z
" transform="scale(0.015625)"/>
       <path id="LiberationSerif-63" d="M 2644 178 
Q 2491 66 2222 1 
Q 1953 -63 1672 -63 
Q 244 -63 244 1491 
Q 244 2225 608 2620 
Q 972 3016 1650 3016 
Q 2072 3016 2572 2919 
L 2572 2100 
L 2400 2100 
L 2266 2619 
Q 2006 2766 1644 2766 
Q 806 2766 806 1491 
Q 806 828 1061 545 
Q 1316 263 1850 263 
Q 2306 263 2644 366 
L 2644 178 
z
" transform="scale(0.015625)"/>
       <path id="LiberationSerif-79" d="M 622 -1381 
Q 378 -1381 141 -1325 
L 141 -691 
L 288 -691 
L 391 -991 
Q 488 -1063 659 -1063 
Q 822 -1063 959 -969 
Q 1097 -875 1211 -690 
Q 1325 -506 1497 -31 
L 378 2719 
L 78 2797 
L 78 2938 
L 1441 2938 
L 1441 2797 
L 978 2713 
L 1772 659 
L 2541 2719 
L 2081 2797 
L 2081 2938 
L 3175 2938 
L 3175 2797 
L 2869 2731 
L 1722 -184 
Q 1519 -700 1369 -925 
Q 1219 -1150 1037 -1265 
Q 856 -1381 622 -1381 
z
" transform="scale(0.015625)"/>
       <path id="LiberationSerif-65" d="M 813 1478 
L 813 1422 
Q 813 991 908 752 
Q 1003 513 1201 388 
Q 1400 263 1722 263 
Q 1891 263 2122 291 
Q 2353 319 2503 353 
L 2503 178 
Q 2353 81 2095 9 
Q 1838 -63 1569 -63 
Q 884 -63 567 306 
Q 250 675 250 1491 
Q 250 2259 572 2637 
Q 894 3016 1491 3016 
Q 2619 3016 2619 1734 
L 2619 1478 
L 813 1478 
z
M 1491 2766 
Q 1166 2766 992 2503 
Q 819 2241 819 1728 
L 2075 1728 
Q 2075 2288 1931 2527 
Q 1788 2766 1491 2766 
z
" transform="scale(0.015625)"/>
       <path id="LiberationSerif-20" transform="scale(0.015625)"/>
       <path id="LiberationSerif-6d" d="M 1019 2700 
Q 1253 2834 1515 2925 
Q 1778 3016 1978 3016 
Q 2194 3016 2376 2934 
Q 2559 2853 2650 2675 
Q 2891 2809 3214 2912 
Q 3538 3016 3750 3016 
Q 4500 3016 4500 2150 
L 4500 219 
L 4878 141 
L 4878 0 
L 3544 0 
L 3544 141 
L 3981 219 
L 3981 2094 
Q 3981 2631 3481 2631 
Q 3400 2631 3292 2618 
Q 3184 2606 3076 2590 
Q 2969 2575 2870 2554 
Q 2772 2534 2706 2522 
Q 2759 2353 2759 2150 
L 2759 219 
L 3200 141 
L 3200 0 
L 1806 0 
L 1806 141 
L 2241 219 
L 2241 2094 
Q 2241 2353 2108 2492 
Q 1975 2631 1709 2631 
Q 1434 2631 1025 2541 
L 1025 219 
L 1466 141 
L 1466 0 
L 134 0 
L 134 141 
L 506 219 
L 506 2719 
L 134 2797 
L 134 2938 
L 994 2938 
L 1019 2700 
z
" transform="scale(0.015625)"/>
       <path id="LiberationSerif-64" d="M 2259 219 
Q 1906 -63 1434 -63 
Q 231 -63 231 1441 
Q 231 2213 572 2614 
Q 913 3016 1575 3016 
Q 1913 3016 2259 2944 
Q 2241 3047 2241 3463 
L 2241 4225 
L 1747 4300 
L 1747 4441 
L 2759 4441 
L 2759 219 
L 3122 141 
L 3122 0 
L 2297 0 
L 2259 219 
z
M 794 1441 
Q 794 847 994 555 
Q 1194 263 1606 263 
Q 1959 263 2241 384 
L 2241 2706 
Q 1963 2759 1606 2759 
Q 794 2759 794 1441 
z
" transform="scale(0.015625)"/>
       <path id="LiberationSerif-75" d="M 978 838 
Q 978 300 1478 300 
Q 1866 300 2203 397 
L 2203 2719 
L 1759 2797 
L 1759 2938 
L 2719 2938 
L 2719 219 
L 3091 141 
L 3091 0 
L 2234 0 
L 2209 238 
Q 1988 116 1697 26 
Q 1406 -63 1209 -63 
Q 459 -63 459 800 
L 459 2719 
L 84 2797 
L 84 2938 
L 978 2938 
L 978 838 
z
" transform="scale(0.015625)"/>
       <path id="LiberationSerif-28" d="M 884 1544 
Q 884 731 993 248 
Q 1103 -234 1337 -565 
Q 1572 -897 1925 -1100 
L 1925 -1363 
Q 1306 -1034 957 -645 
Q 609 -256 445 270 
Q 281 797 281 1544 
Q 281 2288 443 2811 
Q 606 3334 953 3721 
Q 1300 4109 1925 4441 
L 1925 4178 
Q 1544 3959 1319 3617 
Q 1094 3275 989 2819 
Q 884 2363 884 1544 
z
" transform="scale(0.015625)"/>
       <path id="LiberationSerif-42" d="M 2994 3175 
Q 2994 3559 2753 3734 
Q 2513 3909 1972 3909 
L 1325 3909 
L 1325 2325 
L 2009 2325 
Q 2516 2325 2755 2525 
Q 2994 2725 2994 3175 
z
M 3309 1194 
Q 3309 1634 3015 1839 
Q 2722 2044 2075 2044 
L 1325 2044 
L 1325 281 
Q 1756 263 2244 263 
Q 2778 263 3043 489 
Q 3309 716 3309 1194 
z
M 184 0 
L 184 166 
L 722 250 
L 722 3944 
L 184 4025 
L 184 4191 
L 2100 4191 
Q 2897 4191 3265 3955 
Q 3634 3719 3634 3206 
Q 3634 2838 3407 2578 
Q 3181 2319 2772 2231 
Q 3338 2172 3647 1901 
Q 3956 1631 3956 1206 
Q 3956 603 3539 292 
Q 3122 -19 2322 -19 
L 984 0 
L 184 0 
z
" transform="scale(0.015625)"/>
       <path id="LiberationSerif-29" d="M 206 -1363 
L 206 -1100 
Q 559 -897 793 -564 
Q 1028 -231 1137 251 
Q 1247 734 1247 1544 
Q 1247 2363 1142 2819 
Q 1038 3275 813 3617 
Q 588 3959 206 4178 
L 206 4441 
Q 831 4106 1178 3720 
Q 1525 3334 1687 2811 
Q 1850 2288 1850 1544 
Q 1850 800 1687 273 
Q 1525 -253 1178 -640 
Q 831 -1028 206 -1363 
z
" transform="scale(0.015625)"/>
      </defs>
      <use xlink:href="#LiberationSerif-41"/>
      <use xlink:href="#LiberationSerif-73" x="72.216797"/>
      <use xlink:href="#LiberationSerif-74" x="111.132812"/>
      <use xlink:href="#LiberationSerif-72" x="138.916016"/>
      <use xlink:href="#LiberationSerif-6f" x="172.216797"/>
      <use xlink:href="#LiberationSerif-63" x="222.216797"/>
      <use xlink:href="#LiberationSerif-79" x="266.601562"/>
      <use xlink:href="#LiberationSerif-74" x="316.601562"/>
      <use xlink:href="#LiberationSerif-65" x="344.384766"/>
      <use xlink:href="#LiberationSerif-20" x="388.769531"/>
      <use xlink:href="#LiberationSerif-6d" x="413.769531"/>
      <use xlink:href="#LiberationSerif-6f" x="491.552734"/>
      <use xlink:href="#LiberationSerif-64" x="541.552734"/>
      <use xlink:href="#LiberationSerif-75" x="591.552734"/>
      <use xlink:href="#LiberationSerif-6c" x="641.552734"/>
      <use xlink:href="#LiberationSerif-65" x="669.335938"/>
      <use xlink:href="#LiberationSerif-73" x="713.720703"/>
      <use xlink:href="#LiberationSerif-20" x="752.636719"/>
      <use xlink:href="#LiberationSerif-28" x="777.636719"/>
      <use xlink:href="#LiberationSerif-42" x="810.9375"/>
      <use xlink:href="#LiberationSerif-41" x="877.636719"/>
      <use xlink:href="#LiberationSerif-31" x="949.853516"/>
      <use xlink:href="#LiberationSerif-31" x="996.103516"/>
      <use xlink:href="#LiberationSerif-29" x="1046.103516"/>
     </g>
    </g>
   </g>
   <g id="matplotlib.axis_2">
    <g id="ytick_1">
     <g id="line2d_19">
      <defs>
       <path id="mb0a1a124dc" d="M 0 0 
L -3 0 
" style="stroke: #000000; stroke-width: 0.5"/>
      </defs>
      <g>
       <use xlink:href="#mb0a1a124dc" x="43.425625" y="371.904509" style="stroke: #000000; stroke-width: 0.5"/>
      </g>
     </g>
     <g id="text_20">
      <!-- 0.00 -->
      <g transform="translate(21.175625 375.027087) scale(0.09 -0.09)">
       <defs>
        <path id="LiberationSerif-2e" d="M 1178 288 
Q 1178 134 1070 21 
Q 963 -91 800 -91 
Q 638 -91 530 21 
Q 422 134 422 288 
Q 422 447 531 556 
Q 641 666 800 666 
Q 959 666 1068 556 
Q 1178 447 1178 288 
z
" transform="scale(0.015625)"/>
       </defs>
       <use xlink:href="#LiberationSerif-30"/>
       <use xlink:href="#LiberationSerif-2e" x="50"/>
       <use xlink:href="#LiberationSerif-30" x="75"/>
       <use xlink:href="#LiberationSerif-30" x="125"/>
      </g>
     </g>
    </g>
    <g id="ytick_2">
     <g id="line2d_20">
      <g>
       <use xlink:href="#mb0a1a124dc" x="43.425625" y="313.869698" style="stroke: #000000; stroke-width: 0.5"/>
      </g>
     </g>
     <g id="text_21">
      <!-- 0.05 -->
      <g transform="translate(21.175625 316.992276) scale(0.09 -0.09)">
       <use xlink:href="#LiberationSerif-30"/>
       <use xlink:href="#LiberationSerif-2e" x="50"/>
       <use xlink:href="#LiberationSerif-30" x="75"/>
       <use xlink:href="#LiberationSerif-35" x="125"/>
      </g>
     </g>
    </g>
    <g id="ytick_3">
     <g id="line2d_21">
      <g>
       <use xlink:href="#mb0a1a124dc" x="43.425625" y="255.834886" style="stroke: #000000; stroke-width: 0.5"/>
      </g>
     </g>
     <g id="text_22">
      <!-- 0.10 -->
      <g transform="translate(21.175625 258.957464) scale(0.09 -0.09)">
       <use xlink:href="#LiberationSerif-30"/>
       <use xlink:href="#LiberationSerif-2e" x="50"/>
       <use xlink:href="#LiberationSerif-31" x="75"/>
       <use xlink:href="#LiberationSerif-30" x="125"/>
      </g>
     </g>
    </g>
    <g id="ytick_4">
     <g id="line2d_22">
      <g>
       <use xlink:href="#mb0a1a124dc" x="43.425625" y="197.800075" style="stroke: #000000; stroke-width: 0.5"/>
      </g>
     </g>
     <g id="text_23">
      <!-- 0.15 -->
      <g transform="translate(21.175625 200.922653) scale(0.09 -0.09)">
       <use xlink:href="#LiberationSerif-30"/>
       <use xlink:href="#LiberationSerif-2e" x="50"/>
       <use xlink:href="#LiberationSerif-31" x="75"/>
       <use xlink:href="#LiberationSerif-35" x="125"/>
      </g>
     </g>
    </g>
    <g id="ytick_5">
     <g id="line2d_23">
      <g>
       <use xlink:href="#mb0a1a124dc" x="43.425625" y="139.765264" style="stroke: #000000; stroke-width: 0.5"/>
      </g>
     </g>
     <g id="text_24">
      <!-- 0.20 -->
      <g transform="translate(21.175625 142.887842) scale(0.09 -0.09)">
       <use xlink:href="#LiberationSerif-30"/>
       <use xlink:href="#LiberationSerif-2e" x="50"/>
       <use xlink:href="#LiberationSerif-32" x="75"/>
       <use xlink:href="#LiberationSerif-30" x="125"/>
      </g>
     </g>
    </g>
    <g id="ytick_6">
     <g id="line2d_24">
      <g>
       <use xlink:href="#mb0a1a124dc" x="43.425625" y="81.730452" style="stroke: #000000; stroke-width: 0.5"/>
      </g>
     </g>
     <g id="text_25">
      <!-- 0.25 -->
      <g transform="translate(21.175625 84.85303) scale(0.09 -0.09)">
       <use xlink:href="#LiberationSerif-30"/>
       <use xlink:href="#LiberationSerif-2e" x="50"/>
       <use xlink:href="#LiberationSerif-32" x="75"/>
       <use xlink:href="#LiberationSerif-35" x="125"/>
      </g>
     </g>
    </g>
    <g id="text_26">
     <!-- Jaccard Index with ACHES (BA46 Ast15) -->
     <g transform="translate(14.832969 292.442958) rotate(-90) scale(0.11 -0.11)">
      <defs>
       <path id="LiberationSerif-4a" d="M 1281 3944 
L 744 4025 
L 744 4191 
L 2356 4191 
L 2356 4025 
L 1881 3944 
L 1881 1350 
Q 1881 931 1753 617 
Q 1625 303 1364 120 
Q 1103 -63 781 -63 
Q 381 -63 134 31 
L 134 794 
L 341 794 
L 434 359 
Q 494 288 603 247 
Q 713 206 844 206 
Q 1281 206 1281 800 
L 1281 3944 
z
" transform="scale(0.015625)"/>
       <path id="LiberationSerif-49" d="M 1369 250 
L 1906 166 
L 1906 0 
L 231 0 
L 231 166 
L 769 250 
L 769 3944 
L 231 4025 
L 231 4191 
L 1906 4191 
L 1906 4025 
L 1369 3944 
L 1369 250 
z
" transform="scale(0.015625)"/>
       <path id="LiberationSerif-6e" d="M 1013 2700 
Q 1253 2838 1525 2927 
Q 1797 3016 1978 3016 
Q 2359 3016 2553 2794 
Q 2747 2572 2747 2150 
L 2747 219 
L 3103 141 
L 3103 0 
L 1838 0 
L 1838 141 
L 2228 219 
L 2228 2094 
Q 2228 2353 2101 2501 
Q 1975 2650 1709 2650 
Q 1428 2650 1019 2559 
L 1019 219 
L 1416 141 
L 1416 0 
L 147 0 
L 147 141 
L 500 219 
L 500 2719 
L 147 2797 
L 147 2938 
L 984 2938 
L 1013 2700 
z
" transform="scale(0.015625)"/>
       <path id="LiberationSerif-78" d="M 3122 141 
L 3122 0 
L 1791 0 
L 1791 141 
L 2181 213 
L 1503 1253 
L 709 206 
L 1113 141 
L 1113 0 
L 56 0 
L 56 141 
L 397 191 
L 1363 1466 
L 513 2719 
L 166 2797 
L 166 2938 
L 1497 2938 
L 1497 2797 
L 1106 2713 
L 1672 1869 
L 2322 2719 
L 1919 2797 
L 1919 2938 
L 2975 2938 
L 2975 2797 
L 2638 2731 
L 1813 1663 
L 2778 206 
L 3122 141 
z
" transform="scale(0.015625)"/>
       <path id="LiberationSerif-77" d="M 3284 -63 
L 3041 -63 
L 2316 1875 
L 1600 -63 
L 1369 -63 
L 353 2719 
L 6 2797 
L 6 2938 
L 1403 2938 
L 1403 2797 
L 916 2713 
L 1613 728 
L 2322 2644 
L 2584 2644 
L 3291 716 
L 3956 2719 
L 3475 2797 
L 3475 2938 
L 4594 2938 
L 4594 2797 
L 4269 2731 
L 3284 -63 
z
" transform="scale(0.015625)"/>
       <path id="LiberationSerif-69" d="M 1184 3897 
Q 1184 3759 1084 3659 
Q 984 3559 844 3559 
Q 706 3559 606 3659 
Q 506 3759 506 3897 
Q 506 4038 606 4138 
Q 706 4238 844 4238 
Q 984 4238 1084 4138 
Q 1184 4038 1184 3897 
z
M 1153 219 
L 1656 141 
L 1656 0 
L 134 0 
L 134 141 
L 634 219 
L 634 2719 
L 219 2797 
L 219 2938 
L 1153 2938 
L 1153 219 
z
" transform="scale(0.015625)"/>
       <path id="LiberationSerif-68" d="M 1019 3169 
Q 1019 2844 997 2700 
Q 1222 2828 1508 2922 
Q 1794 3016 1991 3016 
Q 2372 3016 2565 2794 
Q 2759 2572 2759 2150 
L 2759 219 
L 3116 141 
L 3116 0 
L 1850 0 
L 1850 141 
L 2241 219 
L 2241 2113 
Q 2241 2650 1722 2650 
Q 1428 2650 1019 2559 
L 1019 219 
L 1416 141 
L 1416 0 
L 128 0 
L 128 141 
L 500 219 
L 500 4225 
L 63 4300 
L 63 4441 
L 1019 4441 
L 1019 3169 
z
" transform="scale(0.015625)"/>
       <path id="LiberationSerif-43" d="M 2419 -63 
Q 1400 -63 831 492 
Q 263 1047 263 2047 
Q 263 3128 809 3683 
Q 1356 4238 2431 4238 
Q 3084 4238 3834 4078 
L 3853 3163 
L 3647 3163 
L 3553 3706 
Q 3334 3841 3045 3914 
Q 2756 3988 2456 3988 
Q 1653 3988 1284 3516 
Q 916 3044 916 2053 
Q 916 1141 1302 659 
Q 1688 178 2425 178 
Q 2781 178 3097 264 
Q 3413 350 3597 494 
L 3713 1119 
L 3916 1119 
L 3897 134 
Q 3209 -63 2419 -63 
z
" transform="scale(0.015625)"/>
       <path id="LiberationSerif-48" d="M 184 0 
L 184 166 
L 722 250 
L 722 3944 
L 184 4025 
L 184 4191 
L 1863 4191 
L 1863 4025 
L 1325 3944 
L 1325 2297 
L 3297 2297 
L 3297 3944 
L 2759 4025 
L 2759 4191 
L 4434 4191 
L 4434 4025 
L 3897 3944 
L 3897 250 
L 4434 166 
L 4434 0 
L 2759 0 
L 2759 166 
L 3297 250 
L 3297 2016 
L 1325 2016 
L 1325 250 
L 1863 166 
L 1863 0 
L 184 0 
z
" transform="scale(0.015625)"/>
       <path id="LiberationSerif-45" d="M 184 166 
L 722 250 
L 722 3944 
L 184 4025 
L 184 4191 
L 3328 4191 
L 3328 3188 
L 3122 3188 
L 3022 3866 
Q 2672 3909 2009 3909 
L 1325 3909 
L 1325 2272 
L 2456 2272 
L 2553 2772 
L 2753 2772 
L 2753 1484 
L 2553 1484 
L 2456 1991 
L 1325 1991 
L 1325 281 
L 2150 281 
Q 2956 281 3206 331 
L 3384 1106 
L 3591 1106 
L 3531 0 
L 184 0 
L 184 166 
z
" transform="scale(0.015625)"/>
       <path id="LiberationSerif-53" d="M 434 1128 
L 638 1128 
L 747 563 
Q 863 416 1145 303 
Q 1428 191 1703 191 
Q 2141 191 2386 414 
Q 2631 638 2631 1031 
Q 2631 1256 2536 1403 
Q 2441 1550 2286 1651 
Q 2131 1753 1934 1823 
Q 1738 1894 1530 1966 
Q 1322 2038 1125 2125 
Q 928 2213 773 2347 
Q 619 2481 523 2679 
Q 428 2878 428 3169 
Q 428 3669 803 3953 
Q 1178 4238 1844 4238 
Q 2350 4238 2944 4103 
L 2944 3231 
L 2741 3231 
L 2631 3744 
Q 2313 3975 1844 3975 
Q 1425 3975 1189 3804 
Q 953 3634 953 3334 
Q 953 3131 1048 2997 
Q 1144 2863 1298 2767 
Q 1453 2672 1651 2603 
Q 1850 2534 2058 2461 
Q 2266 2388 2464 2295 
Q 2663 2203 2817 2061 
Q 2972 1919 3067 1714 
Q 3163 1509 3163 1209 
Q 3163 603 2791 270 
Q 2419 -63 1719 -63 
Q 1381 -63 1040 -3 
Q 700 56 434 159 
L 434 1128 
z
" transform="scale(0.015625)"/>
      </defs>
      <use xlink:href="#LiberationSerif-4a"/>
      <use xlink:href="#LiberationSerif-61" x="38.916016"/>
      <use xlink:href="#LiberationSerif-63" x="83.300781"/>
      <use xlink:href="#LiberationSerif-63" x="127.685547"/>
      <use xlink:href="#LiberationSerif-61" x="172.070312"/>
      <use xlink:href="#LiberationSerif-72" x="216.455078"/>
      <use xlink:href="#LiberationSerif-64" x="249.755859"/>
      <use xlink:href="#LiberationSerif-20" x="299.755859"/>
      <use xlink:href="#LiberationSerif-49" x="324.755859"/>
      <use xlink:href="#LiberationSerif-6e" x="358.056641"/>
      <use xlink:href="#LiberationSerif-64" x="408.056641"/>
      <use xlink:href="#LiberationSerif-65" x="458.056641"/>
      <use xlink:href="#LiberationSerif-78" x="502.441406"/>
      <use xlink:href="#LiberationSerif-20" x="552.441406"/>
      <use xlink:href="#LiberationSerif-77" x="577.441406"/>
      <use xlink:href="#LiberationSerif-69" x="649.658203"/>
      <use xlink:href="#LiberationSerif-74" x="677.441406"/>
      <use xlink:href="#LiberationSerif-68" x="705.224609"/>
      <use xlink:href="#LiberationSerif-20" x="755.224609"/>
      <use xlink:href="#LiberationSerif-41" x="774.724609"/>
      <use xlink:href="#LiberationSerif-43" x="846.941406"/>
      <use xlink:href="#LiberationSerif-48" x="913.640625"/>
      <use xlink:href="#LiberationSerif-45" x="985.857422"/>
      <use xlink:href="#LiberationSerif-53" x="1046.941406"/>
      <use xlink:href="#LiberationSerif-20" x="1102.556641"/>
      <use xlink:href="#LiberationSerif-28" x="1127.556641"/>
      <use xlink:href="#LiberationSerif-42" x="1160.857422"/>
      <use xlink:href="#LiberationSerif-41" x="1227.556641"/>
      <use xlink:href="#LiberationSerif-34" x="1299.773438"/>
      <use xlink:href="#LiberationSerif-36" x="1349.773438"/>
      <use xlink:href="#LiberationSerif-20" x="1399.773438"/>
      <use xlink:href="#LiberationSerif-41" x="1419.273438"/>
      <use xlink:href="#LiberationSerif-73" x="1491.490234"/>
      <use xlink:href="#LiberationSerif-74" x="1530.40625"/>
      <use xlink:href="#LiberationSerif-31" x="1558.189453"/>
      <use xlink:href="#LiberationSerif-35" x="1608.189453"/>
      <use xlink:href="#LiberationSerif-29" x="1658.189453"/>
     </g>
    </g>
   </g>
   <g id="PathCollection_1">
    <path d="M 63.8125 154.073847 
C 65.070469 154.073847 66.277084 153.574051 67.166602 152.684533 
C 68.05612 151.795014 68.555916 150.588399 68.555916 149.330431 
C 68.555916 148.072462 68.05612 146.865847 67.166602 145.976329 
C 66.277084 145.08681 65.070469 144.587014 63.8125 144.587014 
C 62.554531 144.587014 61.347916 145.08681 60.458398 145.976329 
C 59.56888 146.865847 59.069084 148.072462 59.069084 149.330431 
C 59.069084 150.588399 59.56888 151.795014 60.458398 152.684533 
C 61.347916 153.574051 62.554531 154.073847 63.8125 154.073847 
z
" clip-path="url(#pacfb949596)" style="fill: #e07b54; stroke: #ffffff; stroke-width: 0.5"/>
    <path d="M 87.797059 217.256542 
C 89.055028 217.256542 90.261643 216.756746 91.151161 215.867228 
C 92.040679 214.977709 92.540475 213.771094 92.540475 212.513126 
C 92.540475 211.255157 92.040679 210.048542 91.151161 209.159024 
C 90.261643 208.269505 89.055028 207.769709 87.797059 207.769709 
C 86.53909 207.769709 85.332475 208.269505 84.442957 209.159024 
C 83.553439 210.048542 83.053642 211.255157 83.053642 212.513126 
C 83.053642 213.771094 83.553439 214.977709 84.442957 215.867228 
C 85.332475 216.756746 86.53909 217.256542 87.797059 217.256542 
z
" clip-path="url(#pacfb949596)" style="fill: #d94f4f; stroke: #ffffff; stroke-width: 0.5"/>
    <path d="M 111.781618 346.407621 
C 112.620263 346.407621 113.424673 346.074423 114.017686 345.481411 
C 114.610698 344.888399 114.943895 344.083989 114.943895 343.245343 
C 114.943895 342.406697 114.610698 341.602287 114.017686 341.009275 
C 113.424673 340.416263 112.620263 340.083065 111.781618 340.083065 
C 110.942972 340.083065 110.138562 340.416263 109.54555 341.009275 
C 108.952538 341.602287 108.61934 342.406697 108.61934 343.245343 
C 108.61934 344.083989 108.952538 344.888399 109.54555 345.481411 
C 110.138562 346.074423 110.942972 346.407621 111.781618 346.407621 
z
" clip-path="url(#pacfb949596)" style="fill: #b0b8c4; stroke: #ffffff; stroke-width: 0.5"/>
    <path d="M 135.766176 348.772697 
C 136.604822 348.772697 137.409232 348.4395 138.002244 347.846488 
C 138.595257 347.253476 138.928454 346.449066 138.928454 345.61042 
C 138.928454 344.771774 138.595257 343.967364 138.002244 343.374352 
C 137.409232 342.78134 136.604822 342.448142 135.766176 342.448142 
C 134.927531 342.448142 134.123121 342.78134 133.530108 343.374352 
C 132.937096 343.967364 132.603899 344.771774 132.603899 345.61042 
C 132.603899 346.449066 132.937096 347.253476 133.530108 347.846488 
C 134.123121 348.4395 134.927531 348.772697 135.766176 348.772697 
z
" clip-path="url(#pacfb949596)" style="fill: #b0b8c4; stroke: #ffffff; stroke-width: 0.5"/>
    <path d="M 159.750735 357.186999 
C 160.589381 357.186999 161.393791 356.853801 161.986803 356.260789 
C 162.579815 355.667777 162.913013 354.863367 162.913013 354.024721 
C 162.913013 353.186075 162.579815 352.381665 161.986803 351.788653 
C 161.393791 351.195641 160.589381 350.862443 159.750735 350.862443 
C 158.912089 350.862443 158.107679 351.195641 157.514667 351.788653 
C 156.921655 352.381665 156.588458 353.186075 156.588458 354.024721 
C 156.588458 354.863367 156.921655 355.667777 157.514667 356.260789 
C 158.107679 356.853801 158.912089 357.186999 159.750735 357.186999 
z
" clip-path="url(#pacfb949596)" style="fill: #b0b8c4; stroke: #ffffff; stroke-width: 0.5"/>
    <path d="M 183.735294 362.671002 
C 184.57394 362.671002 185.37835 362.337804 185.971362 361.744792 
C 186.564374 361.15178 186.897572 360.34737 186.897572 359.508724 
C 186.897572 358.670078 186.564374 357.865668 185.971362 357.272656 
C 185.37835 356.679644 184.57394 356.346446 183.735294 356.346446 
C 182.896648 356.346446 182.092238 356.679644 181.499226 357.272656 
C 180.906214 357.865668 180.573016 358.670078 180.573016 359.508724 
C 180.573016 360.34737 180.906214 361.15178 181.499226 361.744792 
C 182.092238 362.337804 182.896648 362.671002 183.735294 362.671002 
z
" clip-path="url(#pacfb949596)" style="fill: #b0b8c4; stroke: #ffffff; stroke-width: 0.5"/>
    <path d="M 207.719853 363.574745 
C 208.558499 363.574745 209.362909 363.241547 209.955921 362.648535 
C 210.548933 362.055523 210.882131 361.251113 210.882131 360.412467 
C 210.882131 359.573821 210.548933 358.769411 209.955921 358.176399 
C 209.362909 357.583387 208.558499 357.250189 207.719853 357.250189 
C 206.881207 357.250189 206.076797 357.583387 205.483785 358.176399 
C 204.890773 358.769411 204.557575 359.573821 204.557575 360.412467 
C 204.557575 361.251113 204.890773 362.055523 205.483785 362.648535 
C 206.076797 363.241547 206.881207 363.574745 207.719853 363.574745 
z
" clip-path="url(#pacfb949596)" style="fill: #b0b8c4; stroke: #ffffff; stroke-width: 0.5"/>
    <path d="M 231.704412 366.077852 
C 232.543058 366.077852 233.347468 365.744654 233.94048 365.151642 
C 234.533492 364.55863 234.866689 363.75422 234.866689 362.915574 
C 234.866689 362.076928 234.533492 361.272518 233.94048 360.679506 
C 233.347468 360.086494 232.543058 359.753296 231.704412 359.753296 
C 230.865766 359.753296 230.061356 360.086494 229.468344 360.679506 
C 228.875332 361.272518 228.542134 362.076928 228.542134 362.915574 
C 228.542134 363.75422 228.875332 364.55863 229.468344 365.151642 
C 230.061356 365.744654 230.865766 366.077852 231.704412 366.077852 
z
" clip-path="url(#pacfb949596)" style="fill: #b0b8c4; stroke: #ffffff; stroke-width: 0.5"/>
    <path d="M 255.688971 371.145516 
C 256.527616 371.145516 257.332026 370.812318 257.925039 370.219306 
C 258.518051 369.626294 258.851248 368.821884 258.851248 367.983238 
C 258.851248 367.144592 258.518051 366.340182 257.925039 365.74717 
C 257.332026 365.154158 256.527616 364.82096 255.688971 364.82096 
C 254.850325 364.82096 254.045915 365.154158 253.452903 365.74717 
C 252.85989 366.340182 252.526693 367.144592 252.526693 367.983238 
C 252.526693 368.821884 252.85989 369.626294 253.452903 370.219306 
C 254.045915 370.812318 254.850325 371.145516 255.688971 371.145516 
z
" clip-path="url(#pacfb949596)" style="fill: #b0b8c4; stroke: #ffffff; stroke-width: 0.5"/>
    <path d="M 279.673529 372.933154 
C 280.512175 372.933154 281.316585 372.599956 281.909597 372.006944 
C 282.50261 371.413932 282.835807 370.609522 282.835807 369.770876 
C 282.835807 368.93223 282.50261 368.12782 281.909597 367.534808 
C 281.316585 366.941796 280.512175 366.608599 279.673529 366.608599 
C 278.834884 366.608599 278.030474 366.941796 277.437461 367.534808 
C 276.844449 368.12782 276.511252 368.93223 276.511252 369.770876 
C 276.511252 370.609522 276.844449 371.413932 277.437461 372.006944 
C 278.030474 372.599956 278.834884 372.933154 279.673529 372.933154 
z
" clip-path="url(#pacfb949596)" style="fill: #b0b8c4; stroke: #ffffff; stroke-width: 0.5"/>
    <path d="M 303.658088 372.964076 
C 304.496734 372.964076 305.301144 372.630879 305.894156 372.037866 
C 306.487168 371.444854 306.820366 370.640444 306.820366 369.801798 
C 306.820366 368.963153 306.487168 368.158743 305.894156 367.56573 
C 305.301144 366.972718 304.496734 366.639521 303.658088 366.639521 
C 302.819442 366.639521 302.015032 366.972718 301.42202 367.56573 
C 300.829008 368.158743 300.495811 368.963153 300.495811 369.801798 
C 300.495811 370.640444 300.829008 371.444854 301.42202 372.037866 
C 302.015032 372.630879 302.819442 372.964076 303.658088 372.964076 
z
" clip-path="url(#pacfb949596)" style="fill: #b0b8c4; stroke: #ffffff; stroke-width: 0.5"/>
    <path d="M 327.642647 373.285211 
C 328.481293 373.285211 329.285703 372.952014 329.878715 372.359002 
C 330.471727 371.76599 330.804925 370.96158 330.804925 370.122934 
C 330.804925 369.284288 330.471727 368.479878 329.878715 367.886866 
C 329.285703 367.293854 328.481293 366.960656 327.642647 366.960656 
C 326.804001 366.960656 325.999591 367.293854 325.406579 367.886866 
C 324.813567 368.479878 324.480369 369.284288 324.480369 370.122934 
C 324.480369 370.96158 324.813567 371.76599 325.406579 372.359002 
C 325.999591 372.952014 326.804001 373.285211 327.642647 373.285211 
z
" clip-path="url(#pacfb949596)" style="fill: #b0b8c4; stroke: #ffffff; stroke-width: 0.5"/>
    <path d="M 351.627206 373.305487 
C 352.465852 373.305487 353.270262 372.97229 353.863274 372.379278 
C 354.456286 371.786266 354.789484 370.981856 354.789484 370.14321 
C 354.789484 369.304564 354.456286 368.500154 353.863274 367.907142 
C 353.270262 367.31413 352.465852 366.980932 351.627206 366.980932 
C 350.78856 366.980932 349.98415 367.31413 349.391138 367.907142 
C 348.798126 368.500154 348.464928 369.304564 348.464928 370.14321 
C 348.464928 370.981856 348.798126 371.786266 349.391138 372.379278 
C 349.98415 372.97229 350.78856 373.305487 351.627206 373.305487 
z
" clip-path="url(#pacfb949596)" style="fill: #b0b8c4; stroke: #ffffff; stroke-width: 0.5"/>
    <path d="M 375.611765 373.618632 
C 376.450411 373.618632 377.254821 373.285434 377.847833 372.692422 
C 378.440845 372.09941 378.774042 371.295 378.774042 370.456354 
C 378.774042 369.617708 378.440845 368.813298 377.847833 368.220286 
C 377.254821 367.627274 376.450411 367.294076 375.611765 367.294076 
C 374.773119 367.294076 373.968709 367.627274 373.375697 368.220286 
C 372.782685 368.813298 372.449487 369.617708 372.449487 370.456354 
C 372.449487 371.295 372.782685 372.09941 373.375697 372.692422 
C 373.968709 373.285434 374.773119 373.618632 375.611765 373.618632 
z
" clip-path="url(#pacfb949596)" style="fill: #b0b8c4; stroke: #ffffff; stroke-width: 0.5"/>
    <path d="M 399.596324 373.635595 
C 400.434969 373.635595 401.239379 373.302398 401.832392 372.709386 
C 402.425404 372.116373 402.758601 371.311963 402.758601 370.473318 
C 402.758601 369.634672 402.425404 368.830262 401.832392 368.23725 
C 401.239379 367.644237 400.434969 367.31104 399.596324 367.31104 
C 398.757678 367.31104 397.953268 367.644237 397.360256 368.23725 
C 396.767243 368.830262 396.434046 369.634672 396.434046 370.473318 
C 396.434046 371.311963 396.767243 372.116373 397.360256 372.709386 
C 397.953268 373.302398 398.757678 373.635595 399.596324 373.635595 
z
" clip-path="url(#pacfb949596)" style="fill: #b0b8c4; stroke: #ffffff; stroke-width: 0.5"/>
    <path d="M 423.580882 374.27666 
C 424.419528 374.27666 425.223938 373.943462 425.81695 373.35045 
C 426.409962 372.757438 426.74316 371.953028 426.74316 371.114382 
C 426.74316 370.275736 426.409962 369.471326 425.81695 368.878314 
C 425.223938 368.285302 424.419528 367.952105 423.580882 367.952105 
C 422.742237 367.952105 421.937827 368.285302 421.344814 368.878314 
C 420.751802 369.471326 420.418605 370.275736 420.418605 371.114382 
C 420.418605 371.953028 420.751802 372.757438 421.344814 373.35045 
C 421.937827 373.943462 422.742237 374.27666 423.580882 374.27666 
z
" clip-path="url(#pacfb949596)" style="fill: #b0b8c4; stroke: #ffffff; stroke-width: 0.5"/>
    <path d="M 447.565441 375.066787 
C 448.404087 375.066787 449.208497 374.733589 449.801509 374.140577 
C 450.394521 373.547565 450.727719 372.743155 450.727719 371.904509 
C 450.727719 371.065863 450.394521 370.261453 449.801509 369.668441 
C 449.208497 369.075429 448.404087 368.742231 447.565441 368.742231 
C 446.726795 368.742231 445.922385 369.075429 445.329373 369.668441 
C 444.736361 370.261453 444.403164 371.065863 444.403164 371.904509 
C 444.403164 372.743155 444.736361 373.547565 445.329373 374.140577 
C 445.922385 374.733589 446.726795 375.066787 447.565441 375.066787 
z
" clip-path="url(#pacfb949596)" style="fill: #b0b8c4; stroke: #ffffff; stroke-width: 0.5"/>
    <path d="M 471.55 375.066787 
C 472.388646 375.066787 473.193056 374.733589 473.786068 374.140577 
C 474.37908 373.547565 474.712278 372.743155 474.712278 371.904509 
C 474.712278 371.065863 474.37908 370.261453 473.786068 369.668441 
C 473.193056 369.075429 472.388646 368.742231 471.55 368.742231 
C 470.711354 368.742231 469.906944 369.075429 469.313932 369.668441 
C 468.72092 370.261453 468.387722 371.065863 468.387722 371.904509 
C 468.387722 372.743155 468.72092 373.547565 469.313932 374.140577 
C 469.906944 374.733589 470.711354 375.066787 471.55 375.066787 
z
" clip-path="url(#pacfb949596)" style="fill: #b0b8c4; stroke: #ffffff; stroke-width: 0.5"/>
   </g>
   <g id="patch_3">
    <path d="M 43.425625 371.904509 
L 43.425625 26.914687 
" style="fill: none; stroke: #000000; stroke-width: 0.6; stroke-linejoin: miter; stroke-linecap: square"/>
   </g>
   <g id="patch_4">
    <path d="M 43.425625 371.904509 
L 491.936875 371.904509 
" style="fill: none; stroke: #000000; stroke-width: 0.6; stroke-linejoin: miter; stroke-linecap: square"/>
   </g>
   <g id="text_27">
    <!-- 0.192 -->
    <g style="fill: #e07b54" transform="translate(54.8125 140.662503) scale(0.08 -0.08)">
     <defs>
      <path id="LiberationSerif-Bold-30" d="M 2956 2113 
Q 2956 -63 1581 -63 
Q 919 -63 581 493 
Q 244 1050 244 2113 
Q 244 3153 581 3704 
Q 919 4256 1606 4256 
Q 2269 4256 2612 3711 
Q 2956 3166 2956 2113 
z
M 2041 2113 
Q 2041 3088 1931 3514 
Q 1822 3941 1588 3941 
Q 1356 3941 1257 3528 
Q 1159 3116 1159 2113 
Q 1159 1094 1259 672 
Q 1359 250 1588 250 
Q 1819 250 1930 683 
Q 2041 1116 2041 2113 
z
" transform="scale(0.015625)"/>
      <path id="LiberationSerif-Bold-2e" d="M 800 -91 
Q 584 -91 432 59 
Q 281 209 281 428 
Q 281 644 431 795 
Q 581 947 800 947 
Q 1016 947 1167 797 
Q 1319 647 1319 428 
Q 1319 213 1169 61 
Q 1019 -91 800 -91 
z
" transform="scale(0.015625)"/>
      <path id="LiberationSerif-Bold-31" d="M 2141 344 
L 2869 269 
L 2869 0 
L 513 0 
L 513 269 
L 1238 344 
L 1238 3503 
L 516 3266 
L 516 3531 
L 1697 4225 
L 2141 4225 
L 2141 344 
z
" transform="scale(0.015625)"/>
      <path id="LiberationSerif-Bold-39" d="M 175 2913 
Q 175 3550 540 3894 
Q 906 4238 1556 4238 
Q 2291 4238 2630 3722 
Q 2969 3206 2969 2106 
Q 2969 1400 2770 915 
Q 2572 431 2200 184 
Q 1828 -63 1306 -63 
Q 788 -63 334 72 
L 334 1025 
L 606 1025 
L 741 419 
Q 850 341 1001 297 
Q 1153 253 1294 253 
Q 1631 253 1820 636 
Q 2009 1019 2041 1744 
Q 1716 1628 1394 1628 
Q 828 1628 501 1965 
Q 175 2303 175 2913 
z
M 1094 2900 
Q 1094 2006 1581 2006 
Q 1819 2006 2050 2063 
L 2050 2106 
Q 2050 3009 1942 3465 
Q 1834 3922 1563 3922 
Q 1094 3922 1094 2900 
z
" transform="scale(0.015625)"/>
      <path id="LiberationSerif-Bold-32" d="M 2925 0 
L 269 0 
L 269 591 
Q 538 878 766 1106 
Q 1266 1600 1497 1883 
Q 1728 2166 1836 2469 
Q 1944 2772 1944 3159 
Q 1944 3500 1778 3709 
Q 1613 3919 1338 3919 
Q 1144 3919 1028 3878 
Q 913 3838 816 3756 
L 681 3150 
L 409 3150 
L 409 4103 
Q 659 4159 898 4198 
Q 1138 4238 1419 4238 
Q 2109 4238 2476 3953 
Q 2844 3669 2844 3144 
Q 2844 2816 2734 2548 
Q 2625 2281 2389 2028 
Q 2153 1775 1450 1203 
Q 1181 984 869 706 
L 2925 706 
L 2925 0 
z
" transform="scale(0.015625)"/>
     </defs>
     <use xlink:href="#LiberationSerif-Bold-30"/>
     <use xlink:href="#LiberationSerif-Bold-2e" x="50"/>
     <use xlink:href="#LiberationSerif-Bold-31" x="75"/>
     <use xlink:href="#LiberationSerif-Bold-39" x="125"/>
     <use xlink:href="#LiberationSerif-Bold-32" x="175"/>
    </g>
   </g>
   <g id="text_28">
    <!-- *** -->
    <g style="fill: #444444" transform="translate(57.8125 112.325041) scale(0.08 -0.08)">
     <defs>
      <path id="LiberationSerif-Italic-2a" d="M 616 3328 
L 816 3775 
L 1800 3169 
L 1666 4191 
L 2153 4191 
L 2006 3169 
L 2997 3763 
L 3197 3322 
L 2159 3016 
L 3197 2713 
L 2997 2272 
L 2006 2859 
L 2153 1844 
L 1666 1844 
L 1800 2869 
L 816 2259 
L 616 2706 
L 1641 3016 
L 616 3328 
z
" transform="scale(0.015625)"/>
     </defs>
     <use xlink:href="#LiberationSerif-Italic-2a"/>
     <use xlink:href="#LiberationSerif-Italic-2a" x="50"/>
     <use xlink:href="#LiberationSerif-Italic-2a" x="100"/>
    </g>
    <!-- OR=21.0 -->
    <g style="fill: #444444" transform="translate(48.78125 120.690291) scale(0.08 -0.08)">
     <defs>
      <path id="LiberationSerif-Italic-4f" d="M 3847 2600 
Q 3847 3225 3526 3606 
Q 3206 3988 2681 3988 
Q 2216 3988 1827 3670 
Q 1438 3353 1192 2762 
Q 947 2172 947 1572 
Q 947 953 1261 578 
Q 1575 203 2094 203 
Q 2559 203 2954 517 
Q 3350 831 3598 1422 
Q 3847 2013 3847 2600 
z
M 2072 -63 
Q 1569 -63 1167 148 
Q 766 359 544 743 
Q 322 1128 322 1606 
Q 322 2359 634 2970 
Q 947 3581 1487 3909 
Q 2028 4238 2722 4238 
Q 3225 4238 3626 4027 
Q 4028 3816 4250 3433 
Q 4472 3050 4472 2569 
Q 4472 1828 4158 1206 
Q 3844 584 3305 260 
Q 2766 -63 2072 -63 
z
" transform="scale(0.015625)"/>
      <path id="LiberationSerif-Italic-52" d="M 1388 1838 
L 1106 250 
L 1666 166 
L 1634 0 
L -34 0 
L -3 166 
L 503 250 
L 1156 3944 
L 631 4025 
L 663 4191 
L 2325 4191 
Q 3009 4191 3368 3931 
Q 3728 3672 3728 3175 
Q 3728 2188 2634 1925 
L 3344 250 
L 3803 166 
L 3772 0 
L 2809 0 
L 2041 1838 
L 1388 1838 
z
M 1925 2119 
Q 2494 2119 2801 2389 
Q 3109 2659 3109 3156 
Q 3109 3909 2216 3909 
L 1753 3909 
L 1438 2119 
L 1925 2119 
z
" transform="scale(0.015625)"/>
      <path id="LiberationSerif-Italic-3d" d="M 3706 1644 
L 3706 1325 
L 728 1325 
L 728 1644 
L 3706 1644 
z
M 3706 2925 
L 3706 2606 
L 728 2606 
L 728 2925 
L 3706 2925 
z
" transform="scale(0.015625)"/>
      <path id="LiberationSerif-Italic-32" d="M 2566 0 
L 3 0 
L 84 459 
L 747 944 
Q 1434 1428 1800 1776 
Q 2166 2125 2342 2508 
Q 2519 2891 2519 3334 
Q 2519 3669 2337 3822 
Q 2156 3975 1806 3975 
Q 1634 3975 1445 3926 
Q 1256 3878 1128 3809 
L 928 3297 
L 722 3297 
L 863 4103 
Q 1459 4238 1853 4238 
Q 2434 4238 2746 4000 
Q 3059 3763 3059 3334 
Q 3059 2925 2865 2547 
Q 2672 2169 2276 1808 
Q 1881 1447 1181 956 
L 519 481 
L 2650 481 
L 2566 0 
z
" transform="scale(0.015625)"/>
      <path id="LiberationSerif-Italic-31" d="M 1669 250 
L 2513 166 
L 2481 0 
L 228 0 
L 259 166 
L 1131 250 
L 1734 3669 
L 834 3366 
L 866 3531 
L 2209 4225 
L 2372 4225 
L 1669 250 
z
" transform="scale(0.015625)"/>
      <path id="LiberationSerif-Italic-2e" d="M 1022 288 
Q 1022 134 914 21 
Q 806 -91 644 -91 
Q 481 -91 373 21 
Q 266 134 266 288 
Q 266 447 375 556 
Q 484 666 644 666 
Q 803 666 912 556 
Q 1022 447 1022 288 
z
" transform="scale(0.015625)"/>
      <path id="LiberationSerif-Italic-30" d="M 1309 -63 
Q 247 -63 247 1247 
Q 247 1981 472 2742 
Q 697 3503 1089 3879 
Q 1481 4256 2038 4256 
Q 3119 4256 3119 2972 
Q 3119 2263 2892 1480 
Q 2666 697 2273 317 
Q 1881 -63 1309 -63 
z
M 2572 3100 
Q 2572 4006 1981 4006 
Q 1713 4006 1513 3825 
Q 1313 3644 1166 3280 
Q 1019 2916 898 2284 
Q 778 1653 778 1078 
Q 778 638 926 411 
Q 1075 184 1347 184 
Q 1719 184 1969 525 
Q 2219 866 2395 1673 
Q 2572 2481 2572 3100 
z
" transform="scale(0.015625)"/>
     </defs>
     <use xlink:href="#LiberationSerif-Italic-4f"/>
     <use xlink:href="#LiberationSerif-Italic-52" x="72.216797"/>
     <use xlink:href="#LiberationSerif-Italic-3d" x="133.300781"/>
     <use xlink:href="#LiberationSerif-Italic-32" x="200.78125"/>
     <use xlink:href="#LiberationSerif-Italic-31" x="250.78125"/>
     <use xlink:href="#LiberationSerif-Italic-2e" x="300.78125"/>
     <use xlink:href="#LiberationSerif-Italic-30" x="325.78125"/>
    </g>
    <!-- p=1.9e-92 -->
    <g style="fill: #444444" transform="translate(47.005625 129.055541) scale(0.08 -0.08)">
     <defs>
      <path id="LiberationSerif-Italic-70" d="M 728 6 
L 694 -275 
L 544 -1141 
L 1044 -1216 
L 1019 -1363 
L -375 -1363 
L -350 -1216 
L 28 -1141 
L 713 2719 
L 391 2797 
L 416 2938 
L 1244 2938 
L 1184 2463 
Q 1731 3016 2169 3016 
Q 2547 3016 2776 2737 
Q 3006 2459 3006 1972 
Q 3006 1422 2772 948 
Q 2538 475 2134 206 
Q 1731 -63 1259 -63 
Q 1116 -63 961 -42 
Q 806 -22 728 6 
z
M 803 334 
Q 997 184 1328 184 
Q 1638 184 1889 412 
Q 2141 641 2294 1052 
Q 2447 1463 2447 1891 
Q 2447 2238 2308 2431 
Q 2169 2625 1934 2625 
Q 1769 2625 1544 2503 
Q 1319 2381 1144 2191 
L 803 334 
z
" transform="scale(0.015625)"/>
      <path id="LiberationSerif-Italic-39" d="M 1866 4238 
Q 2456 4238 2776 3859 
Q 3097 3481 3097 2781 
Q 3097 1984 2837 1325 
Q 2578 666 2139 301 
Q 1700 -63 1175 -63 
Q 609 -63 188 106 
L 309 797 
L 516 797 
L 550 359 
Q 656 297 820 248 
Q 984 200 1163 200 
Q 1666 200 2006 675 
Q 2347 1150 2472 1972 
Q 2216 1822 1950 1744 
Q 1684 1666 1469 1666 
Q 969 1666 681 1947 
Q 394 2228 394 2722 
Q 394 3175 572 3522 
Q 750 3869 1084 4053 
Q 1419 4238 1866 4238 
z
M 2544 2891 
Q 2544 3416 2369 3703 
Q 2194 3991 1859 3991 
Q 1434 3991 1204 3659 
Q 975 3328 975 2738 
Q 975 2344 1148 2155 
Q 1322 1966 1628 1966 
Q 2056 1966 2500 2156 
Q 2544 2513 2544 2891 
z
" transform="scale(0.015625)"/>
      <path id="LiberationSerif-Italic-65" d="M 2697 2375 
Q 2697 1950 2172 1650 
Q 1647 1350 763 1291 
L 750 1063 
Q 750 666 917 464 
Q 1084 263 1413 263 
Q 1694 263 1931 358 
Q 2169 453 2375 575 
L 2466 444 
Q 2178 200 1858 68 
Q 1538 -63 1250 -63 
Q 744 -63 470 220 
Q 197 503 197 1031 
Q 197 1553 417 2004 
Q 638 2456 1028 2736 
Q 1419 3016 1847 3016 
Q 2231 3016 2464 2839 
Q 2697 2663 2697 2375 
z
M 788 1488 
Q 1406 1534 1778 1778 
Q 2150 2022 2150 2375 
Q 2150 2550 2054 2662 
Q 1959 2775 1778 2775 
Q 1559 2775 1353 2597 
Q 1147 2419 997 2119 
Q 847 1819 788 1488 
z
" transform="scale(0.015625)"/>
      <path id="LiberationSerif-Italic-2d" d="M 238 1269 
L 238 1747 
L 1900 1747 
L 1900 1269 
L 238 1269 
z
" transform="scale(0.015625)"/>
     </defs>
     <use xlink:href="#LiberationSerif-Italic-70"/>
     <use xlink:href="#LiberationSerif-Italic-3d" x="50"/>
     <use xlink:href="#LiberationSerif-Italic-31" x="117.480469"/>
     <use xlink:href="#LiberationSerif-Italic-2e" x="167.480469"/>
     <use xlink:href="#LiberationSerif-Italic-39" x="192.480469"/>
     <use xlink:href="#LiberationSerif-Italic-65" x="242.480469"/>
     <use xlink:href="#LiberationSerif-Italic-2d" x="286.865234"/>
     <use xlink:href="#LiberationSerif-Italic-39" x="320.166016"/>
     <use xlink:href="#LiberationSerif-Italic-32" x="370.166016"/>
    </g>
   </g>
   <g id="text_29">
    <!-- 0.137 -->
    <g style="fill: #d94f4f" transform="translate(78.797059 203.845198) scale(0.08 -0.08)">
     <defs>
      <path id="LiberationSerif-Bold-33" d="M 2981 1141 
Q 2981 569 2572 253 
Q 2163 -63 1434 -63 
Q 853 -63 278 63 
L 241 1078 
L 528 1078 
L 691 406 
Q 963 253 1259 253 
Q 1638 253 1850 495 
Q 2063 738 2063 1172 
Q 2063 1550 1892 1751 
Q 1722 1953 1341 1978 
L 978 2000 
L 978 2378 
L 1328 2403 
Q 1606 2422 1739 2608 
Q 1872 2794 1872 3169 
Q 1872 3519 1714 3719 
Q 1556 3919 1266 3919 
Q 1097 3919 989 3867 
Q 881 3816 784 3756 
L 650 3150 
L 378 3150 
L 378 4103 
Q 697 4184 928 4211 
Q 1159 4238 1384 4238 
Q 2794 4238 2794 3206 
Q 2794 2781 2569 2518 
Q 2344 2256 1925 2194 
Q 2981 2066 2981 1141 
z
" transform="scale(0.015625)"/>
      <path id="LiberationSerif-Bold-37" d="M 638 2994 
L 366 2994 
L 366 4191 
L 3044 4191 
L 3044 3944 
L 1416 0 
L 669 0 
L 2434 3494 
L 781 3494 
L 638 2994 
z
" transform="scale(0.015625)"/>
     </defs>
     <use xlink:href="#LiberationSerif-Bold-30"/>
     <use xlink:href="#LiberationSerif-Bold-2e" x="50"/>
     <use xlink:href="#LiberationSerif-Bold-31" x="75"/>
     <use xlink:href="#LiberationSerif-Bold-33" x="125"/>
     <use xlink:href="#LiberationSerif-Bold-37" x="175"/>
    </g>
   </g>
   <g id="text_30">
    <!-- *** -->
    <g style="fill: #444444" transform="translate(81.797059 175.507736) scale(0.08 -0.08)">
     <use xlink:href="#LiberationSerif-Italic-2a"/>
     <use xlink:href="#LiberationSerif-Italic-2a" x="50"/>
     <use xlink:href="#LiberationSerif-Italic-2a" x="100"/>
    </g>
    <!-- OR=14.4 -->
    <g style="fill: #444444" transform="translate(72.765809 183.872986) scale(0.08 -0.08)">
     <defs>
      <path id="LiberationSerif-Italic-34" d="M 2356 963 
L 2184 0 
L 1678 0 
L 1850 963 
L 16 963 
L 78 1338 
L 2425 4213 
L 2925 4213 
L 2425 1369 
L 3056 1369 
L 2988 963 
L 2356 963 
z
M 2350 3688 
L 466 1369 
L 1919 1369 
L 2216 3059 
L 2350 3688 
z
" transform="scale(0.015625)"/>
     </defs>
     <use xlink:href="#LiberationSerif-Italic-4f"/>
     <use xlink:href="#LiberationSerif-Italic-52" x="72.216797"/>
     <use xlink:href="#LiberationSerif-Italic-3d" x="133.300781"/>
     <use xlink:href="#LiberationSerif-Italic-31" x="200.78125"/>
     <use xlink:href="#LiberationSerif-Italic-34" x="250.78125"/>
     <use xlink:href="#LiberationSerif-Italic-2e" x="300.78125"/>
     <use xlink:href="#LiberationSerif-Italic-34" x="325.78125"/>
    </g>
    <!-- p=1.6e-52 -->
    <g style="fill: #444444" transform="translate(70.990184 192.238236) scale(0.08 -0.08)">
     <defs>
      <path id="LiberationSerif-Italic-36" d="M 1491 -63 
Q 909 -63 584 321 
Q 259 706 259 1394 
Q 259 2172 514 2826 
Q 769 3481 1233 3859 
Q 1697 4238 2259 4238 
Q 2688 4238 3169 4072 
L 3041 3350 
L 2834 3350 
L 2800 3788 
Q 2522 3975 2238 3975 
Q 1750 3975 1395 3506 
Q 1041 3038 891 2206 
Q 1128 2347 1395 2428 
Q 1663 2509 1888 2509 
Q 2397 2509 2680 2256 
Q 2963 2003 2963 1559 
Q 2963 1084 2788 717 
Q 2613 350 2278 143 
Q 1944 -63 1491 -63 
z
M 813 1284 
Q 813 759 988 471 
Q 1163 184 1497 184 
Q 1919 184 2150 543 
Q 2381 903 2381 1528 
Q 2381 1869 2229 2039 
Q 2078 2209 1756 2209 
Q 1397 2209 863 2016 
Q 813 1659 813 1284 
z
" transform="scale(0.015625)"/>
      <path id="LiberationSerif-Italic-35" d="M 1531 2450 
Q 2172 2450 2501 2183 
Q 2831 1916 2831 1419 
Q 2831 706 2389 321 
Q 1947 -63 1113 -63 
Q 572 -63 100 72 
L 219 953 
L 425 953 
L 463 366 
Q 575 294 775 245 
Q 975 197 1156 197 
Q 1703 197 1981 487 
Q 2259 778 2259 1391 
Q 2259 2188 1447 2188 
Q 1109 2188 819 2113 
L 519 2113 
L 884 4191 
L 3009 4191 
L 2925 3713 
L 1081 3713 
L 847 2375 
Q 1203 2450 1531 2450 
z
" transform="scale(0.015625)"/>
     </defs>
     <use xlink:href="#LiberationSerif-Italic-70"/>
     <use xlink:href="#LiberationSerif-Italic-3d" x="50"/>
     <use xlink:href="#LiberationSerif-Italic-31" x="117.480469"/>
     <use xlink:href="#LiberationSerif-Italic-2e" x="167.480469"/>
     <use xlink:href="#LiberationSerif-Italic-36" x="192.480469"/>
     <use xlink:href="#LiberationSerif-Italic-65" x="242.480469"/>
     <use xlink:href="#LiberationSerif-Italic-2d" x="286.865234"/>
     <use xlink:href="#LiberationSerif-Italic-35" x="320.166016"/>
     <use xlink:href="#LiberationSerif-Italic-32" x="370.166016"/>
    </g>
   </g>
   <g id="text_31">
    <!-- 0.025 -->
    <g style="fill: #555555" transform="translate(102.781618 334.577416) scale(0.08 -0.08)">
     <use xlink:href="#LiberationSerif-30"/>
     <use xlink:href="#LiberationSerif-2e" x="50"/>
     <use xlink:href="#LiberationSerif-30" x="75"/>
     <use xlink:href="#LiberationSerif-32" x="125"/>
     <use xlink:href="#LiberationSerif-35" x="175"/>
    </g>
   </g>
   <g id="text_32">
    <!-- 0.023 -->
    <g style="fill: #555555" transform="translate(126.766176 336.942492) scale(0.08 -0.08)">
     <use xlink:href="#LiberationSerif-30"/>
     <use xlink:href="#LiberationSerif-2e" x="50"/>
     <use xlink:href="#LiberationSerif-30" x="75"/>
     <use xlink:href="#LiberationSerif-32" x="125"/>
     <use xlink:href="#LiberationSerif-33" x="175"/>
    </g>
   </g>
   <g id="text_33">
    <!-- 0.015 -->
    <g style="fill: #555555" transform="translate(150.750735 345.356794) scale(0.08 -0.08)">
     <use xlink:href="#LiberationSerif-30"/>
     <use xlink:href="#LiberationSerif-2e" x="50"/>
     <use xlink:href="#LiberationSerif-30" x="75"/>
     <use xlink:href="#LiberationSerif-31" x="125"/>
     <use xlink:href="#LiberationSerif-35" x="175"/>
    </g>
   </g>
   <g id="text_34">
    <!-- 0.011 -->
    <g style="fill: #555555" transform="translate(174.885294 350.840797) scale(0.08 -0.08)">
     <use xlink:href="#LiberationSerif-30"/>
     <use xlink:href="#LiberationSerif-2e" x="50"/>
     <use xlink:href="#LiberationSerif-30" x="75"/>
     <use xlink:href="#LiberationSerif-31" x="125"/>
     <use xlink:href="#LiberationSerif-31" x="171.25"/>
    </g>
   </g>
   <g id="text_35">
    <!-- 0.010 -->
    <g style="fill: #555555" transform="translate(198.719853 351.74454) scale(0.08 -0.08)">
     <use xlink:href="#LiberationSerif-30"/>
     <use xlink:href="#LiberationSerif-2e" x="50"/>
     <use xlink:href="#LiberationSerif-30" x="75"/>
     <use xlink:href="#LiberationSerif-31" x="125"/>
     <use xlink:href="#LiberationSerif-30" x="175"/>
    </g>
   </g>
   <g id="text_36">
    <!-- 0.008 -->
    <g style="fill: #555555" transform="translate(222.704412 354.247647) scale(0.08 -0.08)">
     <use xlink:href="#LiberationSerif-30"/>
     <use xlink:href="#LiberationSerif-2e" x="50"/>
     <use xlink:href="#LiberationSerif-30" x="75"/>
     <use xlink:href="#LiberationSerif-30" x="125"/>
     <use xlink:href="#LiberationSerif-38" x="175"/>
    </g>
   </g>
   <g id="text_37">
    <!-- 0.003 -->
    <g style="fill: #555555" transform="translate(246.688971 359.315311) scale(0.08 -0.08)">
     <use xlink:href="#LiberationSerif-30"/>
     <use xlink:href="#LiberationSerif-2e" x="50"/>
     <use xlink:href="#LiberationSerif-30" x="75"/>
     <use xlink:href="#LiberationSerif-30" x="125"/>
     <use xlink:href="#LiberationSerif-33" x="175"/>
    </g>
   </g>
   <g id="text_38">
    <!-- 0.002 -->
    <g style="fill: #555555" transform="translate(270.673529 361.102949) scale(0.08 -0.08)">
     <use xlink:href="#LiberationSerif-30"/>
     <use xlink:href="#LiberationSerif-2e" x="50"/>
     <use xlink:href="#LiberationSerif-30" x="75"/>
     <use xlink:href="#LiberationSerif-30" x="125"/>
     <use xlink:href="#LiberationSerif-32" x="175"/>
    </g>
   </g>
   <g id="text_39">
    <!-- 0.002 -->
    <g style="fill: #555555" transform="translate(294.658088 361.133871) scale(0.08 -0.08)">
     <use xlink:href="#LiberationSerif-30"/>
     <use xlink:href="#LiberationSerif-2e" x="50"/>
     <use xlink:href="#LiberationSerif-30" x="75"/>
     <use xlink:href="#LiberationSerif-30" x="125"/>
     <use xlink:href="#LiberationSerif-32" x="175"/>
    </g>
   </g>
   <g id="text_40">
    <!-- 0.002 -->
    <g style="fill: #555555" transform="translate(318.642647 361.455006) scale(0.08 -0.08)">
     <use xlink:href="#LiberationSerif-30"/>
     <use xlink:href="#LiberationSerif-2e" x="50"/>
     <use xlink:href="#LiberationSerif-30" x="75"/>
     <use xlink:href="#LiberationSerif-30" x="125"/>
     <use xlink:href="#LiberationSerif-32" x="175"/>
    </g>
   </g>
   <g id="text_41">
    <!-- 0.002 -->
    <g style="fill: #555555" transform="translate(342.627206 361.475282) scale(0.08 -0.08)">
     <use xlink:href="#LiberationSerif-30"/>
     <use xlink:href="#LiberationSerif-2e" x="50"/>
     <use xlink:href="#LiberationSerif-30" x="75"/>
     <use xlink:href="#LiberationSerif-30" x="125"/>
     <use xlink:href="#LiberationSerif-32" x="175"/>
    </g>
   </g>
   <g id="text_42">
    <!-- 0.001 -->
    <g style="fill: #555555" transform="translate(366.611765 361.788427) scale(0.08 -0.08)">
     <use xlink:href="#LiberationSerif-30"/>
     <use xlink:href="#LiberationSerif-2e" x="50"/>
     <use xlink:href="#LiberationSerif-30" x="75"/>
     <use xlink:href="#LiberationSerif-30" x="125"/>
     <use xlink:href="#LiberationSerif-31" x="175"/>
    </g>
   </g>
   <g id="text_43">
    <!-- 0.001 -->
    <g style="fill: #555555" transform="translate(390.596324 361.80539) scale(0.08 -0.08)">
     <use xlink:href="#LiberationSerif-30"/>
     <use xlink:href="#LiberationSerif-2e" x="50"/>
     <use xlink:href="#LiberationSerif-30" x="75"/>
     <use xlink:href="#LiberationSerif-30" x="125"/>
     <use xlink:href="#LiberationSerif-31" x="175"/>
    </g>
   </g>
   <g id="text_44">
    <!-- 0.001 -->
    <g style="fill: #555555" transform="translate(414.580882 362.446455) scale(0.08 -0.08)">
     <use xlink:href="#LiberationSerif-30"/>
     <use xlink:href="#LiberationSerif-2e" x="50"/>
     <use xlink:href="#LiberationSerif-30" x="75"/>
     <use xlink:href="#LiberationSerif-30" x="125"/>
     <use xlink:href="#LiberationSerif-31" x="175"/>
    </g>
   </g>
   <g id="text_45">
    <!-- 0.000 -->
    <g style="fill: #555555" transform="translate(438.565441 363.236582) scale(0.08 -0.08)">
     <use xlink:href="#LiberationSerif-30"/>
     <use xlink:href="#LiberationSerif-2e" x="50"/>
     <use xlink:href="#LiberationSerif-30" x="75"/>
     <use xlink:href="#LiberationSerif-30" x="125"/>
     <use xlink:href="#LiberationSerif-30" x="175"/>
    </g>
   </g>
   <g id="text_46">
    <!-- 0.000 -->
    <g style="fill: #555555" transform="translate(462.55 363.236582) scale(0.08 -0.08)">
     <use xlink:href="#LiberationSerif-30"/>
     <use xlink:href="#LiberationSerif-2e" x="50"/>
     <use xlink:href="#LiberationSerif-30" x="75"/>
     <use xlink:href="#LiberationSerif-30" x="125"/>
     <use xlink:href="#LiberationSerif-30" x="175"/>
    </g>
   </g>
   <g id="text_47">
    <!-- Module overlap odds ratio: ACHES vs. BA11 Ast modules -->
    <g transform="translate(94.796563 16.914687) scale(0.14 -0.14)">
     <defs>
      <path id="LiberationSerif-Bold-4d" d="M 2756 0 
L 2584 0 
L 1038 3541 
L 1038 313 
L 1600 228 
L 1600 0 
L 109 0 
L 109 228 
L 647 313 
L 647 3881 
L 109 3963 
L 109 4191 
L 1756 4191 
L 2953 1434 
L 4175 4191 
L 5856 4191 
L 5856 3963 
L 5319 3881 
L 5319 313 
L 5856 228 
L 5856 0 
L 3772 0 
L 3772 228 
L 4334 313 
L 4334 3541 
L 2756 0 
z
" transform="scale(0.015625)"/>
      <path id="LiberationSerif-Bold-6f" d="M 2956 1484 
Q 2956 694 2617 315 
Q 2278 -63 1581 -63 
Q 906 -63 575 320 
Q 244 703 244 1484 
Q 244 2263 580 2639 
Q 916 3016 1606 3016 
Q 2303 3016 2629 2627 
Q 2956 2238 2956 1484 
z
M 2041 1484 
Q 2041 2172 1939 2436 
Q 1838 2700 1588 2700 
Q 1347 2700 1253 2447 
Q 1159 2194 1159 1484 
Q 1159 763 1254 506 
Q 1350 250 1588 250 
Q 1834 250 1937 520 
Q 2041 791 2041 1484 
z
" transform="scale(0.015625)"/>
      <path id="LiberationSerif-Bold-64" d="M 2291 166 
Q 2116 53 2022 17 
Q 1928 -19 1809 -41 
Q 1691 -63 1547 -63 
Q 897 -63 578 310 
Q 259 684 259 1459 
Q 259 2222 601 2619 
Q 944 3016 1594 3016 
Q 1934 3016 2281 2931 
Q 2263 3034 2263 3416 
L 2263 4159 
L 1963 4234 
L 1963 4441 
L 3166 4441 
L 3166 281 
L 3488 206 
L 3488 0 
L 2356 0 
L 2291 166 
z
M 1175 1484 
Q 1175 900 1322 592 
Q 1469 284 1744 284 
Q 1994 284 2263 419 
L 2263 2631 
Q 2019 2697 1769 2697 
Q 1488 2697 1331 2389 
Q 1175 2081 1175 1484 
z
" transform="scale(0.015625)"/>
      <path id="LiberationSerif-Bold-75" d="M 2203 256 
L 1991 147 
Q 1553 -78 1203 -78 
Q 391 -78 391 788 
L 391 2656 
L 97 2731 
L 97 2938 
L 1294 2938 
L 1294 909 
Q 1294 647 1405 500 
Q 1516 353 1722 353 
Q 1959 353 2197 459 
L 2197 2656 
L 1928 2731 
L 1928 2938 
L 3100 2938 
L 3100 281 
L 3388 206 
L 3388 0 
L 2247 0 
L 2203 256 
z
" transform="scale(0.015625)"/>
      <path id="LiberationSerif-Bold-6c" d="M 1347 281 
L 1669 206 
L 1669 0 
L 125 0 
L 125 206 
L 444 281 
L 444 4159 
L 144 4234 
L 144 4441 
L 1347 4441 
L 1347 281 
z
" transform="scale(0.015625)"/>
      <path id="LiberationSerif-Bold-65" d="M 1544 3009 
Q 2141 3009 2408 2690 
Q 2675 2372 2675 1700 
L 2675 1444 
L 1134 1444 
L 1134 1394 
Q 1134 928 1209 731 
Q 1284 534 1453 431 
Q 1622 328 1916 328 
Q 2191 328 2609 419 
L 2609 178 
Q 2438 75 2164 8 
Q 1891 -59 1631 -59 
Q 909 -59 564 317 
Q 219 694 219 1484 
Q 219 2253 548 2631 
Q 878 3009 1544 3009 
z
M 1509 2694 
Q 1322 2694 1230 2491 
Q 1138 2288 1138 1772 
L 1819 1772 
Q 1819 2191 1791 2361 
Q 1763 2531 1695 2612 
Q 1628 2694 1509 2694 
z
" transform="scale(0.015625)"/>
      <path id="LiberationSerif-Bold-20" transform="scale(0.015625)"/>
      <path id="LiberationSerif-Bold-76" d="M 1813 -63 
L 1434 -63 
L 206 2656 
L 0 2731 
L 0 2938 
L 1503 2938 
L 1503 2731 
L 1153 2650 
L 1906 975 
L 2584 2656 
L 2241 2731 
L 2241 2938 
L 3200 2938 
L 3200 2731 
L 2988 2669 
L 1813 -63 
z
" transform="scale(0.015625)"/>
      <path id="LiberationSerif-Bold-72" d="M 1441 2328 
Q 1778 2703 2045 2867 
Q 2313 3031 2534 3031 
L 2703 3031 
L 2703 1959 
L 2528 1959 
L 2344 2353 
Q 2147 2353 1897 2267 
Q 1647 2181 1456 2066 
L 1456 281 
L 1928 206 
L 1928 0 
L 172 0 
L 172 206 
L 553 281 
L 553 2656 
L 172 2731 
L 172 2938 
L 1406 2938 
L 1441 2328 
z
" transform="scale(0.015625)"/>
      <path id="LiberationSerif-Bold-61" d="M 1706 3003 
Q 2809 3003 2809 2191 
L 2809 281 
L 3103 206 
L 3103 0 
L 2022 0 
L 1953 225 
Q 1709 59 1512 -2 
Q 1316 -63 1116 -63 
Q 206 -63 206 813 
Q 206 1144 340 1342 
Q 475 1541 728 1636 
Q 981 1731 1525 1744 
L 1906 1753 
L 1906 2181 
Q 1906 2713 1472 2713 
Q 1209 2713 884 2550 
L 766 2184 
L 559 2184 
L 559 2894 
Q 1031 2966 1253 2984 
Q 1475 3003 1706 3003 
z
M 1906 1475 
L 1644 1466 
Q 1341 1453 1223 1306 
Q 1106 1159 1106 831 
Q 1106 566 1200 441 
Q 1294 316 1444 316 
Q 1656 316 1906 425 
L 1906 1475 
z
" transform="scale(0.015625)"/>
      <path id="LiberationSerif-Bold-70" d="M 1278 2788 
Q 1613 3016 2091 3016 
Q 2703 3016 3001 2656 
Q 3300 2297 3300 1522 
Q 3300 753 2953 345 
Q 2606 -63 1956 -63 
Q 1625 -63 1288 22 
Q 1306 -184 1306 -441 
L 1306 -1081 
L 1738 -1156 
L 1738 -1363 
L 84 -1363 
L 84 -1156 
L 403 -1081 
L 403 2656 
L 81 2731 
L 81 2938 
L 1272 2938 
L 1278 2788 
z
M 2384 1500 
Q 2384 2669 1841 2669 
Q 1550 2669 1306 2550 
L 1306 334 
Q 1559 269 1834 269 
Q 2384 269 2384 1500 
z
" transform="scale(0.015625)"/>
      <path id="LiberationSerif-Bold-73" d="M 2334 931 
Q 2334 441 2032 189 
Q 1731 -63 1156 -63 
Q 919 -63 633 -11 
Q 347 41 200 97 
L 200 897 
L 406 897 
L 525 484 
Q 634 375 812 301 
Q 991 228 1175 228 
Q 1447 228 1580 345 
Q 1713 463 1713 644 
Q 1713 816 1584 919 
Q 1456 1022 1025 1156 
Q 572 1297 383 1540 
Q 194 1784 194 2141 
Q 194 2541 491 2778 
Q 788 3016 1256 3016 
Q 1578 3016 2122 2925 
L 2122 2172 
L 1916 2172 
L 1816 2516 
Q 1725 2606 1561 2664 
Q 1397 2722 1250 2722 
Q 1025 2722 917 2630 
Q 809 2538 809 2378 
Q 809 2213 943 2106 
Q 1078 2000 1497 1875 
Q 1953 1734 2143 1504 
Q 2334 1275 2334 931 
z
" transform="scale(0.015625)"/>
      <path id="LiberationSerif-Bold-74" d="M 1369 -63 
Q 947 -63 717 128 
Q 488 319 488 678 
L 488 2613 
L 103 2613 
L 103 2816 
L 556 2938 
L 922 3603 
L 1391 3603 
L 1391 2938 
L 2009 2938 
L 2009 2613 
L 1391 2613 
L 1391 734 
Q 1391 531 1475 428 
Q 1559 325 1697 325 
Q 1863 325 2103 375 
L 2103 109 
Q 2009 44 1782 -9 
Q 1556 -63 1369 -63 
z
" transform="scale(0.015625)"/>
      <path id="LiberationSerif-Bold-69" d="M 1363 281 
L 1684 206 
L 1684 0 
L 141 0 
L 141 206 
L 459 281 
L 459 2656 
L 159 2731 
L 159 2938 
L 1363 2938 
L 1363 281 
z
M 428 3963 
Q 428 4166 570 4303 
Q 713 4441 909 4441 
Q 1109 4441 1248 4302 
Q 1388 4163 1388 3963 
Q 1388 3766 1250 3623 
Q 1113 3481 909 3481 
Q 709 3481 568 3620 
Q 428 3759 428 3963 
z
" transform="scale(0.015625)"/>
      <path id="LiberationSerif-Bold-3a" d="M 1041 -91 
Q 822 -91 673 59 
Q 525 209 525 428 
Q 525 647 673 797 
Q 822 947 1041 947 
Q 1256 947 1407 797 
Q 1559 647 1559 428 
Q 1559 213 1409 61 
Q 1259 -91 1041 -91 
z
M 1041 1963 
Q 822 1963 673 2113 
Q 525 2263 525 2481 
Q 525 2700 670 2850 
Q 816 3000 1041 3000 
Q 1263 3000 1411 2848 
Q 1559 2697 1559 2481 
Q 1559 2266 1409 2114 
Q 1259 1963 1041 1963 
z
" transform="scale(0.015625)"/>
      <path id="LiberationSerif-Bold-41" d="M 1338 228 
L 1338 0 
L 63 0 
L 63 228 
L 375 313 
L 1866 4225 
L 2772 4225 
L 4256 313 
L 4575 228 
L 4575 0 
L 2709 0 
L 2709 228 
L 3194 313 
L 2794 1397 
L 1184 1397 
L 800 313 
L 1338 228 
z
M 2003 3594 
L 1313 1741 
L 2675 1741 
L 2003 3594 
z
" transform="scale(0.015625)"/>
      <path id="LiberationSerif-Bold-43" d="M 2547 -63 
Q 1494 -63 903 496 
Q 313 1056 313 2047 
Q 313 3122 877 3680 
Q 1441 4238 2544 4238 
Q 3272 4238 4053 4028 
L 4072 3022 
L 3791 3022 
L 3703 3628 
Q 3291 3909 2744 3909 
Q 2019 3909 1684 3457 
Q 1350 3006 1350 2056 
Q 1350 1178 1700 718 
Q 2050 259 2719 259 
Q 3072 259 3336 353 
Q 3600 447 3750 575 
L 3850 1263 
L 4134 1263 
L 4116 200 
Q 3834 91 3384 14 
Q 2934 -63 2547 -63 
z
" transform="scale(0.015625)"/>
      <path id="LiberationSerif-Bold-48" d="M 109 0 
L 109 231 
L 647 313 
L 647 3878 
L 109 3963 
L 109 4191 
L 2169 4191 
L 2169 3963 
L 1631 3878 
L 1631 2328 
L 3344 2328 
L 3344 3878 
L 2806 3963 
L 2806 4191 
L 4872 4191 
L 4872 3963 
L 4331 3878 
L 4331 313 
L 4872 231 
L 4872 0 
L 2806 0 
L 2806 231 
L 3344 313 
L 3344 1984 
L 1631 1984 
L 1631 313 
L 2169 231 
L 2169 0 
L 109 0 
z
" transform="scale(0.015625)"/>
      <path id="LiberationSerif-Bold-45" d="M 109 228 
L 647 313 
L 647 3881 
L 109 3963 
L 109 4191 
L 3678 4191 
L 3678 3125 
L 3394 3125 
L 3294 3803 
Q 2944 3847 2281 3847 
L 1631 3847 
L 1631 2309 
L 2728 2309 
L 2825 2772 
L 3103 2772 
L 3103 1484 
L 2825 1484 
L 2728 1959 
L 1631 1959 
L 1631 344 
L 2422 344 
Q 3228 344 3478 394 
L 3656 1169 
L 3941 1169 
L 3881 0 
L 109 0 
L 109 228 
z
" transform="scale(0.015625)"/>
      <path id="LiberationSerif-Bold-53" d="M 341 1284 
L 616 1284 
L 756 613 
Q 888 459 1153 356 
Q 1419 253 1703 253 
Q 2600 253 2600 991 
Q 2600 1222 2429 1381 
Q 2259 1541 1894 1666 
Q 1356 1844 1120 1955 
Q 884 2066 721 2216 
Q 559 2366 462 2580 
Q 366 2794 366 3106 
Q 366 3659 742 3948 
Q 1119 4238 1844 4238 
Q 2369 4238 3006 4103 
L 3006 3106 
L 2728 3106 
L 2588 3681 
Q 2269 3913 1844 3913 
Q 1459 3913 1253 3770 
Q 1047 3628 1047 3334 
Q 1047 3125 1219 2976 
Q 1391 2828 1756 2713 
Q 2472 2478 2739 2304 
Q 3006 2131 3147 1875 
Q 3288 1619 3288 1272 
Q 3288 -63 1716 -63 
Q 1356 -63 982 -2 
Q 609 59 341 159 
L 341 1284 
z
" transform="scale(0.015625)"/>
      <path id="LiberationSerif-Bold-42" d="M 2744 3156 
Q 2744 3522 2586 3684 
Q 2428 3847 2066 3847 
L 1631 3847 
L 1631 2388 
L 2091 2388 
Q 2425 2388 2584 2563 
Q 2744 2738 2744 3156 
z
M 3059 1222 
Q 3059 1638 2851 1841 
Q 2644 2044 2172 2044 
L 1631 2044 
L 1631 344 
Q 2081 325 2341 325 
Q 2706 325 2882 547 
Q 3059 769 3059 1222 
z
M 106 0 
L 106 228 
L 647 313 
L 647 3881 
L 106 3963 
L 106 4191 
L 2141 4191 
Q 2975 4191 3372 3967 
Q 3769 3744 3769 3244 
Q 3769 2869 3534 2597 
Q 3300 2325 2906 2241 
Q 3491 2181 3791 1923 
Q 4091 1666 4091 1222 
Q 4091 613 3641 297 
Q 3191 -19 2350 -19 
L 925 0 
L 106 0 
z
" transform="scale(0.015625)"/>
      <path id="LiberationSerif-Bold-6d" d="M 1356 2681 
L 1569 2791 
Q 2006 3016 2353 3016 
Q 2878 3016 3053 2634 
Q 3694 3016 4134 3016 
Q 4928 3016 4928 2150 
L 4928 281 
L 5222 206 
L 5222 0 
L 3763 0 
L 3763 206 
L 4025 281 
L 4025 2028 
Q 4025 2291 3923 2437 
Q 3822 2584 3616 2584 
Q 3384 2584 3116 2453 
Q 3147 2322 3147 2150 
L 3147 281 
L 3441 206 
L 3441 0 
L 1981 0 
L 1981 206 
L 2244 281 
L 2244 2028 
Q 2244 2291 2142 2437 
Q 2041 2584 1834 2584 
Q 1628 2584 1363 2463 
L 1363 281 
L 1631 206 
L 1631 0 
L 172 0 
L 172 206 
L 459 281 
L 459 2656 
L 172 2731 
L 172 2938 
L 1313 2938 
L 1356 2681 
z
" transform="scale(0.015625)"/>
     </defs>
     <use xlink:href="#LiberationSerif-Bold-4d"/>
     <use xlink:href="#LiberationSerif-Bold-6f" x="94.384766"/>
     <use xlink:href="#LiberationSerif-Bold-64" x="144.384766"/>
     <use xlink:href="#LiberationSerif-Bold-75" x="200"/>
     <use xlink:href="#LiberationSerif-Bold-6c" x="255.615234"/>
     <use xlink:href="#LiberationSerif-Bold-65" x="283.398438"/>
     <use xlink:href="#LiberationSerif-Bold-20" x="327.783203"/>
     <use xlink:href="#LiberationSerif-Bold-6f" x="352.783203"/>
     <use xlink:href="#LiberationSerif-Bold-76" x="402.783203"/>
     <use xlink:href="#LiberationSerif-Bold-65" x="452.783203"/>
     <use xlink:href="#LiberationSerif-Bold-72" x="497.167969"/>
     <use xlink:href="#LiberationSerif-Bold-6c" x="541.552734"/>
     <use xlink:href="#LiberationSerif-Bold-61" x="569.335938"/>
     <use xlink:href="#LiberationSerif-Bold-70" x="619.335938"/>
     <use xlink:href="#LiberationSerif-Bold-20" x="674.951172"/>
     <use xlink:href="#LiberationSerif-Bold-6f" x="699.951172"/>
     <use xlink:href="#LiberationSerif-Bold-64" x="749.951172"/>
     <use xlink:href="#LiberationSerif-Bold-64" x="805.566406"/>
     <use xlink:href="#LiberationSerif-Bold-73" x="861.181641"/>
     <use xlink:href="#LiberationSerif-Bold-20" x="900.097656"/>
     <use xlink:href="#LiberationSerif-Bold-72" x="925.097656"/>
     <use xlink:href="#LiberationSerif-Bold-61" x="969.482422"/>
     <use xlink:href="#LiberationSerif-Bold-74" x="1019.482422"/>
     <use xlink:href="#LiberationSerif-Bold-69" x="1052.783203"/>
     <use xlink:href="#LiberationSerif-Bold-6f" x="1080.566406"/>
     <use xlink:href="#LiberationSerif-Bold-3a" x="1130.566406"/>
     <use xlink:href="#LiberationSerif-Bold-20" x="1163.867188"/>
     <use xlink:href="#LiberationSerif-Bold-41" x="1183.367188"/>
     <use xlink:href="#LiberationSerif-Bold-43" x="1255.583984"/>
     <use xlink:href="#LiberationSerif-Bold-48" x="1327.800781"/>
     <use xlink:href="#LiberationSerif-Bold-45" x="1405.583984"/>
     <use xlink:href="#LiberationSerif-Bold-53" x="1472.283203"/>
     <use xlink:href="#LiberationSerif-Bold-20" x="1527.898438"/>
     <use xlink:href="#LiberationSerif-Bold-76" x="1552.898438"/>
     <use xlink:href="#LiberationSerif-Bold-73" x="1602.898438"/>
     <use xlink:href="#LiberationSerif-Bold-2e" x="1641.814453"/>
     <use xlink:href="#LiberationSerif-Bold-20" x="1666.814453"/>
     <use xlink:href="#LiberationSerif-Bold-42" x="1691.814453"/>
     <use xlink:href="#LiberationSerif-Bold-41" x="1758.513672"/>
     <use xlink:href="#LiberationSerif-Bold-31" x="1830.730469"/>
     <use xlink:href="#LiberationSerif-Bold-31" x="1875.230469"/>
     <use xlink:href="#LiberationSerif-Bold-20" x="1925.230469"/>
     <use xlink:href="#LiberationSerif-Bold-41" x="1944.730469"/>
     <use xlink:href="#LiberationSerif-Bold-73" x="2016.947266"/>
     <use xlink:href="#LiberationSerif-Bold-74" x="2055.863281"/>
     <use xlink:href="#LiberationSerif-Bold-20" x="2089.164062"/>
     <use xlink:href="#LiberationSerif-Bold-6d" x="2114.164062"/>
     <use xlink:href="#LiberationSerif-Bold-6f" x="2197.464844"/>
     <use xlink:href="#LiberationSerif-Bold-64" x="2247.464844"/>
     <use xlink:href="#LiberationSerif-Bold-75" x="2303.080078"/>
     <use xlink:href="#LiberationSerif-Bold-6c" x="2358.695312"/>
     <use xlink:href="#LiberationSerif-Bold-65" x="2386.478516"/>
     <use xlink:href="#LiberationSerif-Bold-73" x="2430.863281"/>
    </g>
   </g>
   <g id="legend_1">
    <g id="line2d_25">
     <path d="M 403.308125 36.914687 
L 411.308125 36.914687 
L 419.308125 36.914687 
" style="fill: none; stroke: #ffffff; stroke-width: 1.5; stroke-linecap: square"/>
     <defs>
      <path id="mce1b013f43" d="M 0 5 
C 1.326016 5 2.597899 4.473168 3.535534 3.535534 
C 4.473168 2.597899 5 1.326016 5 0 
C 5 -1.326016 4.473168 -2.597899 3.535534 -3.535534 
C 2.597899 -4.473168 1.326016 -5 0 -5 
C -1.326016 -5 -2.597899 -4.473168 -3.535534 -3.535534 
C -4.473168 -2.597899 -5 -1.326016 -5 0 
C -5 1.326016 -4.473168 2.597899 -3.535534 3.535534 
C -2.597899 4.473168 -1.326016 5 0 5 
z
" style="stroke: #ffffff"/>
     </defs>
     <g>
      <use xlink:href="#mce1b013f43" x="411.308125" y="36.914687" style="fill: #d94f4f; stroke: #ffffff"/>
     </g>
    </g>
    <g id="text_48">
     <!-- Ast13_val (BA11) -->
     <g transform="translate(425.708125 39.714687) scale(0.08 -0.08)">
      <use xlink:href="#LiberationSerif-41"/>
      <use xlink:href="#LiberationSerif-73" x="72.216797"/>
      <use xlink:href="#LiberationSerif-74" x="111.132812"/>
      <use xlink:href="#LiberationSerif-31" x="138.916016"/>
      <use xlink:href="#LiberationSerif-33" x="188.916016"/>
      <use xlink:href="#LiberationSerif-5f" x="238.916016"/>
      <use xlink:href="#LiberationSerif-76" x="288.916016"/>
      <use xlink:href="#LiberationSerif-61" x="338.916016"/>
      <use xlink:href="#LiberationSerif-6c" x="383.300781"/>
      <use xlink:href="#LiberationSerif-20" x="411.083984"/>
      <use xlink:href="#LiberationSerif-28" x="436.083984"/>
      <use xlink:href="#LiberationSerif-42" x="469.384766"/>
      <use xlink:href="#LiberationSerif-41" x="536.083984"/>
      <use xlink:href="#LiberationSerif-31" x="608.300781"/>
      <use xlink:href="#LiberationSerif-31" x="654.550781"/>
      <use xlink:href="#LiberationSerif-29" x="704.550781"/>
     </g>
    </g>
    <g id="line2d_26">
     <path d="M 403.308125 48.218437 
L 411.308125 48.218437 
L 419.308125 48.218437 
" style="fill: none; stroke: #ffffff; stroke-width: 1.5; stroke-linecap: square"/>
     <defs>
      <path id="mcb9b5baee6" d="M 0 5 
C 1.326016 5 2.597899 4.473168 3.535534 3.535534 
C 4.473168 2.597899 5 1.326016 5 0 
C 5 -1.326016 4.473168 -2.597899 3.535534 -3.535534 
C 2.597899 -4.473168 1.326016 -5 0 -5 
C -1.326016 -5 -2.597899 -4.473168 -3.535534 -3.535534 
C -4.473168 -2.597899 -5 -1.326016 -5 0 
C -5 1.326016 -4.473168 2.597899 -3.535534 3.535534 
C -2.597899 4.473168 -1.326016 5 0 5 
z
" style="stroke: #ffffff"/>
     </defs>
     <g>
      <use xlink:href="#mcb9b5baee6" x="411.308125" y="48.218437" style="fill: #e07b54; stroke: #ffffff"/>
     </g>
    </g>
    <g id="text_49">
     <!-- Ast7_val (BA11) -->
     <g transform="translate(425.708125 51.018437) scale(0.08 -0.08)">
      <use xlink:href="#LiberationSerif-41"/>
      <use xlink:href="#LiberationSerif-73" x="72.216797"/>
      <use xlink:href="#LiberationSerif-74" x="111.132812"/>
      <use xlink:href="#LiberationSerif-37" x="138.916016"/>
      <use xlink:href="#LiberationSerif-5f" x="188.916016"/>
      <use xlink:href="#LiberationSerif-76" x="238.916016"/>
      <use xlink:href="#LiberationSerif-61" x="288.916016"/>
      <use xlink:href="#LiberationSerif-6c" x="333.300781"/>
      <use xlink:href="#LiberationSerif-20" x="361.083984"/>
      <use xlink:href="#LiberationSerif-28" x="386.083984"/>
      <use xlink:href="#LiberationSerif-42" x="419.384766"/>
      <use xlink:href="#LiberationSerif-41" x="486.083984"/>
      <use xlink:href="#LiberationSerif-31" x="558.300781"/>
      <use xlink:href="#LiberationSerif-31" x="604.550781"/>
      <use xlink:href="#LiberationSerif-29" x="654.550781"/>
     </g>
    </g>
    <g id="line2d_27">
     <path d="M 403.308125 59.522187 
L 411.308125 59.522187 
L 419.308125 59.522187 
" style="fill: none; stroke: #ffffff; stroke-width: 1.5; stroke-linecap: square"/>
     <defs>
      <path id="m208195fe5d" d="M 0 3.5 
C 0.928211 3.5 1.81853 3.131218 2.474874 2.474874 
C 3.131218 1.81853 3.5 0.928211 3.5 0 
C 3.5 -0.928211 3.131218 -1.81853 2.474874 -2.474874 
C 1.81853 -3.131218 0.928211 -3.5 0 -3.5 
C -0.928211 -3.5 -1.81853 -3.131218 -2.474874 -2.474874 
C -3.131218 -1.81853 -3.5 -0.928211 -3.5 0 
C -3.5 0.928211 -3.131218 1.81853 -2.474874 2.474874 
C -1.81853 3.131218 -0.928211 3.5 0 3.5 
z
" style="stroke: #ffffff"/>
     </defs>
     <g>
      <use xlink:href="#m208195fe5d" x="411.308125" y="59.522187" style="fill: #b0b8c4; stroke: #ffffff"/>
     </g>
    </g>
    <g id="text_50">
     <!-- Other -->
     <g transform="translate(425.708125 62.322187) scale(0.08 -0.08)">
      <defs>
       <path id="LiberationSerif-4f" d="M 916 2100 
Q 916 1091 1253 637 
Q 1591 184 2309 184 
Q 3025 184 3365 637 
Q 3706 1091 3706 2100 
Q 3706 3103 3367 3545 
Q 3028 3988 2309 3988 
Q 1588 3988 1252 3545 
Q 916 3103 916 2100 
z
M 263 2100 
Q 263 4238 2309 4238 
Q 3322 4238 3840 3695 
Q 4359 3153 4359 2100 
Q 4359 1031 3834 484 
Q 3309 -63 2309 -63 
Q 1313 -63 788 482 
Q 263 1028 263 2100 
z
" transform="scale(0.015625)"/>
      </defs>
      <use xlink:href="#LiberationSerif-4f"/>
      <use xlink:href="#LiberationSerif-74" x="72.216797"/>
      <use xlink:href="#LiberationSerif-68" x="100"/>
      <use xlink:href="#LiberationSerif-65" x="150"/>
      <use xlink:href="#LiberationSerif-72" x="194.384766"/>
     </g>
    </g>
   </g>
  </g>
 </g>
 <defs>
  <clipPath id="pacfb949596">
   <rect x="43.425625" y="26.914687" width="448.51125" height="344.989821"/>
  </clipPath>
 </defs>
</svg>
